<svg version="1.1" id="Frame_201" xmlns="http://www.w3.org/2000/svg" xmlns:xlink="http://www.w3.org/1999/xlink" width="480px" height="720px">
<g id="main_bone">
<path fill="#000000" fill-rule="evenodd" stroke="none" d="M180.322,270.293C181.953,267.744,185.155,262.478,189.043,261.306C195.587,259.332,200.588,265.546,200.940,270.127C201.863,278.151,195.242,288.373,192.032,295.957C184.172,314.213,175.783,332.243,170.368,350.821C169.674,354.078,164.448,375.190,164.511,372.541C164.023,379.158,170.522,384.943,172.728,390.621C175.548,398.277,172.633,405.444,170.686,412.392C166.208,426.718,166.605,432.015,166.820,446.008C166.957,448.225,167.333,455.444,163.861,455.831C160.448,456.211,159.460,450.064,158.566,447.728C157.999,445.094,155.211,439.586,155.751,437.214C155.861,433.242,160.424,434.187,155.370,425.999C148.916,415.761,137.600,407.123,134.853,393.756C133.061,383.111,138.802,373.901,142.158,364.074C149.300,342.959,157.208,321.870,166.348,301.207C171.316,290.495,173.768,281.098,180.322,270.293M200.909,263.845C201.706,255.339,199.295,247.676,188.493,250.309C171.100,254.484,163.307,280.306,157.345,294.763C148.978,314.290,141.970,334.061,135.438,353.964C132.762,362.490,129.494,366.772,128.053,371.719C126.267,377.316,126.389,385.945,126.614,391.586C126.277,409.239,131.600,410.198,138.786,423.758C142.598,431.775,138.884,436.909,141.607,443.835C143.600,448.600,147.618,451.858,150.761,455.760C153.549,459.679,154.288,461.965,156.397,465.576C158.951,469.891,166.530,479.584,172.192,476.792C176.430,474.683,175.448,466.783,175.376,462.948C175.108,457.190,176.546,434.868,177.559,428.108C179.405,416.899,185.441,404.931,183.971,392.801C182.777,383.526,174.672,376.731,175.260,366.826C175.725,361.549,179.217,353.046,180.485,347.151C182.567,337.733,183.185,327.574,185.987,317.945C190.772,300.812,199.875,281.968,200.909,263.845Z"/>
<path fill="none" stroke="#a60d3f" stroke-width="1" stroke-linecap="butt" stroke-linejoin="round" d="M189.043,261.306C195.587,259.332,200.588,265.546,200.940,270.127"/>
<path fill="none" stroke="#a60d3f" stroke-width="1" stroke-linecap="butt" stroke-linejoin="round" d="M200.940,270.127C201.863,278.151,195.242,288.373,192.032,295.957"/>
<path fill="none" stroke="#a60d3f" stroke-width="1" stroke-linecap="butt" stroke-linejoin="round" d="M192.032,295.957C184.172,314.213,175.783,332.243,170.368,350.821"/>
<path fill="none" stroke="#a60d3f" stroke-width="1" stroke-linecap="butt" stroke-linejoin="round" d="M170.368,350.821C169.674,354.078,164.448,375.190,164.511,372.541"/>
<path fill="none" stroke="#a60d3f" stroke-width="1" stroke-linecap="butt" stroke-linejoin="round" d="M164.511,372.541C164.023,379.158,170.522,384.943,172.728,390.621"/>
<path fill="none" stroke="#a60d3f" stroke-width="1" stroke-linecap="butt" stroke-linejoin="round" d="M172.728,390.621C175.548,398.277,172.633,405.444,170.686,412.392"/>
<path fill="none" stroke="#a60d3f" stroke-width="1" stroke-linecap="butt" stroke-linejoin="round" d="M170.686,412.392C166.208,426.718,166.605,432.015,166.820,446.008"/>
<path fill="none" stroke="#a60d3f" stroke-width="1" stroke-linecap="butt" stroke-linejoin="round" d="M166.820,446.008C166.957,448.225,167.333,455.444,163.861,455.831"/>
<path fill="none" stroke="#a60d3f" stroke-width="1" stroke-linecap="butt" stroke-linejoin="round" d="M163.861,455.831C160.448,456.211,159.460,450.064,158.566,447.728"/>
<path fill="none" stroke="#a60d3f" stroke-width="1" stroke-linecap="butt" stroke-linejoin="round" d="M158.566,447.728C157.999,445.094,155.211,439.586,155.751,437.214"/>
<path fill="none" stroke="#a60d3f" stroke-width="1" stroke-linecap="butt" stroke-linejoin="round" d="M155.751,437.214C155.861,433.242,160.424,434.187,155.370,425.999"/>
<path fill="none" stroke="#a60d3f" stroke-width="1" stroke-linecap="butt" stroke-linejoin="round" d="M155.370,425.999C148.916,415.761,137.600,407.123,134.853,393.756"/>
<path fill="none" stroke="#a60d3f" stroke-width="1" stroke-linecap="butt" stroke-linejoin="round" d="M134.853,393.756C133.061,383.111,138.802,373.901,142.158,364.074"/>
<path fill="none" stroke="#a60d3f" stroke-width="1" stroke-linecap="butt" stroke-linejoin="round" d="M142.158,364.074C149.300,342.959,157.208,321.870,166.348,301.207"/>
<path fill="none" stroke="#a60d3f" stroke-width="1" stroke-linecap="butt" stroke-linejoin="round" d="M166.348,301.207C171.316,290.495,173.768,281.098,180.322,270.293"/>
<path fill="none" stroke="#a60d3f" stroke-width="1" stroke-linecap="butt" stroke-linejoin="round" d="M180.322,270.293C181.953,267.744,185.155,262.478,189.043,261.306"/>
<path fill="#a60d3f" fill-rule="evenodd" stroke="none" d="M189.043,261.306C195.587,259.332,200.588,265.546,200.940,270.127C201.863,278.151,195.242,288.373,192.032,295.957C184.172,314.213,175.783,332.243,170.368,350.821C169.674,354.078,164.448,375.190,164.511,372.541C164.023,379.158,170.522,384.943,172.728,390.621C175.548,398.277,172.633,405.444,170.686,412.392C166.208,426.718,166.605,432.015,166.820,446.008C166.957,448.225,167.333,455.444,163.861,455.831C160.448,456.211,159.460,450.064,158.566,447.728C157.999,445.094,155.211,439.586,155.751,437.214C155.861,433.242,160.424,434.187,155.370,425.999C148.916,415.761,137.600,407.123,134.853,393.756C133.061,383.111,138.802,373.901,142.158,364.074C149.300,342.959,157.208,321.870,166.348,301.207C171.316,290.495,173.768,281.098,180.322,270.293C181.953,267.744,185.155,262.478,189.043,261.306Z"/>
<g id="layer_left_leg">
<path fill="#000000" fill-rule="evenodd" stroke="none" d="M328.982,625.485C318.449,616.368,325.531,592.867,335.526,587.139C350.647,578.243,370.854,599.957,370.814,606.681C370.443,616.842,355.463,622.280,347.512,624.991C343.077,626.336,332.395,628.567,328.982,625.485M361.686,577.548C349.450,571.045,328.977,579.541,320.618,588.723C302.085,608.260,310.952,651.903,343.791,639.693C354.601,635.738,377.880,625.581,381.930,616.194C385.691,608.820,380.862,600.369,376.723,593.629C373.002,588.280,367.491,580.740,361.686,577.548Z"/>
<path fill="none" stroke="#d88e4b" stroke-width="1" stroke-linecap="butt" stroke-linejoin="round" d="M335.526,587.139C350.647,578.243,370.854,599.957,370.814,606.681"/>
<path fill="none" stroke="#d88e4b" stroke-width="1" stroke-linecap="butt" stroke-linejoin="round" d="M370.814,606.681C370.443,616.842,355.463,622.280,347.512,624.991"/>
<path fill="none" stroke="#d88e4b" stroke-width="1" stroke-linecap="butt" stroke-linejoin="round" d="M347.512,624.991C343.077,626.336,332.395,628.567,328.982,625.485"/>
<path fill="none" stroke="#d88e4b" stroke-width="1" stroke-linecap="butt" stroke-linejoin="round" d="M328.982,625.485C318.449,616.368,325.531,592.867,335.526,587.139"/>
<path fill="#d88e4b" fill-rule="evenodd" stroke="none" d="M335.526,587.139C350.647,578.243,370.854,599.957,370.814,606.681C370.443,616.842,355.463,622.280,347.512,624.991C343.077,626.336,332.395,628.567,328.982,625.485C318.449,616.368,325.531,592.867,335.526,587.139Z"/>
<path fill="#000000" fill-rule="evenodd" stroke="none" d="M242.745,416.296C242.866,411.213,253.074,411.848,256.702,410.470C262.189,408.697,273.901,402.849,279.532,404.859C290.111,408.239,302.454,437.161,306.326,447.379C317.140,478.480,328.529,507.236,338.830,537.317C340.650,543.058,342.618,548.960,344.241,554.637C345.815,559.410,345.259,566.817,349.495,568.748C351.684,570.248,355.524,565.732,356.750,567.896C360.486,575.528,350.908,574.323,348.512,579.739C343.877,589.400,332.285,600.071,322.682,600.501C316.262,601.012,303.822,597.439,299.578,592.444C295.684,587.861,292.082,581.925,289.283,576.711C275.627,551.264,274.045,494.634,255.807,461.915C246.624,445.442,252.803,440.635,257.379,426.532C258.192,424.030,246.682,429.738,244.421,428.301C241.588,426.801,242.503,419.443,242.745,416.296M283.647,393.694C276.148,390.965,260.322,398.234,253.563,400.952C249.732,402.475,236.500,403.700,234.263,406.517C221.302,422.838,240.303,459.281,247.807,475.093C249.699,479.840,256.921,503.120,258.830,509.723C268.149,536.216,269.601,561.004,280.178,587.024C282.874,593.906,284.907,600.907,289.450,606.581C301.972,622.003,318.668,619.899,339.240,612.066C349.957,607.995,372.556,594.905,374.100,571.107C374.686,562.012,366.271,552.417,364.246,550.071C360.715,545.980,356.228,542.309,353.370,537.250C343.534,521.116,343.959,500.610,336.811,482.981C327.666,460.369,307.323,402.371,283.647,393.694Z"/>
<path fill="none" stroke="#392966" stroke-width="1" stroke-linecap="butt" stroke-linejoin="round" d="M256.702,410.470C262.189,408.697,273.901,402.849,279.532,404.859"/>
<path fill="none" stroke="#392966" stroke-width="1" stroke-linecap="butt" stroke-linejoin="round" d="M279.532,404.859C290.111,408.239,302.454,437.161,306.326,447.379"/>
<path fill="none" stroke="#392966" stroke-width="1" stroke-linecap="butt" stroke-linejoin="round" d="M306.326,447.379C317.140,478.480,328.529,507.236,338.830,537.317"/>
<path fill="none" stroke="#392966" stroke-width="1" stroke-linecap="butt" stroke-linejoin="round" d="M338.830,537.317C340.650,543.058,342.618,548.960,344.241,554.637"/>
<path fill="none" stroke="#392966" stroke-width="1" stroke-linecap="butt" stroke-linejoin="round" d="M344.241,554.637C345.815,559.410,345.259,566.817,349.495,568.748"/>
<path fill="none" stroke="#392966" stroke-width="1" stroke-linecap="butt" stroke-linejoin="round" d="M349.495,568.748C351.684,570.248,355.524,565.732,356.750,567.896"/>
<path fill="none" stroke="#392966" stroke-width="1" stroke-linecap="butt" stroke-linejoin="round" d="M356.750,567.896C360.486,575.528,350.908,574.323,348.512,579.739"/>
<path fill="none" stroke="#392966" stroke-width="1" stroke-linecap="butt" stroke-linejoin="round" d="M348.512,579.739C343.877,589.400,332.285,600.071,322.682,600.501"/>
<path fill="none" stroke="#392966" stroke-width="1" stroke-linecap="butt" stroke-linejoin="round" d="M322.682,600.501C316.262,601.012,303.822,597.439,299.578,592.444"/>
<path fill="none" stroke="#392966" stroke-width="1" stroke-linecap="butt" stroke-linejoin="round" d="M299.578,592.444C295.684,587.861,292.082,581.925,289.283,576.711"/>
<path fill="none" stroke="#392966" stroke-width="1" stroke-linecap="butt" stroke-linejoin="round" d="M289.283,576.711C275.627,551.264,274.045,494.634,255.807,461.915"/>
<path fill="none" stroke="#392966" stroke-width="1" stroke-linecap="butt" stroke-linejoin="round" d="M255.807,461.915C246.624,445.442,252.803,440.635,257.379,426.532"/>
<path fill="none" stroke="#392966" stroke-width="1" stroke-linecap="butt" stroke-linejoin="round" d="M257.379,426.532C258.192,424.030,246.682,429.738,244.421,428.301"/>
<path fill="none" stroke="#392966" stroke-width="1" stroke-linecap="butt" stroke-linejoin="round" d="M244.421,428.301C241.588,426.801,242.503,419.443,242.745,416.296"/>
<path fill="none" stroke="#392966" stroke-width="1" stroke-linecap="butt" stroke-linejoin="round" d="M242.745,416.296C242.866,411.213,253.074,411.848,256.702,410.470"/>
<path fill="#392966" fill-rule="evenodd" stroke="none" d="M256.702,410.470C262.189,408.697,273.901,402.849,279.532,404.859C290.111,408.239,302.454,437.161,306.326,447.379C317.140,478.480,328.529,507.236,338.830,537.317C340.650,543.058,342.618,548.960,344.241,554.637C345.815,559.410,345.259,566.817,349.495,568.748C351.684,570.248,355.524,565.732,356.750,567.896C360.486,575.528,350.908,574.323,348.512,579.739C343.877,589.400,332.285,600.071,322.682,600.501C316.262,601.012,303.822,597.439,299.578,592.444C295.684,587.861,292.082,581.925,289.283,576.711C275.627,551.264,274.045,494.634,255.807,461.915C246.624,445.442,252.803,440.635,257.379,426.532C258.192,424.030,246.682,429.738,244.421,428.301C241.588,426.801,242.503,419.443,242.745,416.296C242.866,411.213,253.074,411.848,256.702,410.470Z"/>
<path fill="#000000" fill-rule="evenodd" stroke="none" d="M337.264,658.103C310.203,661.798,303.811,626.020,321.204,612.850C338.452,599.977,359.892,606.236,369.631,617.085C375.043,622.383,378.914,628.664,377.876,636.311C374.776,650.394,349.741,656.309,337.264,658.103M382.309,606.275C374.827,594.298,360.007,585.560,348.398,585.352C318.994,584.957,299.390,600.528,299.030,627.732C298.313,643.406,306.332,658.204,319.186,667.087C329.306,673.632,354.692,666.805,364.984,662.331C373.771,657.738,384.520,651.288,388.117,640.981C390.846,633.517,386.444,613.010,382.309,606.275Z"/>
<path fill="none" stroke="#d88e4b" stroke-width="1" stroke-linecap="butt" stroke-linejoin="round" d="M321.204,612.850C338.452,599.977,359.892,606.236,369.631,617.085"/>
<path fill="none" stroke="#d88e4b" stroke-width="1" stroke-linecap="butt" stroke-linejoin="round" d="M369.631,617.085C375.043,622.383,378.914,628.664,377.876,636.311"/>
<path fill="none" stroke="#d88e4b" stroke-width="1" stroke-linecap="butt" stroke-linejoin="round" d="M377.876,636.311C374.776,650.394,349.741,656.309,337.264,658.103"/>
<path fill="none" stroke="#d88e4b" stroke-width="1" stroke-linecap="butt" stroke-linejoin="round" d="M337.264,658.103C310.203,661.798,303.811,626.020,321.204,612.850"/>
<path fill="#d88e4b" fill-rule="evenodd" stroke="none" d="M321.204,612.850C338.452,599.977,359.892,606.236,369.631,617.085C375.043,622.383,378.914,628.664,377.876,636.311C374.776,650.394,349.741,656.309,337.264,658.103C310.203,661.798,303.811,626.020,321.204,612.850Z"/>
<path fill="#000000" fill-rule="evenodd" stroke="none" d="M345.305,671.724C334.896,674.989,327.410,661.898,327.349,667.743C327.311,671.419,337.431,671.397,341.699,671.246C351.263,671.279,364.921,665.358,371.794,658.342C374.187,656.273,382.019,650.381,382.170,650.595C384.575,654.011,373.208,659.000,369.640,660.662C366.845,662.340,346.066,671.288,345.305,671.724M327.602,667.425C331.957,664.035,343.403,665.259,347.573,665.320C364.136,665.562,371.407,653.961,378.657,649.892C379.292,649.546,380.084,647.203,382.034,648.317C388.431,651.972,358.992,669.872,344.853,669.769C337.350,670.493,325.818,668.813,327.602,667.425M383.851,639.740C380.076,638.384,366.720,651.936,351.255,657.416C343.275,660.276,319.153,653.987,316.801,665.231C316.297,667.666,319.552,674.866,321.734,675.928C336.283,683.322,384.200,663.190,388.584,656.453C390.006,654.267,389.622,641.813,383.851,639.740Z"/>
<path fill="none" stroke="#6e2353" stroke-width="1" stroke-linecap="butt" stroke-linejoin="round" d="M327.349,667.743C327.311,671.419,337.431,671.397,341.699,671.246"/>
<path fill="none" stroke="#6e2353" stroke-width="1" stroke-linecap="butt" stroke-linejoin="round" d="M341.699,671.246C351.263,671.279,364.921,665.358,371.794,658.342"/>
<path fill="none" stroke="#6e2353" stroke-width="1" stroke-linecap="butt" stroke-linejoin="round" d="M371.794,658.342C374.187,656.273,382.019,650.381,382.170,650.595"/>
<path fill="none" stroke="#6e2353" stroke-width="1" stroke-linecap="butt" stroke-linejoin="round" d="M382.170,650.595C384.575,654.011,373.208,659.000,369.640,660.662"/>
<path fill="none" stroke="#6e2353" stroke-width="1" stroke-linecap="butt" stroke-linejoin="round" d="M369.640,660.662C366.845,662.340,346.066,671.288,345.305,671.724"/>
<path fill="none" stroke="#6e2353" stroke-width="1" stroke-linecap="butt" stroke-linejoin="round" d="M345.305,671.724C334.896,674.989,327.410,661.898,327.349,667.743"/>
<path fill="#6e2353" fill-rule="evenodd" stroke="none" d="M327.349,667.743C327.311,671.419,337.431,671.397,341.699,671.246C351.263,671.279,364.921,665.358,371.794,658.342C374.187,656.273,382.019,650.381,382.170,650.595C384.575,654.011,373.208,659.000,369.640,660.662C366.845,662.340,346.066,671.288,345.305,671.724C334.896,674.989,327.410,661.898,327.349,667.743Z"/>
<path fill="none" stroke="#6e2353" stroke-width="1" stroke-linecap="butt" stroke-linejoin="round" d="M347.573,665.320C364.136,665.562,371.407,653.961,378.657,649.892"/>
<path fill="none" stroke="#6e2353" stroke-width="1" stroke-linecap="butt" stroke-linejoin="round" d="M378.657,649.892C379.292,649.546,380.084,647.203,382.034,648.317"/>
<path fill="none" stroke="#6e2353" stroke-width="1" stroke-linecap="butt" stroke-linejoin="round" d="M382.034,648.317C388.431,651.972,358.992,669.872,344.853,669.769"/>
<path fill="none" stroke="#6e2353" stroke-width="1" stroke-linecap="butt" stroke-linejoin="round" d="M344.853,669.769C337.350,670.493,325.818,668.813,327.602,667.425"/>
<path fill="none" stroke="#6e2353" stroke-width="1" stroke-linecap="butt" stroke-linejoin="round" d="M327.602,667.425C331.957,664.035,343.403,665.259,347.573,665.320"/>
<path fill="#6e2353" fill-rule="evenodd" stroke="none" d="M347.573,665.320C364.136,665.562,371.407,653.961,378.657,649.892C379.292,649.546,380.084,647.203,382.034,648.317C388.431,651.972,358.992,669.872,344.853,669.769C337.350,670.493,325.818,668.813,327.602,667.425C331.957,664.035,343.403,665.259,347.573,665.320Z"/>
</g>
<g id="layer_right_leg">
<path fill="#000000" fill-rule="evenodd" stroke="none" d="M194.503,621.648C194.335,605.493,194.676,592.914,214.467,588.884C223.272,586.929,240.395,588.703,245.826,596.878C248.669,600.934,248.263,607.157,248.795,611.639C249.726,618.940,255.181,632.804,244.798,635.149C244.135,635.367,225.569,636.806,219.778,637.305C212.428,638.621,204.753,639.640,199.073,634.912C196.110,631.905,194.466,625.450,194.503,621.648M255.231,594.625C250.664,584.628,236.022,579.671,226.051,581.710C213.033,584.211,199.325,580.755,191.549,593.356C185.487,603.176,185.837,620.540,188.536,631.411C189.611,636.437,193.447,645.493,197.907,648.046C201.171,649.823,205.985,648.968,209.696,648.750C227.787,647.972,260.430,652.061,258.364,625.548C257.755,618.694,257.633,599.934,255.231,594.625Z"/>
<path fill="none" stroke="#d88e4b" stroke-width="1" stroke-linecap="butt" stroke-linejoin="round" d="M214.467,588.884C223.272,586.929,240.395,588.703,245.826,596.878"/>
<path fill="none" stroke="#d88e4b" stroke-width="1" stroke-linecap="butt" stroke-linejoin="round" d="M245.826,596.878C248.669,600.934,248.263,607.157,248.795,611.639"/>
<path fill="none" stroke="#d88e4b" stroke-width="1" stroke-linecap="butt" stroke-linejoin="round" d="M248.795,611.639C249.726,618.940,255.181,632.804,244.798,635.149"/>
<path fill="none" stroke="#d88e4b" stroke-width="1" stroke-linecap="butt" stroke-linejoin="round" d="M244.798,635.149C244.135,635.367,225.569,636.806,219.778,637.305"/>
<path fill="none" stroke="#d88e4b" stroke-width="1" stroke-linecap="butt" stroke-linejoin="round" d="M219.778,637.305C212.428,638.621,204.753,639.640,199.073,634.912"/>
<path fill="none" stroke="#d88e4b" stroke-width="1" stroke-linecap="butt" stroke-linejoin="round" d="M199.073,634.912C196.110,631.905,194.466,625.450,194.503,621.648"/>
<path fill="none" stroke="#d88e4b" stroke-width="1" stroke-linecap="butt" stroke-linejoin="round" d="M194.503,621.648C194.335,605.493,194.676,592.914,214.467,588.884"/>
<path fill="#d88e4b" fill-rule="evenodd" stroke="none" d="M214.467,588.884C223.272,586.929,240.395,588.703,245.826,596.878C248.669,600.934,248.263,607.157,248.795,611.639C249.726,618.940,255.181,632.804,244.798,635.149C244.135,635.367,225.569,636.806,219.778,637.305C212.428,638.621,204.753,639.640,199.073,634.912C196.110,631.905,194.466,625.450,194.503,621.648C194.335,605.493,194.676,592.914,214.467,588.884Z"/>
<path fill="#000000" fill-rule="evenodd" stroke="none" d="M180.549,409.879C183.467,397.985,198.963,394.267,209.655,396.517C215.571,397.639,225.491,399.867,229.016,405.087C230.525,407.321,231.334,411.594,230.063,413.960C227.829,418.116,212.466,416.223,215.387,420.055C220.492,426.970,230.097,417.137,234.591,420.698C236.590,422.283,236.983,425.733,237.544,428.597C242.903,449.968,237.353,473.399,238.505,494.716C238.808,501.610,237.774,511.858,239.357,518.063C242.721,533.393,241.007,536.751,241.922,546.014C242.043,549.479,241.274,567.121,242.697,571.561C244.294,576.219,247.996,580.574,248.730,585.460C249.968,593.701,238.192,605.199,230.734,607.809C222.202,610.608,195.469,610.244,187.133,606.304C183.915,604.895,179.879,601.286,178.442,597.851C176.897,594.657,174.468,579.424,175.325,575.683C177.081,569.174,179.529,567.743,181.224,560.036C182.897,550.964,184.502,541.154,183.534,531.760C181.267,513.400,180.534,483.876,181.969,470.567C182.589,463.069,179.468,438.109,180.126,431.163C181.318,419.681,179.193,417.590,180.549,409.879M204.205,385.249C198.436,383.626,193.770,378.619,187.933,380.973C186.160,381.863,183.117,384.292,181.905,385.664C166.825,400.139,168.908,413.648,170.094,432.882C170.227,439.788,170.735,446.949,170.470,453.580C170.137,459.097,168.560,463.686,167.516,468.780C166.943,472.961,166.516,477.430,166.585,482.648C166.782,487.777,168.486,493.722,169.090,502.421C169.053,512.165,170.281,521.300,170.359,530.614C170.627,536.959,168.344,551.799,167.729,556.669C165.858,563.610,163.102,571.675,161.868,578.352C160.765,587.174,162.684,596.357,166.582,603.872C168.412,607.911,171.596,612.670,174.924,615.233C177.094,616.903,179.925,617.784,182.449,618.487C190.783,620.762,198.619,621.621,207.339,621.377C213.212,621.256,218.896,619.280,225.004,619.454C226.017,619.330,234.358,620.733,236.005,620.771C238.962,620.672,242.967,617.855,245.564,616.144C249.002,613.603,255.287,612.550,257.946,609.077C260.095,606.264,260.516,602.495,261.498,599.107C266.981,579.131,260.681,568.658,257.105,550.911C255.117,541.043,251.504,520.714,250.979,509.588C250.063,496.126,251.935,482.952,251.889,469.044C251.964,464.660,252.034,459.403,252.497,454.425C252.871,449.441,251.567,445.495,251.057,440.597C250.434,436.826,249.963,424.647,249.122,420.609C248.518,416.997,248.270,412.460,246.712,408.946C242.476,400.016,227.885,390.721,218.399,388.336C213.648,386.979,208.647,386.951,204.205,385.249Z"/>
<path fill="none" stroke="#392966" stroke-width="1" stroke-linecap="butt" stroke-linejoin="round" d="M209.655,396.517C215.571,397.639,225.491,399.867,229.016,405.087"/>
<path fill="none" stroke="#392966" stroke-width="1" stroke-linecap="butt" stroke-linejoin="round" d="M229.016,405.087C230.525,407.321,231.334,411.594,230.063,413.960"/>
<path fill="none" stroke="#392966" stroke-width="1" stroke-linecap="butt" stroke-linejoin="round" d="M230.063,413.960C227.829,418.116,212.466,416.223,215.387,420.055"/>
<path fill="none" stroke="#392966" stroke-width="1" stroke-linecap="butt" stroke-linejoin="round" d="M215.387,420.055C220.492,426.970,230.097,417.137,234.591,420.698"/>
<path fill="none" stroke="#392966" stroke-width="1" stroke-linecap="butt" stroke-linejoin="round" d="M234.591,420.698C236.590,422.283,236.983,425.733,237.544,428.597"/>
<path fill="none" stroke="#392966" stroke-width="1" stroke-linecap="butt" stroke-linejoin="round" d="M237.544,428.597C242.903,449.968,237.353,473.399,238.505,494.716"/>
<path fill="none" stroke="#392966" stroke-width="1" stroke-linecap="butt" stroke-linejoin="round" d="M238.505,494.716C238.808,501.610,237.774,511.858,239.357,518.063"/>
<path fill="none" stroke="#392966" stroke-width="1" stroke-linecap="butt" stroke-linejoin="round" d="M239.357,518.063C242.721,533.393,241.007,536.751,241.922,546.014"/>
<path fill="none" stroke="#392966" stroke-width="1" stroke-linecap="butt" stroke-linejoin="round" d="M241.922,546.014C242.043,549.479,241.274,567.121,242.697,571.561"/>
<path fill="none" stroke="#392966" stroke-width="1" stroke-linecap="butt" stroke-linejoin="round" d="M242.697,571.561C244.294,576.219,247.996,580.574,248.730,585.460"/>
<path fill="none" stroke="#392966" stroke-width="1" stroke-linecap="butt" stroke-linejoin="round" d="M248.730,585.460C249.968,593.701,238.192,605.199,230.734,607.809"/>
<path fill="none" stroke="#392966" stroke-width="1" stroke-linecap="butt" stroke-linejoin="round" d="M230.734,607.809C222.202,610.608,195.469,610.244,187.133,606.304"/>
<path fill="none" stroke="#392966" stroke-width="1" stroke-linecap="butt" stroke-linejoin="round" d="M187.133,606.304C183.915,604.895,179.879,601.286,178.442,597.851"/>
<path fill="none" stroke="#392966" stroke-width="1" stroke-linecap="butt" stroke-linejoin="round" d="M178.442,597.851C176.897,594.657,174.468,579.424,175.325,575.683"/>
<path fill="none" stroke="#392966" stroke-width="1" stroke-linecap="butt" stroke-linejoin="round" d="M175.325,575.683C177.081,569.174,179.529,567.743,181.224,560.036"/>
<path fill="none" stroke="#392966" stroke-width="1" stroke-linecap="butt" stroke-linejoin="round" d="M181.224,560.036C182.897,550.964,184.502,541.154,183.534,531.760"/>
<path fill="none" stroke="#392966" stroke-width="1" stroke-linecap="butt" stroke-linejoin="round" d="M183.534,531.760C181.267,513.400,180.534,483.876,181.969,470.567"/>
<path fill="none" stroke="#392966" stroke-width="1" stroke-linecap="butt" stroke-linejoin="round" d="M181.969,470.567C182.589,463.069,179.468,438.109,180.126,431.163"/>
<path fill="none" stroke="#392966" stroke-width="1" stroke-linecap="butt" stroke-linejoin="round" d="M180.126,431.163C181.318,419.681,179.193,417.590,180.549,409.879"/>
<path fill="none" stroke="#392966" stroke-width="1" stroke-linecap="butt" stroke-linejoin="round" d="M180.549,409.879C183.467,397.985,198.963,394.267,209.655,396.517"/>
<path fill="#392966" fill-rule="evenodd" stroke="none" d="M209.655,396.517C215.571,397.639,225.491,399.867,229.016,405.087C230.525,407.321,231.334,411.594,230.063,413.960C227.829,418.116,212.466,416.223,215.387,420.055C220.492,426.970,230.097,417.137,234.591,420.698C236.590,422.283,236.983,425.733,237.544,428.597C242.903,449.968,237.353,473.399,238.505,494.716C238.808,501.610,237.774,511.858,239.357,518.063C242.721,533.393,241.007,536.751,241.922,546.014C242.043,549.479,241.274,567.121,242.697,571.561C244.294,576.219,247.996,580.574,248.730,585.460C249.968,593.701,238.192,605.199,230.734,607.809C222.202,610.608,195.469,610.244,187.133,606.304C183.915,604.895,179.879,601.286,178.442,597.851C176.897,594.657,174.468,579.424,175.325,575.683C177.081,569.174,179.529,567.743,181.224,560.036C182.897,550.964,184.502,541.154,183.534,531.760C181.267,513.400,180.534,483.876,181.969,470.567C182.589,463.069,179.468,438.109,180.126,431.163C181.318,419.681,179.193,417.590,180.549,409.879C183.467,397.985,198.963,394.267,209.655,396.517Z"/>
<path fill="#000000" fill-rule="evenodd" stroke="none" d="M178.812,644.947C179.361,631.702,183.591,614.434,199.734,611.186C203.440,610.242,208.833,611.681,213.051,612.273C234.610,615.245,243.185,619.468,245.217,640.980C245.653,646.896,247.018,654.189,242.820,659.202C238.641,664.101,217.396,662.755,210.975,663.412C199.644,664.817,190.182,670.750,181.695,661.452C176.608,655.761,178.529,652.022,178.812,644.947M252.348,617.891C244.438,604.478,211.245,598.160,196.695,601.692C174.989,607.089,168.968,624.494,168.689,642.933C168.540,649.513,168.125,656.757,171.791,662.364C173.104,664.371,175.783,667.004,177.628,668.565C191.571,681.391,201.076,679.125,218.813,677.954C228.202,677.489,243.762,675.777,250.918,669.159C256.263,663.732,256.478,658.140,256.293,651.013C255.865,644.163,255.508,622.795,252.348,617.891Z"/>
<path fill="none" stroke="#d88e4b" stroke-width="1" stroke-linecap="butt" stroke-linejoin="round" d="M199.734,611.186C203.440,610.242,208.833,611.681,213.051,612.273"/>
<path fill="none" stroke="#d88e4b" stroke-width="1" stroke-linecap="butt" stroke-linejoin="round" d="M213.051,612.273C234.610,615.245,243.185,619.468,245.217,640.980"/>
<path fill="none" stroke="#d88e4b" stroke-width="1" stroke-linecap="butt" stroke-linejoin="round" d="M245.217,640.980C245.653,646.896,247.018,654.189,242.820,659.202"/>
<path fill="none" stroke="#d88e4b" stroke-width="1" stroke-linecap="butt" stroke-linejoin="round" d="M242.820,659.202C238.641,664.101,217.396,662.755,210.975,663.412"/>
<path fill="none" stroke="#d88e4b" stroke-width="1" stroke-linecap="butt" stroke-linejoin="round" d="M210.975,663.412C199.644,664.817,190.182,670.750,181.695,661.452"/>
<path fill="none" stroke="#d88e4b" stroke-width="1" stroke-linecap="butt" stroke-linejoin="round" d="M181.695,661.452C176.608,655.761,178.529,652.022,178.812,644.947"/>
<path fill="none" stroke="#d88e4b" stroke-width="1" stroke-linecap="butt" stroke-linejoin="round" d="M178.812,644.947C179.361,631.702,183.591,614.434,199.734,611.186"/>
<path fill="#d88e4b" fill-rule="evenodd" stroke="none" d="M199.734,611.186C203.440,610.242,208.833,611.681,213.051,612.273C234.610,615.245,243.185,619.468,245.217,640.980C245.653,646.896,247.018,654.189,242.820,659.202C238.641,664.101,217.396,662.755,210.975,663.412C199.644,664.817,190.182,670.750,181.695,661.452C176.608,655.761,178.529,652.022,178.812,644.947C179.361,631.702,183.591,614.434,199.734,611.186Z"/>
<path fill="#000000" fill-rule="evenodd" stroke="none" d="M198.000,674.564C201.630,676.613,211.558,673.145,216.085,673.483C219.227,673.889,222.480,675.119,224.943,674.164C226.815,673.552,237.699,669.159,234.232,672.153C232.243,673.954,227.942,674.037,225.791,673.972C223.410,674.193,200.997,674.807,200.185,675.019C193.317,676.327,186.551,669.494,188.770,671.235C190.697,672.747,194.271,672.444,198.000,674.564M238.856,667.915C239.055,668.732,238.189,669.898,236.924,669.963C234.450,670.101,225.199,672.655,221.900,672.102C218.124,672.129,213.994,672.892,210.591,672.975C203.724,673.142,192.931,676.490,187.706,672.149C187.480,671.883,187.442,671.636,187.517,671.461C187.838,670.705,192.526,672.076,195.795,671.907C200.904,671.643,207.880,669.983,213.096,669.445C218.734,668.863,226.195,669.099,231.954,668.244C232.852,668.133,238.374,665.931,238.856,667.915M244.030,662.254C232.578,659.738,224.320,666.779,213.745,665.665C206.325,664.913,191.948,665.652,183.000,667.946C181.565,668.314,178.777,668.285,178.428,669.789C177.993,671.680,181.866,675.467,184.266,676.826C187.241,678.511,193.202,678.195,195.587,678.409C207.709,679.936,222.887,675.748,235.165,676.648C244.386,677.246,246.167,672.012,246.835,667.690C247.114,665.884,247.611,662.993,244.030,662.254Z"/>
<path fill="none" stroke="#6e2353" stroke-width="1" stroke-linecap="butt" stroke-linejoin="round" d="M198.000,674.564C201.630,676.613,211.558,673.145,216.085,673.483"/>
<path fill="none" stroke="#6e2353" stroke-width="1" stroke-linecap="butt" stroke-linejoin="round" d="M216.085,673.483C219.227,673.889,222.480,675.119,224.943,674.164"/>
<path fill="none" stroke="#6e2353" stroke-width="1" stroke-linecap="butt" stroke-linejoin="round" d="M224.943,674.164C226.815,673.552,237.699,669.159,234.232,672.153"/>
<path fill="none" stroke="#6e2353" stroke-width="1" stroke-linecap="butt" stroke-linejoin="round" d="M234.232,672.153C232.243,673.954,227.942,674.037,225.791,673.972"/>
<path fill="none" stroke="#6e2353" stroke-width="1" stroke-linecap="butt" stroke-linejoin="round" d="M225.791,673.972C223.410,674.193,200.997,674.807,200.185,675.019"/>
<path fill="none" stroke="#6e2353" stroke-width="1" stroke-linecap="butt" stroke-linejoin="round" d="M200.185,675.019C193.317,676.327,186.551,669.494,188.770,671.235"/>
<path fill="none" stroke="#6e2353" stroke-width="1" stroke-linecap="butt" stroke-linejoin="round" d="M188.770,671.235C190.697,672.747,194.271,672.444,198.000,674.564"/>
<path fill="#6e2353" fill-rule="evenodd" stroke="none" d="M198.000,674.564C201.630,676.613,211.558,673.145,216.085,673.483C219.227,673.889,222.480,675.119,224.943,674.164C226.815,673.552,237.699,669.159,234.232,672.153C232.243,673.954,227.942,674.037,225.791,673.972C223.410,674.193,200.997,674.807,200.185,675.019C193.317,676.327,186.551,669.494,188.770,671.235C190.697,672.747,194.271,672.444,198.000,674.564Z"/>
<path fill="none" stroke="#6e2353" stroke-width="1" stroke-linecap="butt" stroke-linejoin="round" d="M195.795,671.907C200.904,671.643,207.880,669.983,213.096,669.445"/>
<path fill="none" stroke="#6e2353" stroke-width="1" stroke-linecap="butt" stroke-linejoin="round" d="M213.096,669.445C218.734,668.863,226.195,669.099,231.954,668.244"/>
<path fill="none" stroke="#6e2353" stroke-width="1" stroke-linecap="butt" stroke-linejoin="round" d="M231.954,668.244C232.852,668.133,238.374,665.931,238.856,667.915"/>
<path fill="none" stroke="#6e2353" stroke-width="1" stroke-linecap="butt" stroke-linejoin="round" d="M238.856,667.915C239.055,668.732,238.189,669.898,236.924,669.963"/>
<path fill="none" stroke="#6e2353" stroke-width="1" stroke-linecap="butt" stroke-linejoin="round" d="M236.924,669.963C234.450,670.101,225.199,672.655,221.900,672.102"/>
<path fill="none" stroke="#6e2353" stroke-width="1" stroke-linecap="butt" stroke-linejoin="round" d="M221.900,672.102C218.124,672.129,213.994,672.892,210.591,672.975"/>
<path fill="none" stroke="#6e2353" stroke-width="1" stroke-linecap="butt" stroke-linejoin="round" d="M210.591,672.975C203.724,673.142,192.931,676.490,187.706,672.149"/>
<path fill="none" stroke="#6e2353" stroke-width="1" stroke-linecap="butt" stroke-linejoin="round" d="M187.706,672.149C187.480,671.883,187.442,671.636,187.517,671.461"/>
<path fill="none" stroke="#6e2353" stroke-width="1" stroke-linecap="butt" stroke-linejoin="round" d="M187.517,671.461C187.838,670.705,192.526,672.076,195.795,671.907"/>
<path fill="#6e2353" fill-rule="evenodd" stroke="none" d="M195.795,671.907C200.904,671.643,207.880,669.983,213.096,669.445C218.734,668.863,226.195,669.099,231.954,668.244C232.852,668.133,238.374,665.931,238.856,667.915C239.055,668.732,238.189,669.898,236.924,669.963C234.450,670.101,225.199,672.655,221.900,672.102C218.124,672.129,213.994,672.892,210.591,672.975C203.724,673.142,192.931,676.490,187.706,672.149C187.480,671.883,187.442,671.636,187.517,671.461C187.838,670.705,192.526,672.076,195.795,671.907Z"/>
</g>
<path fill="#000000" fill-rule="evenodd" stroke="none" d="M303.790,154.370C308.089,148.823,318.822,133.615,326.757,134.499C332.048,135.088,341.891,145.893,347.180,149.495C351.809,153.024,356.805,156.258,362.132,159.528C365.139,161.543,368.151,163.552,371.167,165.556C384.576,174.415,379.908,180.256,371.788,178.012C353.641,172.642,350.518,173.634,333.694,162.387C331.489,161.137,325.906,157.169,324.435,161.355C322.561,166.168,331.010,171.461,334.463,173.519C340.670,177.894,347.503,182.672,355.365,184.217C357.643,184.806,365.653,185.026,366.716,187.489C368.332,191.017,357.786,198.546,355.581,200.309C351.942,202.916,348.306,205.524,344.741,207.471C339.413,210.224,333.790,212.610,328.060,212.976C317.332,213.121,285.960,194.228,286.257,182.545C286.333,175.859,299.122,160.211,303.790,154.370M339.140,131.527C334.658,126.676,331.721,119.988,324.078,122.485C318.529,124.211,312.062,131.189,307.984,134.752C292.585,149.774,278.179,167.921,276.446,189.486C275.267,203.079,279.932,203.265,290.255,209.770C305.866,219.878,326.734,224.880,345.510,218.603C357.671,214.601,379.830,198.993,386.447,187.678C388.541,183.894,392.511,175.298,390.711,170.412C388.693,164.495,367.607,152.440,361.399,148.066C353.943,142.883,345.457,137.921,339.140,131.527Z"/>
<path fill="none" stroke="#cc9bc5" stroke-width="1" stroke-linecap="butt" stroke-linejoin="round" d="M326.757,134.499C332.048,135.088,341.891,145.893,347.180,149.495"/>
<path fill="none" stroke="#cc9bc5" stroke-width="1" stroke-linecap="butt" stroke-linejoin="round" d="M347.180,149.495C351.809,153.024,356.805,156.258,362.132,159.528"/>
<path fill="none" stroke="#cc9bc5" stroke-width="1" stroke-linecap="butt" stroke-linejoin="round" d="M362.132,159.528C365.139,161.543,368.151,163.552,371.167,165.556"/>
<path fill="none" stroke="#cc9bc5" stroke-width="1" stroke-linecap="butt" stroke-linejoin="round" d="M371.167,165.556C384.576,174.415,379.908,180.256,371.788,178.012"/>
<path fill="none" stroke="#cc9bc5" stroke-width="1" stroke-linecap="butt" stroke-linejoin="round" d="M371.788,178.012C353.641,172.642,350.518,173.634,333.694,162.387"/>
<path fill="none" stroke="#cc9bc5" stroke-width="1" stroke-linecap="butt" stroke-linejoin="round" d="M333.694,162.387C331.489,161.137,325.906,157.169,324.435,161.355"/>
<path fill="none" stroke="#cc9bc5" stroke-width="1" stroke-linecap="butt" stroke-linejoin="round" d="M324.435,161.355C322.561,166.168,331.010,171.461,334.463,173.519"/>
<path fill="none" stroke="#cc9bc5" stroke-width="1" stroke-linecap="butt" stroke-linejoin="round" d="M334.463,173.519C340.670,177.894,347.503,182.672,355.365,184.217"/>
<path fill="none" stroke="#cc9bc5" stroke-width="1" stroke-linecap="butt" stroke-linejoin="round" d="M355.365,184.217C357.643,184.806,365.653,185.026,366.716,187.489"/>
<path fill="none" stroke="#cc9bc5" stroke-width="1" stroke-linecap="butt" stroke-linejoin="round" d="M366.716,187.489C368.332,191.017,357.786,198.546,355.581,200.309"/>
<path fill="none" stroke="#cc9bc5" stroke-width="1" stroke-linecap="butt" stroke-linejoin="round" d="M355.581,200.309C351.942,202.916,348.306,205.524,344.741,207.471"/>
<path fill="none" stroke="#cc9bc5" stroke-width="1" stroke-linecap="butt" stroke-linejoin="round" d="M344.741,207.471C339.413,210.224,333.790,212.610,328.060,212.976"/>
<path fill="none" stroke="#cc9bc5" stroke-width="1" stroke-linecap="butt" stroke-linejoin="round" d="M328.060,212.976C317.332,213.121,285.960,194.228,286.257,182.545"/>
<path fill="none" stroke="#cc9bc5" stroke-width="1" stroke-linecap="butt" stroke-linejoin="round" d="M286.257,182.545C286.333,175.859,299.122,160.211,303.790,154.370"/>
<path fill="none" stroke="#cc9bc5" stroke-width="1" stroke-linecap="butt" stroke-linejoin="round" d="M303.790,154.370C308.089,148.823,318.822,133.615,326.757,134.499"/>
<path fill="#cc9bc5" fill-rule="evenodd" stroke="none" d="M326.757,134.499C332.048,135.088,341.891,145.893,347.180,149.495C351.809,153.024,356.805,156.258,362.132,159.528C365.139,161.543,368.151,163.552,371.167,165.556C384.576,174.415,379.908,180.256,371.788,178.012C353.641,172.642,350.518,173.634,333.694,162.387C331.489,161.137,325.906,157.169,324.435,161.355C322.561,166.168,331.010,171.461,334.463,173.519C340.670,177.894,347.503,182.672,355.365,184.217C357.643,184.806,365.653,185.026,366.716,187.489C368.332,191.017,357.786,198.546,355.581,200.309C351.942,202.916,348.306,205.524,344.741,207.471C339.413,210.224,333.790,212.610,328.060,212.976C317.332,213.121,285.960,194.228,286.257,182.545C286.333,175.859,299.122,160.211,303.790,154.370C308.089,148.823,318.822,133.615,326.757,134.499Z"/>
<path fill="#000000" fill-rule="evenodd" stroke="none" d="M200.475,145.031C216.672,131.428,236.399,128.292,257.284,125.285C266.646,123.919,273.755,129.646,281.595,135.172C288.067,140.057,295.055,145.594,301.923,150.713C312.254,158.359,316.658,162.278,320.607,166.048C323.947,168.908,329.239,174.346,333.289,176.776C338.175,179.705,349.041,195.796,351.267,197.512C344.896,200.419,334.697,203.131,330.330,207.444C332.572,213.070,333.840,222.016,334.128,224.710C327.997,225.774,320.531,223.719,308.920,222.820C307.338,230.205,308.042,236.898,304.113,244.633C296.207,243.089,290.675,241.757,280.303,238.360C274.298,244.208,272.724,243.959,262.756,251.544C255.253,247.957,249.154,243.935,241.982,241.815C235.541,245.385,224.965,247.499,221.643,250.784C217.135,244.174,212.856,236.803,209.273,233.781C199.931,236.720,196.109,239.754,189.621,242.899C184.860,237.847,187.390,233.015,181.904,225.434C177.478,224.714,170.557,222.795,165.014,223.255C168.377,218.397,169.688,203.439,175.962,200.917C183.704,197.805,177.727,189.236,181.794,180.578C182.791,178.331,192.835,160.886,193.613,158.122C195.133,153.340,196.812,148.258,200.475,145.031M284.893,122.144C271.758,114.017,246.670,111.443,233.193,116.076C220.809,120.177,208.797,125.437,198.520,133.700C192.759,138.268,186.535,144.768,183.060,151.259C176.085,163.888,166.905,190.900,161.470,203.529C157.159,213.983,152.868,221.182,148.296,227.082C166.472,231.703,171.855,233.829,177.157,234.102C178.261,241.785,185.958,246.795,185.584,255.434C194.217,253.251,199.211,250.506,206.808,247.777C211.234,252.008,214.602,258.027,219.005,263.815C226.472,260.957,234.353,260.457,241.408,254.264C247.209,256.709,256.414,260.488,265.887,264.514C273.703,259.287,275.447,258.857,282.691,253.051C292.356,254.428,302.850,259.275,312.249,257.310C310.760,249.232,316.226,243.033,314.997,237.878C321.970,235.242,344.242,236.222,347.959,235.526C347.129,229.532,342.661,218.347,343.501,211.022C350.094,208.541,355.657,206.326,365.731,200.188C361.605,193.874,354.573,186.227,348.639,181.844C343.635,178.184,339.350,173.100,334.325,169.268C317.308,156.507,309.200,137.261,284.893,122.144Z"/>
<path fill="none" stroke="#620527" stroke-width="1" stroke-linecap="butt" stroke-linejoin="round" d="M257.284,125.285C266.646,123.919,273.755,129.646,281.595,135.172"/>
<path fill="none" stroke="#620527" stroke-width="1" stroke-linecap="butt" stroke-linejoin="round" d="M281.595,135.172C288.067,140.057,295.055,145.594,301.923,150.713"/>
<path fill="none" stroke="#620527" stroke-width="1" stroke-linecap="butt" stroke-linejoin="round" d="M301.923,150.713C312.254,158.359,316.658,162.278,320.607,166.048"/>
<path fill="none" stroke="#620527" stroke-width="1" stroke-linecap="butt" stroke-linejoin="round" d="M320.607,166.048C323.947,168.908,329.239,174.346,333.289,176.776"/>
<path fill="none" stroke="#620527" stroke-width="1" stroke-linecap="butt" stroke-linejoin="round" d="M333.289,176.776C338.175,179.705,349.041,195.796,351.267,197.512"/>
<path fill="none" stroke="#620527" stroke-width="1" stroke-linecap="butt" stroke-linejoin="round" d="M351.267,197.512C344.896,200.419,334.697,203.131,330.330,207.444"/>
<path fill="none" stroke="#620527" stroke-width="1" stroke-linecap="butt" stroke-linejoin="round" d="M330.330,207.444C332.572,213.070,333.840,222.016,334.128,224.710"/>
<path fill="none" stroke="#620527" stroke-width="1" stroke-linecap="butt" stroke-linejoin="round" d="M334.128,224.710C327.997,225.774,320.531,223.719,308.920,222.820"/>
<path fill="none" stroke="#620527" stroke-width="1" stroke-linecap="butt" stroke-linejoin="round" d="M308.920,222.820C307.338,230.205,308.042,236.898,304.113,244.633"/>
<path fill="none" stroke="#620527" stroke-width="1" stroke-linecap="butt" stroke-linejoin="round" d="M304.113,244.633C296.207,243.089,290.675,241.757,280.303,238.360"/>
<path fill="none" stroke="#620527" stroke-width="1" stroke-linecap="butt" stroke-linejoin="round" d="M280.303,238.360C274.298,244.208,272.724,243.959,262.756,251.544"/>
<path fill="none" stroke="#620527" stroke-width="1" stroke-linecap="butt" stroke-linejoin="round" d="M262.756,251.544C255.253,247.957,249.154,243.935,241.982,241.815"/>
<path fill="none" stroke="#620527" stroke-width="1" stroke-linecap="butt" stroke-linejoin="round" d="M241.982,241.815C235.541,245.385,224.965,247.499,221.643,250.784"/>
<path fill="none" stroke="#620527" stroke-width="1" stroke-linecap="butt" stroke-linejoin="round" d="M221.643,250.784C217.135,244.174,212.856,236.803,209.273,233.781"/>
<path fill="none" stroke="#620527" stroke-width="1" stroke-linecap="butt" stroke-linejoin="round" d="M209.273,233.781C199.931,236.720,196.109,239.754,189.621,242.899"/>
<path fill="none" stroke="#620527" stroke-width="1" stroke-linecap="butt" stroke-linejoin="round" d="M189.621,242.899C184.860,237.847,187.390,233.015,181.904,225.434"/>
<path fill="none" stroke="#620527" stroke-width="1" stroke-linecap="butt" stroke-linejoin="round" d="M181.904,225.434C177.478,224.714,170.557,222.795,165.014,223.255"/>
<path fill="none" stroke="#620527" stroke-width="1" stroke-linecap="butt" stroke-linejoin="round" d="M165.014,223.255C168.377,218.397,169.688,203.439,175.962,200.917"/>
<path fill="none" stroke="#620527" stroke-width="1" stroke-linecap="butt" stroke-linejoin="round" d="M175.962,200.917C183.704,197.805,177.727,189.236,181.794,180.578"/>
<path fill="none" stroke="#620527" stroke-width="1" stroke-linecap="butt" stroke-linejoin="round" d="M181.794,180.578C182.791,178.331,192.835,160.886,193.613,158.122"/>
<path fill="none" stroke="#620527" stroke-width="1" stroke-linecap="butt" stroke-linejoin="round" d="M193.613,158.122C195.133,153.340,196.812,148.258,200.475,145.031"/>
<path fill="none" stroke="#620527" stroke-width="1" stroke-linecap="butt" stroke-linejoin="round" d="M200.475,145.031C216.672,131.428,236.399,128.292,257.284,125.285"/>
<path fill="#620527" fill-rule="evenodd" stroke="none" d="M257.284,125.285C266.646,123.919,273.755,129.646,281.595,135.172C288.067,140.057,295.055,145.594,301.923,150.713C312.254,158.359,316.658,162.278,320.607,166.048C323.947,168.908,329.239,174.346,333.289,176.776C338.175,179.705,349.041,195.796,351.267,197.512C344.896,200.419,334.697,203.131,330.330,207.444C332.572,213.070,333.840,222.016,334.128,224.710C327.997,225.774,320.531,223.719,308.920,222.820C307.338,230.205,308.042,236.898,304.113,244.633C296.207,243.089,290.675,241.757,280.303,238.360C274.298,244.208,272.724,243.959,262.756,251.544C255.253,247.957,249.154,243.935,241.982,241.815C235.541,245.385,224.965,247.499,221.643,250.784C217.135,244.174,212.856,236.803,209.273,233.781C199.931,236.720,196.109,239.754,189.621,242.899C184.860,237.847,187.390,233.015,181.904,225.434C177.478,224.714,170.557,222.795,165.014,223.255C168.377,218.397,169.688,203.439,175.962,200.917C183.704,197.805,177.727,189.236,181.794,180.578C182.791,178.331,192.835,160.886,193.613,158.122C195.133,153.340,196.812,148.258,200.475,145.031C216.672,131.428,236.399,128.292,257.284,125.285Z"/>
<path fill="#000000" fill-rule="evenodd" stroke="none" d="M245.483,370.235C240.287,368.154,220.485,368.621,216.965,373.240C214.732,376.361,217.980,378.158,221.309,378.436C225.286,378.768,246.258,378.859,249.048,377.240C253.477,374.600,247.643,370.993,245.483,370.235M200.879,266.380C204.779,254.073,232.545,243.360,245.323,245.351C254.294,246.723,281.608,262.988,284.950,271.662C287.751,278.599,286.783,303.365,286.404,311.729C285.430,327.004,284.940,342.355,284.593,357.657C284.895,369.656,293.657,383.156,287.618,393.530C285.169,396.694,275.494,396.677,271.155,397.416C265.355,398.689,254.255,403.246,248.793,402.989C225.927,402.535,228.087,404.292,206.670,403.116C202.564,402.734,189.296,400.893,186.798,398.858C181.163,393.070,184.843,384.538,186.818,377.015C190.922,363.618,192.775,354.230,195.124,339.557C197.555,323.698,200.842,306.765,202.150,290.235C202.289,284.301,199.954,269.942,200.879,266.380M280.683,254.135C265.094,243.201,249.679,233.994,229.579,238.181C224.190,239.103,196.759,249.980,194.215,253.127C190.260,258.106,192.659,278.294,192.126,285.479C191.821,294.062,191.354,302.971,189.986,311.136C189.115,317.393,187.277,322.895,186.746,328.848C185.824,335.433,185.300,342.595,183.645,348.574C178.930,365.157,164.990,397.813,184.363,410.454C188.919,413.451,195.728,413.510,201.468,413.977C211.383,414.592,222.022,415.531,232.065,414.615C244.439,413.830,256.411,409.688,268.956,409.347C275.416,409.173,295.270,416.768,300.233,412.081C302.675,409.876,303.725,395.354,303.404,391.649C301.614,378.390,295.565,365.828,294.418,352.499C293.724,340.537,294.258,328.772,295.969,316.564C297.159,306.584,299.631,297.042,300.422,286.691C300.420,282.295,301.447,276.970,299.420,272.423C296.009,264.099,287.701,259.048,280.683,254.135Z"/>
<path fill="none" stroke="#6a3661" stroke-width="1" stroke-linecap="butt" stroke-linejoin="round" d="M245.483,370.235C240.287,368.154,220.485,368.621,216.965,373.240"/>
<path fill="none" stroke="#6a3661" stroke-width="1" stroke-linecap="butt" stroke-linejoin="round" d="M216.965,373.240C214.732,376.361,217.980,378.158,221.309,378.436"/>
<path fill="none" stroke="#6a3661" stroke-width="1" stroke-linecap="butt" stroke-linejoin="round" d="M221.309,378.436C225.286,378.768,246.258,378.859,249.048,377.240"/>
<path fill="none" stroke="#6a3661" stroke-width="1" stroke-linecap="butt" stroke-linejoin="round" d="M249.048,377.240C253.477,374.600,247.643,370.993,245.483,370.235"/>
<path fill="none" stroke="#6a3661" stroke-width="1" stroke-linecap="butt" stroke-linejoin="round" d="M200.879,266.380C204.779,254.073,232.545,243.360,245.323,245.351"/>
<path fill="none" stroke="#6a3661" stroke-width="1" stroke-linecap="butt" stroke-linejoin="round" d="M245.323,245.351C254.294,246.723,281.608,262.988,284.950,271.662"/>
<path fill="none" stroke="#6a3661" stroke-width="1" stroke-linecap="butt" stroke-linejoin="round" d="M284.950,271.662C287.751,278.599,286.783,303.365,286.404,311.729"/>
<path fill="none" stroke="#6a3661" stroke-width="1" stroke-linecap="butt" stroke-linejoin="round" d="M286.404,311.729C285.430,327.004,284.940,342.355,284.593,357.657"/>
<path fill="none" stroke="#6a3661" stroke-width="1" stroke-linecap="butt" stroke-linejoin="round" d="M284.593,357.657C284.895,369.656,293.657,383.156,287.618,393.530"/>
<path fill="none" stroke="#6a3661" stroke-width="1" stroke-linecap="butt" stroke-linejoin="round" d="M287.618,393.530C285.169,396.694,275.494,396.677,271.155,397.416"/>
<path fill="none" stroke="#6a3661" stroke-width="1" stroke-linecap="butt" stroke-linejoin="round" d="M271.155,397.416C265.355,398.689,254.255,403.246,248.793,402.989"/>
<path fill="none" stroke="#6a3661" stroke-width="1" stroke-linecap="butt" stroke-linejoin="round" d="M248.793,402.989C225.927,402.535,228.087,404.292,206.670,403.116"/>
<path fill="none" stroke="#6a3661" stroke-width="1" stroke-linecap="butt" stroke-linejoin="round" d="M206.670,403.116C202.564,402.734,189.296,400.893,186.798,398.858"/>
<path fill="none" stroke="#6a3661" stroke-width="1" stroke-linecap="butt" stroke-linejoin="round" d="M186.798,398.858C181.163,393.070,184.843,384.538,186.818,377.015"/>
<path fill="none" stroke="#6a3661" stroke-width="1" stroke-linecap="butt" stroke-linejoin="round" d="M186.818,377.015C190.922,363.618,192.775,354.230,195.124,339.557"/>
<path fill="none" stroke="#6a3661" stroke-width="1" stroke-linecap="butt" stroke-linejoin="round" d="M195.124,339.557C197.555,323.698,200.842,306.765,202.150,290.235"/>
<path fill="none" stroke="#6a3661" stroke-width="1" stroke-linecap="butt" stroke-linejoin="round" d="M202.150,290.235C202.289,284.301,199.954,269.942,200.879,266.380"/>
<path fill="#6a3661" fill-rule="evenodd" stroke="none" d="M245.483,370.235C240.287,368.154,220.485,368.621,216.965,373.240C214.732,376.361,217.980,378.158,221.309,378.436C225.286,378.768,246.258,378.859,249.048,377.240C253.477,374.600,247.643,370.993,245.483,370.235M200.879,266.380C204.779,254.073,232.545,243.360,245.323,245.351C254.294,246.723,281.608,262.988,284.950,271.662C287.751,278.599,286.783,303.365,286.404,311.729C285.430,327.004,284.940,342.355,284.593,357.657C284.895,369.656,293.657,383.156,287.618,393.530C285.169,396.694,275.494,396.677,271.155,397.416C265.355,398.689,254.255,403.246,248.793,402.989C225.927,402.535,228.087,404.292,206.670,403.116C202.564,402.734,189.296,400.893,186.798,398.858C181.163,393.070,184.843,384.538,186.818,377.015C190.922,363.618,192.775,354.230,195.124,339.557C197.555,323.698,200.842,306.765,202.150,290.235C202.289,284.301,199.954,269.942,200.879,266.380Z"/>
<path fill="#000000" fill-rule="evenodd" stroke="none" d="M241.171,225.917C241.885,222.650,243.221,219.790,246.894,219.880C258.690,219.238,253.373,256.468,242.798,255.243C232.883,254.095,239.783,232.118,241.171,225.917M247.966,210.628C245.361,209.991,242.310,210.306,239.843,211.361C230.053,214.915,230.379,223.662,229.384,232.254C228.555,236.512,228.427,240.517,226.023,243.922C223.989,247.036,218.977,249.803,218.556,253.440C217.738,263.393,244.509,266.494,251.487,266.967C254.130,267.273,262.938,269.298,264.351,265.778C264.466,264.787,259.197,252.453,258.741,247.712C257.375,233.487,269.003,214.070,247.966,210.628Z"/>
<path fill="none" stroke="#f8a087" stroke-width="1" stroke-linecap="butt" stroke-linejoin="round" d="M246.894,219.880C258.690,219.238,253.373,256.468,242.798,255.243"/>
<path fill="none" stroke="#f8a087" stroke-width="1" stroke-linecap="butt" stroke-linejoin="round" d="M242.798,255.243C232.883,254.095,239.783,232.118,241.171,225.917"/>
<path fill="none" stroke="#f8a087" stroke-width="1" stroke-linecap="butt" stroke-linejoin="round" d="M241.171,225.917C241.885,222.650,243.221,219.790,246.894,219.880"/>
<path fill="#f8a087" fill-rule="evenodd" stroke="none" d="M246.894,219.880C258.690,219.238,253.373,256.468,242.798,255.243C232.883,254.095,239.783,232.118,241.171,225.917C241.885,222.650,243.221,219.790,246.894,219.880Z"/>
<g id="layer_head">
<path fill="#000000" fill-rule="evenodd" stroke="none" d="M171.628,184.081C167.493,183.732,158.746,156.845,163.438,158.372C169.204,160.247,170.771,171.235,171.893,175.717C172.490,177.733,175.285,184.390,171.628,184.081M166.638,144.333C165.109,143.022,163.287,141.462,161.372,142.085C151.984,143.559,154.128,157.997,155.970,167.370C158.267,178.428,164.365,192.702,173.238,198.312C174.574,199.167,176.859,201.836,178.527,201.678C184.544,200.731,180.182,190.524,179.096,185.868C177.520,178.383,171.318,149.980,166.638,144.333Z"/>
<path fill="none" stroke="#f8a087" stroke-width="1" stroke-linecap="butt" stroke-linejoin="round" d="M163.438,158.372C169.204,160.247,170.771,171.235,171.893,175.717"/>
<path fill="none" stroke="#f8a087" stroke-width="1" stroke-linecap="butt" stroke-linejoin="round" d="M171.893,175.717C172.490,177.733,175.285,184.390,171.628,184.081"/>
<path fill="none" stroke="#f8a087" stroke-width="1" stroke-linecap="butt" stroke-linejoin="round" d="M171.628,184.081C167.493,183.732,158.746,156.845,163.438,158.372"/>
<path fill="#f8a087" fill-rule="evenodd" stroke="none" d="M163.438,158.372C169.204,160.247,170.771,171.235,171.893,175.717C172.490,177.733,175.285,184.390,171.628,184.081C167.493,183.732,158.746,156.845,163.438,158.372Z"/>
<g id="face_Mask">
<path fill="#000000" fill-rule="evenodd" stroke="none" d="M174.287,101.102C183.878,91.657,217.241,88.143,231.018,87.669C246.449,87.379,261.731,91.425,276.095,97.710C281.202,99.954,288.922,102.468,292.809,106.937C298.844,113.928,300.176,125.463,300.306,134.335C300.523,139.681,300.314,146.555,298.711,151.349C288.311,182.455,279.971,197.189,272.259,205.262C259.051,219.090,237.769,222.831,218.829,223.694C200.314,224.273,192.060,220.400,175.818,211.362C172.963,209.779,166.683,206.415,164.934,203.825C158.611,194.081,163.943,182.444,162.807,171.377C161.664,162.835,156.643,150.517,155.942,142.102C155.187,130.897,166.402,108.798,174.287,101.102M297.652,99.753C285.630,85.960,249.737,79.293,231.919,79.968C223.541,80.031,215.531,79.802,207.704,80.934C201.895,81.959,196.636,84.048,191.158,85.111C179.104,88.120,174.481,86.157,165.508,95.989C159.085,102.856,147.247,131.394,147.014,140.635C146.956,148.236,153.620,165.884,153.627,174.733C153.579,184.294,147.144,197.330,150.557,205.900C153.746,213.579,161.311,217.601,171.669,222.934C179.625,227.030,188.542,230.805,197.624,232.368C202.318,233.176,207.720,235.103,217.959,234.080C238.269,231.793,259.583,226.994,275.521,212.098C290.088,198.485,309.821,180.128,314.980,149.777C318.291,130.299,304.084,106.974,297.652,99.753Z"/>
<path fill="none" stroke="#f8a087" stroke-width="1" stroke-linecap="butt" stroke-linejoin="round" d="M231.018,87.669C246.449,87.379,261.731,91.425,276.095,97.710"/>
<path fill="none" stroke="#f8a087" stroke-width="1" stroke-linecap="butt" stroke-linejoin="round" d="M276.095,97.710C281.202,99.954,288.922,102.468,292.809,106.937"/>
<path fill="none" stroke="#f8a087" stroke-width="1" stroke-linecap="butt" stroke-linejoin="round" d="M292.809,106.937C298.844,113.928,300.176,125.463,300.306,134.335"/>
<path fill="none" stroke="#f8a087" stroke-width="1" stroke-linecap="butt" stroke-linejoin="round" d="M300.306,134.335C300.523,139.681,300.314,146.555,298.711,151.349"/>
<path fill="none" stroke="#f8a087" stroke-width="1" stroke-linecap="butt" stroke-linejoin="round" d="M298.711,151.349C288.311,182.455,279.971,197.189,272.259,205.262"/>
<path fill="none" stroke="#f8a087" stroke-width="1" stroke-linecap="butt" stroke-linejoin="round" d="M272.259,205.262C259.051,219.090,237.769,222.831,218.829,223.694"/>
<path fill="none" stroke="#f8a087" stroke-width="1" stroke-linecap="butt" stroke-linejoin="round" d="M218.829,223.694C200.314,224.273,192.060,220.400,175.818,211.362"/>
<path fill="none" stroke="#f8a087" stroke-width="1" stroke-linecap="butt" stroke-linejoin="round" d="M175.818,211.362C172.963,209.779,166.683,206.415,164.934,203.825"/>
<path fill="none" stroke="#f8a087" stroke-width="1" stroke-linecap="butt" stroke-linejoin="round" d="M164.934,203.825C158.611,194.081,163.943,182.444,162.807,171.377"/>
<path fill="none" stroke="#f8a087" stroke-width="1" stroke-linecap="butt" stroke-linejoin="round" d="M162.807,171.377C161.664,162.835,156.643,150.517,155.942,142.102"/>
<path fill="none" stroke="#f8a087" stroke-width="1" stroke-linecap="butt" stroke-linejoin="round" d="M155.942,142.102C155.187,130.897,166.402,108.798,174.287,101.102"/>
<path fill="none" stroke="#f8a087" stroke-width="1" stroke-linecap="butt" stroke-linejoin="round" d="M174.287,101.102C183.878,91.657,217.241,88.143,231.018,87.669"/>
<path fill="#f8a087" fill-rule="evenodd" stroke="none" d="M231.018,87.669C246.449,87.379,261.731,91.425,276.095,97.710C281.202,99.954,288.922,102.468,292.809,106.937C298.844,113.928,300.176,125.463,300.306,134.335C300.523,139.681,300.314,146.555,298.711,151.349C288.311,182.455,279.971,197.189,272.259,205.262C259.051,219.090,237.769,222.831,218.829,223.694C200.314,224.273,192.060,220.400,175.818,211.362C172.963,209.779,166.683,206.415,164.934,203.825C158.611,194.081,163.943,182.444,162.807,171.377C161.664,162.835,156.643,150.517,155.942,142.102C155.187,130.897,166.402,108.798,174.287,101.102C183.878,91.657,217.241,88.143,231.018,87.669Z"/>
</g>
<mask id="mask_target" style="mask-type:alpha;">
<use xlink:href="#face_Mask"/>
</mask>
<path fill="#000000" fill-rule="evenodd" stroke="none" d="M199.046,212.147C204.096,213.820,203.653,218.553,203.126,219.005C202.829,219.259,201.819,218.190,198.931,217.378C193.461,215.841,190.642,216.708,190.525,215.976C190.397,215.173,193.134,210.188,199.046,212.147Z"/>
<g id="layer_eyes_Mtarget" mask="url(#mask_target)">
<mask style="mask-type:alpha;" id="f3906406-f197-4bf1-91d8-744c09cca836">
<use xlink:href="#cmn_f3906406-f197-4bf1-91d8-744c09cca836"/>
</mask>
<g id="cmn_f3906406-f197-4bf1-91d8-744c09cca836">
<path fill="#000000" fill-rule="evenodd" stroke="none" d="M149.819,178.856C151.105,180.502,152.726,184.820,153.237,184.374C152.612,184.936,149.755,182.527,149.193,181.073C148.972,180.532,149.499,177.651,149.269,178.331C149.242,178.413,149.776,178.800,149.819,178.856M159.630,183.149C159.546,181.895,159.945,177.690,158.288,176.517C157.336,175.843,155.543,176.374,154.404,176.697C151.580,177.430,140.708,169.842,140.645,165.939C140.633,165.169,143.580,162.225,144.336,162.125C155.689,160.632,134.014,180.290,143.960,192.778C144.881,193.933,153.450,190.989,152.731,191.736C152.284,192.201,159.797,185.653,159.630,183.149M187.451,191.587C183.051,190.561,176.034,187.992,177.014,181.022C177.395,178.307,191.892,178.370,195.476,177.619C199.025,176.875,212.326,173.632,214.110,173.906C215.160,174.130,215.857,177.840,215.454,180.426C214.794,184.655,194.768,193.293,187.451,191.587M222.338,185.543C224.871,181.847,225.764,168.202,224.473,167.229C220.343,164.117,206.545,169.262,198.937,170.618C193.160,171.648,183.679,175.224,179.842,174.858C176.591,174.667,173.927,173.711,172.340,175.313C170.760,176.908,171.415,180.606,171.952,182.785C172.794,186.207,174.660,190.495,178.220,192.719C185.064,197.141,198.916,195.175,206.518,194.282C208.427,194.054,219.369,189.875,222.338,185.543Z"/>
<path fill="none" stroke="#ffffff" stroke-width="1" stroke-linecap="butt" stroke-linejoin="round" d="M214.110,173.906C215.160,174.130,215.857,177.840,215.454,180.426"/>
<path fill="none" stroke="#ffffff" stroke-width="1" stroke-linecap="butt" stroke-linejoin="round" d="M215.454,180.426C214.794,184.655,194.768,193.293,187.451,191.587"/>
<path fill="none" stroke="#ffffff" stroke-width="1" stroke-linecap="butt" stroke-linejoin="round" d="M187.451,191.587C183.051,190.561,176.034,187.992,177.014,181.022"/>
<path fill="none" stroke="#ffffff" stroke-width="1" stroke-linecap="butt" stroke-linejoin="round" d="M177.014,181.022C177.395,178.307,191.892,178.370,195.476,177.619"/>
<path fill="none" stroke="#ffffff" stroke-width="1" stroke-linecap="butt" stroke-linejoin="round" d="M195.476,177.619C199.025,176.875,212.326,173.632,214.110,173.906"/>
<path fill="#ffffff" fill-rule="evenodd" stroke="none" d="M214.110,173.906C215.160,174.130,215.857,177.840,215.454,180.426C214.794,184.655,194.768,193.293,187.451,191.587C183.051,190.561,176.034,187.992,177.014,181.022C177.395,178.307,191.892,178.370,195.476,177.619C199.025,176.875,212.326,173.632,214.110,173.906Z"/>
<path fill="none" stroke="#ffffff" stroke-width="1" stroke-linecap="butt" stroke-linejoin="round" d="M149.269,178.331C149.242,178.413,149.776,178.800,149.819,178.856"/>
<path fill="none" stroke="#ffffff" stroke-width="1" stroke-linecap="butt" stroke-linejoin="round" d="M149.819,178.856C151.105,180.502,152.726,184.820,153.237,184.374"/>
<path fill="none" stroke="#ffffff" stroke-width="1" stroke-linecap="butt" stroke-linejoin="round" d="M153.237,184.374C152.612,184.936,149.755,182.527,149.193,181.073"/>
<path fill="none" stroke="#ffffff" stroke-width="1" stroke-linecap="butt" stroke-linejoin="round" d="M149.193,181.073C148.972,180.532,149.499,177.651,149.269,178.331"/>
<path fill="#ffffff" fill-rule="evenodd" stroke="none" d="M149.269,178.331C149.242,178.413,149.776,178.800,149.819,178.856C151.105,180.502,152.726,184.820,153.237,184.374C152.612,184.936,149.755,182.527,149.193,181.073C148.972,180.532,149.499,177.651,149.269,178.331Z"/>
</g>
<path fill="#000000" fill-rule="evenodd" stroke="none" d="M180.446,169.281C182.767,168.964,185.621,172.435,185.547,180.884C185.490,187.263,183.523,189.665,181.755,189.669C179.843,189.674,178.494,186.918,177.969,180.040C177.409,172.701,178.424,169.557,180.446,169.281Z" mask="url(#f3906406-f197-4bf1-91d8-744c09cca836)"/>
<path fill="#000000" fill-rule="evenodd" stroke="none" d="M151.368,168.257C153.822,168.080,157.028,172.035,156.129,181.160C155.607,186.466,153.714,188.149,152.283,188.172C150.681,188.199,148.790,186.207,148.046,180.284C147.010,172.031,149.141,168.418,151.368,168.257Z" mask="url(#f3906406-f197-4bf1-91d8-744c09cca836)"/>
</g>
<path fill="#000000" fill-rule="evenodd" stroke="none" d="M307.043,144.537C309.180,145.629,311.442,148.692,311.704,151.363C312.971,158.286,301.550,158.504,297.906,158.582C292.258,158.138,286.507,156.489,281.241,155.235C273.993,154.189,266.989,151.842,259.783,150.537C237.168,144.596,214.337,139.648,191.595,134.232C181.248,132.194,172.103,129.242,160.767,127.206C159.651,127.006,149.837,126.669,147.932,125.888C133.269,120.031,147.481,107.733,147.102,100.774C147.143,98.938,143.810,98.170,144.718,94.972C145.296,93.049,150.722,89.410,152.681,88.788C161.842,85.829,172.268,85.970,182.304,86.951C192.921,87.988,202.105,90.934,212.433,93.551C238.016,100.032,280.516,112.689,312.921,129.416C322.038,134.121,302.453,130.036,300.596,129.982C283.368,129.486,212.902,104.796,251.662,120.989C266.550,127.209,293.929,137.288,307.043,144.537M202.762,77.813C190.738,75.227,179.671,72.965,168.035,73.933C163.880,74.268,158.479,74.550,155.239,75.284C148.584,76.792,162.694,58.629,166.423,55.440C184.412,40.437,213.507,31.815,237.736,36.195C285.727,44.871,302.239,60.398,312.839,80.785C316.341,86.947,324.834,114.209,314.155,119.060C310.768,120.339,305.408,116.917,302.925,115.134C293.952,108.973,220.956,81.726,202.762,77.813M309.082,51.684C293.172,39.975,270.414,28.913,242.572,26.422C212.562,23.737,179.033,29.371,156.951,52.994C150.199,60.383,146.650,68.964,141.991,77.029C139.195,81.818,134.452,84.504,133.314,89.866C131.913,97.466,136.357,100.033,136.277,106.396C136.384,113.698,131.589,115.242,131.284,119.929C129.287,132.229,140.579,136.889,150.600,139.322C154.882,140.363,171.134,141.630,179.908,142.824C189.776,144.168,202.919,146.098,212.722,147.853C224.217,149.912,239.380,153.501,250.848,155.706C261.554,157.765,275.792,160.840,286.621,162.103C294.751,163.052,312.709,164.445,313.858,163.702C315.514,162.652,322.242,150.562,323.028,148.133C324.401,143.882,322.801,138.819,325.363,132.070C328.839,122.241,332.660,114.026,332.734,102.768C332.691,82.075,321.335,60.703,309.082,51.684Z"/>
<path fill="none" stroke="#d89f4a" stroke-width="1" stroke-linecap="butt" stroke-linejoin="round" d="M212.433,93.551C238.016,100.032,280.516,112.689,312.921,129.416"/>
<path fill="none" stroke="#d89f4a" stroke-width="1" stroke-linecap="butt" stroke-linejoin="round" d="M312.921,129.416C322.038,134.121,302.453,130.036,300.596,129.982"/>
<path fill="none" stroke="#d89f4a" stroke-width="1" stroke-linecap="butt" stroke-linejoin="round" d="M300.596,129.982C283.368,129.486,212.902,104.796,251.662,120.989"/>
<path fill="none" stroke="#d89f4a" stroke-width="1" stroke-linecap="butt" stroke-linejoin="round" d="M251.662,120.989C266.550,127.209,293.929,137.288,307.043,144.537"/>
<path fill="none" stroke="#d89f4a" stroke-width="1" stroke-linecap="butt" stroke-linejoin="round" d="M307.043,144.537C309.180,145.629,311.442,148.692,311.704,151.363"/>
<path fill="none" stroke="#d89f4a" stroke-width="1" stroke-linecap="butt" stroke-linejoin="round" d="M311.704,151.363C312.971,158.286,301.550,158.504,297.906,158.582"/>
<path fill="none" stroke="#d89f4a" stroke-width="1" stroke-linecap="butt" stroke-linejoin="round" d="M297.906,158.582C292.258,158.138,286.507,156.489,281.241,155.235"/>
<path fill="none" stroke="#d89f4a" stroke-width="1" stroke-linecap="butt" stroke-linejoin="round" d="M281.241,155.235C273.993,154.189,266.989,151.842,259.783,150.537"/>
<path fill="none" stroke="#d89f4a" stroke-width="1" stroke-linecap="butt" stroke-linejoin="round" d="M259.783,150.537C237.168,144.596,214.337,139.648,191.595,134.232"/>
<path fill="none" stroke="#d89f4a" stroke-width="1" stroke-linecap="butt" stroke-linejoin="round" d="M191.595,134.232C181.248,132.194,172.103,129.242,160.767,127.206"/>
<path fill="none" stroke="#d89f4a" stroke-width="1" stroke-linecap="butt" stroke-linejoin="round" d="M160.767,127.206C159.651,127.006,149.837,126.669,147.932,125.888"/>
<path fill="none" stroke="#d89f4a" stroke-width="1" stroke-linecap="butt" stroke-linejoin="round" d="M147.932,125.888C133.269,120.031,147.481,107.733,147.102,100.774"/>
<path fill="none" stroke="#d89f4a" stroke-width="1" stroke-linecap="butt" stroke-linejoin="round" d="M147.102,100.774C147.143,98.938,143.810,98.170,144.718,94.972"/>
<path fill="none" stroke="#d89f4a" stroke-width="1" stroke-linecap="butt" stroke-linejoin="round" d="M144.718,94.972C145.296,93.049,150.722,89.410,152.681,88.788"/>
<path fill="none" stroke="#d89f4a" stroke-width="1" stroke-linecap="butt" stroke-linejoin="round" d="M152.681,88.788C161.842,85.829,172.268,85.970,182.304,86.951"/>
<path fill="none" stroke="#d89f4a" stroke-width="1" stroke-linecap="butt" stroke-linejoin="round" d="M182.304,86.951C192.921,87.988,202.105,90.934,212.433,93.551"/>
<path fill="#d89f4a" fill-rule="evenodd" stroke="none" d="M212.433,93.551C238.016,100.032,280.516,112.689,312.921,129.416C322.038,134.121,302.453,130.036,300.596,129.982C283.368,129.486,212.902,104.796,251.662,120.989C266.550,127.209,293.929,137.288,307.043,144.537C309.180,145.629,311.442,148.692,311.704,151.363C312.971,158.286,301.550,158.504,297.906,158.582C292.258,158.138,286.507,156.489,281.241,155.235C273.993,154.189,266.989,151.842,259.783,150.537C237.168,144.596,214.337,139.648,191.595,134.232C181.248,132.194,172.103,129.242,160.767,127.206C159.651,127.006,149.837,126.669,147.932,125.888C133.269,120.031,147.481,107.733,147.102,100.774C147.143,98.938,143.810,98.170,144.718,94.972C145.296,93.049,150.722,89.410,152.681,88.788C161.842,85.829,172.268,85.970,182.304,86.951C192.921,87.988,202.105,90.934,212.433,93.551Z"/>
<path fill="none" stroke="#cc9bc5" stroke-width="1" stroke-linecap="butt" stroke-linejoin="round" d="M237.736,36.195C285.727,44.871,302.239,60.398,312.839,80.785"/>
<path fill="none" stroke="#cc9bc5" stroke-width="1" stroke-linecap="butt" stroke-linejoin="round" d="M312.839,80.785C316.341,86.947,324.834,114.209,314.155,119.060"/>
<path fill="none" stroke="#cc9bc5" stroke-width="1" stroke-linecap="butt" stroke-linejoin="round" d="M314.155,119.060C310.768,120.339,305.408,116.917,302.925,115.134"/>
<path fill="none" stroke="#cc9bc5" stroke-width="1" stroke-linecap="butt" stroke-linejoin="round" d="M302.925,115.134C293.952,108.973,220.956,81.726,202.762,77.813"/>
<path fill="none" stroke="#cc9bc5" stroke-width="1" stroke-linecap="butt" stroke-linejoin="round" d="M202.762,77.813C190.738,75.227,179.671,72.965,168.035,73.933"/>
<path fill="none" stroke="#cc9bc5" stroke-width="1" stroke-linecap="butt" stroke-linejoin="round" d="M168.035,73.933C163.880,74.268,158.479,74.550,155.239,75.284"/>
<path fill="none" stroke="#cc9bc5" stroke-width="1" stroke-linecap="butt" stroke-linejoin="round" d="M155.239,75.284C148.584,76.792,162.694,58.629,166.423,55.440"/>
<path fill="none" stroke="#cc9bc5" stroke-width="1" stroke-linecap="butt" stroke-linejoin="round" d="M166.423,55.440C184.412,40.437,213.507,31.815,237.736,36.195"/>
<path fill="#cc9bc5" fill-rule="evenodd" stroke="none" d="M237.736,36.195C285.727,44.871,302.239,60.398,312.839,80.785C316.341,86.947,324.834,114.209,314.155,119.060C310.768,120.339,305.408,116.917,302.925,115.134C293.952,108.973,220.956,81.726,202.762,77.813C190.738,75.227,179.671,72.965,168.035,73.933C163.880,74.268,158.479,74.550,155.239,75.284C148.584,76.792,162.694,58.629,166.423,55.440C184.412,40.437,213.507,31.815,237.736,36.195Z"/>
<path fill="#000000" fill-rule="evenodd" stroke="none" d="M257.101,182.822C257.725,181.471,260.945,177.692,262.165,176.560C272.308,166.371,288.822,158.256,295.569,167.239C303.068,177.666,286.028,200.380,273.606,203.646C259.124,207.220,252.065,194.732,257.101,182.822M310.121,172.716C309.158,161.368,303.667,152.937,285.762,154.149C268.775,155.298,262.554,177.647,260.075,191.482C259.642,194.325,259.863,197.415,260.348,200.108C262.084,210.722,269.093,217.341,279.827,211.617C292.621,204.625,310.962,188.185,310.121,172.716Z"/>
<path fill="none" stroke="#f8a087" stroke-width="1" stroke-linecap="butt" stroke-linejoin="round" d="M262.165,176.560C272.308,166.371,288.822,158.256,295.569,167.239"/>
<path fill="none" stroke="#f8a087" stroke-width="1" stroke-linecap="butt" stroke-linejoin="round" d="M295.569,167.239C303.068,177.666,286.028,200.380,273.606,203.646"/>
<path fill="none" stroke="#f8a087" stroke-width="1" stroke-linecap="butt" stroke-linejoin="round" d="M273.606,203.646C259.124,207.220,252.065,194.732,257.101,182.822"/>
<path fill="none" stroke="#f8a087" stroke-width="1" stroke-linecap="butt" stroke-linejoin="round" d="M257.101,182.822C257.725,181.471,260.945,177.692,262.165,176.560"/>
<path fill="#f8a087" fill-rule="evenodd" stroke="none" d="M262.165,176.560C272.308,166.371,288.822,158.256,295.569,167.239C303.068,177.666,286.028,200.380,273.606,203.646C259.124,207.220,252.065,194.732,257.101,182.822C257.725,181.471,260.945,177.692,262.165,176.560Z"/>
<path fill="#000000" fill-rule="evenodd" stroke="none" d="M284.070,215.512C274.699,219.193,275.580,201.459,278.734,202.015C283.071,203.895,293.177,218.152,284.070,215.512M294.822,209.325C288.196,209.170,285.948,199.910,285.757,196.082C293.065,198.378,301.952,204.741,294.822,209.325M305.781,207.099C304.097,198.752,292.349,192.859,284.869,188.701C282.015,187.114,272.577,196.754,271.898,200.122C270.463,204.065,271.063,226.141,285.080,224.661C290.924,223.783,307.135,213.807,305.781,207.099Z"/>
<path fill="none" stroke="#fafd5b" stroke-width="1" stroke-linecap="butt" stroke-linejoin="round" d="M285.757,196.082C293.065,198.378,301.952,204.741,294.822,209.325"/>
<path fill="none" stroke="#fafd5b" stroke-width="1" stroke-linecap="butt" stroke-linejoin="round" d="M294.822,209.325C288.196,209.170,285.948,199.910,285.757,196.082"/>
<path fill="#fafd5b" fill-rule="evenodd" stroke="none" d="M285.757,196.082C293.065,198.378,301.952,204.741,294.822,209.325C288.196,209.170,285.948,199.910,285.757,196.082Z"/>
<path fill="none" stroke="#fafd5b" stroke-width="1" stroke-linecap="butt" stroke-linejoin="round" d="M278.734,202.015C283.071,203.895,293.177,218.152,284.070,215.512"/>
<path fill="none" stroke="#fafd5b" stroke-width="1" stroke-linecap="butt" stroke-linejoin="round" d="M284.070,215.512C274.699,219.193,275.580,201.459,278.734,202.015"/>
<path fill="#fafd5b" fill-rule="evenodd" stroke="none" d="M278.734,202.015C283.071,203.895,293.177,218.152,284.070,215.512C274.699,219.193,275.580,201.459,278.734,202.015Z"/>
</g>
<path fill="#000000" fill-rule="evenodd" stroke="none" d="M211.956,271.839C213.825,276.586,208.277,286.082,207.310,290.659C201.374,308.254,192.799,325.156,193.243,343.288C193.553,348.965,197.450,361.176,192.289,365.310C190.546,366.706,185.733,364.002,184.843,365.387C183.072,368.128,179.306,358.446,178.644,356.981C177.962,355.469,176.135,346.948,176.053,344.521C176.185,339.823,177.227,330.708,178.189,324.858C179.196,319.019,179.205,312.701,181.748,306.683C183.972,299.976,188.317,292.622,190.693,285.108C193.235,280.498,196.935,278.033,196.595,274.328C195.908,270.630,194.271,268.630,197.573,267.183C201.734,265.701,211.312,266.794,211.956,271.839M274.231,278.871C275.785,277.640,289.887,271.936,291.645,271.300C304.432,267.355,306.625,282.595,306.137,290.456C305.969,293.887,304.979,305.888,305.332,308.329C305.777,313.535,308.777,316.856,309.223,321.317C309.773,332.120,311.134,325.525,309.122,334.675C308.611,336.986,306.815,341.660,305.690,343.689C304.388,345.740,300.205,349.253,299.045,351.214C295.965,355.513,294.833,361.424,287.185,362.764C285.806,363.184,273.113,370.087,270.889,371.167C266.903,372.841,261.911,375.921,258.143,373.203C253.643,369.571,254.301,361.550,253.503,355.404C251.503,341.773,253.607,327.889,257.081,314.499C259.356,303.903,266.080,286.853,274.231,278.871M287.748,262.512C284.844,264.215,278.579,264.470,276.756,264.763C272.781,265.185,272.333,261.754,272.124,258.954C271.950,254.453,275.118,248.013,278.488,244.801C281.138,242.275,285.740,240.057,289.758,240.119C293.707,240.040,300.183,243.412,299.490,247.853C299.212,250.868,292.608,259.661,287.748,262.512M214.272,244.196C218.739,253.127,223.713,262.272,218.473,261.399C212.469,260.398,209.523,260.021,200.129,256.150C189.638,251.826,186.931,236.731,192.858,232.051C198.654,227.474,209.041,233.735,214.272,244.196M316.317,350.262C318.344,345.303,320.776,342.107,320.892,336.515C320.944,331.710,319.893,326.056,317.716,321.800C313.290,313.671,311.252,310.553,305.552,301.767C303.464,298.668,300.682,296.603,300.199,293.050C299.590,289.650,301.208,271.913,302.324,268.965C303.410,263.874,308.885,260.669,310.220,256.067C311.445,252.299,312.745,248.277,312.357,244.334C312.141,239.085,307.662,235.391,304.025,232.343C298.847,228.500,293.788,228.016,287.208,228.461C277.650,229.121,271.937,237.576,267.849,243.743C262.025,252.528,262.544,267.790,259.350,277.835C257.521,283.591,254.236,291.345,252.170,296.641C243.765,317.222,228.612,374.421,247.336,386.677C248.823,387.794,260.399,389.298,263.813,388.446C272.248,386.387,275.668,383.675,283.760,381.268C290.401,379.571,299.751,369.793,305.862,363.494C309.327,360.149,314.981,353.526,316.317,350.262M220.819,234.799C215.600,228.223,206.559,216.638,198.139,218.406C193.867,219.447,187.828,222.446,184.665,225.801C181.682,228.966,178.463,234.473,178.404,238.877C178.208,244.308,178.219,250.759,180.013,255.408C182.122,260.871,190.966,265.250,191.808,270.963C192.114,273.526,185.593,284.698,184.573,287.729C182.596,294.190,178.648,300.139,176.597,305.657C174.582,311.078,172.566,318.537,171.021,324.110C168.922,331.678,165.151,340.953,164.646,349.501C164.155,353.828,165.530,363.788,168.296,369.086C169.996,372.343,174.423,377.031,176.645,378.047C177.981,378.657,191.879,383.059,196.760,379.484C205.609,373.004,202.949,359.074,201.351,343.212C199.834,328.677,211.161,317.385,215.841,303.364C218.088,296.546,226.066,276.421,226.872,269.045C227.494,263.354,229.561,259.569,228.305,251.605C227.497,247.313,224.250,239.122,220.819,234.799Z"/>
<path fill="none" stroke="#a60d3f" stroke-width="1" stroke-linecap="butt" stroke-linejoin="round" d="M291.645,271.300C304.432,267.355,306.625,282.595,306.137,290.456"/>
<path fill="none" stroke="#a60d3f" stroke-width="1" stroke-linecap="butt" stroke-linejoin="round" d="M306.137,290.456C305.969,293.887,304.979,305.888,305.332,308.329"/>
<path fill="none" stroke="#a60d3f" stroke-width="1" stroke-linecap="butt" stroke-linejoin="round" d="M305.332,308.329C305.777,313.535,308.777,316.856,309.223,321.317"/>
<path fill="none" stroke="#a60d3f" stroke-width="1" stroke-linecap="butt" stroke-linejoin="round" d="M309.223,321.317C309.773,332.120,311.134,325.525,309.122,334.675"/>
<path fill="none" stroke="#a60d3f" stroke-width="1" stroke-linecap="butt" stroke-linejoin="round" d="M309.122,334.675C308.611,336.986,306.815,341.660,305.690,343.689"/>
<path fill="none" stroke="#a60d3f" stroke-width="1" stroke-linecap="butt" stroke-linejoin="round" d="M305.690,343.689C304.388,345.740,300.205,349.253,299.045,351.214"/>
<path fill="none" stroke="#a60d3f" stroke-width="1" stroke-linecap="butt" stroke-linejoin="round" d="M299.045,351.214C295.965,355.513,294.833,361.424,287.185,362.764"/>
<path fill="none" stroke="#a60d3f" stroke-width="1" stroke-linecap="butt" stroke-linejoin="round" d="M287.185,362.764C285.806,363.184,273.113,370.087,270.889,371.167"/>
<path fill="none" stroke="#a60d3f" stroke-width="1" stroke-linecap="butt" stroke-linejoin="round" d="M270.889,371.167C266.903,372.841,261.911,375.921,258.143,373.203"/>
<path fill="none" stroke="#a60d3f" stroke-width="1" stroke-linecap="butt" stroke-linejoin="round" d="M258.143,373.203C253.643,369.571,254.301,361.550,253.503,355.404"/>
<path fill="none" stroke="#a60d3f" stroke-width="1" stroke-linecap="butt" stroke-linejoin="round" d="M253.503,355.404C251.503,341.773,253.607,327.889,257.081,314.499"/>
<path fill="none" stroke="#a60d3f" stroke-width="1" stroke-linecap="butt" stroke-linejoin="round" d="M257.081,314.499C259.356,303.903,266.080,286.853,274.231,278.871"/>
<path fill="none" stroke="#a60d3f" stroke-width="1" stroke-linecap="butt" stroke-linejoin="round" d="M274.231,278.871C275.785,277.640,289.887,271.936,291.645,271.300"/>
<path fill="#a60d3f" fill-rule="evenodd" stroke="none" d="M291.645,271.300C304.432,267.355,306.625,282.595,306.137,290.456C305.969,293.887,304.979,305.888,305.332,308.329C305.777,313.535,308.777,316.856,309.223,321.317C309.773,332.120,311.134,325.525,309.122,334.675C308.611,336.986,306.815,341.660,305.690,343.689C304.388,345.740,300.205,349.253,299.045,351.214C295.965,355.513,294.833,361.424,287.185,362.764C285.806,363.184,273.113,370.087,270.889,371.167C266.903,372.841,261.911,375.921,258.143,373.203C253.643,369.571,254.301,361.550,253.503,355.404C251.503,341.773,253.607,327.889,257.081,314.499C259.356,303.903,266.080,286.853,274.231,278.871C275.785,277.640,289.887,271.936,291.645,271.300Z"/>
<path fill="none" stroke="#a60d3f" stroke-width="1" stroke-linecap="butt" stroke-linejoin="round" d="M197.573,267.183C201.734,265.701,211.312,266.794,211.956,271.839"/>
<path fill="none" stroke="#a60d3f" stroke-width="1" stroke-linecap="butt" stroke-linejoin="round" d="M211.956,271.839C213.825,276.586,208.277,286.082,207.310,290.659"/>
<path fill="none" stroke="#a60d3f" stroke-width="1" stroke-linecap="butt" stroke-linejoin="round" d="M207.310,290.659C201.374,308.254,192.799,325.156,193.243,343.288"/>
<path fill="none" stroke="#a60d3f" stroke-width="1" stroke-linecap="butt" stroke-linejoin="round" d="M193.243,343.288C193.553,348.965,197.450,361.176,192.289,365.310"/>
<path fill="none" stroke="#a60d3f" stroke-width="1" stroke-linecap="butt" stroke-linejoin="round" d="M192.289,365.310C190.546,366.706,185.733,364.002,184.843,365.387"/>
<path fill="none" stroke="#a60d3f" stroke-width="1" stroke-linecap="butt" stroke-linejoin="round" d="M184.843,365.387C183.072,368.128,179.306,358.446,178.644,356.981"/>
<path fill="none" stroke="#a60d3f" stroke-width="1" stroke-linecap="butt" stroke-linejoin="round" d="M178.644,356.981C177.962,355.469,176.135,346.948,176.053,344.521"/>
<path fill="none" stroke="#a60d3f" stroke-width="1" stroke-linecap="butt" stroke-linejoin="round" d="M176.053,344.521C176.185,339.823,177.227,330.708,178.189,324.858"/>
<path fill="none" stroke="#a60d3f" stroke-width="1" stroke-linecap="butt" stroke-linejoin="round" d="M178.189,324.858C179.196,319.019,179.205,312.701,181.748,306.683"/>
<path fill="none" stroke="#a60d3f" stroke-width="1" stroke-linecap="butt" stroke-linejoin="round" d="M181.748,306.683C183.972,299.976,188.317,292.622,190.693,285.108"/>
<path fill="none" stroke="#a60d3f" stroke-width="1" stroke-linecap="butt" stroke-linejoin="round" d="M190.693,285.108C193.235,280.498,196.935,278.033,196.595,274.328"/>
<path fill="none" stroke="#a60d3f" stroke-width="1" stroke-linecap="butt" stroke-linejoin="round" d="M196.595,274.328C195.908,270.630,194.271,268.630,197.573,267.183"/>
<path fill="#a60d3f" fill-rule="evenodd" stroke="none" d="M197.573,267.183C201.734,265.701,211.312,266.794,211.956,271.839C213.825,276.586,208.277,286.082,207.310,290.659C201.374,308.254,192.799,325.156,193.243,343.288C193.553,348.965,197.450,361.176,192.289,365.310C190.546,366.706,185.733,364.002,184.843,365.387C183.072,368.128,179.306,358.446,178.644,356.981C177.962,355.469,176.135,346.948,176.053,344.521C176.185,339.823,177.227,330.708,178.189,324.858C179.196,319.019,179.205,312.701,181.748,306.683C183.972,299.976,188.317,292.622,190.693,285.108C193.235,280.498,196.935,278.033,196.595,274.328C195.908,270.630,194.271,268.630,197.573,267.183Z"/>
<path fill="none" stroke="#a60d3f" stroke-width="1" stroke-linecap="butt" stroke-linejoin="round" d="M289.758,240.119C293.707,240.040,300.183,243.412,299.490,247.853"/>
<path fill="none" stroke="#a60d3f" stroke-width="1" stroke-linecap="butt" stroke-linejoin="round" d="M299.490,247.853C299.212,250.868,292.608,259.661,287.748,262.512"/>
<path fill="none" stroke="#a60d3f" stroke-width="1" stroke-linecap="butt" stroke-linejoin="round" d="M287.748,262.512C284.844,264.215,278.579,264.470,276.756,264.763"/>
<path fill="none" stroke="#a60d3f" stroke-width="1" stroke-linecap="butt" stroke-linejoin="round" d="M276.756,264.763C272.781,265.185,272.333,261.754,272.124,258.954"/>
<path fill="none" stroke="#a60d3f" stroke-width="1" stroke-linecap="butt" stroke-linejoin="round" d="M272.124,258.954C271.950,254.453,275.118,248.013,278.488,244.801"/>
<path fill="none" stroke="#a60d3f" stroke-width="1" stroke-linecap="butt" stroke-linejoin="round" d="M278.488,244.801C281.138,242.275,285.740,240.057,289.758,240.119"/>
<path fill="#a60d3f" fill-rule="evenodd" stroke="none" d="M289.758,240.119C293.707,240.040,300.183,243.412,299.490,247.853C299.212,250.868,292.608,259.661,287.748,262.512C284.844,264.215,278.579,264.470,276.756,264.763C272.781,265.185,272.333,261.754,272.124,258.954C271.950,254.453,275.118,248.013,278.488,244.801C281.138,242.275,285.740,240.057,289.758,240.119Z"/>
<path fill="none" stroke="#a60d3f" stroke-width="1" stroke-linecap="butt" stroke-linejoin="round" d="M214.272,244.196C218.739,253.127,223.713,262.272,218.473,261.399"/>
<path fill="none" stroke="#a60d3f" stroke-width="1" stroke-linecap="butt" stroke-linejoin="round" d="M218.473,261.399C212.469,260.398,209.523,260.021,200.129,256.150"/>
<path fill="none" stroke="#a60d3f" stroke-width="1" stroke-linecap="butt" stroke-linejoin="round" d="M200.129,256.150C189.638,251.826,186.931,236.731,192.858,232.051"/>
<path fill="none" stroke="#a60d3f" stroke-width="1" stroke-linecap="butt" stroke-linejoin="round" d="M192.858,232.051C198.654,227.474,209.041,233.735,214.272,244.196"/>
<path fill="#a60d3f" fill-rule="evenodd" stroke="none" d="M214.272,244.196C218.739,253.127,223.713,262.272,218.473,261.399C212.469,260.398,209.523,260.021,200.129,256.150C189.638,251.826,186.931,236.731,192.858,232.051C198.654,227.474,209.041,233.735,214.272,244.196Z"/>
<path fill="#000000" fill-rule="evenodd" stroke="none" d="M310.139,464.465C306.752,459.179,305.323,450.211,312.948,447.799C318.253,446.075,342.264,451.132,346.301,455.080C353.357,461.323,349.528,476.005,340.915,479.428C330.971,482.865,315.555,472.724,310.139,464.465M289.854,284.220C290.381,280.947,297.702,269.929,302.827,270.498C305.803,270.829,307.739,275.653,309.019,278.192C312.564,286.172,316.254,294.443,319.396,302.831C327.973,325.090,334.662,347.551,340.367,370.303C342.425,379.540,342.270,391.907,345.690,400.188C349.790,409.791,356.072,406.395,359.137,412.681C360.501,415.660,359.899,421.325,361.947,425.959C365.023,433.245,370.722,437.174,373.435,441.801C375.129,444.444,375.827,447.431,372.176,448.138C370.191,449.158,364.856,448.220,362.860,448.242C356.183,446.545,349.510,444.844,342.841,443.140C333.836,441.244,306.541,440.216,301.818,434.280C294.728,425.044,305.581,413.943,306.812,404.614C307.438,401.644,310.404,358.076,309.599,355.206C308.505,348.544,304.108,343.111,301.838,336.386C299.201,327.146,296.471,317.263,294.069,307.594C292.225,299.508,288.022,293.115,289.854,284.220M313.360,259.648C310.542,255.268,302.365,247.792,296.556,249.761C291.738,251.625,291.725,257.650,291.494,261.691C290.921,271.793,289.836,280.279,290.879,289.870C291.303,296.851,292.663,303.061,294.029,309.606C295.625,318.511,295.769,335.990,296.880,346.247C297.612,355.797,300.345,365.599,299.937,373.873C298.560,393.307,289.964,411.733,290.842,431.107C290.954,440.894,293.604,440.852,295.989,448.653C297.729,454.619,296.459,460.958,298.850,466.587C305.004,481.491,322.456,494.938,339.385,491.423C354.987,488.255,355.465,471.281,363.680,462.207C370.911,454.141,385.593,457.970,387.496,449.630C389.414,442.622,379.682,435.079,375.964,429.796C368.534,419.897,374.163,417.505,370.419,409.894C367.695,404.269,359.986,399.364,356.246,392.085C354.213,388.780,353.164,382.466,351.766,378.161C348.844,367.845,345.921,356.088,343.497,345.170C341.002,332.727,338.923,321.731,334.150,309.258C330.357,298.962,318.891,267.412,313.360,259.648Z"/>
<path fill="none" stroke="#a60d3f" stroke-width="1" stroke-linecap="butt" stroke-linejoin="round" d="M302.827,270.498C305.803,270.829,307.739,275.653,309.019,278.192"/>
<path fill="none" stroke="#a60d3f" stroke-width="1" stroke-linecap="butt" stroke-linejoin="round" d="M309.019,278.192C312.564,286.172,316.254,294.443,319.396,302.831"/>
<path fill="none" stroke="#a60d3f" stroke-width="1" stroke-linecap="butt" stroke-linejoin="round" d="M319.396,302.831C327.973,325.090,334.662,347.551,340.367,370.303"/>
<path fill="none" stroke="#a60d3f" stroke-width="1" stroke-linecap="butt" stroke-linejoin="round" d="M340.367,370.303C342.425,379.540,342.270,391.907,345.690,400.188"/>
<path fill="none" stroke="#a60d3f" stroke-width="1" stroke-linecap="butt" stroke-linejoin="round" d="M345.690,400.188C349.790,409.791,356.072,406.395,359.137,412.681"/>
<path fill="none" stroke="#a60d3f" stroke-width="1" stroke-linecap="butt" stroke-linejoin="round" d="M359.137,412.681C360.501,415.660,359.899,421.325,361.947,425.959"/>
<path fill="none" stroke="#a60d3f" stroke-width="1" stroke-linecap="butt" stroke-linejoin="round" d="M361.947,425.959C365.023,433.245,370.722,437.174,373.435,441.801"/>
<path fill="none" stroke="#a60d3f" stroke-width="1" stroke-linecap="butt" stroke-linejoin="round" d="M373.435,441.801C375.129,444.444,375.827,447.431,372.176,448.138"/>
<path fill="none" stroke="#a60d3f" stroke-width="1" stroke-linecap="butt" stroke-linejoin="round" d="M372.176,448.138C370.191,449.158,364.856,448.220,362.860,448.242"/>
<path fill="none" stroke="#a60d3f" stroke-width="1" stroke-linecap="butt" stroke-linejoin="round" d="M362.860,448.242C356.183,446.545,349.510,444.844,342.841,443.140"/>
<path fill="none" stroke="#a60d3f" stroke-width="1" stroke-linecap="butt" stroke-linejoin="round" d="M342.841,443.140C333.836,441.244,306.541,440.216,301.818,434.280"/>
<path fill="none" stroke="#a60d3f" stroke-width="1" stroke-linecap="butt" stroke-linejoin="round" d="M301.818,434.280C294.728,425.044,305.581,413.943,306.812,404.614"/>
<path fill="none" stroke="#a60d3f" stroke-width="1" stroke-linecap="butt" stroke-linejoin="round" d="M306.812,404.614C307.438,401.644,310.404,358.076,309.599,355.206"/>
<path fill="none" stroke="#a60d3f" stroke-width="1" stroke-linecap="butt" stroke-linejoin="round" d="M309.599,355.206C308.505,348.544,304.108,343.111,301.838,336.386"/>
<path fill="none" stroke="#a60d3f" stroke-width="1" stroke-linecap="butt" stroke-linejoin="round" d="M301.838,336.386C299.201,327.146,296.471,317.263,294.069,307.594"/>
<path fill="none" stroke="#a60d3f" stroke-width="1" stroke-linecap="butt" stroke-linejoin="round" d="M294.069,307.594C292.225,299.508,288.022,293.115,289.854,284.220"/>
<path fill="none" stroke="#a60d3f" stroke-width="1" stroke-linecap="butt" stroke-linejoin="round" d="M289.854,284.220C290.381,280.947,297.702,269.929,302.827,270.498"/>
<path fill="#a60d3f" fill-rule="evenodd" stroke="none" d="M302.827,270.498C305.803,270.829,307.739,275.653,309.019,278.192C312.564,286.172,316.254,294.443,319.396,302.831C327.973,325.090,334.662,347.551,340.367,370.303C342.425,379.540,342.270,391.907,345.690,400.188C349.790,409.791,356.072,406.395,359.137,412.681C360.501,415.660,359.899,421.325,361.947,425.959C365.023,433.245,370.722,437.174,373.435,441.801C375.129,444.444,375.827,447.431,372.176,448.138C370.191,449.158,364.856,448.220,362.860,448.242C356.183,446.545,349.510,444.844,342.841,443.140C333.836,441.244,306.541,440.216,301.818,434.280C294.728,425.044,305.581,413.943,306.812,404.614C307.438,401.644,310.404,358.076,309.599,355.206C308.505,348.544,304.108,343.111,301.838,336.386C299.201,327.146,296.471,317.263,294.069,307.594C292.225,299.508,288.022,293.115,289.854,284.220C290.381,280.947,297.702,269.929,302.827,270.498Z"/>
<path fill="none" stroke="#f8a087" stroke-width="1" stroke-linecap="butt" stroke-linejoin="round" d="M312.948,447.799C318.253,446.075,342.264,451.132,346.301,455.080"/>
<path fill="none" stroke="#f8a087" stroke-width="1" stroke-linecap="butt" stroke-linejoin="round" d="M346.301,455.080C353.357,461.323,349.528,476.005,340.915,479.428"/>
<path fill="none" stroke="#f8a087" stroke-width="1" stroke-linecap="butt" stroke-linejoin="round" d="M340.915,479.428C330.971,482.865,315.555,472.724,310.139,464.465"/>
<path fill="none" stroke="#f8a087" stroke-width="1" stroke-linecap="butt" stroke-linejoin="round" d="M310.139,464.465C306.752,459.179,305.323,450.211,312.948,447.799"/>
<path fill="#f8a087" fill-rule="evenodd" stroke="none" d="M312.948,447.799C318.253,446.075,342.264,451.132,346.301,455.080C353.357,461.323,349.528,476.005,340.915,479.428C330.971,482.865,315.555,472.724,310.139,464.465C306.752,459.179,305.323,450.211,312.948,447.799Z"/>
</g>
</svg>
