<svg version="1.1" id="Frame_215" xmlns="http://www.w3.org/2000/svg" xmlns:xlink="http://www.w3.org/1999/xlink" width="480px" height="720px">
<g id="main_bone">
<path fill="#000000" fill-rule="evenodd" stroke="none" d="M182.551,270.663C184.189,268.119,187.407,262.862,191.298,261.701C197.848,259.747,202.831,265.974,203.169,270.557C204.069,278.584,197.419,288.786,194.186,296.360C186.272,314.593,177.832,332.599,172.362,351.162C171.659,354.416,166.372,375.513,166.443,372.864C165.935,379.480,172.417,385.284,174.606,390.968C177.404,398.632,174.468,405.791,172.501,412.733C167.981,427.046,168.362,432.344,168.537,446.337C168.668,448.555,169.022,455.775,165.549,456.152C162.135,456.522,161.165,450.372,160.278,448.033C159.718,445.397,156.946,439.882,157.494,437.512C157.616,433.540,162.176,434.498,157.146,426.296C150.722,416.039,139.430,407.368,136.722,393.992C134.962,383.343,140.729,374.149,144.113,364.332C151.317,343.238,159.286,322.172,168.487,301.536C173.486,290.838,175.966,281.449,182.551,270.663M203.156,264.275C203.978,255.771,201.590,248.101,190.780,250.702C173.375,254.827,165.507,280.626,159.503,295.066C151.079,314.568,144.014,334.319,137.424,354.202C134.723,362.720,131.442,366.993,129.986,371.936C128.185,377.527,128.281,386.157,128.490,391.799C128.102,409.451,133.422,410.425,140.568,424.006C144.357,432.034,140.628,437.157,143.330,444.092C145.310,448.862,149.318,452.131,152.450,456.043C155.226,459.970,155.959,462.258,158.057,465.875C160.599,470.198,168.149,479.913,173.819,477.137C178.064,475.040,177.105,467.137,177.044,463.302C176.793,457.543,178.296,435.226,179.328,428.469C181.207,417.265,187.278,405.315,185.843,393.180C184.676,383.902,176.590,377.084,177.207,367.180C177.688,361.905,181.205,353.412,182.490,347.521C184.599,338.109,185.247,327.951,188.077,318.330C192.912,301.212,202.070,282.394,203.156,264.275Z"/>
<path fill="none" stroke="#a60d3f" stroke-width="1" stroke-linecap="butt" stroke-linejoin="round" d="M191.298,261.701C197.848,259.747,202.831,265.974,203.169,270.557"/>
<path fill="none" stroke="#a60d3f" stroke-width="1" stroke-linecap="butt" stroke-linejoin="round" d="M203.169,270.557C204.069,278.584,197.419,288.786,194.186,296.360"/>
<path fill="none" stroke="#a60d3f" stroke-width="1" stroke-linecap="butt" stroke-linejoin="round" d="M194.186,296.360C186.272,314.593,177.832,332.599,172.362,351.162"/>
<path fill="none" stroke="#a60d3f" stroke-width="1" stroke-linecap="butt" stroke-linejoin="round" d="M172.362,351.162C171.659,354.416,166.372,375.513,166.443,372.864"/>
<path fill="none" stroke="#a60d3f" stroke-width="1" stroke-linecap="butt" stroke-linejoin="round" d="M166.443,372.864C165.935,379.480,172.417,385.284,174.606,390.968"/>
<path fill="none" stroke="#a60d3f" stroke-width="1" stroke-linecap="butt" stroke-linejoin="round" d="M174.606,390.968C177.404,398.632,174.468,405.791,172.501,412.733"/>
<path fill="none" stroke="#a60d3f" stroke-width="1" stroke-linecap="butt" stroke-linejoin="round" d="M172.501,412.733C167.981,427.046,168.362,432.344,168.537,446.337"/>
<path fill="none" stroke="#a60d3f" stroke-width="1" stroke-linecap="butt" stroke-linejoin="round" d="M168.537,446.337C168.668,448.555,169.022,455.775,165.549,456.152"/>
<path fill="none" stroke="#a60d3f" stroke-width="1" stroke-linecap="butt" stroke-linejoin="round" d="M165.549,456.152C162.135,456.522,161.165,450.372,160.278,448.033"/>
<path fill="none" stroke="#a60d3f" stroke-width="1" stroke-linecap="butt" stroke-linejoin="round" d="M160.278,448.033C159.718,445.397,156.946,439.882,157.494,437.512"/>
<path fill="none" stroke="#a60d3f" stroke-width="1" stroke-linecap="butt" stroke-linejoin="round" d="M157.494,437.512C157.616,433.540,162.176,434.498,157.146,426.296"/>
<path fill="none" stroke="#a60d3f" stroke-width="1" stroke-linecap="butt" stroke-linejoin="round" d="M157.146,426.296C150.722,416.039,139.430,407.368,136.722,393.992"/>
<path fill="none" stroke="#a60d3f" stroke-width="1" stroke-linecap="butt" stroke-linejoin="round" d="M136.722,393.992C134.962,383.343,140.729,374.149,144.113,364.332"/>
<path fill="none" stroke="#a60d3f" stroke-width="1" stroke-linecap="butt" stroke-linejoin="round" d="M144.113,364.332C151.317,343.238,159.286,322.172,168.487,301.536"/>
<path fill="none" stroke="#a60d3f" stroke-width="1" stroke-linecap="butt" stroke-linejoin="round" d="M168.487,301.536C173.486,290.838,175.966,281.449,182.551,270.663"/>
<path fill="none" stroke="#a60d3f" stroke-width="1" stroke-linecap="butt" stroke-linejoin="round" d="M182.551,270.663C184.189,268.119,187.407,262.862,191.298,261.701"/>
<path fill="#a60d3f" fill-rule="evenodd" stroke="none" d="M191.298,261.701C197.848,259.747,202.831,265.974,203.169,270.557C204.069,278.584,197.419,288.786,194.186,296.360C186.272,314.593,177.832,332.599,172.362,351.162C171.659,354.416,166.372,375.513,166.443,372.864C165.935,379.480,172.417,385.284,174.606,390.968C177.404,398.632,174.468,405.791,172.501,412.733C167.981,427.046,168.362,432.344,168.537,446.337C168.668,448.555,169.022,455.775,165.549,456.152C162.135,456.522,161.165,450.372,160.278,448.033C159.718,445.397,156.946,439.882,157.494,437.512C157.616,433.540,162.176,434.498,157.146,426.296C150.722,416.039,139.430,407.368,136.722,393.992C134.962,383.343,140.729,374.149,144.113,364.332C151.317,343.238,159.286,322.172,168.487,301.536C173.486,290.838,175.966,281.449,182.551,270.663C184.189,268.119,187.407,262.862,191.298,261.701Z"/>
<g id="layer_left_leg">
<path fill="#000000" fill-rule="evenodd" stroke="none" d="M329.039,626.070C318.646,616.870,326.063,593.543,336.134,587.950C351.372,579.261,371.250,601.117,371.113,607.813C370.594,617.930,355.546,623.176,347.562,625.787C343.110,627.077,332.404,629.178,329.039,626.070M362.413,578.694C350.281,572.078,329.700,580.309,321.214,589.360C302.411,608.610,310.639,652.179,343.631,640.389C354.490,636.571,377.899,626.718,382.082,617.414C385.947,610.112,381.244,601.640,377.206,594.881C373.565,589.511,368.168,581.939,362.413,578.694Z"/>
<path fill="none" stroke="#d88e4b" stroke-width="1" stroke-linecap="butt" stroke-linejoin="round" d="M336.134,587.950C351.372,579.261,371.250,601.117,371.113,607.813"/>
<path fill="none" stroke="#d88e4b" stroke-width="1" stroke-linecap="butt" stroke-linejoin="round" d="M371.113,607.813C370.594,617.930,355.546,623.176,347.562,625.787"/>
<path fill="none" stroke="#d88e4b" stroke-width="1" stroke-linecap="butt" stroke-linejoin="round" d="M347.562,625.787C343.110,627.077,332.404,629.178,329.039,626.070"/>
<path fill="none" stroke="#d88e4b" stroke-width="1" stroke-linecap="butt" stroke-linejoin="round" d="M329.039,626.070C318.646,616.870,326.063,593.543,336.134,587.950"/>
<path fill="#d88e4b" fill-rule="evenodd" stroke="none" d="M336.134,587.950C351.372,579.261,371.250,601.117,371.113,607.813C370.594,617.930,355.546,623.176,347.562,625.787C343.110,627.077,332.404,629.178,329.039,626.070C318.646,616.870,326.063,593.543,336.134,587.950Z"/>
<path fill="#000000" fill-rule="evenodd" stroke="none" d="M245.900,416.742C246.094,411.680,256.285,412.428,259.930,411.097C265.439,409.392,277.227,403.700,282.825,405.766C293.347,409.252,305.262,438.197,308.982,448.418C319.337,479.518,330.301,508.287,340.158,538.365C341.894,544.104,343.774,550.004,345.313,555.677C346.817,560.449,346.155,567.819,350.359,569.790C352.525,571.310,356.427,566.855,357.621,569.024C361.244,576.668,351.690,575.360,349.217,580.727C344.445,590.297,332.708,600.794,323.106,601.114C316.683,601.550,304.304,597.851,300.135,592.828C296.311,588.220,292.797,582.267,290.077,577.042C276.799,551.542,276.040,495.120,258.290,462.326C249.353,445.815,255.597,441.097,260.374,427.102C261.223,424.619,249.638,430.174,247.400,428.717C244.591,427.192,245.613,419.873,245.900,416.742M287.099,394.692C279.646,391.889,263.725,398.951,256.932,401.581C253.082,403.054,239.842,404.125,237.565,406.906C224.377,423.015,242.835,459.528,250.105,475.361C251.927,480.110,258.805,503.379,260.618,509.978C269.545,536.470,270.637,561.175,280.828,587.211C283.422,594.096,285.352,601.092,289.809,606.795C302.099,622.297,318.813,620.390,339.484,612.821C350.251,608.886,373.024,596.104,374.911,572.419C375.630,563.366,367.359,553.715,365.370,551.355C361.901,547.241,357.470,543.534,354.688,538.463C345.093,522.282,345.815,501.863,338.928,484.223C330.119,461.598,310.631,403.601,287.099,394.692Z"/>
<path fill="none" stroke="#392966" stroke-width="1" stroke-linecap="butt" stroke-linejoin="round" d="M259.930,411.097C265.439,409.392,277.227,403.700,282.825,405.766"/>
<path fill="none" stroke="#392966" stroke-width="1" stroke-linecap="butt" stroke-linejoin="round" d="M282.825,405.766C293.347,409.252,305.262,438.197,308.982,448.418"/>
<path fill="none" stroke="#392966" stroke-width="1" stroke-linecap="butt" stroke-linejoin="round" d="M308.982,448.418C319.337,479.518,330.301,508.287,340.158,538.365"/>
<path fill="none" stroke="#392966" stroke-width="1" stroke-linecap="butt" stroke-linejoin="round" d="M340.158,538.365C341.894,544.104,343.774,550.004,345.313,555.677"/>
<path fill="none" stroke="#392966" stroke-width="1" stroke-linecap="butt" stroke-linejoin="round" d="M345.313,555.677C346.817,560.449,346.155,567.819,350.359,569.790"/>
<path fill="none" stroke="#392966" stroke-width="1" stroke-linecap="butt" stroke-linejoin="round" d="M350.359,569.790C352.525,571.310,356.427,566.855,357.621,569.024"/>
<path fill="none" stroke="#392966" stroke-width="1" stroke-linecap="butt" stroke-linejoin="round" d="M357.621,569.024C361.244,576.668,351.690,575.360,349.217,580.727"/>
<path fill="none" stroke="#392966" stroke-width="1" stroke-linecap="butt" stroke-linejoin="round" d="M349.217,580.727C344.445,590.297,332.708,600.794,323.106,601.114"/>
<path fill="none" stroke="#392966" stroke-width="1" stroke-linecap="butt" stroke-linejoin="round" d="M323.106,601.114C316.683,601.550,304.304,597.851,300.135,592.828"/>
<path fill="none" stroke="#392966" stroke-width="1" stroke-linecap="butt" stroke-linejoin="round" d="M300.135,592.828C296.311,588.220,292.797,582.267,290.077,577.042"/>
<path fill="none" stroke="#392966" stroke-width="1" stroke-linecap="butt" stroke-linejoin="round" d="M290.077,577.042C276.799,551.542,276.040,495.120,258.290,462.326"/>
<path fill="none" stroke="#392966" stroke-width="1" stroke-linecap="butt" stroke-linejoin="round" d="M258.290,462.326C249.353,445.815,255.597,441.097,260.374,427.102"/>
<path fill="none" stroke="#392966" stroke-width="1" stroke-linecap="butt" stroke-linejoin="round" d="M260.374,427.102C261.223,424.619,249.638,430.174,247.400,428.717"/>
<path fill="none" stroke="#392966" stroke-width="1" stroke-linecap="butt" stroke-linejoin="round" d="M247.400,428.717C244.591,427.192,245.613,419.873,245.900,416.742"/>
<path fill="none" stroke="#392966" stroke-width="1" stroke-linecap="butt" stroke-linejoin="round" d="M245.900,416.742C246.094,411.680,256.285,412.428,259.930,411.097"/>
<path fill="#392966" fill-rule="evenodd" stroke="none" d="M259.930,411.097C265.439,409.392,277.227,403.700,282.825,405.766C293.347,409.252,305.262,438.197,308.982,448.418C319.337,479.518,330.301,508.287,340.158,538.365C341.894,544.104,343.774,550.004,345.313,555.677C346.817,560.449,346.155,567.819,350.359,569.790C352.525,571.310,356.427,566.855,357.621,569.024C361.244,576.668,351.690,575.360,349.217,580.727C344.445,590.297,332.708,600.794,323.106,601.114C316.683,601.550,304.304,597.851,300.135,592.828C296.311,588.220,292.797,582.267,290.077,577.042C276.799,551.542,276.040,495.120,258.290,462.326C249.353,445.815,255.597,441.097,260.374,427.102C261.223,424.619,249.638,430.174,247.400,428.717C244.591,427.192,245.613,419.873,245.900,416.742C246.094,411.680,256.285,412.428,259.930,411.097Z"/>
<path fill="#000000" fill-rule="evenodd" stroke="none" d="M336.842,658.651C309.746,662.026,303.878,626.319,321.450,613.397C338.871,600.771,360.205,607.246,369.779,618.163C375.111,623.500,378.887,629.801,377.739,637.405C374.437,651.397,349.335,657.005,336.842,658.651M382.605,607.539C375.301,595.525,360.619,586.654,349.022,586.316C319.646,585.591,299.830,600.878,299.076,627.969C298.132,643.573,305.931,658.402,318.646,667.395C328.664,674.028,354.130,667.516,364.480,663.175C373.327,658.700,384.161,652.398,387.905,642.172C390.740,634.768,386.638,614.294,382.605,607.539Z"/>
<path fill="none" stroke="#d88e4b" stroke-width="1" stroke-linecap="butt" stroke-linejoin="round" d="M321.450,613.397C338.871,600.771,360.205,607.246,369.779,618.163"/>
<path fill="none" stroke="#d88e4b" stroke-width="1" stroke-linecap="butt" stroke-linejoin="round" d="M369.779,618.163C375.111,623.500,378.887,629.801,377.739,637.405"/>
<path fill="none" stroke="#d88e4b" stroke-width="1" stroke-linecap="butt" stroke-linejoin="round" d="M377.739,637.405C374.437,651.397,349.335,657.005,336.842,658.651"/>
<path fill="none" stroke="#d88e4b" stroke-width="1" stroke-linecap="butt" stroke-linejoin="round" d="M336.842,658.651C309.746,662.026,303.878,626.319,321.450,613.397"/>
<path fill="#d88e4b" fill-rule="evenodd" stroke="none" d="M321.450,613.397C338.871,600.771,360.205,607.246,369.779,618.163C375.111,623.500,378.887,629.801,377.739,637.405C374.437,651.397,349.335,657.005,336.842,658.651C309.746,662.026,303.878,626.319,321.450,613.397Z"/>
<path fill="#000000" fill-rule="evenodd" stroke="none" d="M344.678,672.308C334.230,675.443,326.940,662.320,326.794,668.141C326.702,671.802,336.815,671.894,341.083,671.792C350.638,671.933,364.372,666.189,371.342,659.280C373.763,657.246,381.675,651.466,381.822,651.680C384.176,655.110,372.745,659.951,369.156,661.565C366.339,663.205,345.446,671.883,344.678,672.308M327.051,667.827C331.452,664.499,342.871,665.848,347.038,665.956C363.585,666.384,371.019,654.911,378.323,650.940C378.962,650.603,379.788,648.279,381.719,649.410C388.059,653.122,358.382,670.619,344.255,670.356C336.748,670.993,325.249,669.189,327.051,667.827M383.660,640.888C379.907,639.494,366.365,652.841,350.832,658.125C342.817,660.883,318.804,654.347,316.290,665.519C315.751,667.939,318.899,675.148,321.064,676.229C335.495,683.759,383.669,664.248,388.147,657.587C389.600,655.427,389.397,643.018,383.660,640.888Z"/>
<path fill="none" stroke="#6e2353" stroke-width="1" stroke-linecap="butt" stroke-linejoin="round" d="M326.794,668.141C326.702,671.802,336.815,671.894,341.083,671.792"/>
<path fill="none" stroke="#6e2353" stroke-width="1" stroke-linecap="butt" stroke-linejoin="round" d="M341.083,671.792C350.638,671.933,364.372,666.189,371.342,659.280"/>
<path fill="none" stroke="#6e2353" stroke-width="1" stroke-linecap="butt" stroke-linejoin="round" d="M371.342,659.280C373.763,657.246,381.675,651.466,381.822,651.680"/>
<path fill="none" stroke="#6e2353" stroke-width="1" stroke-linecap="butt" stroke-linejoin="round" d="M381.822,651.680C384.176,655.110,372.745,659.951,369.156,661.565"/>
<path fill="none" stroke="#6e2353" stroke-width="1" stroke-linecap="butt" stroke-linejoin="round" d="M369.156,661.565C366.339,663.205,345.446,671.883,344.678,672.308"/>
<path fill="none" stroke="#6e2353" stroke-width="1" stroke-linecap="butt" stroke-linejoin="round" d="M344.678,672.308C334.230,675.443,326.940,662.320,326.794,668.141"/>
<path fill="#6e2353" fill-rule="evenodd" stroke="none" d="M326.794,668.141C326.702,671.802,336.815,671.894,341.083,671.792C350.638,671.933,364.372,666.189,371.342,659.280C373.763,657.246,381.675,651.466,381.822,651.680C384.176,655.110,372.745,659.951,369.156,661.565C366.339,663.205,345.446,671.883,344.678,672.308C334.230,675.443,326.940,662.320,326.794,668.141Z"/>
<path fill="none" stroke="#6e2353" stroke-width="1" stroke-linecap="butt" stroke-linejoin="round" d="M347.038,665.956C363.585,666.384,371.019,654.911,378.323,650.940"/>
<path fill="none" stroke="#6e2353" stroke-width="1" stroke-linecap="butt" stroke-linejoin="round" d="M378.323,650.940C378.962,650.603,379.788,648.279,381.719,649.410"/>
<path fill="none" stroke="#6e2353" stroke-width="1" stroke-linecap="butt" stroke-linejoin="round" d="M381.719,649.410C388.059,653.122,358.382,670.619,344.255,670.356"/>
<path fill="none" stroke="#6e2353" stroke-width="1" stroke-linecap="butt" stroke-linejoin="round" d="M344.255,670.356C336.748,670.993,325.249,669.189,327.051,667.827"/>
<path fill="none" stroke="#6e2353" stroke-width="1" stroke-linecap="butt" stroke-linejoin="round" d="M327.051,667.827C331.452,664.499,342.871,665.848,347.038,665.956"/>
<path fill="#6e2353" fill-rule="evenodd" stroke="none" d="M347.038,665.956C363.585,666.384,371.019,654.911,378.323,650.940C378.962,650.603,379.788,648.279,381.719,649.410C388.059,653.122,358.382,670.619,344.255,670.356C336.748,670.993,325.249,669.189,327.051,667.827C331.452,664.499,342.871,665.848,347.038,665.956Z"/>
</g>
<g id="layer_right_leg">
<path fill="#000000" fill-rule="evenodd" stroke="none" d="M192.669,621.729C192.875,605.585,193.507,593.026,213.386,589.461C222.235,587.712,239.311,589.882,244.551,598.176C247.300,602.294,246.750,608.502,247.178,612.992C247.940,620.307,253.073,634.285,242.638,636.387C241.970,636.589,223.376,637.595,217.575,637.959C210.196,639.103,202.500,639.942,196.931,635.087C194.039,632.013,192.544,625.527,192.669,621.729M254.007,596.144C249.672,586.050,235.148,580.758,225.133,582.563C212.061,584.758,198.436,580.987,190.371,593.395C184.084,603.065,184.031,620.421,186.478,631.344C187.436,636.390,191.062,645.527,195.462,648.181C198.683,650.032,203.516,649.290,207.230,649.159C225.335,648.802,257.874,653.646,256.423,627.111C255.973,620.249,256.285,601.504,254.007,596.144Z"/>
<path fill="none" stroke="#d88e4b" stroke-width="1" stroke-linecap="butt" stroke-linejoin="round" d="M213.386,589.461C222.235,587.712,239.311,589.882,244.551,598.176"/>
<path fill="none" stroke="#d88e4b" stroke-width="1" stroke-linecap="butt" stroke-linejoin="round" d="M244.551,598.176C247.300,602.294,246.750,608.502,247.178,612.992"/>
<path fill="none" stroke="#d88e4b" stroke-width="1" stroke-linecap="butt" stroke-linejoin="round" d="M247.178,612.992C247.940,620.307,253.073,634.285,242.638,636.387"/>
<path fill="none" stroke="#d88e4b" stroke-width="1" stroke-linecap="butt" stroke-linejoin="round" d="M242.638,636.387C241.970,636.589,223.376,637.595,217.575,637.959"/>
<path fill="none" stroke="#d88e4b" stroke-width="1" stroke-linecap="butt" stroke-linejoin="round" d="M217.575,637.959C210.196,639.103,202.500,639.942,196.931,635.087"/>
<path fill="none" stroke="#d88e4b" stroke-width="1" stroke-linecap="butt" stroke-linejoin="round" d="M196.931,635.087C194.039,632.013,192.544,625.527,192.669,621.729"/>
<path fill="none" stroke="#d88e4b" stroke-width="1" stroke-linecap="butt" stroke-linejoin="round" d="M192.669,621.729C192.875,605.585,193.507,593.026,213.386,589.461"/>
<path fill="#d88e4b" fill-rule="evenodd" stroke="none" d="M213.386,589.461C222.235,587.712,239.311,589.882,244.551,598.176C247.300,602.294,246.750,608.502,247.178,612.992C247.940,620.307,253.073,634.285,242.638,636.387C241.970,636.589,223.376,637.595,217.575,637.959C210.196,639.103,202.500,639.942,196.931,635.087C194.039,632.013,192.544,625.527,192.669,621.729C192.875,605.585,193.507,593.026,213.386,589.461Z"/>
<path fill="#000000" fill-rule="evenodd" stroke="none" d="M183.621,409.837C186.814,398.022,202.391,394.668,213.029,397.164C218.917,398.422,228.783,400.879,232.186,406.177C233.643,408.443,234.353,412.731,233.027,415.065C230.697,419.166,215.383,416.917,218.214,420.813C223.158,427.840,232.988,418.240,237.398,421.902C239.360,423.532,239.673,426.988,240.168,429.862C245.030,451.338,238.939,474.617,239.598,495.941C239.741,502.835,238.470,513.050,239.909,519.286C242.917,534.679,241.126,537.994,241.826,547.269C241.867,550.734,240.690,568.342,242.010,572.810C243.498,577.501,247.098,581.938,247.719,586.836C248.766,595.098,236.727,606.311,229.211,608.745C220.617,611.343,193.899,610.358,185.657,606.228C182.472,604.745,178.521,601.046,177.163,597.581C175.693,594.355,173.618,579.079,174.561,575.362C176.467,568.900,178.947,567.527,180.820,559.867C182.703,550.842,184.535,541.079,183.784,531.671C181.943,513.276,181.893,483.763,183.636,470.500C184.429,463.024,181.887,438.014,182.705,431.091C184.163,419.648,182.087,417.509,183.621,409.837M207.841,385.780C202.111,384.024,197.562,378.914,191.673,381.129C189.879,381.978,186.781,384.334,185.538,385.676C170.127,399.787,171.896,413.331,172.637,432.575C172.610,439.477,172.952,446.643,172.533,453.262C172.072,458.766,170.390,463.314,169.229,468.379C168.559,472.543,168.028,476.997,167.977,482.212C168.055,487.341,169.621,493.320,170.023,502.024C169.761,511.759,170.777,520.913,170.639,530.221C170.760,536.565,168.134,551.338,167.407,556.189C165.376,563.080,162.434,571.074,161.046,577.716C159.738,586.503,161.444,595.722,165.168,603.321C166.903,607.398,169.976,612.227,173.244,614.864C175.375,616.584,178.185,617.529,180.692,618.291C188.970,620.758,196.785,621.798,205.508,621.756C211.383,621.773,217.111,619.930,223.213,620.246C224.229,620.146,232.535,621.741,234.180,621.817C237.138,621.787,241.208,619.066,243.844,617.417C247.340,614.958,253.648,614.054,256.386,610.645C258.599,607.885,259.107,604.130,260.167,600.767C266.112,580.938,260.056,570.328,256.892,552.515C255.133,542.610,251.991,522.216,251.724,511.089C251.120,497.618,253.296,484.500,253.572,470.604C253.748,466.226,253.940,460.976,254.518,456.014C255.007,451.043,253.795,447.071,253.399,442.165C252.864,438.383,252.675,426.205,251.927,422.151C251.407,418.529,251.264,413.990,249.787,410.443C245.760,401.423,231.387,391.798,221.960,389.195C217.241,387.728,212.242,387.584,207.841,385.780Z"/>
<path fill="none" stroke="#392966" stroke-width="1" stroke-linecap="butt" stroke-linejoin="round" d="M213.029,397.164C218.917,398.422,228.783,400.879,232.186,406.177"/>
<path fill="none" stroke="#392966" stroke-width="1" stroke-linecap="butt" stroke-linejoin="round" d="M232.186,406.177C233.643,408.443,234.353,412.731,233.027,415.065"/>
<path fill="none" stroke="#392966" stroke-width="1" stroke-linecap="butt" stroke-linejoin="round" d="M233.027,415.065C230.697,419.166,215.383,416.917,218.214,420.813"/>
<path fill="none" stroke="#392966" stroke-width="1" stroke-linecap="butt" stroke-linejoin="round" d="M218.214,420.813C223.158,427.840,232.988,418.240,237.398,421.902"/>
<path fill="none" stroke="#392966" stroke-width="1" stroke-linecap="butt" stroke-linejoin="round" d="M237.398,421.902C239.360,423.532,239.673,426.988,240.168,429.862"/>
<path fill="none" stroke="#392966" stroke-width="1" stroke-linecap="butt" stroke-linejoin="round" d="M240.168,429.862C245.030,451.338,238.939,474.617,239.598,495.941"/>
<path fill="none" stroke="#392966" stroke-width="1" stroke-linecap="butt" stroke-linejoin="round" d="M239.598,495.941C239.741,502.835,238.470,513.050,239.909,519.286"/>
<path fill="none" stroke="#392966" stroke-width="1" stroke-linecap="butt" stroke-linejoin="round" d="M239.909,519.286C242.917,534.679,241.126,537.994,241.826,547.269"/>
<path fill="none" stroke="#392966" stroke-width="1" stroke-linecap="butt" stroke-linejoin="round" d="M241.826,547.269C241.867,550.734,240.690,568.342,242.010,572.810"/>
<path fill="none" stroke="#392966" stroke-width="1" stroke-linecap="butt" stroke-linejoin="round" d="M242.010,572.810C243.498,577.501,247.098,581.938,247.719,586.836"/>
<path fill="none" stroke="#392966" stroke-width="1" stroke-linecap="butt" stroke-linejoin="round" d="M247.719,586.836C248.766,595.098,236.727,606.311,229.211,608.745"/>
<path fill="none" stroke="#392966" stroke-width="1" stroke-linecap="butt" stroke-linejoin="round" d="M229.211,608.745C220.617,611.343,193.899,610.358,185.657,606.228"/>
<path fill="none" stroke="#392966" stroke-width="1" stroke-linecap="butt" stroke-linejoin="round" d="M185.657,606.228C182.472,604.745,178.521,601.046,177.163,597.581"/>
<path fill="none" stroke="#392966" stroke-width="1" stroke-linecap="butt" stroke-linejoin="round" d="M177.163,597.581C175.693,594.355,173.618,579.079,174.561,575.362"/>
<path fill="none" stroke="#392966" stroke-width="1" stroke-linecap="butt" stroke-linejoin="round" d="M174.561,575.362C176.467,568.900,178.947,567.527,180.820,559.867"/>
<path fill="none" stroke="#392966" stroke-width="1" stroke-linecap="butt" stroke-linejoin="round" d="M180.820,559.867C182.703,550.842,184.535,541.079,183.784,531.671"/>
<path fill="none" stroke="#392966" stroke-width="1" stroke-linecap="butt" stroke-linejoin="round" d="M183.784,531.671C181.943,513.276,181.893,483.763,183.636,470.500"/>
<path fill="none" stroke="#392966" stroke-width="1" stroke-linecap="butt" stroke-linejoin="round" d="M183.636,470.500C184.429,463.024,181.887,438.014,182.705,431.091"/>
<path fill="none" stroke="#392966" stroke-width="1" stroke-linecap="butt" stroke-linejoin="round" d="M182.705,431.091C184.163,419.648,182.087,417.509,183.621,409.837"/>
<path fill="none" stroke="#392966" stroke-width="1" stroke-linecap="butt" stroke-linejoin="round" d="M183.621,409.837C186.814,398.022,202.391,394.668,213.029,397.164"/>
<path fill="#392966" fill-rule="evenodd" stroke="none" d="M213.029,397.164C218.917,398.422,228.783,400.879,232.186,406.177C233.643,408.443,234.353,412.731,233.027,415.065C230.697,419.166,215.383,416.917,218.214,420.813C223.158,427.840,232.988,418.240,237.398,421.902C239.360,423.532,239.673,426.988,240.168,429.862C245.030,451.338,238.939,474.617,239.598,495.941C239.741,502.835,238.470,513.050,239.909,519.286C242.917,534.679,241.126,537.994,241.826,547.269C241.867,550.734,240.690,568.342,242.010,572.810C243.498,577.501,247.098,581.938,247.719,586.836C248.766,595.098,236.727,606.311,229.211,608.745C220.617,611.343,193.899,610.358,185.657,606.228C182.472,604.745,178.521,601.046,177.163,597.581C175.693,594.355,173.618,579.079,174.561,575.362C176.467,568.900,178.947,567.527,180.820,559.867C182.703,550.842,184.535,541.079,183.784,531.671C181.943,513.276,181.893,483.763,183.636,470.500C184.429,463.024,181.887,438.014,182.705,431.091C184.163,419.648,182.087,417.509,183.621,409.837C186.814,398.022,202.391,394.668,213.029,397.164Z"/>
<path fill="#000000" fill-rule="evenodd" stroke="none" d="M176.443,644.641C177.299,631.421,181.927,614.268,198.141,611.399C201.868,610.541,207.227,612.104,211.429,612.794C232.914,616.265,241.389,620.683,242.922,642.222C243.221,648.142,244.417,655.460,240.104,660.371C235.813,665.168,214.605,663.330,208.170,663.836C196.809,664.977,187.213,670.684,178.944,661.197C173.990,655.393,175.997,651.702,176.443,644.641M250.585,619.321C242.988,605.736,209.951,598.652,195.323,601.843C173.497,606.730,167.076,623.979,166.370,642.393C166.069,648.964,165.486,656.191,169.021,661.879C170.287,663.914,172.905,666.607,174.713,668.209C188.355,681.347,197.910,679.304,215.670,678.547C225.067,678.301,240.662,676.952,247.969,670.507C253.439,665.209,253.783,659.628,253.762,652.503C253.493,645.650,253.631,624.294,250.585,619.321Z"/>
<path fill="none" stroke="#d88e4b" stroke-width="1" stroke-linecap="butt" stroke-linejoin="round" d="M198.141,611.399C201.868,610.541,207.227,612.104,211.429,612.794"/>
<path fill="none" stroke="#d88e4b" stroke-width="1" stroke-linecap="butt" stroke-linejoin="round" d="M211.429,612.794C232.914,616.265,241.389,620.683,242.922,642.222"/>
<path fill="none" stroke="#d88e4b" stroke-width="1" stroke-linecap="butt" stroke-linejoin="round" d="M242.922,642.222C243.221,648.142,244.417,655.460,240.104,660.371"/>
<path fill="none" stroke="#d88e4b" stroke-width="1" stroke-linecap="butt" stroke-linejoin="round" d="M240.104,660.371C235.813,665.168,214.605,663.330,208.170,663.836"/>
<path fill="none" stroke="#d88e4b" stroke-width="1" stroke-linecap="butt" stroke-linejoin="round" d="M208.170,663.836C196.809,664.977,187.213,670.684,178.944,661.197"/>
<path fill="none" stroke="#d88e4b" stroke-width="1" stroke-linecap="butt" stroke-linejoin="round" d="M178.944,661.197C173.990,655.393,175.997,651.702,176.443,644.641"/>
<path fill="none" stroke="#d88e4b" stroke-width="1" stroke-linecap="butt" stroke-linejoin="round" d="M176.443,644.641C177.299,631.421,181.927,614.268,198.141,611.399"/>
<path fill="#d88e4b" fill-rule="evenodd" stroke="none" d="M198.141,611.399C201.868,610.541,207.227,612.104,211.429,612.794C232.914,616.265,241.389,620.683,242.922,642.222C243.221,648.142,244.417,655.460,240.104,660.371C235.813,665.168,214.605,663.330,208.170,663.836C196.809,664.977,187.213,670.684,178.944,661.197C173.990,655.393,175.997,651.702,176.443,644.641C177.299,631.421,181.927,614.268,198.141,611.399Z"/>
<path fill="#000000" fill-rule="evenodd" stroke="none" d="M194.941,674.676C198.522,676.808,208.528,673.573,213.046,674.017C216.177,674.495,219.401,675.800,221.886,674.903C223.772,674.335,234.753,670.199,231.218,673.110C229.188,674.863,224.887,674.845,222.738,674.731C220.352,674.896,197.931,674.988,197.114,675.182C190.218,676.329,183.612,669.345,185.790,671.135C187.682,672.690,191.262,672.472,194.941,674.676M235.939,668.984C236.119,669.804,235.227,670.949,233.961,670.985C231.484,671.065,222.176,673.401,218.891,672.772C215.115,672.712,210.969,673.378,207.565,673.381C200.696,673.388,189.828,676.482,184.705,672.024C184.485,671.753,184.453,671.505,184.532,671.332C184.871,670.585,189.525,672.063,192.797,671.970C197.911,671.825,204.924,670.329,210.151,669.913C215.801,669.463,223.254,669.872,229.032,669.151C229.932,669.062,235.503,666.990,235.939,668.984M241.243,663.448C229.852,660.668,221.433,667.510,210.887,666.152C203.487,665.228,189.096,665.632,180.098,667.715C178.655,668.049,175.868,667.956,175.484,669.450C175.006,671.329,178.790,675.203,181.158,676.617C184.093,678.369,190.060,678.192,192.440,678.461C204.522,680.268,219.794,676.438,232.047,677.622C241.252,678.434,243.153,673.247,243.921,668.944C244.242,667.146,244.806,664.270,241.243,663.448Z"/>
<path fill="none" stroke="#6e2353" stroke-width="1" stroke-linecap="butt" stroke-linejoin="round" d="M194.941,674.676C198.522,676.808,208.528,673.573,213.046,674.017"/>
<path fill="none" stroke="#6e2353" stroke-width="1" stroke-linecap="butt" stroke-linejoin="round" d="M213.046,674.017C216.177,674.495,219.401,675.800,221.886,674.903"/>
<path fill="none" stroke="#6e2353" stroke-width="1" stroke-linecap="butt" stroke-linejoin="round" d="M221.886,674.903C223.772,674.335,234.753,670.199,231.218,673.110"/>
<path fill="none" stroke="#6e2353" stroke-width="1" stroke-linecap="butt" stroke-linejoin="round" d="M231.218,673.110C229.188,674.863,224.887,674.845,222.738,674.731"/>
<path fill="none" stroke="#6e2353" stroke-width="1" stroke-linecap="butt" stroke-linejoin="round" d="M222.738,674.731C220.352,674.896,197.931,674.988,197.114,675.182"/>
<path fill="none" stroke="#6e2353" stroke-width="1" stroke-linecap="butt" stroke-linejoin="round" d="M197.114,675.182C190.218,676.329,183.612,669.345,185.790,671.135"/>
<path fill="none" stroke="#6e2353" stroke-width="1" stroke-linecap="butt" stroke-linejoin="round" d="M185.790,671.135C187.682,672.690,191.262,672.472,194.941,674.676"/>
<path fill="#6e2353" fill-rule="evenodd" stroke="none" d="M194.941,674.676C198.522,676.808,208.528,673.573,213.046,674.017C216.177,674.495,219.401,675.800,221.886,674.903C223.772,674.335,234.753,670.199,231.218,673.110C229.188,674.863,224.887,674.845,222.738,674.731C220.352,674.896,197.931,674.988,197.114,675.182C190.218,676.329,183.612,669.345,185.790,671.135C187.682,672.690,191.262,672.472,194.941,674.676Z"/>
<path fill="none" stroke="#6e2353" stroke-width="1" stroke-linecap="butt" stroke-linejoin="round" d="M192.797,671.970C197.911,671.825,204.924,670.329,210.151,669.913"/>
<path fill="none" stroke="#6e2353" stroke-width="1" stroke-linecap="butt" stroke-linejoin="round" d="M210.151,669.913C215.801,669.463,223.254,669.872,229.032,669.151"/>
<path fill="none" stroke="#6e2353" stroke-width="1" stroke-linecap="butt" stroke-linejoin="round" d="M229.032,669.151C229.932,669.062,235.503,666.990,235.939,668.984"/>
<path fill="none" stroke="#6e2353" stroke-width="1" stroke-linecap="butt" stroke-linejoin="round" d="M235.939,668.984C236.119,669.804,235.227,670.949,233.961,670.985"/>
<path fill="none" stroke="#6e2353" stroke-width="1" stroke-linecap="butt" stroke-linejoin="round" d="M233.961,670.985C231.484,671.065,222.176,673.401,218.891,672.772"/>
<path fill="none" stroke="#6e2353" stroke-width="1" stroke-linecap="butt" stroke-linejoin="round" d="M218.891,672.772C215.115,672.712,210.969,673.378,207.565,673.381"/>
<path fill="none" stroke="#6e2353" stroke-width="1" stroke-linecap="butt" stroke-linejoin="round" d="M207.565,673.381C200.696,673.388,189.828,676.482,184.705,672.024"/>
<path fill="none" stroke="#6e2353" stroke-width="1" stroke-linecap="butt" stroke-linejoin="round" d="M184.705,672.024C184.485,671.753,184.453,671.505,184.532,671.332"/>
<path fill="none" stroke="#6e2353" stroke-width="1" stroke-linecap="butt" stroke-linejoin="round" d="M184.532,671.332C184.871,670.585,189.525,672.063,192.797,671.970"/>
<path fill="#6e2353" fill-rule="evenodd" stroke="none" d="M192.797,671.970C197.911,671.825,204.924,670.329,210.151,669.913C215.801,669.463,223.254,669.872,229.032,669.151C229.932,669.062,235.503,666.990,235.939,668.984C236.119,669.804,235.227,670.949,233.961,670.985C231.484,671.065,222.176,673.401,218.891,672.772C215.115,672.712,210.969,673.378,207.565,673.381C200.696,673.388,189.828,676.482,184.705,672.024C184.485,671.753,184.453,671.505,184.532,671.332C184.871,670.585,189.525,672.063,192.797,671.970Z"/>
</g>
<path fill="#000000" fill-rule="evenodd" stroke="none" d="M307.565,151.693C311.830,146.120,322.467,130.845,330.408,131.679C335.702,132.236,345.613,142.979,350.924,146.548C355.575,150.047,360.591,153.250,365.938,156.487C368.958,158.483,371.983,160.473,375.011,162.458C388.475,171.233,383.843,177.103,375.710,174.910C357.530,169.653,354.413,170.665,337.519,159.523C335.306,158.287,329.698,154.354,328.253,158.550C326.410,163.374,334.892,168.615,338.357,170.651C344.591,174.987,351.454,179.722,359.326,181.217C361.608,181.792,369.618,181.963,370.697,184.418C372.335,187.936,361.836,195.531,359.643,197.307C356.020,199.938,352.400,202.568,348.847,204.537C343.537,207.323,337.929,209.745,332.201,210.147C321.474,210.359,289.985,191.662,290.209,179.978C290.243,173.292,302.934,157.564,307.565,151.693M342.771,128.630C338.260,123.807,335.281,117.137,327.653,119.682C322.115,121.443,315.692,128.462,311.636,132.050C296.331,147.168,282.039,165.405,280.441,186.980C279.348,200.580,284.014,200.737,294.377,207.177C310.051,217.187,330.950,222.059,349.686,215.665C361.822,211.587,383.883,195.840,390.429,184.484C392.500,180.688,396.415,172.067,394.585,167.192C392.530,161.288,371.369,149.364,365.134,145.030C357.645,139.894,349.129,134.984,342.771,128.630Z"/>
<path fill="none" stroke="#cc9bc5" stroke-width="1" stroke-linecap="butt" stroke-linejoin="round" d="M330.408,131.679C335.702,132.236,345.613,142.979,350.924,146.548"/>
<path fill="none" stroke="#cc9bc5" stroke-width="1" stroke-linecap="butt" stroke-linejoin="round" d="M350.924,146.548C355.575,150.047,360.591,153.250,365.938,156.487"/>
<path fill="none" stroke="#cc9bc5" stroke-width="1" stroke-linecap="butt" stroke-linejoin="round" d="M365.938,156.487C368.958,158.483,371.983,160.473,375.011,162.458"/>
<path fill="none" stroke="#cc9bc5" stroke-width="1" stroke-linecap="butt" stroke-linejoin="round" d="M375.011,162.458C388.475,171.233,383.843,177.103,375.710,174.910"/>
<path fill="none" stroke="#cc9bc5" stroke-width="1" stroke-linecap="butt" stroke-linejoin="round" d="M375.710,174.910C357.530,169.653,354.413,170.665,337.519,159.523"/>
<path fill="none" stroke="#cc9bc5" stroke-width="1" stroke-linecap="butt" stroke-linejoin="round" d="M337.519,159.523C335.306,158.287,329.698,154.354,328.253,158.550"/>
<path fill="none" stroke="#cc9bc5" stroke-width="1" stroke-linecap="butt" stroke-linejoin="round" d="M328.253,158.550C326.410,163.374,334.892,168.615,338.357,170.651"/>
<path fill="none" stroke="#cc9bc5" stroke-width="1" stroke-linecap="butt" stroke-linejoin="round" d="M338.357,170.651C344.591,174.987,351.454,179.722,359.326,181.217"/>
<path fill="none" stroke="#cc9bc5" stroke-width="1" stroke-linecap="butt" stroke-linejoin="round" d="M359.326,181.217C361.608,181.792,369.618,181.963,370.697,184.418"/>
<path fill="none" stroke="#cc9bc5" stroke-width="1" stroke-linecap="butt" stroke-linejoin="round" d="M370.697,184.418C372.335,187.936,361.836,195.531,359.643,197.307"/>
<path fill="none" stroke="#cc9bc5" stroke-width="1" stroke-linecap="butt" stroke-linejoin="round" d="M359.643,197.307C356.020,199.938,352.400,202.568,348.847,204.537"/>
<path fill="none" stroke="#cc9bc5" stroke-width="1" stroke-linecap="butt" stroke-linejoin="round" d="M348.847,204.537C343.537,207.323,337.929,209.745,332.201,210.147"/>
<path fill="none" stroke="#cc9bc5" stroke-width="1" stroke-linecap="butt" stroke-linejoin="round" d="M332.201,210.147C321.474,210.359,289.985,191.662,290.209,179.978"/>
<path fill="none" stroke="#cc9bc5" stroke-width="1" stroke-linecap="butt" stroke-linejoin="round" d="M290.209,179.978C290.243,173.292,302.934,157.564,307.565,151.693"/>
<path fill="none" stroke="#cc9bc5" stroke-width="1" stroke-linecap="butt" stroke-linejoin="round" d="M307.565,151.693C311.830,146.120,322.467,130.845,330.408,131.679"/>
<path fill="#cc9bc5" fill-rule="evenodd" stroke="none" d="M330.408,131.679C335.702,132.236,345.613,142.979,350.924,146.548C355.575,150.047,360.591,153.250,365.938,156.487C368.958,158.483,371.983,160.473,375.011,162.458C388.475,171.233,383.843,177.103,375.710,174.910C357.530,169.653,354.413,170.665,337.519,159.523C335.306,158.287,329.698,154.354,328.253,158.550C326.410,163.374,334.892,168.615,338.357,170.651C344.591,174.987,351.454,179.722,359.326,181.217C361.608,181.792,369.618,181.963,370.697,184.418C372.335,187.936,361.836,195.531,359.643,197.307C356.020,199.938,352.400,202.568,348.847,204.537C343.537,207.323,337.929,209.745,332.201,210.147C321.474,210.359,289.985,191.662,290.209,179.978C290.243,173.292,302.934,157.564,307.565,151.693C311.830,146.120,322.467,130.845,330.408,131.679Z"/>
<path fill="#000000" fill-rule="evenodd" stroke="none" d="M201.750,144.962C218.097,131.540,237.857,128.622,258.775,125.847C268.151,124.584,275.196,130.390,282.974,136.002C289.392,140.959,296.318,146.572,303.129,151.768C313.375,159.528,317.735,163.495,321.642,167.309C324.950,170.206,330.181,175.702,334.204,178.176C339.057,181.159,349.745,197.370,351.951,199.111C345.549,201.946,335.320,204.545,330.905,208.810C333.085,214.461,334.254,223.420,334.512,226.117C328.370,227.112,320.927,224.976,309.327,223.948C307.663,231.315,308.293,238.015,304.278,245.706C296.390,244.074,290.873,242.682,280.540,239.170C274.470,244.950,272.898,244.685,262.847,252.158C255.384,248.489,249.331,244.400,242.182,242.200C235.703,245.699,225.103,247.695,221.745,250.943C217.310,244.283,213.114,236.865,209.564,233.804C200.191,236.640,196.335,239.631,189.813,242.704C185.108,237.599,187.692,232.796,182.290,225.155C177.872,224.385,170.972,222.390,165.425,222.789C168.841,217.968,170.318,203.026,176.620,200.573C184.396,197.548,178.514,188.912,182.677,180.300C183.698,178.064,193.935,160.731,194.743,157.977C196.317,153.212,198.052,148.149,201.750,144.962M286.417,123.011C273.372,114.740,248.314,111.888,234.787,116.371C222.358,120.335,210.288,125.462,199.921,133.610C194.109,138.114,187.814,144.545,184.267,150.997C177.152,163.548,167.674,190.456,162.100,203.024C157.673,213.430,153.303,220.581,148.666,226.430C166.789,231.252,172.149,233.438,177.447,233.769C178.466,241.464,186.106,246.559,185.637,255.193C194.294,253.106,199.318,250.417,206.944,247.772C211.323,252.052,214.624,258.108,218.963,263.944C226.462,261.169,234.347,260.756,241.470,254.642C247.245,257.151,256.407,261.032,265.834,265.162C273.708,260.022,275.456,259.612,282.765,253.887C292.414,255.370,302.853,260.333,312.274,258.473C310.874,250.379,316.408,244.240,315.237,239.073C322.239,236.513,344.498,237.740,348.222,237.085C347.459,231.083,343.115,219.849,344.036,212.534C350.657,210.126,356.244,207.973,366.385,201.946C362.329,195.587,355.382,187.863,349.497,183.414C344.534,179.699,340.305,174.568,335.323,170.680C318.448,157.732,310.554,138.397,286.417,123.011Z"/>
<path fill="none" stroke="#620527" stroke-width="1" stroke-linecap="butt" stroke-linejoin="round" d="M258.775,125.847C268.151,124.584,275.196,130.390,282.974,136.002"/>
<path fill="none" stroke="#620527" stroke-width="1" stroke-linecap="butt" stroke-linejoin="round" d="M282.974,136.002C289.392,140.959,296.318,146.572,303.129,151.768"/>
<path fill="none" stroke="#620527" stroke-width="1" stroke-linecap="butt" stroke-linejoin="round" d="M303.129,151.768C313.375,159.528,317.735,163.495,321.642,167.309"/>
<path fill="none" stroke="#620527" stroke-width="1" stroke-linecap="butt" stroke-linejoin="round" d="M321.642,167.309C324.950,170.206,330.181,175.702,334.204,178.176"/>
<path fill="none" stroke="#620527" stroke-width="1" stroke-linecap="butt" stroke-linejoin="round" d="M334.204,178.176C339.057,181.159,349.745,197.370,351.951,199.111"/>
<path fill="none" stroke="#620527" stroke-width="1" stroke-linecap="butt" stroke-linejoin="round" d="M351.951,199.111C345.549,201.946,335.320,204.545,330.905,208.810"/>
<path fill="none" stroke="#620527" stroke-width="1" stroke-linecap="butt" stroke-linejoin="round" d="M330.905,208.810C333.085,214.461,334.254,223.420,334.512,226.117"/>
<path fill="none" stroke="#620527" stroke-width="1" stroke-linecap="butt" stroke-linejoin="round" d="M334.512,226.117C328.370,227.112,320.927,224.976,309.327,223.948"/>
<path fill="none" stroke="#620527" stroke-width="1" stroke-linecap="butt" stroke-linejoin="round" d="M309.327,223.948C307.663,231.315,308.293,238.015,304.278,245.706"/>
<path fill="none" stroke="#620527" stroke-width="1" stroke-linecap="butt" stroke-linejoin="round" d="M304.278,245.706C296.390,244.074,290.873,242.682,280.540,239.170"/>
<path fill="none" stroke="#620527" stroke-width="1" stroke-linecap="butt" stroke-linejoin="round" d="M280.540,239.170C274.470,244.950,272.898,244.685,262.847,252.158"/>
<path fill="none" stroke="#620527" stroke-width="1" stroke-linecap="butt" stroke-linejoin="round" d="M262.847,252.158C255.384,248.489,249.331,244.400,242.182,242.200"/>
<path fill="none" stroke="#620527" stroke-width="1" stroke-linecap="butt" stroke-linejoin="round" d="M242.182,242.200C235.703,245.699,225.103,247.695,221.745,250.943"/>
<path fill="none" stroke="#620527" stroke-width="1" stroke-linecap="butt" stroke-linejoin="round" d="M221.745,250.943C217.310,244.283,213.114,236.865,209.564,233.804"/>
<path fill="none" stroke="#620527" stroke-width="1" stroke-linecap="butt" stroke-linejoin="round" d="M209.564,233.804C200.191,236.640,196.335,239.631,189.813,242.704"/>
<path fill="none" stroke="#620527" stroke-width="1" stroke-linecap="butt" stroke-linejoin="round" d="M189.813,242.704C185.108,237.599,187.692,232.796,182.290,225.155"/>
<path fill="none" stroke="#620527" stroke-width="1" stroke-linecap="butt" stroke-linejoin="round" d="M182.290,225.155C177.872,224.385,170.972,222.390,165.425,222.789"/>
<path fill="none" stroke="#620527" stroke-width="1" stroke-linecap="butt" stroke-linejoin="round" d="M165.425,222.789C168.841,217.968,170.318,203.026,176.620,200.573"/>
<path fill="none" stroke="#620527" stroke-width="1" stroke-linecap="butt" stroke-linejoin="round" d="M176.620,200.573C184.396,197.548,178.514,188.912,182.677,180.300"/>
<path fill="none" stroke="#620527" stroke-width="1" stroke-linecap="butt" stroke-linejoin="round" d="M182.677,180.300C183.698,178.064,193.935,160.731,194.743,157.977"/>
<path fill="none" stroke="#620527" stroke-width="1" stroke-linecap="butt" stroke-linejoin="round" d="M194.743,157.977C196.317,153.212,198.052,148.149,201.750,144.962"/>
<path fill="none" stroke="#620527" stroke-width="1" stroke-linecap="butt" stroke-linejoin="round" d="M201.750,144.962C218.097,131.540,237.857,128.622,258.775,125.847"/>
<path fill="#620527" fill-rule="evenodd" stroke="none" d="M258.775,125.847C268.151,124.584,275.196,130.390,282.974,136.002C289.392,140.959,296.318,146.572,303.129,151.768C313.375,159.528,317.735,163.495,321.642,167.309C324.950,170.206,330.181,175.702,334.204,178.176C339.057,181.159,349.745,197.370,351.951,199.111C345.549,201.946,335.320,204.545,330.905,208.810C333.085,214.461,334.254,223.420,334.512,226.117C328.370,227.112,320.927,224.976,309.327,223.948C307.663,231.315,308.293,238.015,304.278,245.706C296.390,244.074,290.873,242.682,280.540,239.170C274.470,244.950,272.898,244.685,262.847,252.158C255.384,248.489,249.331,244.400,242.182,242.200C235.703,245.699,225.103,247.695,221.745,250.943C217.310,244.283,213.114,236.865,209.564,233.804C200.191,236.640,196.335,239.631,189.813,242.704C185.108,237.599,187.692,232.796,182.290,225.155C177.872,224.385,170.972,222.390,165.425,222.789C168.841,217.968,170.318,203.026,176.620,200.573C184.396,197.548,178.514,188.912,182.677,180.300C183.698,178.064,193.935,160.731,194.743,157.977C196.317,153.212,198.052,148.149,201.750,144.962C218.097,131.540,237.857,128.622,258.775,125.847Z"/>
<path fill="#000000" fill-rule="evenodd" stroke="none" d="M248.056,370.311C242.695,368.298,222.612,370.221,219.099,375.013C216.983,378.089,220.079,379.870,223.322,380.070C227.399,380.323,248.778,378.991,251.599,377.275C255.948,374.560,250.219,371.017,248.056,370.311M202.486,267.193C206.344,254.842,234.093,243.938,246.910,245.866C255.867,247.186,283.204,263.263,286.591,271.897C289.428,278.805,288.609,303.533,288.295,311.885C287.442,327.171,287.232,342.533,286.915,357.840C287.247,370.084,296.537,384.217,289.821,394.460C286.967,397.767,276.277,396.242,271.515,396.881C266.093,397.872,256.007,402.637,250.934,402.700C228.723,403.578,231.015,406.873,210.172,406.509C205.954,406.275,192.422,404.025,189.857,401.947C183.912,395.874,187.666,386.916,189.614,378.968C193.578,365.233,195.073,355.578,197.232,340.571C199.416,324.657,202.619,307.687,203.835,291.129C203.941,285.174,201.572,270.771,202.486,267.193M282.321,254.455C266.699,243.618,251.270,234.495,231.220,238.765C225.828,239.713,198.414,250.734,195.874,253.891C191.910,258.907,194.308,279.192,193.801,286.418C193.530,295.025,193.144,303.962,191.838,312.161C191.016,318.430,189.230,323.954,188.752,329.916C187.889,336.515,187.381,343.674,185.829,349.686C181.213,367.062,167.875,401.491,188.397,414.168C192.938,416.996,199.589,417.070,205.232,417.339C215.106,417.620,225.742,417.944,235.648,416.380C248.034,414.774,259.644,408.783,272.269,408.135C278.423,407.821,297.093,415.838,302.005,411.568C304.301,409.663,306.178,396.620,306.005,393.253C304.635,379.429,297.935,366.435,296.690,352.599C295.948,340.638,296.297,328.868,297.913,316.644C299.023,306.674,301.423,297.135,302.163,286.801C302.138,282.423,303.154,277.116,301.116,272.596C297.677,264.307,289.348,259.320,282.321,254.455Z"/>
<path fill="none" stroke="#6a3661" stroke-width="1" stroke-linecap="butt" stroke-linejoin="round" d="M248.056,370.311C242.695,368.298,222.612,370.221,219.099,375.013"/>
<path fill="none" stroke="#6a3661" stroke-width="1" stroke-linecap="butt" stroke-linejoin="round" d="M219.099,375.013C216.983,378.089,220.079,379.870,223.322,380.070"/>
<path fill="none" stroke="#6a3661" stroke-width="1" stroke-linecap="butt" stroke-linejoin="round" d="M223.322,380.070C227.399,380.323,248.778,378.991,251.599,377.275"/>
<path fill="none" stroke="#6a3661" stroke-width="1" stroke-linecap="butt" stroke-linejoin="round" d="M251.599,377.275C255.948,374.560,250.219,371.017,248.056,370.311"/>
<path fill="none" stroke="#6a3661" stroke-width="1" stroke-linecap="butt" stroke-linejoin="round" d="M202.486,267.193C206.344,254.842,234.093,243.938,246.910,245.866"/>
<path fill="none" stroke="#6a3661" stroke-width="1" stroke-linecap="butt" stroke-linejoin="round" d="M246.910,245.866C255.867,247.186,283.204,263.263,286.591,271.897"/>
<path fill="none" stroke="#6a3661" stroke-width="1" stroke-linecap="butt" stroke-linejoin="round" d="M286.591,271.897C289.428,278.805,288.609,303.533,288.295,311.885"/>
<path fill="none" stroke="#6a3661" stroke-width="1" stroke-linecap="butt" stroke-linejoin="round" d="M288.295,311.885C287.442,327.171,287.232,342.533,286.915,357.840"/>
<path fill="none" stroke="#6a3661" stroke-width="1" stroke-linecap="butt" stroke-linejoin="round" d="M286.915,357.840C287.247,370.084,296.537,384.217,289.821,394.460"/>
<path fill="none" stroke="#6a3661" stroke-width="1" stroke-linecap="butt" stroke-linejoin="round" d="M289.821,394.460C286.967,397.767,276.277,396.242,271.515,396.881"/>
<path fill="none" stroke="#6a3661" stroke-width="1" stroke-linecap="butt" stroke-linejoin="round" d="M271.515,396.881C266.093,397.872,256.007,402.637,250.934,402.700"/>
<path fill="none" stroke="#6a3661" stroke-width="1" stroke-linecap="butt" stroke-linejoin="round" d="M250.934,402.700C228.723,403.578,231.015,406.873,210.172,406.509"/>
<path fill="none" stroke="#6a3661" stroke-width="1" stroke-linecap="butt" stroke-linejoin="round" d="M210.172,406.509C205.954,406.275,192.422,404.025,189.857,401.947"/>
<path fill="none" stroke="#6a3661" stroke-width="1" stroke-linecap="butt" stroke-linejoin="round" d="M189.857,401.947C183.912,395.874,187.666,386.916,189.614,378.968"/>
<path fill="none" stroke="#6a3661" stroke-width="1" stroke-linecap="butt" stroke-linejoin="round" d="M189.614,378.968C193.578,365.233,195.073,355.578,197.232,340.571"/>
<path fill="none" stroke="#6a3661" stroke-width="1" stroke-linecap="butt" stroke-linejoin="round" d="M197.232,340.571C199.416,324.657,202.619,307.687,203.835,291.129"/>
<path fill="none" stroke="#6a3661" stroke-width="1" stroke-linecap="butt" stroke-linejoin="round" d="M203.835,291.129C203.941,285.174,201.572,270.771,202.486,267.193"/>
<path fill="#6a3661" fill-rule="evenodd" stroke="none" d="M248.056,370.311C242.695,368.298,222.612,370.221,219.099,375.013C216.983,378.089,220.079,379.870,223.322,380.070C227.399,380.323,248.778,378.991,251.599,377.275C255.948,374.560,250.219,371.017,248.056,370.311M202.486,267.193C206.344,254.842,234.093,243.938,246.910,245.866C255.867,247.186,283.204,263.263,286.591,271.897C289.428,278.805,288.609,303.533,288.295,311.885C287.442,327.171,287.232,342.533,286.915,357.840C287.247,370.084,296.537,384.217,289.821,394.460C286.967,397.767,276.277,396.242,271.515,396.881C266.093,397.872,256.007,402.637,250.934,402.700C228.723,403.578,231.015,406.873,210.172,406.509C205.954,406.275,192.422,404.025,189.857,401.947C183.912,395.874,187.666,386.916,189.614,378.968C193.578,365.233,195.073,355.578,197.232,340.571C199.416,324.657,202.619,307.687,203.835,291.129C203.941,285.174,201.572,270.771,202.486,267.193Z"/>
<path fill="#000000" fill-rule="evenodd" stroke="none" d="M242.785,226.508C243.433,223.227,244.711,220.341,248.385,220.357C260.166,219.476,255.602,256.807,245.005,255.796C235.069,254.849,241.523,232.737,242.785,226.508M249.269,211.085C246.652,210.501,243.608,210.878,241.163,211.982C231.447,215.734,231.950,224.472,231.129,233.082C230.386,237.357,230.339,241.363,228.005,244.816C226.033,247.971,221.079,250.839,220.731,254.484C220.115,264.451,246.943,267.010,253.929,267.342C256.578,267.594,265.425,269.440,266.766,265.893C266.861,264.899,261.344,252.674,260.793,247.944C259.139,233.749,270.372,214.101,249.269,211.085Z"/>
<path fill="none" stroke="#f8a087" stroke-width="1" stroke-linecap="butt" stroke-linejoin="round" d="M248.385,220.357C260.166,219.476,255.602,256.807,245.005,255.796"/>
<path fill="none" stroke="#f8a087" stroke-width="1" stroke-linecap="butt" stroke-linejoin="round" d="M245.005,255.796C235.069,254.849,241.523,232.737,242.785,226.508"/>
<path fill="none" stroke="#f8a087" stroke-width="1" stroke-linecap="butt" stroke-linejoin="round" d="M242.785,226.508C243.433,223.227,244.711,220.341,248.385,220.357"/>
<path fill="#f8a087" fill-rule="evenodd" stroke="none" d="M248.385,220.357C260.166,219.476,255.602,256.807,245.005,255.796C235.069,254.849,241.523,232.737,242.785,226.508C243.433,223.227,244.711,220.341,248.385,220.357Z"/>
<g id="layer_head">
<path fill="#000000" fill-rule="evenodd" stroke="none" d="M171.096,186.317C166.134,185.919,156.789,157.259,162.671,159.140C168.348,160.942,170.122,171.643,171.266,176.035C172.045,178.593,175.590,186.701,171.096,186.317M166.431,145.875C164.662,144.416,162.523,142.747,160.359,143.503C151.122,145.154,152.706,159.046,154.394,168.325C156.581,179.648,162.719,194.627,172.047,199.907C173.623,200.809,176.522,203.526,178.414,203.217C184.678,201.789,180.198,191.449,179.030,186.545C177.449,179.203,171.129,151.332,166.431,145.875Z"/>
<path fill="none" stroke="#f8a087" stroke-width="1" stroke-linecap="butt" stroke-linejoin="round" d="M162.671,159.140C168.348,160.942,170.122,171.643,171.266,176.035"/>
<path fill="none" stroke="#f8a087" stroke-width="1" stroke-linecap="butt" stroke-linejoin="round" d="M171.266,176.035C172.045,178.593,175.590,186.701,171.096,186.317"/>
<path fill="none" stroke="#f8a087" stroke-width="1" stroke-linecap="butt" stroke-linejoin="round" d="M171.096,186.317C166.134,185.919,156.789,157.259,162.671,159.140"/>
<path fill="#f8a087" fill-rule="evenodd" stroke="none" d="M162.671,159.140C168.348,160.942,170.122,171.643,171.266,176.035C172.045,178.593,175.590,186.701,171.096,186.317C166.134,185.919,156.789,157.259,162.671,159.140Z"/>
<g id="face_Mask">
<path fill="#000000" fill-rule="evenodd" stroke="none" d="M175.670,102.023C185.202,92.518,218.542,88.796,232.315,88.236C247.745,87.849,263.052,91.799,277.455,97.995C282.576,100.207,290.296,102.686,294.226,107.117C300.350,114.074,301.719,125.615,302.109,134.512C302.491,139.994,302.778,147.088,301.222,152.042C291.766,182.139,283.311,196.075,276.014,203.936C263.754,217.145,243.894,220.693,226.129,222.615C207.455,224.366,197.029,221.426,181.610,214.213C177.492,212.293,168.585,207.821,166.111,204.243C160.077,195.162,164.445,184.232,163.490,173.833C162.395,164.941,158.143,151.897,157.582,143.137C157.041,131.919,167.833,109.768,175.670,102.023M299.024,99.903C286.915,86.186,250.982,79.742,233.168,80.529C224.791,80.645,216.780,80.465,208.960,81.646C203.158,82.708,197.912,84.830,192.440,85.927C180.406,89.011,175.771,87.077,166.859,96.965C160.480,103.872,149.057,132.491,148.645,141.726C148.443,149.191,153.542,166.788,153.651,175.481C153.715,184.900,149.190,197.927,152.677,206.318C155.719,213.347,162.114,217.524,171.461,222.793C180.248,227.746,190.133,232.731,200.411,234.228C206.149,235.120,213.472,235.619,226.302,233.140C245.248,229.232,265.189,224.690,279.934,210.238C293.453,196.988,311.729,179.430,316.905,150.761C320.459,131.078,305.620,107.214,299.024,99.903Z"/>
<path fill="none" stroke="#f8a087" stroke-width="1" stroke-linecap="butt" stroke-linejoin="round" d="M232.315,88.236C247.745,87.849,263.052,91.799,277.455,97.995"/>
<path fill="none" stroke="#f8a087" stroke-width="1" stroke-linecap="butt" stroke-linejoin="round" d="M277.455,97.995C282.576,100.207,290.296,102.686,294.226,107.117"/>
<path fill="none" stroke="#f8a087" stroke-width="1" stroke-linecap="butt" stroke-linejoin="round" d="M294.226,107.117C300.350,114.074,301.719,125.615,302.109,134.512"/>
<path fill="none" stroke="#f8a087" stroke-width="1" stroke-linecap="butt" stroke-linejoin="round" d="M302.109,134.512C302.491,139.994,302.778,147.088,301.222,152.042"/>
<path fill="none" stroke="#f8a087" stroke-width="1" stroke-linecap="butt" stroke-linejoin="round" d="M301.222,152.042C291.766,182.139,283.311,196.075,276.014,203.936"/>
<path fill="none" stroke="#f8a087" stroke-width="1" stroke-linecap="butt" stroke-linejoin="round" d="M276.014,203.936C263.754,217.145,243.894,220.693,226.129,222.615"/>
<path fill="none" stroke="#f8a087" stroke-width="1" stroke-linecap="butt" stroke-linejoin="round" d="M226.129,222.615C207.455,224.366,197.029,221.426,181.610,214.213"/>
<path fill="none" stroke="#f8a087" stroke-width="1" stroke-linecap="butt" stroke-linejoin="round" d="M181.610,214.213C177.492,212.293,168.585,207.821,166.111,204.243"/>
<path fill="none" stroke="#f8a087" stroke-width="1" stroke-linecap="butt" stroke-linejoin="round" d="M166.111,204.243C160.077,195.162,164.445,184.232,163.490,173.833"/>
<path fill="none" stroke="#f8a087" stroke-width="1" stroke-linecap="butt" stroke-linejoin="round" d="M163.490,173.833C162.395,164.941,158.143,151.897,157.582,143.137"/>
<path fill="none" stroke="#f8a087" stroke-width="1" stroke-linecap="butt" stroke-linejoin="round" d="M157.582,143.137C157.041,131.919,167.833,109.768,175.670,102.023"/>
<path fill="none" stroke="#f8a087" stroke-width="1" stroke-linecap="butt" stroke-linejoin="round" d="M175.670,102.023C185.202,92.518,218.542,88.796,232.315,88.236"/>
<path fill="#f8a087" fill-rule="evenodd" stroke="none" d="M232.315,88.236C247.745,87.849,263.052,91.799,277.455,97.995C282.576,100.207,290.296,102.686,294.226,107.117C300.350,114.074,301.719,125.615,302.109,134.512C302.491,139.994,302.778,147.088,301.222,152.042C291.766,182.139,283.311,196.075,276.014,203.936C263.754,217.145,243.894,220.693,226.129,222.615C207.455,224.366,197.029,221.426,181.610,214.213C177.492,212.293,168.585,207.821,166.111,204.243C160.077,195.162,164.445,184.232,163.490,173.833C162.395,164.941,158.143,151.897,157.582,143.137C157.041,131.919,167.833,109.768,175.670,102.023C185.202,92.518,218.542,88.796,232.315,88.236Z"/>
</g>
<mask id="mask_target" style="mask-type:alpha;">
<use xlink:href="#face_Mask"/>
</mask>
<path fill="#000000" fill-rule="evenodd" stroke="none" d="M202.160,213.268C207.220,214.909,206.807,219.645,206.283,220.100C205.987,220.356,204.970,219.293,202.077,218.500C196.598,216.997,193.785,217.881,193.663,217.150C193.529,216.348,196.236,211.346,202.160,213.268Z"/>
<g id="layer_eyes_Mtarget" mask="url(#mask_target)">
<mask style="mask-type:alpha;" id="f3906406-f197-4bf1-91d8-744c09cca836">
<use xlink:href="#cmn_f3906406-f197-4bf1-91d8-744c09cca836"/>
</mask>
<g id="cmn_f3906406-f197-4bf1-91d8-744c09cca836">
<path fill="#000000" fill-rule="evenodd" stroke="none" d="M154.774,187.771C155.329,187.175,156.459,182.639,157.333,183.528C157.078,183.283,151.574,184.687,150.757,186.127C150.197,187.115,152.484,191.595,151.081,191.448C150.549,191.392,154.536,188.026,154.774,187.771M162.939,191.341C163.029,190.755,162.957,184.545,160.723,183.722C159.450,183.253,157.782,184.911,156.654,185.700C153.936,187.513,137.634,181.862,138.825,177.656C139.333,175.857,149.501,175.588,151.142,176.488C161.308,182.079,133.413,203.778,149.159,207.486C149.650,207.601,157.669,186.754,155.064,190.315C153.896,191.910,162.751,192.581,162.939,191.341M191.516,193.099C189.337,192.951,187.043,193.984,184.462,191.768C182.328,189.934,201.935,192.316,203.731,192.247C204.956,192.199,217.506,192.192,218.164,191.779C218.290,191.700,220.393,191.700,220.570,191.660C220.441,191.689,195.425,193.363,191.516,193.099M227.691,194.810C228.064,194.498,228.862,188.064,228.419,187.610C225.235,184.352,212.553,186.801,205.760,186.352C201.698,186.083,194.767,186.172,192.230,185.329C188.299,184.179,185.338,182.959,182.835,184.292C180.821,185.365,178.829,188.662,179.115,190.926C179.374,192.973,181.561,194.937,183.792,195.969C188.289,198.051,208.970,196.422,212.472,196.559C212.558,196.562,225.179,196.910,227.691,194.810Z"/>
<path fill="none" stroke="#000000" stroke-width="1" stroke-linecap="butt" stroke-linejoin="round" d="M218.164,191.779C218.290,191.700,220.393,191.700,220.570,191.660"/>
<path fill="none" stroke="#000000" stroke-width="1" stroke-linecap="butt" stroke-linejoin="round" d="M220.570,191.660C220.441,191.689,195.425,193.363,191.516,193.099"/>
<path fill="none" stroke="#000000" stroke-width="1" stroke-linecap="butt" stroke-linejoin="round" d="M191.516,193.099C189.337,192.951,187.043,193.984,184.462,191.768"/>
<path fill="none" stroke="#000000" stroke-width="1" stroke-linecap="butt" stroke-linejoin="round" d="M184.462,191.768C182.328,189.934,201.935,192.316,203.731,192.247"/>
<path fill="none" stroke="#000000" stroke-width="1" stroke-linecap="butt" stroke-linejoin="round" d="M203.731,192.247C204.956,192.199,217.506,192.192,218.164,191.779"/>
<path fill="#000000" fill-rule="evenodd" stroke="none" d="M218.164,191.779C218.290,191.700,220.393,191.700,220.570,191.660C220.441,191.689,195.425,193.363,191.516,193.099C189.337,192.951,187.043,193.984,184.462,191.768C182.328,189.934,201.935,192.316,203.731,192.247C204.956,192.199,217.506,192.192,218.164,191.779Z"/>
<path fill="none" stroke="#000000" stroke-width="1" stroke-linecap="butt" stroke-linejoin="round" d="M151.081,191.448C150.549,191.392,154.536,188.026,154.774,187.771"/>
<path fill="none" stroke="#000000" stroke-width="1" stroke-linecap="butt" stroke-linejoin="round" d="M154.774,187.771C155.329,187.175,156.459,182.639,157.333,183.528"/>
<path fill="none" stroke="#000000" stroke-width="1" stroke-linecap="butt" stroke-linejoin="round" d="M157.333,183.528C157.078,183.283,151.574,184.687,150.757,186.127"/>
<path fill="none" stroke="#000000" stroke-width="1" stroke-linecap="butt" stroke-linejoin="round" d="M150.757,186.127C150.197,187.115,152.484,191.595,151.081,191.448"/>
<path fill="#000000" fill-rule="evenodd" stroke="none" d="M151.081,191.448C150.549,191.392,154.536,188.026,154.774,187.771C155.329,187.175,156.459,182.639,157.333,183.528C157.078,183.283,151.574,184.687,150.757,186.127C150.197,187.115,152.484,191.595,151.081,191.448Z"/>
</g>
<path fill="#000000" fill-rule="evenodd" stroke="none" d="M186.267,174.114C188.606,173.788,191.396,177.328,191.329,185.846C191.279,192.097,189.436,194.466,187.703,194.494C185.792,194.524,184.426,191.763,183.857,184.889C183.251,177.553,184.246,174.396,186.267,174.114Z" mask="url(#f3906406-f197-4bf1-91d8-744c09cca836)"/>
<path fill="#000000" fill-rule="evenodd" stroke="none" d="M155.733,171.849C158.178,171.634,161.189,175.593,160.501,184.714C160.106,189.956,158.418,191.722,157.009,191.783C155.411,191.853,153.576,189.827,152.745,183.924C151.588,175.712,153.516,172.045,155.733,171.849Z" mask="url(#f3906406-f197-4bf1-91d8-744c09cca836)"/>
</g>
<path fill="#000000" fill-rule="evenodd" stroke="none" d="M308.810,144.188C310.950,145.274,313.240,148.317,313.510,150.987C314.793,157.879,303.396,158.083,299.768,158.181C294.077,157.766,288.268,156.188,282.951,154.986C275.786,154.036,268.842,151.828,261.717,150.616C239.650,145.066,217.421,140.322,195.236,135.285C184.706,133.324,175.330,130.491,163.836,128.544C162.629,128.342,151.677,128.070,149.564,127.194C135.158,121.369,149.085,109.327,148.686,102.480C148.721,100.569,145.178,99.772,146.167,96.455C146.818,94.388,152.902,90.769,155.029,90.142C164.366,87.335,174.835,87.186,185.011,88.025C195.969,88.932,205.542,91.777,216.247,94.248C241.388,100.062,283.754,111.731,314.599,129.033C323.594,134.072,304.078,129.667,302.213,129.590C285.669,128.689,218.506,104.896,255.042,121.241C269.310,127.728,296.083,137.156,308.810,144.188M203.767,78.878C191.771,76.547,180.753,74.469,169.193,75.511C165.031,75.875,159.676,76.222,156.368,76.878C149.549,78.237,163.570,59.718,167.322,56.415C185.113,41.139,214.297,32.539,238.589,36.708C286.479,44.927,303.113,60.060,313.948,80.228C317.513,86.309,326.400,113.360,315.820,118.279C312.435,119.593,307.047,116.157,304.539,114.393C295.508,108.326,223.638,82.739,203.767,78.878M308.192,50.804C292.121,39.632,270.776,29.145,243.627,26.874C213.543,24.376,179.688,29.947,157.767,53.899C151.054,61.402,147.633,70.108,143.104,78.308C140.340,83.258,135.592,86.124,134.526,91.626C133.267,99.220,137.637,101.718,137.666,108.056C137.895,115.283,133.244,116.920,133.032,121.566C131.284,133.838,142.556,138.241,152.552,140.549C156.863,141.546,173.186,142.730,182.006,143.856C191.964,145.127,205.232,146.939,215.131,148.610C226.539,150.536,241.599,153.927,252.983,155.993C263.605,157.920,277.735,160.814,288.470,161.959C296.696,162.836,314.860,164.078,316.010,163.311C317.688,162.215,324.310,149.717,325.073,147.222C326.364,142.997,324.789,138.028,327.199,131.309C330.538,121.284,334.181,112.826,333.902,101.413C333.212,80.558,320.927,59.677,308.192,50.804Z"/>
<path fill="none" stroke="#d89f4a" stroke-width="1" stroke-linecap="butt" stroke-linejoin="round" d="M216.247,94.248C241.388,100.062,283.754,111.731,314.599,129.033"/>
<path fill="none" stroke="#d89f4a" stroke-width="1" stroke-linecap="butt" stroke-linejoin="round" d="M314.599,129.033C323.594,134.072,304.078,129.667,302.213,129.590"/>
<path fill="none" stroke="#d89f4a" stroke-width="1" stroke-linecap="butt" stroke-linejoin="round" d="M302.213,129.590C285.669,128.689,218.506,104.896,255.042,121.241"/>
<path fill="none" stroke="#d89f4a" stroke-width="1" stroke-linecap="butt" stroke-linejoin="round" d="M255.042,121.241C269.310,127.728,296.083,137.156,308.810,144.188"/>
<path fill="none" stroke="#d89f4a" stroke-width="1" stroke-linecap="butt" stroke-linejoin="round" d="M308.810,144.188C310.950,145.274,313.240,148.317,313.510,150.987"/>
<path fill="none" stroke="#d89f4a" stroke-width="1" stroke-linecap="butt" stroke-linejoin="round" d="M313.510,150.987C314.793,157.879,303.396,158.083,299.768,158.181"/>
<path fill="none" stroke="#d89f4a" stroke-width="1" stroke-linecap="butt" stroke-linejoin="round" d="M299.768,158.181C294.077,157.766,288.268,156.188,282.951,154.986"/>
<path fill="none" stroke="#d89f4a" stroke-width="1" stroke-linecap="butt" stroke-linejoin="round" d="M282.951,154.986C275.786,154.036,268.842,151.828,261.717,150.616"/>
<path fill="none" stroke="#d89f4a" stroke-width="1" stroke-linecap="butt" stroke-linejoin="round" d="M261.717,150.616C239.650,145.066,217.421,140.322,195.236,135.285"/>
<path fill="none" stroke="#d89f4a" stroke-width="1" stroke-linecap="butt" stroke-linejoin="round" d="M195.236,135.285C184.706,133.324,175.330,130.491,163.836,128.544"/>
<path fill="none" stroke="#d89f4a" stroke-width="1" stroke-linecap="butt" stroke-linejoin="round" d="M163.836,128.544C162.629,128.342,151.677,128.070,149.564,127.194"/>
<path fill="none" stroke="#d89f4a" stroke-width="1" stroke-linecap="butt" stroke-linejoin="round" d="M149.564,127.194C135.158,121.369,149.085,109.327,148.686,102.480"/>
<path fill="none" stroke="#d89f4a" stroke-width="1" stroke-linecap="butt" stroke-linejoin="round" d="M148.686,102.480C148.721,100.569,145.178,99.772,146.167,96.455"/>
<path fill="none" stroke="#d89f4a" stroke-width="1" stroke-linecap="butt" stroke-linejoin="round" d="M146.167,96.455C146.818,94.388,152.902,90.769,155.029,90.142"/>
<path fill="none" stroke="#d89f4a" stroke-width="1" stroke-linecap="butt" stroke-linejoin="round" d="M155.029,90.142C164.366,87.335,174.835,87.186,185.011,88.025"/>
<path fill="none" stroke="#d89f4a" stroke-width="1" stroke-linecap="butt" stroke-linejoin="round" d="M185.011,88.025C195.969,88.932,205.542,91.777,216.247,94.248"/>
<path fill="#d89f4a" fill-rule="evenodd" stroke="none" d="M216.247,94.248C241.388,100.062,283.754,111.731,314.599,129.033C323.594,134.072,304.078,129.667,302.213,129.590C285.669,128.689,218.506,104.896,255.042,121.241C269.310,127.728,296.083,137.156,308.810,144.188C310.950,145.274,313.240,148.317,313.510,150.987C314.793,157.879,303.396,158.083,299.768,158.181C294.077,157.766,288.268,156.188,282.951,154.986C275.786,154.036,268.842,151.828,261.717,150.616C239.650,145.066,217.421,140.322,195.236,135.285C184.706,133.324,175.330,130.491,163.836,128.544C162.629,128.342,151.677,128.070,149.564,127.194C135.158,121.369,149.085,109.327,148.686,102.480C148.721,100.569,145.178,99.772,146.167,96.455C146.818,94.388,152.902,90.769,155.029,90.142C164.366,87.335,174.835,87.186,185.011,88.025C195.969,88.932,205.542,91.777,216.247,94.248Z"/>
<path fill="none" stroke="#cc9bc5" stroke-width="1" stroke-linecap="butt" stroke-linejoin="round" d="M238.589,36.708C286.479,44.927,303.113,60.060,313.948,80.228"/>
<path fill="none" stroke="#cc9bc5" stroke-width="1" stroke-linecap="butt" stroke-linejoin="round" d="M313.948,80.228C317.513,86.309,326.400,113.360,315.820,118.279"/>
<path fill="none" stroke="#cc9bc5" stroke-width="1" stroke-linecap="butt" stroke-linejoin="round" d="M315.820,118.279C312.435,119.593,307.047,116.157,304.539,114.393"/>
<path fill="none" stroke="#cc9bc5" stroke-width="1" stroke-linecap="butt" stroke-linejoin="round" d="M304.539,114.393C295.508,108.326,223.638,82.739,203.767,78.878"/>
<path fill="none" stroke="#cc9bc5" stroke-width="1" stroke-linecap="butt" stroke-linejoin="round" d="M203.767,78.878C191.771,76.547,180.753,74.469,169.193,75.511"/>
<path fill="none" stroke="#cc9bc5" stroke-width="1" stroke-linecap="butt" stroke-linejoin="round" d="M169.193,75.511C165.031,75.875,159.676,76.222,156.368,76.878"/>
<path fill="none" stroke="#cc9bc5" stroke-width="1" stroke-linecap="butt" stroke-linejoin="round" d="M156.368,76.878C149.549,78.237,163.570,59.718,167.322,56.415"/>
<path fill="none" stroke="#cc9bc5" stroke-width="1" stroke-linecap="butt" stroke-linejoin="round" d="M167.322,56.415C185.113,41.139,214.297,32.539,238.589,36.708"/>
<path fill="#cc9bc5" fill-rule="evenodd" stroke="none" d="M238.589,36.708C286.479,44.927,303.113,60.060,313.948,80.228C317.513,86.309,326.400,113.360,315.820,118.279C312.435,119.593,307.047,116.157,304.539,114.393C295.508,108.326,223.638,82.739,203.767,78.878C191.771,76.547,180.753,74.469,169.193,75.511C165.031,75.875,159.676,76.222,156.368,76.878C149.549,78.237,163.570,59.718,167.322,56.415C185.113,41.139,214.297,32.539,238.589,36.708Z"/>
<path fill="#000000" fill-rule="evenodd" stroke="none" d="M262.118,185.195C262.628,182.961,265.653,175.623,267.263,173.674C275.743,162.594,293.799,157.812,300.179,166.655C307.445,177.175,291.383,199.545,279.197,203.413C265.772,207.451,259.778,197.120,262.118,185.195M314.858,171.606C313.637,159.752,306.070,150.137,289.195,152.409C271.829,154.748,267.547,178.095,265.081,192.354C264.620,195.507,264.391,198.962,265.081,201.914C267.457,212.894,276.488,217.919,286.992,210.768C298.658,202.649,315.949,186.669,314.858,171.606Z"/>
<path fill="none" stroke="#f8a087" stroke-width="1" stroke-linecap="butt" stroke-linejoin="round" d="M267.263,173.674C275.743,162.594,293.799,157.812,300.179,166.655"/>
<path fill="none" stroke="#f8a087" stroke-width="1" stroke-linecap="butt" stroke-linejoin="round" d="M300.179,166.655C307.445,177.175,291.383,199.545,279.197,203.413"/>
<path fill="none" stroke="#f8a087" stroke-width="1" stroke-linecap="butt" stroke-linejoin="round" d="M279.197,203.413C265.772,207.451,259.778,197.120,262.118,185.195"/>
<path fill="none" stroke="#f8a087" stroke-width="1" stroke-linecap="butt" stroke-linejoin="round" d="M262.118,185.195C262.628,182.961,265.653,175.623,267.263,173.674"/>
<path fill="#f8a087" fill-rule="evenodd" stroke="none" d="M267.263,173.674C275.743,162.594,293.799,157.812,300.179,166.655C307.445,177.175,291.383,199.545,279.197,203.413C265.772,207.451,259.778,197.120,262.118,185.195C262.628,182.961,265.653,175.623,267.263,173.674Z"/>
<path fill="#000000" fill-rule="evenodd" stroke="none" d="M288.532,215.957C278.930,219.645,279.853,201.421,283.102,202.011C287.564,203.973,297.757,217.439,288.532,215.957M299.246,209.480C292.590,209.354,290.290,200.064,290.081,196.219C297.432,198.493,306.387,204.843,299.246,209.480M310.246,207.267C308.501,198.910,296.631,193.212,289.169,188.995C286.391,187.426,276.968,196.582,276.248,199.860C274.712,203.862,275.312,226.549,289.627,224.981C295.475,224.079,311.648,213.982,310.246,207.267Z"/>
<path fill="none" stroke="#fafd5b" stroke-width="1" stroke-linecap="butt" stroke-linejoin="round" d="M290.081,196.219C297.432,198.493,306.387,204.843,299.246,209.480"/>
<path fill="none" stroke="#fafd5b" stroke-width="1" stroke-linecap="butt" stroke-linejoin="round" d="M299.246,209.480C292.590,209.354,290.290,200.064,290.081,196.219"/>
<path fill="#fafd5b" fill-rule="evenodd" stroke="none" d="M290.081,196.219C297.432,198.493,306.387,204.843,299.246,209.480C292.590,209.354,290.290,200.064,290.081,196.219Z"/>
<path fill="none" stroke="#fafd5b" stroke-width="1" stroke-linecap="butt" stroke-linejoin="round" d="M283.102,202.011C287.564,203.973,297.757,217.439,288.532,215.957"/>
<path fill="none" stroke="#fafd5b" stroke-width="1" stroke-linecap="butt" stroke-linejoin="round" d="M288.532,215.957C278.930,219.645,279.853,201.421,283.102,202.011"/>
<path fill="#fafd5b" fill-rule="evenodd" stroke="none" d="M283.102,202.011C287.564,203.973,297.757,217.439,288.532,215.957C278.930,219.645,279.853,201.421,283.102,202.011Z"/>
</g>
<path fill="#000000" fill-rule="evenodd" stroke="none" d="M213.540,272.614C215.396,277.398,209.668,286.895,208.673,291.494C202.597,309.226,193.877,326.351,194.575,344.646C194.976,350.506,199.676,363.415,194.137,367.413C192.286,368.749,187.361,365.311,186.558,366.744C184.968,369.578,180.709,359.706,180.053,358.376C179.411,357.073,177.081,348.459,176.920,346.035C176.900,341.383,177.635,332.317,178.635,326.536C179.690,320.700,180.121,314.424,182.864,308.488C185.398,301.614,190.168,294.140,192.800,286.404C195.565,281.635,199.689,279.065,199.144,275.207C198.274,271.532,196.151,269.612,199.377,267.970C203.389,266.274,212.931,267.637,213.540,272.614M276.519,278.393C277.965,277.321,291.039,272.823,292.574,272.098C305.461,266.747,311.448,280.127,311.645,288.338C311.770,291.701,310.465,303.406,310.318,305.817C309.679,311.154,310.129,315.198,309.237,319.722C305.593,334.398,309.696,325.552,304.935,337.896C304.009,340.290,301.783,345.192,300.729,347.477C299.607,349.572,296.758,353.959,295.819,355.980C292.777,361.263,290.796,367.845,281.928,369.068C280.903,369.339,271.405,374.148,269.685,374.742C265.603,375.909,260.405,377.223,257.023,374.161C252.847,369.947,253.132,362.168,252.489,355.843C250.889,342.325,254.002,328.748,257.822,315.626C260.549,304.536,267.664,286.522,276.519,278.393M289.614,262.786C286.687,264.388,280.427,264.191,278.614,264.444C275.120,264.740,274.666,261.881,274.455,259.428C274.233,254.988,277.502,248.628,280.901,245.539C283.571,243.112,288.204,241.206,292.163,241.316C295.823,241.287,301.891,244.200,301.306,248.324C301.073,251.314,294.509,260.108,289.614,262.786M216.988,245.794C221.347,255.269,225.996,264.947,220.816,263.401C214.624,261.553,211.455,261.482,201.755,256.914C191.458,252.065,189.408,236.924,195.518,232.447C201.636,227.964,211.889,234.711,216.988,245.794M311.900,356.265C313.443,350.858,315.200,347.358,315.521,341.497C315.736,336.711,315.820,331.126,314.604,326.518C312.173,318.182,311.246,314.824,308.941,305.272C307.635,300.245,306.829,296.221,306.633,291.240C306.378,288.141,302.392,272.512,303.112,269.768C303.680,264.378,310.277,261.394,311.818,256.649C313.160,252.929,314.583,248.947,314.289,245.003C314.201,239.947,309.992,236.257,306.518,233.291C301.522,229.512,296.559,229.231,290.162,229.595C280.493,230.158,274.488,238.424,270.230,244.574C264.248,253.212,264.602,268.475,261.168,278.405C259.186,284.140,255.621,291.818,253.351,297.061C244.103,317.529,227.028,373.516,244.605,387.738C246.007,389.031,257.518,392.181,261.108,391.807C270.594,390.869,274.926,389.422,283.911,387.153C290.856,385.683,300.030,374.523,305.580,367.326C307.895,364.520,311.168,358.826,311.900,356.265M222.720,235.349C217.338,228.718,207.930,216.825,199.442,218.959C195.365,220.125,189.782,223.448,186.871,226.809C183.971,230.157,180.949,235.834,180.916,240.320C180.755,245.727,180.469,252.146,182.172,256.804C184.275,262.555,193.604,267.215,194.315,273.212C194.564,275.942,187.038,287.479,185.812,290.648C183.649,296.736,179.597,302.242,177.467,307.453C175.343,312.648,173.235,319.852,171.665,325.241C169.509,332.642,165.733,341.745,165.317,350.140C164.840,354.733,166.502,365.340,169.715,370.803C171.677,374.137,176.785,378.608,179.170,379.571C180.568,380.136,194.890,384.568,199.832,380.809C209.182,373.696,205.509,357.930,203.385,341.811C201.427,327.126,213.117,315.556,218.123,301.431C220.182,295.589,228.125,276.640,228.964,269.812C229.661,264.137,231.774,260.357,230.514,252.405C229.686,248.031,226.265,239.717,222.720,235.349Z"/>
<path fill="none" stroke="#a60d3f" stroke-width="1" stroke-linecap="butt" stroke-linejoin="round" d="M292.574,272.098C305.461,266.747,311.448,280.127,311.645,288.338"/>
<path fill="none" stroke="#a60d3f" stroke-width="1" stroke-linecap="butt" stroke-linejoin="round" d="M311.645,288.338C311.770,291.701,310.465,303.406,310.318,305.817"/>
<path fill="none" stroke="#a60d3f" stroke-width="1" stroke-linecap="butt" stroke-linejoin="round" d="M310.318,305.817C309.679,311.154,310.129,315.198,309.237,319.722"/>
<path fill="none" stroke="#a60d3f" stroke-width="1" stroke-linecap="butt" stroke-linejoin="round" d="M309.237,319.722C305.593,334.398,309.696,325.552,304.935,337.896"/>
<path fill="none" stroke="#a60d3f" stroke-width="1" stroke-linecap="butt" stroke-linejoin="round" d="M304.935,337.896C304.009,340.290,301.783,345.192,300.729,347.477"/>
<path fill="none" stroke="#a60d3f" stroke-width="1" stroke-linecap="butt" stroke-linejoin="round" d="M300.729,347.477C299.607,349.572,296.758,353.959,295.819,355.980"/>
<path fill="none" stroke="#a60d3f" stroke-width="1" stroke-linecap="butt" stroke-linejoin="round" d="M295.819,355.980C292.777,361.263,290.796,367.845,281.928,369.068"/>
<path fill="none" stroke="#a60d3f" stroke-width="1" stroke-linecap="butt" stroke-linejoin="round" d="M281.928,369.068C280.903,369.339,271.405,374.148,269.685,374.742"/>
<path fill="none" stroke="#a60d3f" stroke-width="1" stroke-linecap="butt" stroke-linejoin="round" d="M269.685,374.742C265.603,375.909,260.405,377.223,257.023,374.161"/>
<path fill="none" stroke="#a60d3f" stroke-width="1" stroke-linecap="butt" stroke-linejoin="round" d="M257.023,374.161C252.847,369.947,253.132,362.168,252.489,355.843"/>
<path fill="none" stroke="#a60d3f" stroke-width="1" stroke-linecap="butt" stroke-linejoin="round" d="M252.489,355.843C250.889,342.325,254.002,328.748,257.822,315.626"/>
<path fill="none" stroke="#a60d3f" stroke-width="1" stroke-linecap="butt" stroke-linejoin="round" d="M257.822,315.626C260.549,304.536,267.664,286.522,276.519,278.393"/>
<path fill="none" stroke="#a60d3f" stroke-width="1" stroke-linecap="butt" stroke-linejoin="round" d="M276.519,278.393C277.965,277.321,291.039,272.823,292.574,272.098"/>
<path fill="#a60d3f" fill-rule="evenodd" stroke="none" d="M292.574,272.098C305.461,266.747,311.448,280.127,311.645,288.338C311.770,291.701,310.465,303.406,310.318,305.817C309.679,311.154,310.129,315.198,309.237,319.722C305.593,334.398,309.696,325.552,304.935,337.896C304.009,340.290,301.783,345.192,300.729,347.477C299.607,349.572,296.758,353.959,295.819,355.980C292.777,361.263,290.796,367.845,281.928,369.068C280.903,369.339,271.405,374.148,269.685,374.742C265.603,375.909,260.405,377.223,257.023,374.161C252.847,369.947,253.132,362.168,252.489,355.843C250.889,342.325,254.002,328.748,257.822,315.626C260.549,304.536,267.664,286.522,276.519,278.393C277.965,277.321,291.039,272.823,292.574,272.098Z"/>
<path fill="none" stroke="#a60d3f" stroke-width="1" stroke-linecap="butt" stroke-linejoin="round" d="M199.377,267.970C203.389,266.274,212.931,267.637,213.540,272.614"/>
<path fill="none" stroke="#a60d3f" stroke-width="1" stroke-linecap="butt" stroke-linejoin="round" d="M213.540,272.614C215.396,277.398,209.668,286.895,208.673,291.494"/>
<path fill="none" stroke="#a60d3f" stroke-width="1" stroke-linecap="butt" stroke-linejoin="round" d="M208.673,291.494C202.597,309.226,193.877,326.351,194.575,344.646"/>
<path fill="none" stroke="#a60d3f" stroke-width="1" stroke-linecap="butt" stroke-linejoin="round" d="M194.575,344.646C194.976,350.506,199.676,363.415,194.137,367.413"/>
<path fill="none" stroke="#a60d3f" stroke-width="1" stroke-linecap="butt" stroke-linejoin="round" d="M194.137,367.413C192.286,368.749,187.361,365.311,186.558,366.744"/>
<path fill="none" stroke="#a60d3f" stroke-width="1" stroke-linecap="butt" stroke-linejoin="round" d="M186.558,366.744C184.968,369.578,180.709,359.706,180.053,358.376"/>
<path fill="none" stroke="#a60d3f" stroke-width="1" stroke-linecap="butt" stroke-linejoin="round" d="M180.053,358.376C179.411,357.073,177.081,348.459,176.920,346.035"/>
<path fill="none" stroke="#a60d3f" stroke-width="1" stroke-linecap="butt" stroke-linejoin="round" d="M176.920,346.035C176.900,341.383,177.635,332.317,178.635,326.536"/>
<path fill="none" stroke="#a60d3f" stroke-width="1" stroke-linecap="butt" stroke-linejoin="round" d="M178.635,326.536C179.690,320.700,180.121,314.424,182.864,308.488"/>
<path fill="none" stroke="#a60d3f" stroke-width="1" stroke-linecap="butt" stroke-linejoin="round" d="M182.864,308.488C185.398,301.614,190.168,294.140,192.800,286.404"/>
<path fill="none" stroke="#a60d3f" stroke-width="1" stroke-linecap="butt" stroke-linejoin="round" d="M192.800,286.404C195.565,281.635,199.689,279.065,199.144,275.207"/>
<path fill="none" stroke="#a60d3f" stroke-width="1" stroke-linecap="butt" stroke-linejoin="round" d="M199.144,275.207C198.274,271.532,196.151,269.612,199.377,267.970"/>
<path fill="#a60d3f" fill-rule="evenodd" stroke="none" d="M199.377,267.970C203.389,266.274,212.931,267.637,213.540,272.614C215.396,277.398,209.668,286.895,208.673,291.494C202.597,309.226,193.877,326.351,194.575,344.646C194.976,350.506,199.676,363.415,194.137,367.413C192.286,368.749,187.361,365.311,186.558,366.744C184.968,369.578,180.709,359.706,180.053,358.376C179.411,357.073,177.081,348.459,176.920,346.035C176.900,341.383,177.635,332.317,178.635,326.536C179.690,320.700,180.121,314.424,182.864,308.488C185.398,301.614,190.168,294.140,192.800,286.404C195.565,281.635,199.689,279.065,199.144,275.207C198.274,271.532,196.151,269.612,199.377,267.970Z"/>
<path fill="none" stroke="#a60d3f" stroke-width="1" stroke-linecap="butt" stroke-linejoin="round" d="M292.163,241.316C295.823,241.287,301.891,244.200,301.306,248.324"/>
<path fill="none" stroke="#a60d3f" stroke-width="1" stroke-linecap="butt" stroke-linejoin="round" d="M301.306,248.324C301.073,251.314,294.509,260.108,289.614,262.786"/>
<path fill="none" stroke="#a60d3f" stroke-width="1" stroke-linecap="butt" stroke-linejoin="round" d="M289.614,262.786C286.687,264.388,280.427,264.191,278.614,264.444"/>
<path fill="none" stroke="#a60d3f" stroke-width="1" stroke-linecap="butt" stroke-linejoin="round" d="M278.614,264.444C275.120,264.740,274.666,261.881,274.455,259.428"/>
<path fill="none" stroke="#a60d3f" stroke-width="1" stroke-linecap="butt" stroke-linejoin="round" d="M274.455,259.428C274.233,254.988,277.502,248.628,280.901,245.539"/>
<path fill="none" stroke="#a60d3f" stroke-width="1" stroke-linecap="butt" stroke-linejoin="round" d="M280.901,245.539C283.571,243.112,288.204,241.206,292.163,241.316"/>
<path fill="#a60d3f" fill-rule="evenodd" stroke="none" d="M292.163,241.316C295.823,241.287,301.891,244.200,301.306,248.324C301.073,251.314,294.509,260.108,289.614,262.786C286.687,264.388,280.427,264.191,278.614,264.444C275.120,264.740,274.666,261.881,274.455,259.428C274.233,254.988,277.502,248.628,280.901,245.539C283.571,243.112,288.204,241.206,292.163,241.316Z"/>
<path fill="none" stroke="#a60d3f" stroke-width="1" stroke-linecap="butt" stroke-linejoin="round" d="M216.988,245.794C221.347,255.269,225.996,264.947,220.816,263.401"/>
<path fill="none" stroke="#a60d3f" stroke-width="1" stroke-linecap="butt" stroke-linejoin="round" d="M220.816,263.401C214.624,261.553,211.455,261.482,201.755,256.914"/>
<path fill="none" stroke="#a60d3f" stroke-width="1" stroke-linecap="butt" stroke-linejoin="round" d="M201.755,256.914C191.458,252.065,189.408,236.924,195.518,232.447"/>
<path fill="none" stroke="#a60d3f" stroke-width="1" stroke-linecap="butt" stroke-linejoin="round" d="M195.518,232.447C201.636,227.964,211.889,234.711,216.988,245.794"/>
<path fill="#a60d3f" fill-rule="evenodd" stroke="none" d="M216.988,245.794C221.347,255.269,225.996,264.947,220.816,263.401C214.624,261.553,211.455,261.482,201.755,256.914C191.458,252.065,189.408,236.924,195.518,232.447C201.636,227.964,211.889,234.711,216.988,245.794Z"/>
<path fill="#000000" fill-rule="evenodd" stroke="none" d="M311.801,465.212C308.430,459.916,307.027,450.944,314.659,448.554C319.969,446.846,343.966,451.973,347.991,455.932C355.029,462.196,351.157,476.866,342.533,480.265C332.580,483.672,317.193,473.486,311.801,465.212M292.042,284.909C292.578,281.638,299.932,270.641,305.055,271.225C308.030,271.564,309.952,276.394,311.224,278.937C314.746,286.926,318.412,295.208,321.529,303.606C330.042,325.890,336.665,348.369,342.304,371.138C344.335,380.381,344.144,392.748,347.540,401.039C351.611,410.654,357.904,407.276,360.950,413.571C362.306,416.554,361.687,422.217,363.722,426.857C366.776,434.152,372.464,438.098,375.163,442.733C376.850,445.380,377.539,448.369,373.885,449.066C371.897,450.080,366.566,449.126,364.570,449.143C357.898,447.426,351.230,445.706,344.565,443.982C335.566,442.060,308.274,440.953,303.568,435.003C296.505,425.746,307.390,414.677,308.649,405.351C309.284,402.384,312.377,358.825,311.580,355.952C310.506,349.287,306.124,343.841,303.873,337.110C301.264,327.862,298.563,317.971,296.189,308.295C294.368,300.204,290.184,293.798,292.042,284.909M315.619,260.406C312.814,256.017,304.659,248.517,298.844,250.470C294.021,252.319,293.990,258.344,293.748,262.385C293.145,272.485,292.035,280.967,293.050,290.561C293.454,297.544,294.796,303.757,296.143,310.307C297.713,319.216,297.806,336.695,298.887,346.956C299.591,356.508,302.296,366.317,301.863,374.591C300.430,394.021,291.780,412.422,292.602,431.798C292.686,441.585,295.335,441.551,297.698,449.358C299.420,455.330,298.132,461.666,300.506,467.301C306.617,482.223,324.029,495.720,340.969,492.255C356.580,489.133,357.107,472.160,365.349,463.109C372.603,455.065,387.274,458.937,389.202,450.602C391.140,443.600,381.430,436.028,377.728,430.735C370.326,420.814,375.962,418.438,372.240,410.817C369.533,405.184,361.839,400.257,358.120,392.967C356.096,389.656,355.065,383.338,353.680,379.029C350.788,368.705,347.899,356.940,345.507,346.015C343.048,333.564,341.001,322.563,336.265,310.076C332.501,299.768,321.127,268.185,315.619,260.406Z"/>
<path fill="none" stroke="#a60d3f" stroke-width="1" stroke-linecap="butt" stroke-linejoin="round" d="M305.055,271.225C308.030,271.564,309.952,276.394,311.224,278.937"/>
<path fill="none" stroke="#a60d3f" stroke-width="1" stroke-linecap="butt" stroke-linejoin="round" d="M311.224,278.937C314.746,286.926,318.412,295.208,321.529,303.606"/>
<path fill="none" stroke="#a60d3f" stroke-width="1" stroke-linecap="butt" stroke-linejoin="round" d="M321.529,303.606C330.042,325.890,336.665,348.369,342.304,371.138"/>
<path fill="none" stroke="#a60d3f" stroke-width="1" stroke-linecap="butt" stroke-linejoin="round" d="M342.304,371.138C344.335,380.381,344.144,392.748,347.540,401.039"/>
<path fill="none" stroke="#a60d3f" stroke-width="1" stroke-linecap="butt" stroke-linejoin="round" d="M347.540,401.039C351.611,410.654,357.904,407.276,360.950,413.571"/>
<path fill="none" stroke="#a60d3f" stroke-width="1" stroke-linecap="butt" stroke-linejoin="round" d="M360.950,413.571C362.306,416.554,361.687,422.217,363.722,426.857"/>
<path fill="none" stroke="#a60d3f" stroke-width="1" stroke-linecap="butt" stroke-linejoin="round" d="M363.722,426.857C366.776,434.152,372.464,438.098,375.163,442.733"/>
<path fill="none" stroke="#a60d3f" stroke-width="1" stroke-linecap="butt" stroke-linejoin="round" d="M375.163,442.733C376.850,445.380,377.539,448.369,373.885,449.066"/>
<path fill="none" stroke="#a60d3f" stroke-width="1" stroke-linecap="butt" stroke-linejoin="round" d="M373.885,449.066C371.897,450.080,366.566,449.126,364.570,449.143"/>
<path fill="none" stroke="#a60d3f" stroke-width="1" stroke-linecap="butt" stroke-linejoin="round" d="M364.570,449.143C357.898,447.426,351.230,445.706,344.565,443.982"/>
<path fill="none" stroke="#a60d3f" stroke-width="1" stroke-linecap="butt" stroke-linejoin="round" d="M344.565,443.982C335.566,442.060,308.274,440.953,303.568,435.003"/>
<path fill="none" stroke="#a60d3f" stroke-width="1" stroke-linecap="butt" stroke-linejoin="round" d="M303.568,435.003C296.505,425.746,307.390,414.677,308.649,405.351"/>
<path fill="none" stroke="#a60d3f" stroke-width="1" stroke-linecap="butt" stroke-linejoin="round" d="M308.649,405.351C309.284,402.384,312.377,358.825,311.580,355.952"/>
<path fill="none" stroke="#a60d3f" stroke-width="1" stroke-linecap="butt" stroke-linejoin="round" d="M311.580,355.952C310.506,349.287,306.124,343.841,303.873,337.110"/>
<path fill="none" stroke="#a60d3f" stroke-width="1" stroke-linecap="butt" stroke-linejoin="round" d="M303.873,337.110C301.264,327.862,298.563,317.971,296.189,308.295"/>
<path fill="none" stroke="#a60d3f" stroke-width="1" stroke-linecap="butt" stroke-linejoin="round" d="M296.189,308.295C294.368,300.204,290.184,293.798,292.042,284.909"/>
<path fill="none" stroke="#a60d3f" stroke-width="1" stroke-linecap="butt" stroke-linejoin="round" d="M292.042,284.909C292.578,281.638,299.932,270.641,305.055,271.225"/>
<path fill="#a60d3f" fill-rule="evenodd" stroke="none" d="M305.055,271.225C308.030,271.564,309.952,276.394,311.224,278.937C314.746,286.926,318.412,295.208,321.529,303.606C330.042,325.890,336.665,348.369,342.304,371.138C344.335,380.381,344.144,392.748,347.540,401.039C351.611,410.654,357.904,407.276,360.950,413.571C362.306,416.554,361.687,422.217,363.722,426.857C366.776,434.152,372.464,438.098,375.163,442.733C376.850,445.380,377.539,448.369,373.885,449.066C371.897,450.080,366.566,449.126,364.570,449.143C357.898,447.426,351.230,445.706,344.565,443.982C335.566,442.060,308.274,440.953,303.568,435.003C296.505,425.746,307.390,414.677,308.649,405.351C309.284,402.384,312.377,358.825,311.580,355.952C310.506,349.287,306.124,343.841,303.873,337.110C301.264,327.862,298.563,317.971,296.189,308.295C294.368,300.204,290.184,293.798,292.042,284.909C292.578,281.638,299.932,270.641,305.055,271.225Z"/>
<path fill="none" stroke="#f8a087" stroke-width="1" stroke-linecap="butt" stroke-linejoin="round" d="M314.659,448.554C319.969,446.846,343.966,451.973,347.991,455.932"/>
<path fill="none" stroke="#f8a087" stroke-width="1" stroke-linecap="butt" stroke-linejoin="round" d="M347.991,455.932C355.029,462.196,351.157,476.866,342.533,480.265"/>
<path fill="none" stroke="#f8a087" stroke-width="1" stroke-linecap="butt" stroke-linejoin="round" d="M342.533,480.265C332.580,483.672,317.193,473.486,311.801,465.212"/>
<path fill="none" stroke="#f8a087" stroke-width="1" stroke-linecap="butt" stroke-linejoin="round" d="M311.801,465.212C308.430,459.916,307.027,450.944,314.659,448.554"/>
<path fill="#f8a087" fill-rule="evenodd" stroke="none" d="M314.659,448.554C319.969,446.846,343.966,451.973,347.991,455.932C355.029,462.196,351.157,476.866,342.533,480.265C332.580,483.672,317.193,473.486,311.801,465.212C308.430,459.916,307.027,450.944,314.659,448.554Z"/>
</g>
</svg>
