<svg version="1.1" id="Frame_45" xmlns="http://www.w3.org/2000/svg" xmlns:xlink="http://www.w3.org/1999/xlink" width="480px" height="720px">
<g id="main_bone">
<path fill="#000000" fill-rule="evenodd" stroke="none" d="M174.857,270.882C176.503,268.308,179.715,262.991,183.631,261.780C190.125,259.772,195.205,265.837,195.580,270.391C196.549,278.412,189.734,288.590,186.544,296.185C178.757,314.409,170.491,332.475,165.584,351.135C164.980,354.393,160.641,375.598,160.599,372.961C160.375,379.561,167.070,385.055,169.499,390.611C172.613,398.096,169.950,405.312,168.393,412.311C164.753,426.648,165.440,431.898,166.815,445.621C167.132,447.765,168.213,454.705,164.885,455.444C161.480,456.199,159.846,450.062,158.719,447.785C157.905,445.213,154.619,439.964,154.970,437.553C154.767,433.611,159.310,434.294,153.826,426.467C146.807,416.646,135.249,408.458,131.948,395.253C129.717,384.741,135.008,375.322,138.024,365.433C144.468,344.091,151.739,322.739,160.680,301.985C165.581,291.143,168.259,281.771,174.857,270.882M195.549,264.137C196.302,255.681,193.790,248.137,183.071,250.815C165.525,255.134,157.549,281.113,151.691,295.785C143.515,315.475,136.868,335.470,130.943,355.640C128.545,364.212,125.535,368.625,124.298,373.607C122.746,379.246,123.206,387.826,123.667,393.428C124.073,411.043,129.267,411.876,137.217,424.965C141.503,432.766,138.218,438.129,141.474,444.843C143.874,449.530,148.220,452.524,151.784,456.183C154.993,459.897,156.043,462.090,158.551,465.543C161.594,469.682,170.294,478.949,175.739,475.462C179.636,472.946,177.767,465.361,177.300,461.633C176.445,456.054,175.638,434.146,176.146,427.472C177.162,416.286,182.765,404.211,180.777,392.295C179.180,383.137,170.861,376.712,171.065,366.849C171.325,361.590,174.449,353.009,175.547,347.117C177.351,337.725,177.763,327.631,180.463,318.062C185.096,300.929,194.598,282.224,195.549,264.137Z"/>
<path fill="none" stroke="#a60d3f" stroke-width="1" stroke-linecap="butt" stroke-linejoin="round" d="M183.631,261.780C190.125,259.772,195.205,265.837,195.580,270.391"/>
<path fill="none" stroke="#a60d3f" stroke-width="1" stroke-linecap="butt" stroke-linejoin="round" d="M195.580,270.391C196.549,278.412,189.734,288.590,186.544,296.185"/>
<path fill="none" stroke="#a60d3f" stroke-width="1" stroke-linecap="butt" stroke-linejoin="round" d="M186.544,296.185C178.757,314.409,170.491,332.475,165.584,351.135"/>
<path fill="none" stroke="#a60d3f" stroke-width="1" stroke-linecap="butt" stroke-linejoin="round" d="M165.584,351.135C164.980,354.393,160.641,375.598,160.599,372.961"/>
<path fill="none" stroke="#a60d3f" stroke-width="1" stroke-linecap="butt" stroke-linejoin="round" d="M160.599,372.961C160.375,379.561,167.070,385.055,169.499,390.611"/>
<path fill="none" stroke="#a60d3f" stroke-width="1" stroke-linecap="butt" stroke-linejoin="round" d="M169.499,390.611C172.613,398.096,169.950,405.312,168.393,412.311"/>
<path fill="none" stroke="#a60d3f" stroke-width="1" stroke-linecap="butt" stroke-linejoin="round" d="M168.393,412.311C164.753,426.648,165.440,431.898,166.815,445.621"/>
<path fill="none" stroke="#a60d3f" stroke-width="1" stroke-linecap="butt" stroke-linejoin="round" d="M166.815,445.621C167.132,447.765,168.213,454.705,164.885,455.444"/>
<path fill="none" stroke="#a60d3f" stroke-width="1" stroke-linecap="butt" stroke-linejoin="round" d="M164.885,455.444C161.480,456.199,159.846,450.062,158.719,447.785"/>
<path fill="none" stroke="#a60d3f" stroke-width="1" stroke-linecap="butt" stroke-linejoin="round" d="M158.719,447.785C157.905,445.213,154.619,439.964,154.970,437.553"/>
<path fill="none" stroke="#a60d3f" stroke-width="1" stroke-linecap="butt" stroke-linejoin="round" d="M154.970,437.553C154.767,433.611,159.310,434.294,153.826,426.467"/>
<path fill="none" stroke="#a60d3f" stroke-width="1" stroke-linecap="butt" stroke-linejoin="round" d="M153.826,426.467C146.807,416.646,135.249,408.458,131.948,395.253"/>
<path fill="none" stroke="#a60d3f" stroke-width="1" stroke-linecap="butt" stroke-linejoin="round" d="M131.948,395.253C129.717,384.741,135.008,375.322,138.024,365.433"/>
<path fill="none" stroke="#a60d3f" stroke-width="1" stroke-linecap="butt" stroke-linejoin="round" d="M138.024,365.433C144.468,344.091,151.739,322.739,160.680,301.985"/>
<path fill="none" stroke="#a60d3f" stroke-width="1" stroke-linecap="butt" stroke-linejoin="round" d="M160.680,301.985C165.581,291.143,168.259,281.771,174.857,270.882"/>
<path fill="none" stroke="#a60d3f" stroke-width="1" stroke-linecap="butt" stroke-linejoin="round" d="M174.857,270.882C176.503,268.308,179.715,262.991,183.631,261.780"/>
<path fill="#a60d3f" fill-rule="evenodd" stroke="none" d="M183.631,261.780C190.125,259.772,195.205,265.837,195.580,270.391C196.549,278.412,189.734,288.590,186.544,296.185C178.757,314.409,170.491,332.475,165.584,351.135C164.980,354.393,160.641,375.598,160.599,372.961C160.375,379.561,167.070,385.055,169.499,390.611C172.613,398.096,169.950,405.312,168.393,412.311C164.753,426.648,165.440,431.898,166.815,445.621C167.132,447.765,168.213,454.705,164.885,455.444C161.480,456.199,159.846,450.062,158.719,447.785C157.905,445.213,154.619,439.964,154.970,437.553C154.767,433.611,159.310,434.294,153.826,426.467C146.807,416.646,135.249,408.458,131.948,395.253C129.717,384.741,135.008,375.322,138.024,365.433C144.468,344.091,151.739,322.739,160.680,301.985C165.581,291.143,168.259,281.771,174.857,270.882C176.503,268.308,179.715,262.991,183.631,261.780Z"/>
<g id="layer_left_leg">
<path fill="#000000" fill-rule="evenodd" stroke="none" d="M279.141,584.145C273.977,573.551,286.666,563.131,296.506,561.013C309.648,558.185,325.451,560.749,326.366,565.656C328.128,577.089,306.698,581.888,297.163,584.398C292.750,585.405,281.050,588.060,279.141,584.145M317.614,547.461C299.770,544.301,271.611,550.471,263.432,564.834C258.181,574.055,265.343,601.489,274.123,600.739C290.902,599.306,329.915,584.899,336.315,580.242C344.652,574.177,340.998,558.920,334.193,552.092C330.401,548.713,322.754,548.447,317.614,547.461Z"/>
<path fill="none" stroke="#d88e4b" stroke-width="1" stroke-linecap="butt" stroke-linejoin="round" d="M296.506,561.013C309.648,558.185,325.451,560.749,326.366,565.656"/>
<path fill="none" stroke="#d88e4b" stroke-width="1" stroke-linecap="butt" stroke-linejoin="round" d="M326.366,565.656C328.128,577.089,306.698,581.888,297.163,584.398"/>
<path fill="none" stroke="#d88e4b" stroke-width="1" stroke-linecap="butt" stroke-linejoin="round" d="M297.163,584.398C292.750,585.405,281.050,588.060,279.141,584.145"/>
<path fill="none" stroke="#d88e4b" stroke-width="1" stroke-linecap="butt" stroke-linejoin="round" d="M279.141,584.145C273.977,573.551,286.666,563.131,296.506,561.013"/>
<path fill="#d88e4b" fill-rule="evenodd" stroke="none" d="M296.506,561.013C309.648,558.185,325.451,560.749,326.366,565.656C328.128,577.089,306.698,581.888,297.163,584.398C292.750,585.405,281.050,588.060,279.141,584.145C273.977,573.551,286.666,563.131,296.506,561.013Z"/>
<path fill="#000000" fill-rule="evenodd" stroke="none" d="M240.509,415.026C239.844,410.145,251.109,411.269,254.816,410.121C261.316,408.449,275.262,402.878,281.709,405.171C289.449,407.635,300.070,426.677,303.895,433.490C310.481,446.053,319.419,456.249,325.877,468.328C330.686,477.864,337.098,487.524,338.582,497.890C339.793,504.402,336.592,511.844,338.683,517.729C339.771,524.202,349.390,528.067,347.670,533.904C340.415,553.837,331.224,548.413,319.620,558.057C310.460,565.206,293.223,562.934,283.219,559.582C278.004,558.028,267.493,555.286,264.907,550.581C256.319,534.955,257.054,513.247,254.466,495.950C252.590,483.409,252.068,457.119,253.030,443.457C253.285,439.842,258.725,438.620,258.593,434.162C258.497,431.300,248.980,427.627,246.800,425.708C244.140,423.718,240.773,418.261,240.509,415.026M288.445,395.475C279.863,392.063,260.361,397.516,252.426,400.775C247.711,402.690,231.640,406.312,229.482,410.150C224.089,419.740,237.384,435.878,240.300,444.361C241.360,448.271,239.393,467.717,239.517,473.167C241.638,499.074,238.415,522.544,247.110,547.040C250.063,555.720,254.005,563.820,259.992,570.597C275.058,587.409,293.964,587.224,318.223,575.661C338.876,566.119,354.012,563.567,357.443,535.673C359.778,517.571,355.644,506.413,351.802,495.795C347.333,483.510,343.210,470.410,336.436,458.146C330.965,449.002,323.810,441.038,317.547,432.341C311.117,423.396,299.243,399.796,288.445,395.475Z"/>
<path fill="none" stroke="#392966" stroke-width="1" stroke-linecap="butt" stroke-linejoin="round" d="M254.816,410.121C261.316,408.449,275.262,402.878,281.709,405.171"/>
<path fill="none" stroke="#392966" stroke-width="1" stroke-linecap="butt" stroke-linejoin="round" d="M281.709,405.171C289.449,407.635,300.070,426.677,303.895,433.490"/>
<path fill="none" stroke="#392966" stroke-width="1" stroke-linecap="butt" stroke-linejoin="round" d="M303.895,433.490C310.481,446.053,319.419,456.249,325.877,468.328"/>
<path fill="none" stroke="#392966" stroke-width="1" stroke-linecap="butt" stroke-linejoin="round" d="M325.877,468.328C330.686,477.864,337.098,487.524,338.582,497.890"/>
<path fill="none" stroke="#392966" stroke-width="1" stroke-linecap="butt" stroke-linejoin="round" d="M338.582,497.890C339.793,504.402,336.592,511.844,338.683,517.729"/>
<path fill="none" stroke="#392966" stroke-width="1" stroke-linecap="butt" stroke-linejoin="round" d="M338.683,517.729C339.771,524.202,349.390,528.067,347.670,533.904"/>
<path fill="none" stroke="#392966" stroke-width="1" stroke-linecap="butt" stroke-linejoin="round" d="M347.670,533.904C340.415,553.837,331.224,548.413,319.620,558.057"/>
<path fill="none" stroke="#392966" stroke-width="1" stroke-linecap="butt" stroke-linejoin="round" d="M319.620,558.057C310.460,565.206,293.223,562.934,283.219,559.582"/>
<path fill="none" stroke="#392966" stroke-width="1" stroke-linecap="butt" stroke-linejoin="round" d="M283.219,559.582C278.004,558.028,267.493,555.286,264.907,550.581"/>
<path fill="none" stroke="#392966" stroke-width="1" stroke-linecap="butt" stroke-linejoin="round" d="M264.907,550.581C256.319,534.955,257.054,513.247,254.466,495.950"/>
<path fill="none" stroke="#392966" stroke-width="1" stroke-linecap="butt" stroke-linejoin="round" d="M254.466,495.950C252.590,483.409,252.068,457.119,253.030,443.457"/>
<path fill="none" stroke="#392966" stroke-width="1" stroke-linecap="butt" stroke-linejoin="round" d="M253.030,443.457C253.285,439.842,258.725,438.620,258.593,434.162"/>
<path fill="none" stroke="#392966" stroke-width="1" stroke-linecap="butt" stroke-linejoin="round" d="M258.593,434.162C258.497,431.300,248.980,427.627,246.800,425.708"/>
<path fill="none" stroke="#392966" stroke-width="1" stroke-linecap="butt" stroke-linejoin="round" d="M246.800,425.708C244.140,423.718,240.773,418.261,240.509,415.026"/>
<path fill="none" stroke="#392966" stroke-width="1" stroke-linecap="butt" stroke-linejoin="round" d="M240.509,415.026C239.844,410.145,251.109,411.269,254.816,410.121"/>
<path fill="#392966" fill-rule="evenodd" stroke="none" d="M254.816,410.121C261.316,408.449,275.262,402.878,281.709,405.171C289.449,407.635,300.070,426.677,303.895,433.490C310.481,446.053,319.419,456.249,325.877,468.328C330.686,477.864,337.098,487.524,338.582,497.890C339.793,504.402,336.592,511.844,338.683,517.729C339.771,524.202,349.390,528.067,347.670,533.904C340.415,553.837,331.224,548.413,319.620,558.057C310.460,565.206,293.223,562.934,283.219,559.582C278.004,558.028,267.493,555.286,264.907,550.581C256.319,534.955,257.054,513.247,254.466,495.950C252.590,483.409,252.068,457.119,253.030,443.457C253.285,439.842,258.725,438.620,258.593,434.162C258.497,431.300,248.980,427.627,246.800,425.708C244.140,423.718,240.773,418.261,240.509,415.026C239.844,410.145,251.109,411.269,254.816,410.121Z"/>
<path fill="#000000" fill-rule="evenodd" stroke="none" d="M321.955,614.976C287.657,625.703,271.093,594.943,280.086,583.343C297.701,560.622,333.906,560.441,350.512,562.658C362.636,564.277,365.899,581.465,363.309,593.710C359.232,607.301,334.071,611.195,321.955,614.976M351.633,546.910C328.906,547.542,301.671,547.117,278.790,563.690C268.173,571.381,261.789,586.438,266.346,602.267C268.900,612.394,273.333,621.159,282.048,626.916C295.331,635.110,328.893,626.067,342.699,620.427C355.517,614.128,374.196,606.351,377.157,591.234C379.583,579.749,363.102,546.592,351.633,546.910Z"/>
<path fill="none" stroke="#d88e4b" stroke-width="1" stroke-linecap="butt" stroke-linejoin="round" d="M280.086,583.343C297.701,560.622,333.906,560.441,350.512,562.658"/>
<path fill="none" stroke="#d88e4b" stroke-width="1" stroke-linecap="butt" stroke-linejoin="round" d="M350.512,562.658C362.636,564.277,365.899,581.465,363.309,593.710"/>
<path fill="none" stroke="#d88e4b" stroke-width="1" stroke-linecap="butt" stroke-linejoin="round" d="M363.309,593.710C359.232,607.301,334.071,611.195,321.955,614.976"/>
<path fill="none" stroke="#d88e4b" stroke-width="1" stroke-linecap="butt" stroke-linejoin="round" d="M321.955,614.976C287.657,625.703,271.093,594.943,280.086,583.343"/>
<path fill="#d88e4b" fill-rule="evenodd" stroke="none" d="M280.086,583.343C297.701,560.622,333.906,560.441,350.512,562.658C362.636,564.277,365.899,581.465,363.309,593.710C359.232,607.301,334.071,611.195,321.955,614.976C287.657,625.703,271.093,594.943,280.086,583.343Z"/>
<path fill="#000000" fill-rule="evenodd" stroke="none" d="M309.429,627.141C295.871,624.809,290.699,624.237,288.808,622.712C285.680,620.188,295.952,626.587,300.811,626.665C307.654,626.776,336.325,625.468,348.438,617.569C353.451,614.847,369.314,607.943,369.571,607.567C370.338,606.445,352.357,615.516,347.082,617.805C339.282,621.302,310.592,626.626,309.429,627.141M292.926,623.444C293.305,621.009,299.029,622.941,300.154,623.161C308.721,624.840,357.042,611.591,365.116,602.863C365.670,602.263,368.861,599.148,370.201,599.294C374.188,599.728,359.988,608.210,350.916,612.421C339.047,617.929,292.422,626.678,292.926,623.444M371.162,588.972C364.759,596.519,348.136,608.043,331.902,612.539C303.704,620.346,276.717,610.518,281.748,626.224C283.128,630.496,296.984,633.989,301.375,633.700C319.469,632.818,373.562,614.668,376.490,606.866C378.353,601.903,376.349,582.857,371.162,588.972Z"/>
<path fill="none" stroke="#6e2353" stroke-width="1" stroke-linecap="butt" stroke-linejoin="round" d="M288.808,622.712C285.680,620.188,295.952,626.587,300.811,626.665"/>
<path fill="none" stroke="#6e2353" stroke-width="1" stroke-linecap="butt" stroke-linejoin="round" d="M300.811,626.665C307.654,626.776,336.325,625.468,348.438,617.569"/>
<path fill="none" stroke="#6e2353" stroke-width="1" stroke-linecap="butt" stroke-linejoin="round" d="M348.438,617.569C353.451,614.847,369.314,607.943,369.571,607.567"/>
<path fill="none" stroke="#6e2353" stroke-width="1" stroke-linecap="butt" stroke-linejoin="round" d="M369.571,607.567C370.338,606.445,352.357,615.516,347.082,617.805"/>
<path fill="none" stroke="#6e2353" stroke-width="1" stroke-linecap="butt" stroke-linejoin="round" d="M347.082,617.805C339.282,621.302,310.592,626.626,309.429,627.141"/>
<path fill="none" stroke="#6e2353" stroke-width="1" stroke-linecap="butt" stroke-linejoin="round" d="M309.429,627.141C295.871,624.809,290.699,624.237,288.808,622.712"/>
<path fill="#6e2353" fill-rule="evenodd" stroke="none" d="M288.808,622.712C285.680,620.188,295.952,626.587,300.811,626.665C307.654,626.776,336.325,625.468,348.438,617.569C353.451,614.847,369.314,607.943,369.571,607.567C370.338,606.445,352.357,615.516,347.082,617.805C339.282,621.302,310.592,626.626,309.429,627.141C295.871,624.809,290.699,624.237,288.808,622.712Z"/>
<path fill="none" stroke="#6e2353" stroke-width="1" stroke-linecap="butt" stroke-linejoin="round" d="M300.154,623.161C308.721,624.840,357.042,611.591,365.116,602.863"/>
<path fill="none" stroke="#6e2353" stroke-width="1" stroke-linecap="butt" stroke-linejoin="round" d="M365.116,602.863C365.670,602.263,368.861,599.148,370.201,599.294"/>
<path fill="none" stroke="#6e2353" stroke-width="1" stroke-linecap="butt" stroke-linejoin="round" d="M370.201,599.294C374.188,599.728,359.988,608.210,350.916,612.421"/>
<path fill="none" stroke="#6e2353" stroke-width="1" stroke-linecap="butt" stroke-linejoin="round" d="M350.916,612.421C339.047,617.929,292.422,626.678,292.926,623.444"/>
<path fill="none" stroke="#6e2353" stroke-width="1" stroke-linecap="butt" stroke-linejoin="round" d="M292.926,623.444C293.305,621.009,299.029,622.941,300.154,623.161"/>
<path fill="#6e2353" fill-rule="evenodd" stroke="none" d="M300.154,623.161C308.721,624.840,357.042,611.591,365.116,602.863C365.670,602.263,368.861,599.148,370.201,599.294C374.188,599.728,359.988,608.210,350.916,612.421C339.047,617.929,292.422,626.678,292.926,623.444C293.305,621.009,299.029,622.941,300.154,623.161Z"/>
</g>
<g id="layer_right_leg">
<path fill="#000000" fill-rule="evenodd" stroke="none" d="M192.006,637.148C192.226,620.281,192.314,607.052,212.685,602.998C221.697,601.036,239.153,603.112,244.599,611.651C247.480,615.928,246.974,622.444,247.482,627.143C248.386,634.875,253.993,649.495,243.182,652.009C242.480,652.245,222.804,653.926,216.666,654.501C209.552,655.840,202.073,656.970,196.597,652.296C193.321,648.883,191.865,641.446,192.006,637.148M254.221,609.374C249.654,598.944,234.789,593.553,224.568,595.585C211.257,598.063,197.321,594.463,189.275,607.479C182.686,618.137,183.115,637.077,185.911,648.937C186.974,654.199,190.745,663.733,195.300,666.449C198.605,668.325,203.527,667.490,207.312,667.292C225.804,666.617,258.939,670.966,257.194,643.413C256.635,635.868,256.761,615.232,254.221,609.374Z"/>
<path fill="none" stroke="#d88e4b" stroke-width="1" stroke-linecap="butt" stroke-linejoin="round" d="M212.685,602.998C221.697,601.036,239.153,603.112,244.599,611.651"/>
<path fill="none" stroke="#d88e4b" stroke-width="1" stroke-linecap="butt" stroke-linejoin="round" d="M244.599,611.651C247.480,615.928,246.974,622.444,247.482,627.143"/>
<path fill="none" stroke="#d88e4b" stroke-width="1" stroke-linecap="butt" stroke-linejoin="round" d="M247.482,627.143C248.386,634.875,253.993,649.495,243.182,652.009"/>
<path fill="none" stroke="#d88e4b" stroke-width="1" stroke-linecap="butt" stroke-linejoin="round" d="M243.182,652.009C242.480,652.245,222.804,653.926,216.666,654.501"/>
<path fill="none" stroke="#d88e4b" stroke-width="1" stroke-linecap="butt" stroke-linejoin="round" d="M216.666,654.501C209.552,655.840,202.073,656.970,196.597,652.296"/>
<path fill="none" stroke="#d88e4b" stroke-width="1" stroke-linecap="butt" stroke-linejoin="round" d="M196.597,652.296C193.321,648.883,191.865,641.446,192.006,637.148"/>
<path fill="none" stroke="#d88e4b" stroke-width="1" stroke-linecap="butt" stroke-linejoin="round" d="M192.006,637.148C192.226,620.281,192.314,607.052,212.685,602.998"/>
<path fill="#d88e4b" fill-rule="evenodd" stroke="none" d="M212.685,602.998C221.697,601.036,239.153,603.112,244.599,611.651C247.480,615.928,246.974,622.444,247.482,627.143C248.386,634.875,253.993,649.495,243.182,652.009C242.480,652.245,222.804,653.926,216.666,654.501C209.552,655.840,202.073,656.970,196.597,652.296C193.321,648.883,191.865,641.446,192.006,637.148C192.226,620.281,192.314,607.052,212.685,602.998Z"/>
<path fill="#000000" fill-rule="evenodd" stroke="none" d="M179.904,410.528C182.791,398.563,198.131,394.910,208.723,397.085C214.607,398.169,224.659,400.122,228.069,405.446C229.234,407.265,229.802,410.737,228.735,412.615C226.704,416.192,214.387,413.392,215.852,417.310C218.704,425.423,230.076,417.469,233.936,421.482C235.734,423.352,235.844,426.841,236.277,429.808C240.642,451.758,235.386,475.430,237.231,497.064C237.793,504.534,237.879,515.596,239.627,522.316C242.920,536.965,240.039,540.290,240.885,549.162C240.999,552.667,241.166,570.489,242.664,574.950C244.722,580.699,249.488,586.062,250.146,592.163C251.133,601.319,236.996,612.999,228.694,615.313C219.136,617.775,190.314,614.785,181.079,610.611C177.458,609.100,172.152,605.851,170.581,601.951C168.991,598.544,168.800,582.055,170.010,578.158C172.352,571.507,174.938,570.105,176.840,562.072C178.756,552.565,179.453,542.223,178.906,532.314C177.526,514.756,178.472,483.593,180.378,470.122C181.239,462.734,178.730,438.005,179.450,431.146C180.718,420.035,178.612,418.001,179.904,410.528M203.913,385.611C198.161,383.915,193.552,378.803,187.686,381.134C185.790,382.076,182.533,384.678,181.232,386.150C166.071,400.689,167.932,414.350,168.901,433.830C168.958,440.922,169.432,448.281,169.073,455.088C168.672,460.596,167.074,465.167,165.923,470.233C165.245,474.470,164.615,478.993,164.531,484.299C164.575,489.206,166.089,494.925,166.396,503.255C166.054,513.001,166.638,522.173,166.585,531.496C166.769,538.143,164.718,553.707,164.123,558.812C162.344,565.733,160.169,573.875,158.534,580.426C156.776,589.709,156.469,599.611,159.732,607.955C161.146,612.223,163.966,617.406,167.266,620.048C170.021,622.254,173.867,622.915,177.122,623.751C186.278,626.047,194.719,627.509,204.244,627.371C210.210,627.329,216.028,625.156,222.213,625.643C223.272,625.564,231.790,627.873,233.500,627.971C237.358,627.969,242.457,623.819,245.780,621.453C249.458,618.521,256.674,617.422,259.114,613.248C260.919,610.156,260.045,606.145,260.654,602.615C263.937,581.851,260.049,571.688,256.544,553.663C254.622,543.781,251.301,523.423,250.587,512.297C249.407,498.374,250.099,484.699,249.975,470.295C250.023,466.140,250.180,461.149,250.821,456.456C251.416,451.456,250.668,447.413,250.347,442.464C249.861,438.567,249.289,426.067,248.468,421.910C247.890,418.237,247.699,413.621,246.177,410.038C242.034,400.927,227.538,391.363,218.077,388.863C213.339,387.445,208.338,387.377,203.913,385.611Z"/>
<path fill="none" stroke="#392966" stroke-width="1" stroke-linecap="butt" stroke-linejoin="round" d="M208.723,397.085C214.607,398.169,224.659,400.122,228.069,405.446"/>
<path fill="none" stroke="#392966" stroke-width="1" stroke-linecap="butt" stroke-linejoin="round" d="M228.069,405.446C229.234,407.265,229.802,410.737,228.735,412.615"/>
<path fill="none" stroke="#392966" stroke-width="1" stroke-linecap="butt" stroke-linejoin="round" d="M228.735,412.615C226.704,416.192,214.387,413.392,215.852,417.310"/>
<path fill="none" stroke="#392966" stroke-width="1" stroke-linecap="butt" stroke-linejoin="round" d="M215.852,417.310C218.704,425.423,230.076,417.469,233.936,421.482"/>
<path fill="none" stroke="#392966" stroke-width="1" stroke-linecap="butt" stroke-linejoin="round" d="M233.936,421.482C235.734,423.352,235.844,426.841,236.277,429.808"/>
<path fill="none" stroke="#392966" stroke-width="1" stroke-linecap="butt" stroke-linejoin="round" d="M236.277,429.808C240.642,451.758,235.386,475.430,237.231,497.064"/>
<path fill="none" stroke="#392966" stroke-width="1" stroke-linecap="butt" stroke-linejoin="round" d="M237.231,497.064C237.793,504.534,237.879,515.596,239.627,522.316"/>
<path fill="none" stroke="#392966" stroke-width="1" stroke-linecap="butt" stroke-linejoin="round" d="M239.627,522.316C242.920,536.965,240.039,540.290,240.885,549.162"/>
<path fill="none" stroke="#392966" stroke-width="1" stroke-linecap="butt" stroke-linejoin="round" d="M240.885,549.162C240.999,552.667,241.166,570.489,242.664,574.950"/>
<path fill="none" stroke="#392966" stroke-width="1" stroke-linecap="butt" stroke-linejoin="round" d="M242.664,574.950C244.722,580.699,249.488,586.062,250.146,592.163"/>
<path fill="none" stroke="#392966" stroke-width="1" stroke-linecap="butt" stroke-linejoin="round" d="M250.146,592.163C251.133,601.319,236.996,612.999,228.694,615.313"/>
<path fill="none" stroke="#392966" stroke-width="1" stroke-linecap="butt" stroke-linejoin="round" d="M228.694,615.313C219.136,617.775,190.314,614.785,181.079,610.611"/>
<path fill="none" stroke="#392966" stroke-width="1" stroke-linecap="butt" stroke-linejoin="round" d="M181.079,610.611C177.458,609.100,172.152,605.851,170.581,601.951"/>
<path fill="none" stroke="#392966" stroke-width="1" stroke-linecap="butt" stroke-linejoin="round" d="M170.581,601.951C168.991,598.544,168.800,582.055,170.010,578.158"/>
<path fill="none" stroke="#392966" stroke-width="1" stroke-linecap="butt" stroke-linejoin="round" d="M170.010,578.158C172.352,571.507,174.938,570.105,176.840,562.072"/>
<path fill="none" stroke="#392966" stroke-width="1" stroke-linecap="butt" stroke-linejoin="round" d="M176.840,562.072C178.756,552.565,179.453,542.223,178.906,532.314"/>
<path fill="none" stroke="#392966" stroke-width="1" stroke-linecap="butt" stroke-linejoin="round" d="M178.906,532.314C177.526,514.756,178.472,483.593,180.378,470.122"/>
<path fill="none" stroke="#392966" stroke-width="1" stroke-linecap="butt" stroke-linejoin="round" d="M180.378,470.122C181.239,462.734,178.730,438.005,179.450,431.146"/>
<path fill="none" stroke="#392966" stroke-width="1" stroke-linecap="butt" stroke-linejoin="round" d="M179.450,431.146C180.718,420.035,178.612,418.001,179.904,410.528"/>
<path fill="none" stroke="#392966" stroke-width="1" stroke-linecap="butt" stroke-linejoin="round" d="M179.904,410.528C182.791,398.563,198.131,394.910,208.723,397.085"/>
<path fill="#392966" fill-rule="evenodd" stroke="none" d="M208.723,397.085C214.607,398.169,224.659,400.122,228.069,405.446C229.234,407.265,229.802,410.737,228.735,412.615C226.704,416.192,214.387,413.392,215.852,417.310C218.704,425.423,230.076,417.469,233.936,421.482C235.734,423.352,235.844,426.841,236.277,429.808C240.642,451.758,235.386,475.430,237.231,497.064C237.793,504.534,237.879,515.596,239.627,522.316C242.920,536.965,240.039,540.290,240.885,549.162C240.999,552.667,241.166,570.489,242.664,574.950C244.722,580.699,249.488,586.062,250.146,592.163C251.133,601.319,236.996,612.999,228.694,615.313C219.136,617.775,190.314,614.785,181.079,610.611C177.458,609.100,172.152,605.851,170.581,601.951C168.991,598.544,168.800,582.055,170.010,578.158C172.352,571.507,174.938,570.105,176.840,562.072C178.756,552.565,179.453,542.223,178.906,532.314C177.526,514.756,178.472,483.593,180.378,470.122C181.239,462.734,178.730,438.005,179.450,431.146C180.718,420.035,178.612,418.001,179.904,410.528C182.791,398.563,198.131,394.910,208.723,397.085Z"/>
<path fill="#000000" fill-rule="evenodd" stroke="none" d="M171.380,653.882C172.022,639.211,176.284,620.114,193.823,616.222C197.955,615.078,204.033,616.476,208.747,617.183C232.121,620.628,240.588,626.379,242.385,650.143C242.743,656.625,244.304,664.557,239.838,670.099C235.365,675.550,212.392,674.791,205.427,675.463C193.325,676.897,183.115,682.511,174.289,672.248C168.872,665.816,171.048,661.740,171.380,653.882M249.838,624.903C241.583,610.315,206.303,602.945,190.813,606.791C167.644,612.680,161.883,631.908,161.409,651.905C161.192,658.871,160.370,666.566,164.101,672.551C165.568,674.903,168.667,677.938,170.776,679.750C185.522,693.529,195.535,691.070,214.322,689.963C224.109,689.549,240.408,688.086,247.919,681.122C253.711,675.228,253.815,669.061,253.652,661.276C253.225,653.761,253.188,630.313,249.838,624.903Z"/>
<path fill="none" stroke="#d88e4b" stroke-width="1" stroke-linecap="butt" stroke-linejoin="round" d="M193.823,616.222C197.955,615.078,204.033,616.476,208.747,617.183"/>
<path fill="none" stroke="#d88e4b" stroke-width="1" stroke-linecap="butt" stroke-linejoin="round" d="M208.747,617.183C232.121,620.628,240.588,626.379,242.385,650.143"/>
<path fill="none" stroke="#d88e4b" stroke-width="1" stroke-linecap="butt" stroke-linejoin="round" d="M242.385,650.143C242.743,656.625,244.304,664.557,239.838,670.099"/>
<path fill="none" stroke="#d88e4b" stroke-width="1" stroke-linecap="butt" stroke-linejoin="round" d="M239.838,670.099C235.365,675.550,212.392,674.791,205.427,675.463"/>
<path fill="none" stroke="#d88e4b" stroke-width="1" stroke-linecap="butt" stroke-linejoin="round" d="M205.427,675.463C193.325,676.897,183.115,682.511,174.289,672.248"/>
<path fill="none" stroke="#d88e4b" stroke-width="1" stroke-linecap="butt" stroke-linejoin="round" d="M174.289,672.248C168.872,665.816,171.048,661.740,171.380,653.882"/>
<path fill="none" stroke="#d88e4b" stroke-width="1" stroke-linecap="butt" stroke-linejoin="round" d="M171.380,653.882C172.022,639.211,176.284,620.114,193.823,616.222"/>
<path fill="#d88e4b" fill-rule="evenodd" stroke="none" d="M193.823,616.222C197.955,615.078,204.033,616.476,208.747,617.183C232.121,620.628,240.588,626.379,242.385,650.143C242.743,656.625,244.304,664.557,239.838,670.099C235.365,675.550,212.392,674.791,205.427,675.463C193.325,676.897,183.115,682.511,174.289,672.248C168.872,665.816,171.048,661.740,171.380,653.882C172.022,639.211,176.284,620.114,193.823,616.222Z"/>
<path fill="#000000" fill-rule="evenodd" stroke="none" d="M192.653,687.006C196.431,689.440,207.241,685.561,212.102,685.982C215.339,686.442,218.670,687.759,221.234,686.808C223.292,686.187,235.572,683.627,230.900,684.675C228.297,685.332,224.364,686.635,222.134,686.555C219.615,686.778,195.915,687.255,195.056,687.483C187.510,688.939,180.111,680.987,182.510,683.312C184.555,685.294,188.446,684.277,192.653,687.006M235.583,679.600C235.932,680.558,235.143,682.195,233.640,682.389C231.106,682.726,221.525,685.148,218.128,684.547C214.221,684.551,209.941,685.311,206.421,685.377C198.887,685.517,186.721,689.527,181.325,684.328C180.910,683.759,180.920,683.237,181.103,682.898C181.514,682.138,186.311,683.265,189.702,683.065C195.379,682.732,203.196,681.303,209.005,680.792C214.825,680.279,222.490,680.406,228.447,679.657C229.377,679.565,234.852,677.588,235.583,679.600M241.132,673.777C229.369,670.839,220.964,677.327,209.739,676.609C201.719,676.132,186.155,676.242,176.611,679.114C174.920,679.623,171.651,679.865,171.324,681.704C170.959,683.779,174.965,687.883,177.525,689.361C180.780,691.241,187.321,690.847,189.935,691.089C202.738,692.747,218.857,688.389,231.771,689.500C241.435,690.237,243.218,684.525,244.018,679.932C244.367,677.923,245.041,674.701,241.132,673.777Z"/>
<path fill="none" stroke="#6e2353" stroke-width="1" stroke-linecap="butt" stroke-linejoin="round" d="M192.653,687.006C196.431,689.440,207.241,685.561,212.102,685.982"/>
<path fill="none" stroke="#6e2353" stroke-width="1" stroke-linecap="butt" stroke-linejoin="round" d="M212.102,685.982C215.339,686.442,218.670,687.759,221.234,686.808"/>
<path fill="none" stroke="#6e2353" stroke-width="1" stroke-linecap="butt" stroke-linejoin="round" d="M221.234,686.808C223.292,686.187,235.572,683.627,230.900,684.675"/>
<path fill="none" stroke="#6e2353" stroke-width="1" stroke-linecap="butt" stroke-linejoin="round" d="M230.900,684.675C228.297,685.332,224.364,686.635,222.134,686.555"/>
<path fill="none" stroke="#6e2353" stroke-width="1" stroke-linecap="butt" stroke-linejoin="round" d="M222.134,686.555C219.615,686.778,195.915,687.255,195.056,687.483"/>
<path fill="none" stroke="#6e2353" stroke-width="1" stroke-linecap="butt" stroke-linejoin="round" d="M195.056,687.483C187.510,688.939,180.111,680.987,182.510,683.312"/>
<path fill="none" stroke="#6e2353" stroke-width="1" stroke-linecap="butt" stroke-linejoin="round" d="M182.510,683.312C184.555,685.294,188.446,684.277,192.653,687.006"/>
<path fill="#6e2353" fill-rule="evenodd" stroke="none" d="M192.653,687.006C196.431,689.440,207.241,685.561,212.102,685.982C215.339,686.442,218.670,687.759,221.234,686.808C223.292,686.187,235.572,683.627,230.900,684.675C228.297,685.332,224.364,686.635,222.134,686.555C219.615,686.778,195.915,687.255,195.056,687.483C187.510,688.939,180.111,680.987,182.510,683.312C184.555,685.294,188.446,684.277,192.653,687.006Z"/>
<path fill="none" stroke="#6e2353" stroke-width="1" stroke-linecap="butt" stroke-linejoin="round" d="M189.702,683.065C195.379,682.732,203.196,681.303,209.005,680.792"/>
<path fill="none" stroke="#6e2353" stroke-width="1" stroke-linecap="butt" stroke-linejoin="round" d="M209.005,680.792C214.825,680.279,222.490,680.406,228.447,679.657"/>
<path fill="none" stroke="#6e2353" stroke-width="1" stroke-linecap="butt" stroke-linejoin="round" d="M228.447,679.657C229.377,679.565,234.852,677.588,235.583,679.600"/>
<path fill="none" stroke="#6e2353" stroke-width="1" stroke-linecap="butt" stroke-linejoin="round" d="M235.583,679.600C235.932,680.558,235.143,682.195,233.640,682.389"/>
<path fill="none" stroke="#6e2353" stroke-width="1" stroke-linecap="butt" stroke-linejoin="round" d="M233.640,682.389C231.106,682.726,221.525,685.148,218.128,684.547"/>
<path fill="none" stroke="#6e2353" stroke-width="1" stroke-linecap="butt" stroke-linejoin="round" d="M218.128,684.547C214.221,684.551,209.941,685.311,206.421,685.377"/>
<path fill="none" stroke="#6e2353" stroke-width="1" stroke-linecap="butt" stroke-linejoin="round" d="M206.421,685.377C198.887,685.517,186.721,689.527,181.325,684.328"/>
<path fill="none" stroke="#6e2353" stroke-width="1" stroke-linecap="butt" stroke-linejoin="round" d="M181.325,684.328C180.910,683.759,180.920,683.237,181.103,682.898"/>
<path fill="none" stroke="#6e2353" stroke-width="1" stroke-linecap="butt" stroke-linejoin="round" d="M181.103,682.898C181.514,682.138,186.311,683.265,189.702,683.065"/>
<path fill="#6e2353" fill-rule="evenodd" stroke="none" d="M189.702,683.065C195.379,682.732,203.196,681.303,209.005,680.792C214.825,680.279,222.490,680.406,228.447,679.657C229.377,679.565,234.852,677.588,235.583,679.600C235.932,680.558,235.143,682.195,233.640,682.389C231.106,682.726,221.525,685.148,218.128,684.547C214.221,684.551,209.941,685.311,206.421,685.377C198.887,685.517,186.721,689.527,181.325,684.328C180.910,683.759,180.920,683.237,181.103,682.898C181.514,682.138,186.311,683.265,189.702,683.065Z"/>
</g>
<path fill="#000000" fill-rule="evenodd" stroke="none" d="M285.434,153.770C289.103,147.787,298.113,131.499,306.097,131.512C311.421,131.521,322.384,141.188,328.034,144.192C333.020,147.194,338.340,149.864,343.991,152.534C347.200,154.209,350.413,155.877,353.630,157.540C367.925,164.883,363.922,171.199,355.606,169.854C336.981,166.495,333.985,167.822,316.034,158.477C313.706,157.475,307.723,154.140,306.718,158.462C305.381,163.450,314.357,167.791,318.013,169.459C324.660,173.131,331.973,177.136,339.957,177.813C342.286,178.150,350.272,177.496,351.598,179.827C353.589,183.158,343.927,191.792,341.927,193.785C338.595,196.774,335.264,199.763,331.933,202.087C326.937,205.405,321.609,208.390,315.952,209.379C305.304,210.693,272.059,195.335,271.080,183.690C270.426,177.035,281.432,160.085,285.434,153.770M318.081,127.208C313.098,122.874,309.449,116.546,302.123,119.862C296.796,122.183,291.129,129.826,287.463,133.812C273.795,150.424,261.454,170.034,262.084,191.660C262.395,205.300,267.053,204.976,278.023,210.316C294.643,218.661,315.932,221.357,333.912,213.070C345.564,207.765,365.888,189.832,371.231,177.864C372.901,173.874,375.909,164.896,373.587,160.235C370.935,154.574,348.660,144.890,342.013,141.220C334.035,136.882,325.059,132.874,318.081,127.208Z"/>
<path fill="none" stroke="#cc9bc5" stroke-width="1" stroke-linecap="butt" stroke-linejoin="round" d="M306.097,131.512C311.421,131.521,322.384,141.188,328.034,144.192"/>
<path fill="none" stroke="#cc9bc5" stroke-width="1" stroke-linecap="butt" stroke-linejoin="round" d="M328.034,144.192C333.020,147.194,338.340,149.864,343.991,152.534"/>
<path fill="none" stroke="#cc9bc5" stroke-width="1" stroke-linecap="butt" stroke-linejoin="round" d="M343.991,152.534C347.200,154.209,350.413,155.877,353.630,157.540"/>
<path fill="none" stroke="#cc9bc5" stroke-width="1" stroke-linecap="butt" stroke-linejoin="round" d="M353.630,157.540C367.925,164.883,363.922,171.199,355.606,169.854"/>
<path fill="none" stroke="#cc9bc5" stroke-width="1" stroke-linecap="butt" stroke-linejoin="round" d="M355.606,169.854C336.981,166.495,333.985,167.822,316.034,158.477"/>
<path fill="none" stroke="#cc9bc5" stroke-width="1" stroke-linecap="butt" stroke-linejoin="round" d="M316.034,158.477C313.706,157.475,307.723,154.140,306.718,158.462"/>
<path fill="none" stroke="#cc9bc5" stroke-width="1" stroke-linecap="butt" stroke-linejoin="round" d="M306.718,158.462C305.381,163.450,314.357,167.791,318.013,169.459"/>
<path fill="none" stroke="#cc9bc5" stroke-width="1" stroke-linecap="butt" stroke-linejoin="round" d="M318.013,169.459C324.660,173.131,331.973,177.136,339.957,177.813"/>
<path fill="none" stroke="#cc9bc5" stroke-width="1" stroke-linecap="butt" stroke-linejoin="round" d="M339.957,177.813C342.286,178.150,350.272,177.496,351.598,179.827"/>
<path fill="none" stroke="#cc9bc5" stroke-width="1" stroke-linecap="butt" stroke-linejoin="round" d="M351.598,179.827C353.589,183.158,343.927,191.792,341.927,193.785"/>
<path fill="none" stroke="#cc9bc5" stroke-width="1" stroke-linecap="butt" stroke-linejoin="round" d="M341.927,193.785C338.595,196.774,335.264,199.763,331.933,202.087"/>
<path fill="none" stroke="#cc9bc5" stroke-width="1" stroke-linecap="butt" stroke-linejoin="round" d="M331.933,202.087C326.937,205.405,321.609,208.390,315.952,209.379"/>
<path fill="none" stroke="#cc9bc5" stroke-width="1" stroke-linecap="butt" stroke-linejoin="round" d="M315.952,209.379C305.304,210.693,272.059,195.335,271.080,183.690"/>
<path fill="none" stroke="#cc9bc5" stroke-width="1" stroke-linecap="butt" stroke-linejoin="round" d="M271.080,183.690C270.426,177.035,281.432,160.085,285.434,153.770"/>
<path fill="none" stroke="#cc9bc5" stroke-width="1" stroke-linecap="butt" stroke-linejoin="round" d="M285.434,153.770C289.103,147.787,298.113,131.499,306.097,131.512"/>
<path fill="#cc9bc5" fill-rule="evenodd" stroke="none" d="M306.097,131.512C311.421,131.521,322.384,141.188,328.034,144.192C333.020,147.194,338.340,149.864,343.991,152.534C347.200,154.209,350.413,155.877,353.630,157.540C367.925,164.883,363.922,171.199,355.606,169.854C336.981,166.495,333.985,167.822,316.034,158.477C313.706,157.475,307.723,154.140,306.718,158.462C305.381,163.450,314.357,167.791,318.013,169.459C324.660,173.131,331.973,177.136,339.957,177.813C342.286,178.150,350.272,177.496,351.598,179.827C353.589,183.158,343.927,191.792,341.927,193.785C338.595,196.774,335.264,199.763,331.933,202.087C326.937,205.405,321.609,208.390,315.952,209.379C305.304,210.693,272.059,195.335,271.080,183.690C270.426,177.035,281.432,160.085,285.434,153.770C289.103,147.787,298.113,131.499,306.097,131.512Z"/>
<path fill="#000000" fill-rule="evenodd" stroke="none" d="M184.163,142.443C201.164,129.861,221.046,127.942,242.077,126.223C251.505,125.434,258.249,131.587,265.735,137.584C271.895,142.857,278.530,148.812,285.070,154.344C294.913,162.610,299.067,166.791,302.777,170.797C305.935,173.857,310.884,179.610,314.777,182.283C319.474,185.507,329.331,202.235,331.447,204.085C324.910,206.594,314.563,208.675,309.940,212.712C311.833,218.465,312.549,227.472,312.671,230.179C306.487,230.864,299.161,228.355,287.627,226.744C285.594,234.019,285.886,240.742,281.489,248.221C273.693,246.194,268.253,244.526,258.110,240.498C251.756,245.966,250.200,245.621,239.786,252.579C232.517,248.538,226.677,244.150,219.649,241.593C213.001,244.761,202.314,246.222,198.797,249.296C194.703,242.422,190.886,234.802,187.494,231.566C177.990,233.926,173.988,236.720,167.320,239.460C162.878,234.125,165.700,229.458,160.690,221.554C156.316,220.564,149.526,218.224,143.966,218.343C147.620,213.700,149.847,198.851,156.265,196.719C164.183,194.088,158.744,185.168,163.335,176.776C164.467,174.595,175.564,157.799,176.509,155.088C178.321,150.409,180.309,145.440,184.163,142.443M269.827,124.783C257.215,115.865,232.333,111.755,218.597,115.552C205.984,118.885,193.672,123.398,182.907,131.014C176.876,135.219,170.265,141.325,166.398,147.590C158.660,159.767,147.839,186.164,141.640,198.436C136.694,208.605,131.970,215.527,127.044,221.135C144.901,226.864,150.145,229.317,155.419,229.914C156.049,237.651,163.424,243.123,162.521,251.723C171.272,250.075,176.425,247.642,184.175,245.384C188.332,249.879,191.324,256.093,195.364,262.141C202.993,259.746,210.889,259.731,218.311,253.984C223.951,256.780,232.907,261.117,242.114,265.717C250.237,260.980,252.003,260.658,259.591,255.308C269.153,257.276,279.330,262.757,288.832,261.374C287.842,253.220,293.677,247.367,292.768,242.147C299.889,239.944,322.059,242.290,325.811,241.823C325.351,235.790,321.578,224.352,322.867,217.092C329.600,215.020,335.289,213.151,345.720,207.643C341.989,201.088,335.440,193.024,329.787,188.284C325.017,184.324,321.052,178.987,316.271,174.853C300.070,161.072,293.159,141.364,269.827,124.783Z"/>
<path fill="none" stroke="#620527" stroke-width="1" stroke-linecap="butt" stroke-linejoin="round" d="M242.077,126.223C251.505,125.434,258.249,131.587,265.735,137.584"/>
<path fill="none" stroke="#620527" stroke-width="1" stroke-linecap="butt" stroke-linejoin="round" d="M265.735,137.584C271.895,142.857,278.530,148.812,285.070,154.344"/>
<path fill="none" stroke="#620527" stroke-width="1" stroke-linecap="butt" stroke-linejoin="round" d="M285.070,154.344C294.913,162.610,299.067,166.791,302.777,170.797"/>
<path fill="none" stroke="#620527" stroke-width="1" stroke-linecap="butt" stroke-linejoin="round" d="M302.777,170.797C305.935,173.857,310.884,179.610,314.777,182.283"/>
<path fill="none" stroke="#620527" stroke-width="1" stroke-linecap="butt" stroke-linejoin="round" d="M314.777,182.283C319.474,185.507,329.331,202.235,331.447,204.085"/>
<path fill="none" stroke="#620527" stroke-width="1" stroke-linecap="butt" stroke-linejoin="round" d="M331.447,204.085C324.910,206.594,314.563,208.675,309.940,212.712"/>
<path fill="none" stroke="#620527" stroke-width="1" stroke-linecap="butt" stroke-linejoin="round" d="M309.940,212.712C311.833,218.465,312.549,227.472,312.671,230.179"/>
<path fill="none" stroke="#620527" stroke-width="1" stroke-linecap="butt" stroke-linejoin="round" d="M312.671,230.179C306.487,230.864,299.161,228.355,287.627,226.744"/>
<path fill="none" stroke="#620527" stroke-width="1" stroke-linecap="butt" stroke-linejoin="round" d="M287.627,226.744C285.594,234.019,285.886,240.742,281.489,248.221"/>
<path fill="none" stroke="#620527" stroke-width="1" stroke-linecap="butt" stroke-linejoin="round" d="M281.489,248.221C273.693,246.194,268.253,244.526,258.110,240.498"/>
<path fill="none" stroke="#620527" stroke-width="1" stroke-linecap="butt" stroke-linejoin="round" d="M258.110,240.498C251.756,245.966,250.200,245.621,239.786,252.579"/>
<path fill="none" stroke="#620527" stroke-width="1" stroke-linecap="butt" stroke-linejoin="round" d="M239.786,252.579C232.517,248.538,226.677,244.150,219.649,241.593"/>
<path fill="none" stroke="#620527" stroke-width="1" stroke-linecap="butt" stroke-linejoin="round" d="M219.649,241.593C213.001,244.761,202.314,246.222,198.797,249.296"/>
<path fill="none" stroke="#620527" stroke-width="1" stroke-linecap="butt" stroke-linejoin="round" d="M198.797,249.296C194.703,242.422,190.886,234.802,187.494,231.566"/>
<path fill="none" stroke="#620527" stroke-width="1" stroke-linecap="butt" stroke-linejoin="round" d="M187.494,231.566C177.990,233.926,173.988,236.720,167.320,239.460"/>
<path fill="none" stroke="#620527" stroke-width="1" stroke-linecap="butt" stroke-linejoin="round" d="M167.320,239.460C162.878,234.125,165.700,229.458,160.690,221.554"/>
<path fill="none" stroke="#620527" stroke-width="1" stroke-linecap="butt" stroke-linejoin="round" d="M160.690,221.554C156.316,220.564,149.526,218.224,143.966,218.343"/>
<path fill="none" stroke="#620527" stroke-width="1" stroke-linecap="butt" stroke-linejoin="round" d="M143.966,218.343C147.620,213.700,149.847,198.851,156.265,196.719"/>
<path fill="none" stroke="#620527" stroke-width="1" stroke-linecap="butt" stroke-linejoin="round" d="M156.265,196.719C164.183,194.088,158.744,185.168,163.335,176.776"/>
<path fill="none" stroke="#620527" stroke-width="1" stroke-linecap="butt" stroke-linejoin="round" d="M163.335,176.776C164.467,174.595,175.564,157.799,176.509,155.088"/>
<path fill="none" stroke="#620527" stroke-width="1" stroke-linecap="butt" stroke-linejoin="round" d="M176.509,155.088C178.321,150.409,180.309,145.440,184.163,142.443"/>
<path fill="none" stroke="#620527" stroke-width="1" stroke-linecap="butt" stroke-linejoin="round" d="M184.163,142.443C201.164,129.861,221.046,127.942,242.077,126.223"/>
<path fill="#620527" fill-rule="evenodd" stroke="none" d="M242.077,126.223C251.505,125.434,258.249,131.587,265.735,137.584C271.895,142.857,278.530,148.812,285.070,154.344C294.913,162.610,299.067,166.791,302.777,170.797C305.935,173.857,310.884,179.610,314.777,182.283C319.474,185.507,329.331,202.235,331.447,204.085C324.910,206.594,314.563,208.675,309.940,212.712C311.833,218.465,312.549,227.472,312.671,230.179C306.487,230.864,299.161,228.355,287.627,226.744C285.594,234.019,285.886,240.742,281.489,248.221C273.693,246.194,268.253,244.526,258.110,240.498C251.756,245.966,250.200,245.621,239.786,252.579C232.517,248.538,226.677,244.150,219.649,241.593C213.001,244.761,202.314,246.222,198.797,249.296C194.703,242.422,190.886,234.802,187.494,231.566C177.990,233.926,173.988,236.720,167.320,239.460C162.878,234.125,165.700,229.458,160.690,221.554C156.316,220.564,149.526,218.224,143.966,218.343C147.620,213.700,149.847,198.851,156.265,196.719C164.183,194.088,158.744,185.168,163.335,176.776C164.467,174.595,175.564,157.799,176.509,155.088C178.321,150.409,180.309,145.440,184.163,142.443C201.164,129.861,221.046,127.942,242.077,126.223Z"/>
<path fill="#000000" fill-rule="evenodd" stroke="none" d="M241.938,372.923C237.249,370.775,219.016,364.946,215.778,369.207C213.207,372.810,217.443,374.247,221.260,374.771C224.896,375.270,243.700,381.294,246.284,379.837C250.919,377.151,244.142,373.818,241.938,372.923M194.904,267.648C198.545,255.202,226.114,243.716,238.994,245.398C247.952,246.541,275.523,262.039,279.073,270.581C282.043,277.417,281.720,302.105,281.591,310.446C281.074,325.747,280.353,341.141,281.299,356.422C282.487,367.211,287.308,377.410,288.257,388.223C288.107,391.638,286.592,399.554,283.676,401.929C277.350,407.600,258.747,409.107,251.143,407.276C223.157,401.342,227.512,394.444,200.830,391.630C197.224,391.110,185.243,392.384,182.890,390.781C178.395,386.892,180.838,380.261,182.273,374.720C185.934,362.622,188.987,354.501,191.201,341.279C193.753,325.403,195.781,308.242,196.669,291.645C196.656,285.667,194.053,271.255,194.904,267.648M274.564,253.291C258.765,242.775,243.202,233.953,223.269,238.586C217.888,239.635,190.654,251.184,188.163,254.387C184.261,259.494,186.941,279.846,186.563,287.120C186.447,295.754,186.270,304.721,185.144,312.970C184.461,319.260,182.808,324.828,182.469,330.804C181.760,337.425,181.791,344.698,180.008,350.650C175.990,363.726,161.440,388.786,176.263,399.611C181.230,403.265,189.214,402.359,195.645,403.379C206.099,404.834,216.985,407.859,227.547,409.662C240.255,412.196,252.550,417.099,265.651,417.716C273.928,418.107,300.842,420.539,305.656,413.229C308.530,409.072,302.912,387.245,301.258,381.779C297.634,371.580,292.604,361.659,290.944,350.963C289.436,339.075,289.977,327.246,291.324,314.989C292.212,305.019,294.405,295.454,294.948,285.131C294.842,280.774,295.772,275.472,293.661,271.012C290.080,262.808,281.664,258.008,274.564,253.291Z"/>
<path fill="none" stroke="#6a3661" stroke-width="1" stroke-linecap="butt" stroke-linejoin="round" d="M241.938,372.923C237.249,370.775,219.016,364.946,215.778,369.207"/>
<path fill="none" stroke="#6a3661" stroke-width="1" stroke-linecap="butt" stroke-linejoin="round" d="M215.778,369.207C213.207,372.810,217.443,374.247,221.260,374.771"/>
<path fill="none" stroke="#6a3661" stroke-width="1" stroke-linecap="butt" stroke-linejoin="round" d="M221.260,374.771C224.896,375.270,243.700,381.294,246.284,379.837"/>
<path fill="none" stroke="#6a3661" stroke-width="1" stroke-linecap="butt" stroke-linejoin="round" d="M246.284,379.837C250.919,377.151,244.142,373.818,241.938,372.923"/>
<path fill="none" stroke="#6a3661" stroke-width="1" stroke-linecap="butt" stroke-linejoin="round" d="M194.904,267.648C198.545,255.202,226.114,243.716,238.994,245.398"/>
<path fill="none" stroke="#6a3661" stroke-width="1" stroke-linecap="butt" stroke-linejoin="round" d="M238.994,245.398C247.952,246.541,275.523,262.039,279.073,270.581"/>
<path fill="none" stroke="#6a3661" stroke-width="1" stroke-linecap="butt" stroke-linejoin="round" d="M279.073,270.581C282.043,277.417,281.720,302.105,281.591,310.446"/>
<path fill="none" stroke="#6a3661" stroke-width="1" stroke-linecap="butt" stroke-linejoin="round" d="M281.591,310.446C281.074,325.747,280.353,341.141,281.299,356.422"/>
<path fill="none" stroke="#6a3661" stroke-width="1" stroke-linecap="butt" stroke-linejoin="round" d="M281.299,356.422C282.487,367.211,287.308,377.410,288.257,388.223"/>
<path fill="none" stroke="#6a3661" stroke-width="1" stroke-linecap="butt" stroke-linejoin="round" d="M288.257,388.223C288.107,391.638,286.592,399.554,283.676,401.929"/>
<path fill="none" stroke="#6a3661" stroke-width="1" stroke-linecap="butt" stroke-linejoin="round" d="M283.676,401.929C277.350,407.600,258.747,409.107,251.143,407.276"/>
<path fill="none" stroke="#6a3661" stroke-width="1" stroke-linecap="butt" stroke-linejoin="round" d="M251.143,407.276C223.157,401.342,227.512,394.444,200.830,391.630"/>
<path fill="none" stroke="#6a3661" stroke-width="1" stroke-linecap="butt" stroke-linejoin="round" d="M200.830,391.630C197.224,391.110,185.243,392.384,182.890,390.781"/>
<path fill="none" stroke="#6a3661" stroke-width="1" stroke-linecap="butt" stroke-linejoin="round" d="M182.890,390.781C178.395,386.892,180.838,380.261,182.273,374.720"/>
<path fill="none" stroke="#6a3661" stroke-width="1" stroke-linecap="butt" stroke-linejoin="round" d="M182.273,374.720C185.934,362.622,188.987,354.501,191.201,341.279"/>
<path fill="none" stroke="#6a3661" stroke-width="1" stroke-linecap="butt" stroke-linejoin="round" d="M191.201,341.279C193.753,325.403,195.781,308.242,196.669,291.645"/>
<path fill="none" stroke="#6a3661" stroke-width="1" stroke-linecap="butt" stroke-linejoin="round" d="M196.669,291.645C196.656,285.667,194.053,271.255,194.904,267.648"/>
<path fill="#6a3661" fill-rule="evenodd" stroke="none" d="M241.938,372.923C237.249,370.775,219.016,364.946,215.778,369.207C213.207,372.810,217.443,374.247,221.260,374.771C224.896,375.270,243.700,381.294,246.284,379.837C250.919,377.151,244.142,373.818,241.938,372.923M194.904,267.648C198.545,255.202,226.114,243.716,238.994,245.398C247.952,246.541,275.523,262.039,279.073,270.581C282.043,277.417,281.720,302.105,281.591,310.446C281.074,325.747,280.353,341.141,281.299,356.422C282.487,367.211,287.308,377.410,288.257,388.223C288.107,391.638,286.592,399.554,283.676,401.929C277.350,407.600,258.747,409.107,251.143,407.276C223.157,401.342,227.512,394.444,200.830,391.630C197.224,391.110,185.243,392.384,182.890,390.781C178.395,386.892,180.838,380.261,182.273,374.720C185.934,362.622,188.987,354.501,191.201,341.279C193.753,325.403,195.781,308.242,196.669,291.645C196.656,285.667,194.053,271.255,194.904,267.648Z"/>
<path fill="#000000" fill-rule="evenodd" stroke="none" d="M231.256,226.722C231.434,223.382,232.293,220.345,235.932,219.842C247.471,217.309,248.218,254.910,237.584,255.404C227.614,255.867,230.885,233.066,231.256,226.722M235.500,210.538C232.827,210.329,229.867,211.132,227.601,212.570C218.511,217.654,220.242,226.234,220.643,234.874C220.511,239.211,221.030,243.183,219.205,246.931C217.699,250.333,213.198,253.871,213.368,257.528C214.164,267.483,241.084,266.232,248.048,265.575C250.706,265.452,259.725,266.032,260.552,262.331C260.506,261.333,253.320,250.009,252.107,245.403C248.467,231.584,256.817,210.548,235.500,210.538Z"/>
<path fill="none" stroke="#f8a087" stroke-width="1" stroke-linecap="butt" stroke-linejoin="round" d="M235.932,219.842C247.471,217.309,248.218,254.910,237.584,255.404"/>
<path fill="none" stroke="#f8a087" stroke-width="1" stroke-linecap="butt" stroke-linejoin="round" d="M237.584,255.404C227.614,255.867,230.885,233.066,231.256,226.722"/>
<path fill="none" stroke="#f8a087" stroke-width="1" stroke-linecap="butt" stroke-linejoin="round" d="M231.256,226.722C231.434,223.382,232.293,220.345,235.932,219.842"/>
<path fill="#f8a087" fill-rule="evenodd" stroke="none" d="M235.932,219.842C247.471,217.309,248.218,254.910,237.584,255.404C227.614,255.867,230.885,233.066,231.256,226.722C231.434,223.382,232.293,220.345,235.932,219.842Z"/>
<g id="layer_head">
<path fill="#000000" fill-rule="evenodd" stroke="none" d="M151.346,197.274C136.921,198.164,121.793,163.610,143.141,165.015C146.679,165.248,149.572,171.206,150.171,173.840C152.340,183.357,161.634,196.641,151.346,197.274M148.638,153.432C145.315,151.441,141.229,150.767,137.678,152.317C126.824,155.118,121.075,167.955,123.006,179.056C125.307,191.484,139.135,205.222,150.665,207.471C153.708,208.081,159.987,210.175,162.876,208.627C169.513,204.527,162.705,194.275,160.724,188.483C158.743,182.251,153.394,157.520,148.638,153.432Z"/>
<path fill="none" stroke="#f8a087" stroke-width="1" stroke-linecap="butt" stroke-linejoin="round" d="M143.141,165.015C146.679,165.248,149.572,171.206,150.171,173.840"/>
<path fill="none" stroke="#f8a087" stroke-width="1" stroke-linecap="butt" stroke-linejoin="round" d="M150.171,173.840C152.340,183.357,161.634,196.641,151.346,197.274"/>
<path fill="none" stroke="#f8a087" stroke-width="1" stroke-linecap="butt" stroke-linejoin="round" d="M151.346,197.274C136.921,198.164,121.793,163.610,143.141,165.015"/>
<path fill="#f8a087" fill-rule="evenodd" stroke="none" d="M143.141,165.015C146.679,165.248,149.572,171.206,150.171,173.840C152.340,183.357,161.634,196.641,151.346,197.274C136.921,198.164,121.793,163.610,143.141,165.015Z"/>
<g id="face_Mask">
<path fill="#000000" fill-rule="evenodd" stroke="none" d="M166.889,108.512C175.392,98.077,208.172,90.945,221.815,88.971C237.123,87.000,252.756,89.354,267.719,94.036C273.041,95.709,280.693,97.712,285.340,101.384C293.291,107.717,298.313,119.007,301.166,128.348C303.428,135.127,307.527,144.235,305.670,150.729C297.267,180.096,293.177,193.627,287.297,201.835C280.017,211.995,266.844,215.765,255.338,220.370C243.471,224.925,231.427,226.521,225.184,226.150C212.822,225.417,186.218,219.168,177.127,211.561C166.445,202.279,165.336,188.209,161.078,175.343C158.583,168.518,154.448,158.264,153.125,151.268C151.213,140.201,159.890,117.022,166.889,108.512M289.370,93.715C275.776,81.468,239.509,78.603,221.871,81.218C213.550,82.195,205.563,82.840,197.906,84.819C192.244,86.472,187.244,89.122,181.915,90.776C170.261,95.082,165.452,93.635,157.604,104.387C151.969,111.913,143.108,141.593,144.091,150.784C144.949,157.670,152.234,172.973,154.623,180.690C157.711,190.875,160.081,205.493,166.598,213.426C173.841,221.987,183.710,226.505,198.856,230.684C210.194,233.812,222.761,234.927,234.871,235.199C239.513,235.588,248.151,232.949,260.616,227.712C272.669,222.470,285.926,218.022,294.210,206.700C304.012,193.303,307.981,171.433,316.222,149.365C323.119,130.898,297.837,101.178,289.370,93.715Z"/>
<path fill="none" stroke="#f8a087" stroke-width="1" stroke-linecap="butt" stroke-linejoin="round" d="M221.815,88.971C237.123,87.000,252.756,89.354,267.719,94.036"/>
<path fill="none" stroke="#f8a087" stroke-width="1" stroke-linecap="butt" stroke-linejoin="round" d="M267.719,94.036C273.041,95.709,280.693,97.712,285.340,101.384"/>
<path fill="none" stroke="#f8a087" stroke-width="1" stroke-linecap="butt" stroke-linejoin="round" d="M285.340,101.384C293.291,107.717,298.313,119.007,301.166,128.348"/>
<path fill="none" stroke="#f8a087" stroke-width="1" stroke-linecap="butt" stroke-linejoin="round" d="M301.166,128.348C303.428,135.127,307.527,144.235,305.670,150.729"/>
<path fill="none" stroke="#f8a087" stroke-width="1" stroke-linecap="butt" stroke-linejoin="round" d="M305.670,150.729C297.267,180.096,293.177,193.627,287.297,201.835"/>
<path fill="none" stroke="#f8a087" stroke-width="1" stroke-linecap="butt" stroke-linejoin="round" d="M287.297,201.835C280.017,211.995,266.844,215.765,255.338,220.370"/>
<path fill="none" stroke="#f8a087" stroke-width="1" stroke-linecap="butt" stroke-linejoin="round" d="M255.338,220.370C243.471,224.925,231.427,226.521,225.184,226.150"/>
<path fill="none" stroke="#f8a087" stroke-width="1" stroke-linecap="butt" stroke-linejoin="round" d="M225.184,226.150C212.822,225.417,186.218,219.168,177.127,211.561"/>
<path fill="none" stroke="#f8a087" stroke-width="1" stroke-linecap="butt" stroke-linejoin="round" d="M177.127,211.561C166.445,202.279,165.336,188.209,161.078,175.343"/>
<path fill="none" stroke="#f8a087" stroke-width="1" stroke-linecap="butt" stroke-linejoin="round" d="M161.078,175.343C158.583,168.518,154.448,158.264,153.125,151.268"/>
<path fill="none" stroke="#f8a087" stroke-width="1" stroke-linecap="butt" stroke-linejoin="round" d="M153.125,151.268C151.213,140.201,159.890,117.022,166.889,108.512"/>
<path fill="none" stroke="#f8a087" stroke-width="1" stroke-linecap="butt" stroke-linejoin="round" d="M166.889,108.512C175.392,98.077,208.172,90.945,221.815,88.971"/>
<path fill="#f8a087" fill-rule="evenodd" stroke="none" d="M221.815,88.971C237.123,87.000,252.756,89.354,267.719,94.036C273.041,95.709,280.693,97.712,285.340,101.384C293.291,107.717,298.313,119.007,301.166,128.348C303.428,135.127,307.527,144.235,305.670,150.729C297.267,180.096,293.177,193.627,287.297,201.835C280.017,211.995,266.844,215.765,255.338,220.370C243.471,224.925,231.427,226.521,225.184,226.150C212.822,225.417,186.218,219.168,177.127,211.561C166.445,202.279,165.336,188.209,161.078,175.343C158.583,168.518,154.448,158.264,153.125,151.268C151.213,140.201,159.890,117.022,166.889,108.512C175.392,98.077,208.172,90.945,221.815,88.971Z"/>
</g>
<mask id="mask_target" style="mask-type:alpha;">
<use xlink:href="#face_Mask"/>
</mask>
<path fill="#000000" fill-rule="evenodd" stroke="none" d="M232.387,217.820C237.590,218.932,237.666,223.685,237.191,224.191C236.924,224.477,235.803,223.524,232.843,223.032C227.239,222.102,224.531,223.270,224.335,222.555C224.120,221.772,226.297,216.517,232.387,217.820Z"/>
<g id="layer_eyes_Mtarget" mask="url(#mask_target)">
<mask style="mask-type:alpha;" id="f3906406-f197-4bf1-91d8-744c09cca836">
<use xlink:href="#cmn_f3906406-f197-4bf1-91d8-744c09cca836"/>
</mask>
<g id="cmn_f3906406-f197-4bf1-91d8-744c09cca836">
<path fill="#000000" fill-rule="evenodd" stroke="none" d="M209.811,177.727C211.524,190.507,203.163,198.923,190.433,195.624C182.996,193.481,179.622,187.959,176.998,181.288C175.445,177.760,167.976,161.611,173.664,163.508C178.265,165.044,209.192,173.105,209.811,177.727M216.478,180.821C217.359,179.313,218.614,177.040,218.360,175.312C218.077,173.387,216.486,170.329,214.528,170.081C209.217,169.288,190.563,163.042,183.827,160.541C177.156,158.223,163.776,150.147,159.446,156.882C157.742,159.411,161.707,160.170,163.069,164.196C169.403,182.925,175.448,200.477,195.650,201.367C213.178,202.140,212.046,188.397,216.478,180.821M259.235,190.708C252.133,190.564,242.754,185.165,242.823,174.098C242.844,170.767,256.317,165.528,262.358,162.311C268.298,159.147,279.607,152.746,282.690,152.838C286.175,153.362,284.419,156.450,284.452,166.080C284.500,180.253,272.180,190.971,259.235,190.708M290.573,172.408C293.554,160.352,293.957,144.210,291.613,143.164C286.619,140.935,273.907,150.270,266.476,153.672C256.754,158.123,241.302,167.500,234.613,169.639C232.673,170.337,230.921,170.883,230.658,172.287C230.137,175.068,235.409,176.889,237.208,179.073C240.381,182.928,241.393,189.952,246.613,192.803C256.524,198.622,264.001,196.410,274.905,191.479C283.359,187.696,288.483,180.860,290.573,172.408Z"/>
<path fill="none" stroke="#ffffff" stroke-width="1" stroke-linecap="butt" stroke-linejoin="round" d="M282.690,152.838C286.175,153.362,284.419,156.450,284.452,166.080"/>
<path fill="none" stroke="#ffffff" stroke-width="1" stroke-linecap="butt" stroke-linejoin="round" d="M284.452,166.080C284.500,180.253,272.180,190.971,259.235,190.708"/>
<path fill="none" stroke="#ffffff" stroke-width="1" stroke-linecap="butt" stroke-linejoin="round" d="M259.235,190.708C252.133,190.564,242.754,185.165,242.823,174.098"/>
<path fill="none" stroke="#ffffff" stroke-width="1" stroke-linecap="butt" stroke-linejoin="round" d="M242.823,174.098C242.844,170.767,256.317,165.528,262.358,162.311"/>
<path fill="none" stroke="#ffffff" stroke-width="1" stroke-linecap="butt" stroke-linejoin="round" d="M262.358,162.311C268.298,159.147,279.607,152.746,282.690,152.838"/>
<path fill="#ffffff" fill-rule="evenodd" stroke="none" d="M282.690,152.838C286.175,153.362,284.419,156.450,284.452,166.080C284.500,180.253,272.180,190.971,259.235,190.708C252.133,190.564,242.754,185.165,242.823,174.098C242.844,170.767,256.317,165.528,262.358,162.311C268.298,159.147,279.607,152.746,282.690,152.838Z"/>
<path fill="none" stroke="#ffffff" stroke-width="1" stroke-linecap="butt" stroke-linejoin="round" d="M173.664,163.508C178.265,165.044,209.192,173.105,209.811,177.727"/>
<path fill="none" stroke="#ffffff" stroke-width="1" stroke-linecap="butt" stroke-linejoin="round" d="M209.811,177.727C211.524,190.507,203.163,198.923,190.433,195.624"/>
<path fill="none" stroke="#ffffff" stroke-width="1" stroke-linecap="butt" stroke-linejoin="round" d="M190.433,195.624C182.996,193.481,179.622,187.959,176.998,181.288"/>
<path fill="none" stroke="#ffffff" stroke-width="1" stroke-linecap="butt" stroke-linejoin="round" d="M176.998,181.288C175.445,177.760,167.976,161.611,173.664,163.508"/>
<path fill="#ffffff" fill-rule="evenodd" stroke="none" d="M173.664,163.508C178.265,165.044,209.192,173.105,209.811,177.727C211.524,190.507,203.163,198.923,190.433,195.624C182.996,193.481,179.622,187.959,176.998,181.288C175.445,177.760,167.976,161.611,173.664,163.508Z"/>
</g>
<path fill="#000000" fill-rule="evenodd" stroke="none" d="M273.381,161.984C275.658,161.417,278.855,164.580,279.693,173.006C280.321,179.321,278.654,181.908,276.906,182.108C275.006,182.324,273.364,179.729,272.092,172.950C270.735,165.715,271.400,162.477,273.381,161.984Z" mask="url(#f3906406-f197-4bf1-91d8-744c09cca836)"/>
<path fill="#000000" fill-rule="evenodd" stroke="none" d="M203.806,172.135C206.022,171.618,208.596,175.074,209.508,183.503C210.049,188.500,209.225,190.559,207.913,190.872C206.355,191.243,204.422,189.248,202.846,183.493C200.840,176.163,201.820,172.598,203.806,172.135Z" mask="url(#f3906406-f197-4bf1-91d8-744c09cca836)"/>
</g>
<path fill="#000000" fill-rule="evenodd" stroke="none" d="M305.243,126.485C307.246,127.806,310.226,130.153,310.557,132.816C311.885,139.142,300.904,138.482,297.573,138.812C290.931,138.805,283.988,138.595,277.644,138.764C272.536,139.365,267.423,139.914,262.304,140.415C253.920,140.581,245.545,140.309,237.162,140.225C222.567,140.654,207.993,140.196,193.382,140.116C192.072,140.161,152.784,144.652,146.180,141.028C137.469,136.349,146.499,129.643,146.166,125.292C146.167,121.651,138.234,120.646,140.227,114.363C142.215,108.422,163.338,104.459,169.613,103.144C181.895,100.503,194.513,96.879,207.461,94.922C225.685,92.319,244.539,92.712,263.088,91.097C275.547,90.115,304.141,98.049,309.592,110.856C314.283,121.469,297.631,111.520,295.638,110.854C294.175,109.763,289.031,107.526,290.167,110.807C291.256,116.536,301.168,123.130,305.243,126.485M187.930,90.491C177.564,93.008,167.920,94.714,157.922,97.024C153.597,98.012,148.290,100.636,144.292,98.348C135.305,93.448,145.056,70.516,149.379,64.561C163.727,45.304,194.694,37.075,219.935,37.067C264.907,37.053,282.516,43.933,297.440,58.975C302.086,63.321,318.626,85.024,309.955,90.998C306.625,92.984,300.647,88.996,297.658,87.658C287.362,83.308,245.701,76.459,187.930,90.491M246.407,26.660C239.198,26.248,237.446,24.815,229.868,25.455C198.586,28.580,156.449,30.048,137.762,60.249C131.760,70.198,131.709,81.485,129.680,92.105C127.995,100.713,123.005,107.324,123.969,115.940C124.944,122.937,127.949,124.605,130.252,129.946C132.883,135.618,131.515,138.279,133.157,141.950C136.752,152.627,146.427,152.103,155.750,152.045C160.596,152.016,178.473,151.903,188.210,151.745C200.106,151.553,215.965,151.171,227.857,150.821C237.015,150.551,249.226,150.181,258.377,149.744C266.789,149.343,278.008,148.795,286.397,148.066C296.642,147.177,319.262,145.391,320.450,144.150C322.581,141.962,326.484,120.643,326.499,116.667C326.511,113.327,324.857,109.984,324.879,104.641C324.607,90.053,324.324,76.467,316.105,62.837C300.984,38.248,273.489,28.894,246.407,26.660Z"/>
<path fill="none" stroke="#d89f4a" stroke-width="1" stroke-linecap="butt" stroke-linejoin="round" d="M263.088,91.097C275.547,90.115,304.141,98.049,309.592,110.856"/>
<path fill="none" stroke="#d89f4a" stroke-width="1" stroke-linecap="butt" stroke-linejoin="round" d="M309.592,110.856C314.283,121.469,297.631,111.520,295.638,110.854"/>
<path fill="none" stroke="#d89f4a" stroke-width="1" stroke-linecap="butt" stroke-linejoin="round" d="M295.638,110.854C294.175,109.763,289.031,107.526,290.167,110.807"/>
<path fill="none" stroke="#d89f4a" stroke-width="1" stroke-linecap="butt" stroke-linejoin="round" d="M290.167,110.807C291.256,116.536,301.168,123.130,305.243,126.485"/>
<path fill="none" stroke="#d89f4a" stroke-width="1" stroke-linecap="butt" stroke-linejoin="round" d="M305.243,126.485C307.246,127.806,310.226,130.153,310.557,132.816"/>
<path fill="none" stroke="#d89f4a" stroke-width="1" stroke-linecap="butt" stroke-linejoin="round" d="M310.557,132.816C311.885,139.142,300.904,138.482,297.573,138.812"/>
<path fill="none" stroke="#d89f4a" stroke-width="1" stroke-linecap="butt" stroke-linejoin="round" d="M297.573,138.812C290.931,138.805,283.988,138.595,277.644,138.764"/>
<path fill="none" stroke="#d89f4a" stroke-width="1" stroke-linecap="butt" stroke-linejoin="round" d="M277.644,138.764C272.536,139.365,267.423,139.914,262.304,140.415"/>
<path fill="none" stroke="#d89f4a" stroke-width="1" stroke-linecap="butt" stroke-linejoin="round" d="M262.304,140.415C253.920,140.581,245.545,140.309,237.162,140.225"/>
<path fill="none" stroke="#d89f4a" stroke-width="1" stroke-linecap="butt" stroke-linejoin="round" d="M237.162,140.225C222.567,140.654,207.993,140.196,193.382,140.116"/>
<path fill="none" stroke="#d89f4a" stroke-width="1" stroke-linecap="butt" stroke-linejoin="round" d="M193.382,140.116C192.072,140.161,152.784,144.652,146.180,141.028"/>
<path fill="none" stroke="#d89f4a" stroke-width="1" stroke-linecap="butt" stroke-linejoin="round" d="M146.180,141.028C137.469,136.349,146.499,129.643,146.166,125.292"/>
<path fill="none" stroke="#d89f4a" stroke-width="1" stroke-linecap="butt" stroke-linejoin="round" d="M146.166,125.292C146.167,121.651,138.234,120.646,140.227,114.363"/>
<path fill="none" stroke="#d89f4a" stroke-width="1" stroke-linecap="butt" stroke-linejoin="round" d="M140.227,114.363C142.215,108.422,163.338,104.459,169.613,103.144"/>
<path fill="none" stroke="#d89f4a" stroke-width="1" stroke-linecap="butt" stroke-linejoin="round" d="M169.613,103.144C181.895,100.503,194.513,96.879,207.461,94.922"/>
<path fill="none" stroke="#d89f4a" stroke-width="1" stroke-linecap="butt" stroke-linejoin="round" d="M207.461,94.922C225.685,92.319,244.539,92.712,263.088,91.097"/>
<path fill="#d89f4a" fill-rule="evenodd" stroke="none" d="M263.088,91.097C275.547,90.115,304.141,98.049,309.592,110.856C314.283,121.469,297.631,111.520,295.638,110.854C294.175,109.763,289.031,107.526,290.167,110.807C291.256,116.536,301.168,123.130,305.243,126.485C307.246,127.806,310.226,130.153,310.557,132.816C311.885,139.142,300.904,138.482,297.573,138.812C290.931,138.805,283.988,138.595,277.644,138.764C272.536,139.365,267.423,139.914,262.304,140.415C253.920,140.581,245.545,140.309,237.162,140.225C222.567,140.654,207.993,140.196,193.382,140.116C192.072,140.161,152.784,144.652,146.180,141.028C137.469,136.349,146.499,129.643,146.166,125.292C146.167,121.651,138.234,120.646,140.227,114.363C142.215,108.422,163.338,104.459,169.613,103.144C181.895,100.503,194.513,96.879,207.461,94.922C225.685,92.319,244.539,92.712,263.088,91.097Z"/>
<path fill="none" stroke="#cc9bc5" stroke-width="1" stroke-linecap="butt" stroke-linejoin="round" d="M219.935,37.067C264.907,37.053,282.516,43.933,297.440,58.975"/>
<path fill="none" stroke="#cc9bc5" stroke-width="1" stroke-linecap="butt" stroke-linejoin="round" d="M297.440,58.975C302.086,63.321,318.626,85.024,309.955,90.998"/>
<path fill="none" stroke="#cc9bc5" stroke-width="1" stroke-linecap="butt" stroke-linejoin="round" d="M309.955,90.998C306.625,92.984,300.647,88.996,297.658,87.658"/>
<path fill="none" stroke="#cc9bc5" stroke-width="1" stroke-linecap="butt" stroke-linejoin="round" d="M297.658,87.658C287.362,83.308,245.701,76.459,187.930,90.491"/>
<path fill="none" stroke="#cc9bc5" stroke-width="1" stroke-linecap="butt" stroke-linejoin="round" d="M187.930,90.491C177.564,93.008,167.920,94.714,157.922,97.024"/>
<path fill="none" stroke="#cc9bc5" stroke-width="1" stroke-linecap="butt" stroke-linejoin="round" d="M157.922,97.024C153.597,98.012,148.290,100.636,144.292,98.348"/>
<path fill="none" stroke="#cc9bc5" stroke-width="1" stroke-linecap="butt" stroke-linejoin="round" d="M144.292,98.348C135.305,93.448,145.056,70.516,149.379,64.561"/>
<path fill="none" stroke="#cc9bc5" stroke-width="1" stroke-linecap="butt" stroke-linejoin="round" d="M149.379,64.561C163.727,45.304,194.694,37.075,219.935,37.067"/>
<path fill="#cc9bc5" fill-rule="evenodd" stroke="none" d="M219.935,37.067C264.907,37.053,282.516,43.933,297.440,58.975C302.086,63.321,318.626,85.024,309.955,90.998C306.625,92.984,300.647,88.996,297.658,87.658C287.362,83.308,245.701,76.459,187.930,90.491C177.564,93.008,167.920,94.714,157.922,97.024C153.597,98.012,148.290,100.636,144.292,98.348C135.305,93.448,145.056,70.516,149.379,64.561C163.727,45.304,194.694,37.075,219.935,37.067Z"/>
<path fill="#000000" fill-rule="evenodd" stroke="none" d="M304.403,190.978C303.285,187.100,312.777,162.715,314.414,160.435C319.371,153.524,331.204,163.925,332.302,170.480C333.494,178.630,321.815,186.838,315.149,191.675C310.203,195.151,305.855,196.013,304.403,190.978M340.808,174.450C342.375,161.732,331.140,144.982,318.778,147.948C305.645,151.099,304.693,168.702,300.748,179.163C299.141,183.789,296.432,188.392,295.847,193.014C294.661,201.294,298.278,208.380,307.486,206.210C320.704,202.953,338.606,188.746,340.808,174.450Z"/>
<path fill="none" stroke="#f8a087" stroke-width="1" stroke-linecap="butt" stroke-linejoin="round" d="M314.414,160.435C319.371,153.524,331.204,163.925,332.302,170.480"/>
<path fill="none" stroke="#f8a087" stroke-width="1" stroke-linecap="butt" stroke-linejoin="round" d="M332.302,170.480C333.494,178.630,321.815,186.838,315.149,191.675"/>
<path fill="none" stroke="#f8a087" stroke-width="1" stroke-linecap="butt" stroke-linejoin="round" d="M315.149,191.675C310.203,195.151,305.855,196.013,304.403,190.978"/>
<path fill="none" stroke="#f8a087" stroke-width="1" stroke-linecap="butt" stroke-linejoin="round" d="M304.403,190.978C303.285,187.100,312.777,162.715,314.414,160.435"/>
<path fill="#f8a087" fill-rule="evenodd" stroke="none" d="M314.414,160.435C319.371,153.524,331.204,163.925,332.302,170.480C333.494,178.630,321.815,186.838,315.149,191.675C310.203,195.151,305.855,196.013,304.403,190.978C303.285,187.100,312.777,162.715,314.414,160.435Z"/>
<path fill="#000000" fill-rule="evenodd" stroke="none" d="M325.189,208.809C316.270,211.828,314.793,192.025,318.593,192.651C323.832,194.854,327.780,204.866,325.189,208.809M333.786,201.353C326.898,200.127,324.585,191.556,324.393,187.579C331.981,189.978,341.202,196.604,333.786,201.353M341.788,196.339C339.511,188.618,328.640,183.146,321.115,180.335C318.838,179.485,313.560,187.930,313.184,190.458C311.994,194.330,310.695,216.745,324.189,214.996C329.689,214.035,343.631,202.584,341.788,196.339Z"/>
<path fill="none" stroke="#fafd5b" stroke-width="1" stroke-linecap="butt" stroke-linejoin="round" d="M324.393,187.579C331.981,189.978,341.202,196.604,333.786,201.353"/>
<path fill="none" stroke="#fafd5b" stroke-width="1" stroke-linecap="butt" stroke-linejoin="round" d="M333.786,201.353C326.898,200.127,324.585,191.556,324.393,187.579"/>
<path fill="#fafd5b" fill-rule="evenodd" stroke="none" d="M324.393,187.579C331.981,189.978,341.202,196.604,333.786,201.353C326.898,200.127,324.585,191.556,324.393,187.579Z"/>
<path fill="none" stroke="#fafd5b" stroke-width="1" stroke-linecap="butt" stroke-linejoin="round" d="M318.593,192.651C323.832,194.854,327.780,204.866,325.189,208.809"/>
<path fill="none" stroke="#fafd5b" stroke-width="1" stroke-linecap="butt" stroke-linejoin="round" d="M325.189,208.809C316.270,211.828,314.793,192.025,318.593,192.651"/>
<path fill="#fafd5b" fill-rule="evenodd" stroke="none" d="M318.593,192.651C323.832,194.854,327.780,204.866,325.189,208.809C316.270,211.828,314.793,192.025,318.593,192.651Z"/>
</g>
<path fill="#000000" fill-rule="evenodd" stroke="none" d="M206.007,272.877C208.282,277.412,204.364,287.411,203.908,292.042C200.154,309.218,194.658,325.632,194.765,342.805C194.929,347.324,194.932,355.655,192.193,360.144C190.763,362.489,186.904,364.447,185.029,365.843C182.164,367.929,180.192,359.851,179.404,357.464C178.399,354.419,178.785,346.687,178.993,344.155C179.721,339.137,182.036,329.478,182.416,323.094C182.837,316.842,180.422,310.418,181.162,303.549C181.322,297.746,182.045,290.864,182.322,284.395C183.230,280.693,184.700,278.569,184.918,275.884C184.867,271.229,186.018,269.455,190.442,268.872C195.129,268.591,204.845,267.596,206.007,272.877M263.947,283.047C265.948,280.394,288.038,267.279,291.012,266.290C301.674,263.299,303.278,276.561,301.888,282.930C300.762,288.433,290.209,306.949,292.103,310.509C293.883,314.383,298.680,313.940,302.083,315.279C312.074,319.784,306.520,317.037,315.306,318.172C319.693,318.765,330.389,318.127,333.027,321.573C334.216,323.335,332.452,328.384,332.759,330.354C333.234,337.438,337.048,344.616,330.143,352.427C329.649,353.147,326.738,361.503,325.755,362.634C314.663,374.080,292.298,378.670,278.527,368.483C274.783,365.385,273.551,359.503,271.498,354.717C265.108,340.478,260.740,325.323,259.888,309.677C259.175,302.328,259.943,289.708,263.947,283.047M280.249,261.362C277.200,263.896,270.827,267.209,268.766,267.903C262.039,269.772,261.236,262.403,261.004,257.506C260.948,252.576,264.160,245.682,267.453,241.792C270.244,238.494,274.878,234.376,279.611,234.071C285.235,233.508,294.402,239.421,293.064,245.713C292.588,248.940,284.916,257.484,280.249,261.362M201.749,238.666C206.586,244.288,211.268,249.967,207.905,253.364C204.798,256.503,201.720,257.067,194.051,257.329C182.442,257.726,176.382,241.216,181.069,235.068C184.888,230.061,195.924,231.896,201.749,238.666M354.942,317.159C352.233,310.752,346.476,308.587,339.586,306.291C333.128,304.209,325.166,304.460,318.416,304.374C314.259,304.429,312.178,305.098,307.983,302.968C302.628,300.365,298.584,295.914,297.779,290.258C297.071,286.448,302.140,267.074,302.998,263.644C303.361,259.763,305.410,256.200,305.567,252.616C305.862,248.735,306.656,244.681,305.731,240.900C304.575,234.653,298.467,231.232,293.823,227.859C287.341,223.713,281.530,222.169,273.740,223.286C264.446,224.632,260.139,234.133,256.880,240.613C252.017,250.283,253.177,265.603,252.057,276.369C251.424,282.448,250.769,290.934,250.500,296.681C249.122,318.726,257.534,374.703,278.626,381.735C283.891,383.878,319.967,378.627,328.285,371.809C333.069,367.928,334.060,364.817,338.305,360.592C344.129,355.229,347.217,339.785,350.636,330.242C352.083,326.585,356.062,319.813,354.942,317.159M213.102,235.806C209.313,229.711,202.956,219.559,195.602,219.498C189.955,219.633,181.389,221.062,176.463,224.353C173.065,226.623,168.405,230.940,168.043,235.065C167.398,240.910,168.920,247.924,171.368,252.727C173.233,256.386,178.866,259.170,180.612,262.824C181.358,264.504,181.685,273.501,181.835,275.774C182.717,285.158,178.897,294.708,177.565,302.811C176.401,309.891,174.680,319.303,173.540,326.388C172.162,334.949,169.872,345.537,169.229,354.971C168.872,357.888,169.301,364.435,170.115,368.386C170.765,371.545,171.923,377.260,173.642,378.542C174.629,379.278,186.159,382.150,190.505,379.543C195.963,376.267,197.757,372.117,198.737,359.986C199.580,346.786,205.890,335.941,207.864,322.709C209.904,307.028,217.151,280.266,217.360,269.052C217.470,263.134,219.080,259.237,218.001,250.973C217.399,247.238,215.626,239.867,213.102,235.806Z"/>
<path fill="none" stroke="#a60d3f" stroke-width="1" stroke-linecap="butt" stroke-linejoin="round" d="M291.012,266.290C301.674,263.299,303.278,276.561,301.888,282.930"/>
<path fill="none" stroke="#a60d3f" stroke-width="1" stroke-linecap="butt" stroke-linejoin="round" d="M301.888,282.930C300.762,288.433,290.209,306.949,292.103,310.509"/>
<path fill="none" stroke="#a60d3f" stroke-width="1" stroke-linecap="butt" stroke-linejoin="round" d="M292.103,310.509C293.883,314.383,298.680,313.940,302.083,315.279"/>
<path fill="none" stroke="#a60d3f" stroke-width="1" stroke-linecap="butt" stroke-linejoin="round" d="M302.083,315.279C312.074,319.784,306.520,317.037,315.306,318.172"/>
<path fill="none" stroke="#a60d3f" stroke-width="1" stroke-linecap="butt" stroke-linejoin="round" d="M315.306,318.172C319.693,318.765,330.389,318.127,333.027,321.573"/>
<path fill="none" stroke="#a60d3f" stroke-width="1" stroke-linecap="butt" stroke-linejoin="round" d="M333.027,321.573C334.216,323.335,332.452,328.384,332.759,330.354"/>
<path fill="none" stroke="#a60d3f" stroke-width="1" stroke-linecap="butt" stroke-linejoin="round" d="M332.759,330.354C333.234,337.438,337.048,344.616,330.143,352.427"/>
<path fill="none" stroke="#a60d3f" stroke-width="1" stroke-linecap="butt" stroke-linejoin="round" d="M330.143,352.427C329.649,353.147,326.738,361.503,325.755,362.634"/>
<path fill="none" stroke="#a60d3f" stroke-width="1" stroke-linecap="butt" stroke-linejoin="round" d="M325.755,362.634C314.663,374.080,292.298,378.670,278.527,368.483"/>
<path fill="none" stroke="#a60d3f" stroke-width="1" stroke-linecap="butt" stroke-linejoin="round" d="M278.527,368.483C274.783,365.385,273.551,359.503,271.498,354.717"/>
<path fill="none" stroke="#a60d3f" stroke-width="1" stroke-linecap="butt" stroke-linejoin="round" d="M271.498,354.717C265.108,340.478,260.740,325.323,259.888,309.677"/>
<path fill="none" stroke="#a60d3f" stroke-width="1" stroke-linecap="butt" stroke-linejoin="round" d="M259.888,309.677C259.175,302.328,259.943,289.708,263.947,283.047"/>
<path fill="none" stroke="#a60d3f" stroke-width="1" stroke-linecap="butt" stroke-linejoin="round" d="M263.947,283.047C265.948,280.394,288.038,267.279,291.012,266.290"/>
<path fill="#a60d3f" fill-rule="evenodd" stroke="none" d="M291.012,266.290C301.674,263.299,303.278,276.561,301.888,282.930C300.762,288.433,290.209,306.949,292.103,310.509C293.883,314.383,298.680,313.940,302.083,315.279C312.074,319.784,306.520,317.037,315.306,318.172C319.693,318.765,330.389,318.127,333.027,321.573C334.216,323.335,332.452,328.384,332.759,330.354C333.234,337.438,337.048,344.616,330.143,352.427C329.649,353.147,326.738,361.503,325.755,362.634C314.663,374.080,292.298,378.670,278.527,368.483C274.783,365.385,273.551,359.503,271.498,354.717C265.108,340.478,260.740,325.323,259.888,309.677C259.175,302.328,259.943,289.708,263.947,283.047C265.948,280.394,288.038,267.279,291.012,266.290Z"/>
<path fill="none" stroke="#a60d3f" stroke-width="1" stroke-linecap="butt" stroke-linejoin="round" d="M190.442,268.872C195.129,268.591,204.845,267.596,206.007,272.877"/>
<path fill="none" stroke="#a60d3f" stroke-width="1" stroke-linecap="butt" stroke-linejoin="round" d="M206.007,272.877C208.282,277.412,204.364,287.411,203.908,292.042"/>
<path fill="none" stroke="#a60d3f" stroke-width="1" stroke-linecap="butt" stroke-linejoin="round" d="M203.908,292.042C200.154,309.218,194.658,325.632,194.765,342.805"/>
<path fill="none" stroke="#a60d3f" stroke-width="1" stroke-linecap="butt" stroke-linejoin="round" d="M194.765,342.805C194.929,347.324,194.932,355.655,192.193,360.144"/>
<path fill="none" stroke="#a60d3f" stroke-width="1" stroke-linecap="butt" stroke-linejoin="round" d="M192.193,360.144C190.763,362.489,186.904,364.447,185.029,365.843"/>
<path fill="none" stroke="#a60d3f" stroke-width="1" stroke-linecap="butt" stroke-linejoin="round" d="M185.029,365.843C182.164,367.929,180.192,359.851,179.404,357.464"/>
<path fill="none" stroke="#a60d3f" stroke-width="1" stroke-linecap="butt" stroke-linejoin="round" d="M179.404,357.464C178.399,354.419,178.785,346.687,178.993,344.155"/>
<path fill="none" stroke="#a60d3f" stroke-width="1" stroke-linecap="butt" stroke-linejoin="round" d="M178.993,344.155C179.721,339.137,182.036,329.478,182.416,323.094"/>
<path fill="none" stroke="#a60d3f" stroke-width="1" stroke-linecap="butt" stroke-linejoin="round" d="M182.416,323.094C182.837,316.842,180.422,310.418,181.162,303.549"/>
<path fill="none" stroke="#a60d3f" stroke-width="1" stroke-linecap="butt" stroke-linejoin="round" d="M181.162,303.549C181.322,297.746,182.045,290.864,182.322,284.395"/>
<path fill="none" stroke="#a60d3f" stroke-width="1" stroke-linecap="butt" stroke-linejoin="round" d="M182.322,284.395C183.230,280.693,184.700,278.569,184.918,275.884"/>
<path fill="none" stroke="#a60d3f" stroke-width="1" stroke-linecap="butt" stroke-linejoin="round" d="M184.918,275.884C184.867,271.229,186.018,269.455,190.442,268.872"/>
<path fill="#a60d3f" fill-rule="evenodd" stroke="none" d="M190.442,268.872C195.129,268.591,204.845,267.596,206.007,272.877C208.282,277.412,204.364,287.411,203.908,292.042C200.154,309.218,194.658,325.632,194.765,342.805C194.929,347.324,194.932,355.655,192.193,360.144C190.763,362.489,186.904,364.447,185.029,365.843C182.164,367.929,180.192,359.851,179.404,357.464C178.399,354.419,178.785,346.687,178.993,344.155C179.721,339.137,182.036,329.478,182.416,323.094C182.837,316.842,180.422,310.418,181.162,303.549C181.322,297.746,182.045,290.864,182.322,284.395C183.230,280.693,184.700,278.569,184.918,275.884C184.867,271.229,186.018,269.455,190.442,268.872Z"/>
<path fill="none" stroke="#a60d3f" stroke-width="1" stroke-linecap="butt" stroke-linejoin="round" d="M279.611,234.071C285.235,233.508,294.402,239.421,293.064,245.713"/>
<path fill="none" stroke="#a60d3f" stroke-width="1" stroke-linecap="butt" stroke-linejoin="round" d="M293.064,245.713C292.588,248.940,284.916,257.484,280.249,261.362"/>
<path fill="none" stroke="#a60d3f" stroke-width="1" stroke-linecap="butt" stroke-linejoin="round" d="M280.249,261.362C277.200,263.896,270.827,267.209,268.766,267.903"/>
<path fill="none" stroke="#a60d3f" stroke-width="1" stroke-linecap="butt" stroke-linejoin="round" d="M268.766,267.903C262.039,269.772,261.236,262.403,261.004,257.506"/>
<path fill="none" stroke="#a60d3f" stroke-width="1" stroke-linecap="butt" stroke-linejoin="round" d="M261.004,257.506C260.948,252.576,264.160,245.682,267.453,241.792"/>
<path fill="none" stroke="#a60d3f" stroke-width="1" stroke-linecap="butt" stroke-linejoin="round" d="M267.453,241.792C270.244,238.494,274.878,234.376,279.611,234.071"/>
<path fill="#a60d3f" fill-rule="evenodd" stroke="none" d="M279.611,234.071C285.235,233.508,294.402,239.421,293.064,245.713C292.588,248.940,284.916,257.484,280.249,261.362C277.200,263.896,270.827,267.209,268.766,267.903C262.039,269.772,261.236,262.403,261.004,257.506C260.948,252.576,264.160,245.682,267.453,241.792C270.244,238.494,274.878,234.376,279.611,234.071Z"/>
<path fill="none" stroke="#a60d3f" stroke-width="1" stroke-linecap="butt" stroke-linejoin="round" d="M201.749,238.666C206.586,244.288,211.268,249.967,207.905,253.364"/>
<path fill="none" stroke="#a60d3f" stroke-width="1" stroke-linecap="butt" stroke-linejoin="round" d="M207.905,253.364C204.798,256.503,201.720,257.067,194.051,257.329"/>
<path fill="none" stroke="#a60d3f" stroke-width="1" stroke-linecap="butt" stroke-linejoin="round" d="M194.051,257.329C182.442,257.726,176.382,241.216,181.069,235.068"/>
<path fill="none" stroke="#a60d3f" stroke-width="1" stroke-linecap="butt" stroke-linejoin="round" d="M181.069,235.068C184.888,230.061,195.924,231.896,201.749,238.666"/>
<path fill="#a60d3f" fill-rule="evenodd" stroke="none" d="M201.749,238.666C206.586,244.288,211.268,249.967,207.905,253.364C204.798,256.503,201.720,257.067,194.051,257.329C182.442,257.726,176.382,241.216,181.069,235.068C184.888,230.061,195.924,231.896,201.749,238.666Z"/>
<path fill="#000000" fill-rule="evenodd" stroke="none" d="M327.790,462.473C327.781,457.506,333.500,455.813,339.781,456.562C343.552,456.982,359.954,454.295,363.001,456.632C368.350,460.326,365.537,470.528,359.904,473.556C350.488,478.076,327.913,472.276,327.790,462.473M286.504,284.468C286.811,281.167,293.380,269.684,298.531,269.910C301.523,270.041,303.777,274.724,305.224,277.172C309.294,284.897,313.445,292.941,317.224,301.063C327.370,322.341,334.716,344.304,343.821,365.620C347.360,374.552,351.081,386.207,355.616,394.091C360.468,402.300,365.079,399.459,368.435,404.894C370.089,407.723,370.421,413.340,373.107,417.636C377.189,424.410,383.390,427.487,386.734,431.681C388.787,434.055,389.656,436.352,386.390,438.133C384.611,439.902,379.188,442.125,377.145,443.054C369.814,444.291,362.368,445.605,354.951,445.180C345.950,445.048,319.887,442.616,314.649,437.360C305.839,428.207,314.549,414.803,314.359,404.536C314.537,401.476,312.218,357.463,311.147,354.649C309.434,348.009,304.800,342.744,302.054,336.078C298.780,326.915,295.351,317.115,292.272,307.508C289.895,299.563,285.271,293.465,286.504,284.468M308.315,258.380C305.211,254.198,296.553,247.285,290.888,249.638C286.206,251.820,286.595,257.832,286.635,261.880C286.738,271.998,286.223,280.536,287.905,290.036C288.794,296.974,290.556,303.082,292.367,309.518C294.626,318.515,295.826,336.419,297.924,346.787C299.537,356.285,303.430,365.750,304.082,374.058C305.201,393.702,299.726,413.340,303.386,432.581C304.912,442.402,307.538,441.992,311.053,449.491C313.617,455.153,313.271,461.605,316.439,466.836C324.653,480.711,343.842,491.536,360.098,485.646C375.090,480.289,373.145,463.420,379.985,453.267C385.993,444.254,401.071,445.953,401.767,437.427C402.668,430.217,391.771,424.309,387.528,419.438C379.500,410.770,385.090,407.816,380.996,400.832C378.008,395.662,370.789,391.240,366.133,384.958C363.394,381.801,360.344,375.743,357.925,371.511C353.064,362.198,348.202,351.325,344.496,341.013C340.507,329.152,337.992,318.399,332.375,306.489C327.819,296.507,314.353,265.756,308.315,258.380Z"/>
<path fill="none" stroke="#a60d3f" stroke-width="1" stroke-linecap="butt" stroke-linejoin="round" d="M298.531,269.910C301.523,270.041,303.777,274.724,305.224,277.172"/>
<path fill="none" stroke="#a60d3f" stroke-width="1" stroke-linecap="butt" stroke-linejoin="round" d="M305.224,277.172C309.294,284.897,313.445,292.941,317.224,301.063"/>
<path fill="none" stroke="#a60d3f" stroke-width="1" stroke-linecap="butt" stroke-linejoin="round" d="M317.224,301.063C327.370,322.341,334.716,344.304,343.821,365.620"/>
<path fill="none" stroke="#a60d3f" stroke-width="1" stroke-linecap="butt" stroke-linejoin="round" d="M343.821,365.620C347.360,374.552,351.081,386.207,355.616,394.091"/>
<path fill="none" stroke="#a60d3f" stroke-width="1" stroke-linecap="butt" stroke-linejoin="round" d="M355.616,394.091C360.468,402.300,365.079,399.459,368.435,404.894"/>
<path fill="none" stroke="#a60d3f" stroke-width="1" stroke-linecap="butt" stroke-linejoin="round" d="M368.435,404.894C370.089,407.723,370.421,413.340,373.107,417.636"/>
<path fill="none" stroke="#a60d3f" stroke-width="1" stroke-linecap="butt" stroke-linejoin="round" d="M373.107,417.636C377.189,424.410,383.390,427.487,386.734,431.681"/>
<path fill="none" stroke="#a60d3f" stroke-width="1" stroke-linecap="butt" stroke-linejoin="round" d="M386.734,431.681C388.787,434.055,389.656,436.352,386.390,438.133"/>
<path fill="none" stroke="#a60d3f" stroke-width="1" stroke-linecap="butt" stroke-linejoin="round" d="M386.390,438.133C384.611,439.902,379.188,442.125,377.145,443.054"/>
<path fill="none" stroke="#a60d3f" stroke-width="1" stroke-linecap="butt" stroke-linejoin="round" d="M377.145,443.054C369.814,444.291,362.368,445.605,354.951,445.180"/>
<path fill="none" stroke="#a60d3f" stroke-width="1" stroke-linecap="butt" stroke-linejoin="round" d="M354.951,445.180C345.950,445.048,319.887,442.616,314.649,437.360"/>
<path fill="none" stroke="#a60d3f" stroke-width="1" stroke-linecap="butt" stroke-linejoin="round" d="M314.649,437.360C305.839,428.207,314.549,414.803,314.359,404.536"/>
<path fill="none" stroke="#a60d3f" stroke-width="1" stroke-linecap="butt" stroke-linejoin="round" d="M314.359,404.536C314.537,401.476,312.218,357.463,311.147,354.649"/>
<path fill="none" stroke="#a60d3f" stroke-width="1" stroke-linecap="butt" stroke-linejoin="round" d="M311.147,354.649C309.434,348.009,304.800,342.744,302.054,336.078"/>
<path fill="none" stroke="#a60d3f" stroke-width="1" stroke-linecap="butt" stroke-linejoin="round" d="M302.054,336.078C298.780,326.915,295.351,317.115,292.272,307.508"/>
<path fill="none" stroke="#a60d3f" stroke-width="1" stroke-linecap="butt" stroke-linejoin="round" d="M292.272,307.508C289.895,299.563,285.271,293.465,286.504,284.468"/>
<path fill="none" stroke="#a60d3f" stroke-width="1" stroke-linecap="butt" stroke-linejoin="round" d="M286.504,284.468C286.811,281.167,293.380,269.684,298.531,269.910"/>
<path fill="#a60d3f" fill-rule="evenodd" stroke="none" d="M298.531,269.910C301.523,270.041,303.777,274.724,305.224,277.172C309.294,284.897,313.445,292.941,317.224,301.063C327.370,322.341,334.716,344.304,343.821,365.620C347.360,374.552,351.081,386.207,355.616,394.091C360.468,402.300,365.079,399.459,368.435,404.894C370.089,407.723,370.421,413.340,373.107,417.636C377.189,424.410,383.390,427.487,386.734,431.681C388.787,434.055,389.656,436.352,386.390,438.133C384.611,439.902,379.188,442.125,377.145,443.054C369.814,444.291,362.368,445.605,354.951,445.180C345.950,445.048,319.887,442.616,314.649,437.360C305.839,428.207,314.549,414.803,314.359,404.536C314.537,401.476,312.218,357.463,311.147,354.649C309.434,348.009,304.800,342.744,302.054,336.078C298.780,326.915,295.351,317.115,292.272,307.508C289.895,299.563,285.271,293.465,286.504,284.468C286.811,281.167,293.380,269.684,298.531,269.910Z"/>
<path fill="none" stroke="#f8a087" stroke-width="1" stroke-linecap="butt" stroke-linejoin="round" d="M339.781,456.562C343.552,456.982,359.954,454.295,363.001,456.632"/>
<path fill="none" stroke="#f8a087" stroke-width="1" stroke-linecap="butt" stroke-linejoin="round" d="M363.001,456.632C368.350,460.326,365.537,470.528,359.904,473.556"/>
<path fill="none" stroke="#f8a087" stroke-width="1" stroke-linecap="butt" stroke-linejoin="round" d="M359.904,473.556C350.488,478.076,327.913,472.276,327.790,462.473"/>
<path fill="none" stroke="#f8a087" stroke-width="1" stroke-linecap="butt" stroke-linejoin="round" d="M327.790,462.473C327.781,457.506,333.500,455.813,339.781,456.562"/>
<path fill="#f8a087" fill-rule="evenodd" stroke="none" d="M339.781,456.562C343.552,456.982,359.954,454.295,363.001,456.632C368.350,460.326,365.537,470.528,359.904,473.556C350.488,478.076,327.913,472.276,327.790,462.473C327.781,457.506,333.500,455.813,339.781,456.562Z"/>
</g>
</svg>
