<svg version="1.1" id="Frame_85" xmlns="http://www.w3.org/2000/svg" xmlns:xlink="http://www.w3.org/1999/xlink" width="480px" height="720px">
<g id="main_bone">
<path fill="#000000" fill-rule="evenodd" stroke="none" d="M185.732,266.680C187.287,264.105,190.344,258.787,194.183,257.540C200.707,255.420,205.812,261.606,206.266,266.195C207.366,274.203,201.138,284.627,198.108,292.290C190.670,310.764,182.662,328.982,177.383,347.639C176.714,350.908,171.440,372.060,171.506,369.406C171.011,376.036,177.515,381.842,179.714,387.537C182.526,395.223,179.629,402.423,177.601,409.371C172.930,423.772,173.262,429.084,173.052,443.198C173.123,445.454,173.198,452.825,169.655,453.055C166.265,453.274,165.551,447.170,164.755,444.826C164.289,442.176,161.703,436.589,162.307,434.236C162.527,430.254,167.117,431.259,162.154,422.975C155.832,412.646,144.472,404.007,141.759,390.623C139.993,379.953,145.792,370.751,149.118,360.892C156.179,339.767,163.968,318.667,172.697,297.844C177.435,287.083,179.488,277.605,185.732,266.680M206.074,259.893C206.682,251.336,204.144,243.651,193.357,246.533C176.171,251.060,169.182,276.994,163.527,291.466C155.547,311.089,148.813,330.880,142.394,350.756C139.754,359.309,136.426,363.579,134.976,368.532C133.180,374.137,133.295,382.782,133.506,388.435C133.125,406.094,138.555,407.004,145.559,420.666C149.251,428.712,145.393,433.769,147.925,440.746C149.767,445.495,153.638,448.813,156.587,452.778C159.187,456.748,159.771,459.059,161.700,462.706C164.030,467.052,171.100,476.796,176.795,474.327C181.194,472.400,180.614,464.348,180.712,460.458C180.698,454.615,183.085,432.075,184.266,425.247C186.379,414.010,192.397,401.972,190.969,389.757C189.812,380.450,181.689,373.625,182.281,363.690C182.749,358.397,186.266,349.869,187.497,343.948C189.524,334.465,190.025,324.251,192.647,314.516C197.098,297.251,205.449,278.077,206.074,259.893Z"/>
<path fill="none" stroke="#a60d3f" stroke-width="1" stroke-linecap="butt" stroke-linejoin="round" d="M194.183,257.540C200.707,255.420,205.812,261.606,206.266,266.195"/>
<path fill="none" stroke="#a60d3f" stroke-width="1" stroke-linecap="butt" stroke-linejoin="round" d="M206.266,266.195C207.366,274.203,201.138,284.627,198.108,292.290"/>
<path fill="none" stroke="#a60d3f" stroke-width="1" stroke-linecap="butt" stroke-linejoin="round" d="M198.108,292.290C190.670,310.764,182.662,328.982,177.383,347.639"/>
<path fill="none" stroke="#a60d3f" stroke-width="1" stroke-linecap="butt" stroke-linejoin="round" d="M177.383,347.639C176.714,350.908,171.440,372.060,171.506,369.406"/>
<path fill="none" stroke="#a60d3f" stroke-width="1" stroke-linecap="butt" stroke-linejoin="round" d="M171.506,369.406C171.011,376.036,177.515,381.842,179.714,387.537"/>
<path fill="none" stroke="#a60d3f" stroke-width="1" stroke-linecap="butt" stroke-linejoin="round" d="M179.714,387.537C182.526,395.223,179.629,402.423,177.601,409.371"/>
<path fill="none" stroke="#a60d3f" stroke-width="1" stroke-linecap="butt" stroke-linejoin="round" d="M177.601,409.371C172.930,423.772,173.262,429.084,173.052,443.198"/>
<path fill="none" stroke="#a60d3f" stroke-width="1" stroke-linecap="butt" stroke-linejoin="round" d="M173.052,443.198C173.123,445.454,173.198,452.825,169.655,453.055"/>
<path fill="none" stroke="#a60d3f" stroke-width="1" stroke-linecap="butt" stroke-linejoin="round" d="M169.655,453.055C166.265,453.274,165.551,447.170,164.755,444.826"/>
<path fill="none" stroke="#a60d3f" stroke-width="1" stroke-linecap="butt" stroke-linejoin="round" d="M164.755,444.826C164.289,442.176,161.703,436.589,162.307,434.236"/>
<path fill="none" stroke="#a60d3f" stroke-width="1" stroke-linecap="butt" stroke-linejoin="round" d="M162.307,434.236C162.527,430.254,167.117,431.259,162.154,422.975"/>
<path fill="none" stroke="#a60d3f" stroke-width="1" stroke-linecap="butt" stroke-linejoin="round" d="M162.154,422.975C155.832,412.646,144.472,404.007,141.759,390.623"/>
<path fill="none" stroke="#a60d3f" stroke-width="1" stroke-linecap="butt" stroke-linejoin="round" d="M141.759,390.623C139.993,379.953,145.792,370.751,149.118,360.892"/>
<path fill="none" stroke="#a60d3f" stroke-width="1" stroke-linecap="butt" stroke-linejoin="round" d="M149.118,360.892C156.179,339.767,163.968,318.667,172.697,297.844"/>
<path fill="none" stroke="#a60d3f" stroke-width="1" stroke-linecap="butt" stroke-linejoin="round" d="M172.697,297.844C177.435,287.083,179.488,277.605,185.732,266.680"/>
<path fill="none" stroke="#a60d3f" stroke-width="1" stroke-linecap="butt" stroke-linejoin="round" d="M185.732,266.680C187.287,264.105,190.344,258.787,194.183,257.540"/>
<path fill="#a60d3f" fill-rule="evenodd" stroke="none" d="M194.183,257.540C200.707,255.420,205.812,261.606,206.266,266.195C207.366,274.203,201.138,284.627,198.108,292.290C190.670,310.764,182.662,328.982,177.383,347.639C176.714,350.908,171.440,372.060,171.506,369.406C171.011,376.036,177.515,381.842,179.714,387.537C182.526,395.223,179.629,402.423,177.601,409.371C172.930,423.772,173.262,429.084,173.052,443.198C173.123,445.454,173.198,452.825,169.655,453.055C166.265,453.274,165.551,447.170,164.755,444.826C164.289,442.176,161.703,436.589,162.307,434.236C162.527,430.254,167.117,431.259,162.154,422.975C155.832,412.646,144.472,404.007,141.759,390.623C139.993,379.953,145.792,370.751,149.118,360.892C156.179,339.767,163.968,318.667,172.697,297.844C177.435,287.083,179.488,277.605,185.732,266.680C187.287,264.105,190.344,258.787,194.183,257.540Z"/>
<g id="layer_right_leg">
<path fill="#000000" fill-rule="evenodd" stroke="none" d="M205.893,667.510C209.288,669.216,218.227,666.298,222.338,666.644C225.190,667.041,228.151,668.244,230.382,667.337C231.969,666.776,240.968,661.909,238.842,665.548C237.575,667.818,233.108,667.242,231.154,667.166C228.988,667.353,208.614,667.757,207.874,667.947C201.621,669.105,195.610,663.059,197.537,664.368C199.259,665.539,202.681,665.887,205.893,667.510M243.544,662.089C243.554,662.889,242.493,663.654,241.309,663.545C239.065,663.349,230.628,665.945,227.636,665.410C224.204,665.408,220.443,666.083,217.350,666.134C211.108,666.238,201.376,669.123,196.561,665.205C196.692,663.979,200.916,665.878,203.927,665.910C208.563,665.958,214.908,664.321,219.638,663.849C224.874,663.327,231.813,663.594,237.140,662.660C237.972,662.536,243.519,660.160,243.544,662.089M196.561,665.205C196.389,665.006,196.347,664.821,196.401,664.689M247.842,656.536C237.480,654.076,229.445,660.753,220.261,658.947C213.523,657.646,200.066,658.366,191.955,660.953C190.726,661.345,188.394,661.615,188.151,662.957C187.836,664.721,191.222,668.227,193.391,669.500C196.079,671.077,201.498,670.828,203.664,671.044C214.666,672.542,228.438,668.916,239.647,669.706C248.028,670.237,249.702,665.507,250.337,661.518C250.600,659.867,251.054,657.256,247.842,656.536Z"/>
<path fill="none" stroke="#6e2353" stroke-width="1" stroke-linecap="butt" stroke-linejoin="round" d="M205.893,667.510C209.288,669.216,218.227,666.298,222.338,666.644"/>
<path fill="none" stroke="#6e2353" stroke-width="1" stroke-linecap="butt" stroke-linejoin="round" d="M222.338,666.644C225.190,667.041,228.151,668.244,230.382,667.337"/>
<path fill="none" stroke="#6e2353" stroke-width="1" stroke-linecap="butt" stroke-linejoin="round" d="M230.382,667.337C231.969,666.776,240.968,661.909,238.842,665.548"/>
<path fill="none" stroke="#6e2353" stroke-width="1" stroke-linecap="butt" stroke-linejoin="round" d="M238.842,665.548C237.575,667.818,233.108,667.242,231.154,667.166"/>
<path fill="none" stroke="#6e2353" stroke-width="1" stroke-linecap="butt" stroke-linejoin="round" d="M231.154,667.166C228.988,667.353,208.614,667.757,207.874,667.947"/>
<path fill="none" stroke="#6e2353" stroke-width="1" stroke-linecap="butt" stroke-linejoin="round" d="M207.874,667.947C201.621,669.105,195.610,663.059,197.537,664.368"/>
<path fill="none" stroke="#6e2353" stroke-width="1" stroke-linecap="butt" stroke-linejoin="round" d="M197.537,664.368C199.259,665.539,202.681,665.887,205.893,667.510"/>
<path fill="#6e2353" fill-rule="evenodd" stroke="none" d="M205.893,667.510C209.288,669.216,218.227,666.298,222.338,666.644C225.190,667.041,228.151,668.244,230.382,667.337C231.969,666.776,240.968,661.909,238.842,665.548C237.575,667.818,233.108,667.242,231.154,667.166C228.988,667.353,208.614,667.757,207.874,667.947C201.621,669.105,195.610,663.059,197.537,664.368C199.259,665.539,202.681,665.887,205.893,667.510Z"/>
<path fill="none" stroke="#6e2353" stroke-width="1" stroke-linecap="butt" stroke-linejoin="round" d="M203.927,665.910C208.563,665.958,214.908,664.321,219.638,663.849"/>
<path fill="none" stroke="#6e2353" stroke-width="1" stroke-linecap="butt" stroke-linejoin="round" d="M219.638,663.849C224.874,663.327,231.813,663.594,237.140,662.660"/>
<path fill="none" stroke="#6e2353" stroke-width="1" stroke-linecap="butt" stroke-linejoin="round" d="M237.140,662.660C237.972,662.536,243.519,660.160,243.544,662.089"/>
<path fill="none" stroke="#6e2353" stroke-width="1" stroke-linecap="butt" stroke-linejoin="round" d="M243.544,662.089C243.554,662.889,242.493,663.654,241.309,663.545"/>
<path fill="none" stroke="#6e2353" stroke-width="1" stroke-linecap="butt" stroke-linejoin="round" d="M241.309,663.545C239.065,663.349,230.628,665.945,227.636,665.410"/>
<path fill="none" stroke="#6e2353" stroke-width="1" stroke-linecap="butt" stroke-linejoin="round" d="M227.636,665.410C224.204,665.408,220.443,666.083,217.350,666.134"/>
<path fill="none" stroke="#6e2353" stroke-width="1" stroke-linecap="butt" stroke-linejoin="round" d="M217.350,666.134C211.108,666.238,201.376,669.123,196.561,665.205"/>
<path fill="none" stroke="#6e2353" stroke-width="1" stroke-linecap="butt" stroke-linejoin="round" d="M196.561,665.205C196.389,665.006,196.347,664.821,196.401,664.689"/>
<path fill="none" stroke="#6e2353" stroke-width="1" stroke-linecap="butt" stroke-linejoin="round" d="M196.401,664.689C196.692,663.979,200.916,665.878,203.927,665.910"/>
<path fill="#6e2353" fill-rule="evenodd" stroke="none" d="M203.927,665.910C208.563,665.958,214.908,664.321,219.638,663.849C224.874,663.327,231.813,663.594,237.140,662.660C237.972,662.536,243.519,660.160,243.544,662.089C243.554,662.889,242.493,663.654,241.309,663.545C239.065,663.349,230.628,665.945,227.636,665.410C224.204,665.408,220.443,666.083,217.350,666.134C211.108,666.238,201.376,669.123,196.561,665.205C196.389,665.006,196.347,664.821,196.401,664.689C196.692,663.979,200.916,665.878,203.927,665.910Z"/>
<path fill="#000000" fill-rule="evenodd" stroke="none" d="M198.113,603.173C197.990,587.323,198.579,575.018,217.717,571.189C226.291,569.314,242.919,571.154,248.126,579.262C250.837,583.259,250.406,589.361,250.870,593.763C251.684,600.899,256.717,614.525,246.704,616.671C246.069,616.872,228.355,617.987,222.829,618.386C215.526,619.599,207.935,620.466,202.364,615.652C199.652,612.793,198.070,606.754,198.113,603.173M257.343,577.119C252.984,567.190,238.712,562.274,228.984,564.241C216.393,566.628,203.182,563.092,195.544,575.398C189.713,584.791,189.787,601.473,192.215,611.947C193.193,616.887,196.818,625.798,201.097,628.337C204.231,630.106,208.888,629.300,212.473,629.119C230.053,628.512,261.815,632.902,260.033,606.718C259.516,600.158,259.558,582.213,257.343,577.119Z"/>
<path fill="none" stroke="#d88e4b" stroke-width="1" stroke-linecap="butt" stroke-linejoin="round" d="M217.717,571.189C226.291,569.314,242.919,571.154,248.126,579.262"/>
<path fill="none" stroke="#d88e4b" stroke-width="1" stroke-linecap="butt" stroke-linejoin="round" d="M248.126,579.262C250.837,583.259,250.406,589.361,250.870,593.763"/>
<path fill="none" stroke="#d88e4b" stroke-width="1" stroke-linecap="butt" stroke-linejoin="round" d="M250.870,593.763C251.684,600.899,256.717,614.525,246.704,616.671"/>
<path fill="none" stroke="#d88e4b" stroke-width="1" stroke-linecap="butt" stroke-linejoin="round" d="M246.704,616.671C246.069,616.872,228.355,617.987,222.829,618.386"/>
<path fill="none" stroke="#d88e4b" stroke-width="1" stroke-linecap="butt" stroke-linejoin="round" d="M222.829,618.386C215.526,619.599,207.935,620.466,202.364,615.652"/>
<path fill="none" stroke="#d88e4b" stroke-width="1" stroke-linecap="butt" stroke-linejoin="round" d="M202.364,615.652C199.652,612.793,198.070,606.754,198.113,603.173"/>
<path fill="none" stroke="#d88e4b" stroke-width="1" stroke-linecap="butt" stroke-linejoin="round" d="M198.113,603.173C197.990,587.323,198.579,575.018,217.717,571.189"/>
<path fill="#d88e4b" fill-rule="evenodd" stroke="none" d="M217.717,571.189C226.291,569.314,242.919,571.154,248.126,579.262C250.837,583.259,250.406,589.361,250.870,593.763C251.684,600.899,256.717,614.525,246.704,616.671C246.069,616.872,228.355,617.987,222.829,618.386C215.526,619.599,207.935,620.466,202.364,615.652C199.652,612.793,198.070,606.754,198.113,603.173C197.990,587.323,198.579,575.018,217.717,571.189Z"/>
<path fill="#000000" fill-rule="evenodd" stroke="none" d="M188.933,641.549C189.497,629.322,193.785,613.652,208.458,610.661C211.943,609.760,217.012,611.077,220.980,611.605C240.991,614.217,249.100,618.017,251.093,638.276C251.504,643.553,252.680,650.007,249.076,654.555C245.157,659.409,224.806,658.825,218.637,659.334C207.988,660.446,198.996,664.862,191.373,655.735C187.252,650.696,188.662,647.632,188.933,641.549M257.341,617.674C250.194,604.911,219.512,598.416,205.936,601.527C185.725,606.276,179.641,622.563,179.245,639.930C179.059,646.057,178.658,652.857,182.096,658.021C183.363,659.924,186.004,662.331,187.769,663.794C200.788,675.535,209.338,673.761,225.637,672.490C234.383,671.954,248.713,669.822,255.403,663.562C260.155,658.681,260.649,653.763,260.596,647.343C260.326,641.206,260.054,622.102,257.341,617.674Z"/>
<path fill="none" stroke="#d88e4b" stroke-width="1" stroke-linecap="butt" stroke-linejoin="round" d="M208.458,610.661C211.943,609.760,217.012,611.077,220.980,611.605"/>
<path fill="none" stroke="#d88e4b" stroke-width="1" stroke-linecap="butt" stroke-linejoin="round" d="M220.980,611.605C240.991,614.217,249.100,618.017,251.093,638.276"/>
<path fill="none" stroke="#d88e4b" stroke-width="1" stroke-linecap="butt" stroke-linejoin="round" d="M251.093,638.276C251.504,643.553,252.680,650.007,249.076,654.555"/>
<path fill="none" stroke="#d88e4b" stroke-width="1" stroke-linecap="butt" stroke-linejoin="round" d="M249.076,654.555C245.157,659.409,224.806,658.825,218.637,659.334"/>
<path fill="none" stroke="#d88e4b" stroke-width="1" stroke-linecap="butt" stroke-linejoin="round" d="M218.637,659.334C207.988,660.446,198.996,664.862,191.373,655.735"/>
<path fill="none" stroke="#d88e4b" stroke-width="1" stroke-linecap="butt" stroke-linejoin="round" d="M191.373,655.735C187.252,650.696,188.662,647.632,188.933,641.549"/>
<path fill="none" stroke="#d88e4b" stroke-width="1" stroke-linecap="butt" stroke-linejoin="round" d="M188.933,641.549C189.497,629.322,193.785,613.652,208.458,610.661"/>
<path fill="#d88e4b" fill-rule="evenodd" stroke="none" d="M208.458,610.661C211.943,609.760,217.012,611.077,220.980,611.605C240.991,614.217,249.100,618.017,251.093,638.276C251.504,643.553,252.680,650.007,249.076,654.555C245.157,659.409,224.806,658.825,218.637,659.334C207.988,660.446,198.996,664.862,191.373,655.735C187.252,650.696,188.662,647.632,188.933,641.549C189.497,629.322,193.785,613.652,208.458,610.661Z"/>
<path fill="#000000" fill-rule="evenodd" stroke="none" d="M185.765,406.907C188.387,395.208,203.762,392.012,214.048,394.277C219.928,395.448,229.685,397.743,233.310,402.940C235.601,406.223,236.511,412.513,234.920,416.186C232.809,421.060,215.582,423.512,220.290,426.157C227.719,430.426,234.684,419.323,239.536,422.628C242.154,424.411,242.118,429.096,242.652,432.718C246.680,452.815,241.925,474.431,241.885,494.316C241.806,500.920,239.701,510.660,240.929,516.657C243.644,532.610,242.417,535.961,243.319,545.525C243.429,549.031,242.958,566.814,244.134,571.372C245.391,575.876,247.531,580.483,248.381,585.105C249.759,592.603,242.852,605.028,236.571,608.411C230.754,611.397,211.275,613.536,204.995,611.162C201.043,609.799,196.473,605.241,194.392,601.273C192.870,598.715,188.239,586.617,188.435,583.391C189.039,577.271,190.762,575.647,191.763,568.518C192.628,560.375,195.095,551.657,193.649,543.403C189.640,522.279,187.998,491.516,189.165,477.008C189.682,467.748,185.926,437.050,186.451,428.466C187.271,416.798,184.540,414.744,185.765,406.907M208.713,382.781C202.961,381.085,198.335,375.931,192.485,378.304C190.830,379.141,187.984,381.426,186.842,382.714C171.743,397.150,173.505,410.730,174.466,430.102C174.523,437.292,174.332,444.751,174.686,451.651C174.864,457.309,175.009,462.197,174.601,467.505C174.547,472.068,174.201,476.903,174.544,482.535C175.131,489.386,177.745,497.251,178.788,508.884C178.983,519.986,180.088,530.387,180.456,540.994C180.795,545.972,179.827,557.711,179.421,561.547C177.927,567.625,175.036,574.531,174.136,580.377C173.400,588.084,176.316,595.746,179.705,602.259C181.771,606.802,184.984,612.279,188.462,615.428C190.952,617.682,194.214,619.187,197.201,620.331C203.066,622.543,208.648,623.764,214.961,624.175C219.729,624.522,224.467,624.245,229.425,623.866C230.528,623.608,239.757,622.172,241.555,621.845C243.800,621.302,246.674,618.912,248.588,617.396C250.929,615.327,255.025,613.985,257.304,611.722C260.109,608.934,262.808,605.858,264.486,602.274C273.467,582.373,261.735,570.365,257.955,551.671C255.987,541.942,253.275,521.727,253.244,510.735C252.923,496.968,256.214,483.661,256.530,469.468C256.736,464.619,256.806,458.804,257.175,453.283C257.419,448.326,255.750,444.485,255.146,439.634C254.432,435.773,254.089,423.237,253.267,419.080C252.689,415.407,252.499,410.791,250.977,407.208C246.833,398.097,232.337,388.533,222.877,386.033C218.138,384.615,213.138,384.547,208.713,382.781Z"/>
<path fill="none" stroke="#392966" stroke-width="1" stroke-linecap="butt" stroke-linejoin="round" d="M214.048,394.277C219.928,395.448,229.685,397.743,233.310,402.940"/>
<path fill="none" stroke="#392966" stroke-width="1" stroke-linecap="butt" stroke-linejoin="round" d="M233.310,402.940C235.601,406.223,236.511,412.513,234.920,416.186"/>
<path fill="none" stroke="#392966" stroke-width="1" stroke-linecap="butt" stroke-linejoin="round" d="M234.920,416.186C232.809,421.060,215.582,423.512,220.290,426.157"/>
<path fill="none" stroke="#392966" stroke-width="1" stroke-linecap="butt" stroke-linejoin="round" d="M220.290,426.157C227.719,430.426,234.684,419.323,239.536,422.628"/>
<path fill="none" stroke="#392966" stroke-width="1" stroke-linecap="butt" stroke-linejoin="round" d="M239.536,422.628C242.154,424.411,242.118,429.096,242.652,432.718"/>
<path fill="none" stroke="#392966" stroke-width="1" stroke-linecap="butt" stroke-linejoin="round" d="M242.652,432.718C246.680,452.815,241.925,474.431,241.885,494.316"/>
<path fill="none" stroke="#392966" stroke-width="1" stroke-linecap="butt" stroke-linejoin="round" d="M241.885,494.316C241.806,500.920,239.701,510.660,240.929,516.657"/>
<path fill="none" stroke="#392966" stroke-width="1" stroke-linecap="butt" stroke-linejoin="round" d="M240.929,516.657C243.644,532.610,242.417,535.961,243.319,545.525"/>
<path fill="none" stroke="#392966" stroke-width="1" stroke-linecap="butt" stroke-linejoin="round" d="M243.319,545.525C243.429,549.031,242.958,566.814,244.134,571.372"/>
<path fill="none" stroke="#392966" stroke-width="1" stroke-linecap="butt" stroke-linejoin="round" d="M244.134,571.372C245.391,575.876,247.531,580.483,248.381,585.105"/>
<path fill="none" stroke="#392966" stroke-width="1" stroke-linecap="butt" stroke-linejoin="round" d="M248.381,585.105C249.759,592.603,242.852,605.028,236.571,608.411"/>
<path fill="none" stroke="#392966" stroke-width="1" stroke-linecap="butt" stroke-linejoin="round" d="M236.571,608.411C230.754,611.397,211.275,613.536,204.995,611.162"/>
<path fill="none" stroke="#392966" stroke-width="1" stroke-linecap="butt" stroke-linejoin="round" d="M204.995,611.162C201.043,609.799,196.473,605.241,194.392,601.273"/>
<path fill="none" stroke="#392966" stroke-width="1" stroke-linecap="butt" stroke-linejoin="round" d="M194.392,601.273C192.870,598.715,188.239,586.617,188.435,583.391"/>
<path fill="none" stroke="#392966" stroke-width="1" stroke-linecap="butt" stroke-linejoin="round" d="M188.435,583.391C189.039,577.271,190.762,575.647,191.763,568.518"/>
<path fill="none" stroke="#392966" stroke-width="1" stroke-linecap="butt" stroke-linejoin="round" d="M191.763,568.518C192.628,560.375,195.095,551.657,193.649,543.403"/>
<path fill="none" stroke="#392966" stroke-width="1" stroke-linecap="butt" stroke-linejoin="round" d="M193.649,543.403C189.640,522.279,187.998,491.516,189.165,477.008"/>
<path fill="none" stroke="#392966" stroke-width="1" stroke-linecap="butt" stroke-linejoin="round" d="M189.165,477.008C189.682,467.748,185.926,437.050,186.451,428.466"/>
<path fill="none" stroke="#392966" stroke-width="1" stroke-linecap="butt" stroke-linejoin="round" d="M186.451,428.466C187.271,416.798,184.540,414.744,185.765,406.907"/>
<path fill="none" stroke="#392966" stroke-width="1" stroke-linecap="butt" stroke-linejoin="round" d="M185.765,406.907C188.387,395.208,203.762,392.012,214.048,394.277"/>
<path fill="#392966" fill-rule="evenodd" stroke="none" d="M214.048,394.277C219.928,395.448,229.685,397.743,233.310,402.940C235.601,406.223,236.511,412.513,234.920,416.186C232.809,421.060,215.582,423.512,220.290,426.157C227.719,430.426,234.684,419.323,239.536,422.628C242.154,424.411,242.118,429.096,242.652,432.718C246.680,452.815,241.925,474.431,241.885,494.316C241.806,500.920,239.701,510.660,240.929,516.657C243.644,532.610,242.417,535.961,243.319,545.525C243.429,549.031,242.958,566.814,244.134,571.372C245.391,575.876,247.531,580.483,248.381,585.105C249.759,592.603,242.852,605.028,236.571,608.411C230.754,611.397,211.275,613.536,204.995,611.162C201.043,609.799,196.473,605.241,194.392,601.273C192.870,598.715,188.239,586.617,188.435,583.391C189.039,577.271,190.762,575.647,191.763,568.518C192.628,560.375,195.095,551.657,193.649,543.403C189.640,522.279,187.998,491.516,189.165,477.008C189.682,467.748,185.926,437.050,186.451,428.466C187.271,416.798,184.540,414.744,185.765,406.907C188.387,395.208,203.762,392.012,214.048,394.277Z"/>
</g>
<g id="layer_left_leg">
<path fill="#000000" fill-rule="evenodd" stroke="none" d="M261.546,649.791C257.122,637.905,269.598,625.589,280.354,624.338C298.117,622.245,317.415,635.308,316.528,641.890C314.386,654.719,290.566,653.920,279.482,654.126C274.848,654.060,263.089,653.974,261.546,649.791M308.160,617.186C291.540,608.393,261.081,611.861,249.590,624.586C240.233,634.891,242.153,667.891,255.081,668.910C272.437,670.290,314.198,664.793,322.267,660.558C331.681,655.719,329.923,640.653,325.568,631.767C322.268,625.935,314.216,620.502,308.160,617.186Z"/>
<path fill="none" stroke="#d88e4b" stroke-width="1" stroke-linecap="butt" stroke-linejoin="round" d="M280.354,624.338C298.117,622.245,317.415,635.308,316.528,641.890"/>
<path fill="none" stroke="#d88e4b" stroke-width="1" stroke-linecap="butt" stroke-linejoin="round" d="M316.528,641.890C314.386,654.719,290.566,653.920,279.482,654.126"/>
<path fill="none" stroke="#d88e4b" stroke-width="1" stroke-linecap="butt" stroke-linejoin="round" d="M279.482,654.126C274.848,654.060,263.089,653.974,261.546,649.791"/>
<path fill="none" stroke="#d88e4b" stroke-width="1" stroke-linecap="butt" stroke-linejoin="round" d="M261.546,649.791C257.122,637.905,269.598,625.589,280.354,624.338"/>
<path fill="#d88e4b" fill-rule="evenodd" stroke="none" d="M280.354,624.338C298.117,622.245,317.415,635.308,316.528,641.890C314.386,654.719,290.566,653.920,279.482,654.126C274.848,654.060,263.089,653.974,261.546,649.791C257.122,637.905,269.598,625.589,280.354,624.338Z"/>
<path fill="#000000" fill-rule="evenodd" stroke="none" d="M241.186,408.414C242.274,403.610,252.298,406.700,256.143,406.176C262.817,405.595,277.866,401.225,283.422,405.199C289.408,409.184,290.631,429.128,291.637,435.972C293.896,455.140,300.389,472.348,304.709,490.478C308.077,506.278,310.801,522.784,315.130,538.021C317.713,545.853,322.596,553.232,325.453,560.464C327.660,571.266,335.746,582.729,330.035,591.206C316.666,608.597,310.931,603.477,297.167,610.826C286.400,616.158,269.511,609.320,260.180,603.666C255.026,600.775,244.776,595.394,242.814,589.905C232.210,560.238,236.533,522.729,236.577,491.828C236.595,479.023,245.234,453.004,243.774,439.293C243.403,435.810,244.346,434.345,245.458,430.984C246.185,428.768,241.873,422.230,241.183,419.968C240.047,417.089,240.359,411.324,241.186,408.414M290.559,397.571C283.379,392.310,263.615,395.061,255.482,396.551C250.995,397.356,236.298,397.013,233.520,399.813C225.561,407.833,233.518,427.492,234.579,436.643C234.936,443.914,225.611,477.711,224.497,487.446C222.969,515.137,219.553,539.307,224.027,566.676C226.506,583.212,228.450,599.902,237.329,613.799C249.379,632.371,267.735,632.984,293.106,627.007C313.610,622.361,338.005,623.571,343.572,593.766C347.751,571.572,338.525,547.808,334.573,539.341C330.529,530.690,325.536,522.034,321.986,512.434C316.255,498.441,313.125,483.578,309.438,468.823C305.262,452.047,305.258,408.390,290.559,397.571Z"/>
<path fill="none" stroke="#392966" stroke-width="1" stroke-linecap="butt" stroke-linejoin="round" d="M256.143,406.176C262.817,405.595,277.866,401.225,283.422,405.199"/>
<path fill="none" stroke="#392966" stroke-width="1" stroke-linecap="butt" stroke-linejoin="round" d="M283.422,405.199C289.408,409.184,290.631,429.128,291.637,435.972"/>
<path fill="none" stroke="#392966" stroke-width="1" stroke-linecap="butt" stroke-linejoin="round" d="M291.637,435.972C293.896,455.140,300.389,472.348,304.709,490.478"/>
<path fill="none" stroke="#392966" stroke-width="1" stroke-linecap="butt" stroke-linejoin="round" d="M304.709,490.478C308.077,506.278,310.801,522.784,315.130,538.021"/>
<path fill="none" stroke="#392966" stroke-width="1" stroke-linecap="butt" stroke-linejoin="round" d="M315.130,538.021C317.713,545.853,322.596,553.232,325.453,560.464"/>
<path fill="none" stroke="#392966" stroke-width="1" stroke-linecap="butt" stroke-linejoin="round" d="M325.453,560.464C327.660,571.266,335.746,582.729,330.035,591.206"/>
<path fill="none" stroke="#392966" stroke-width="1" stroke-linecap="butt" stroke-linejoin="round" d="M330.035,591.206C316.666,608.597,310.931,603.477,297.167,610.826"/>
<path fill="none" stroke="#392966" stroke-width="1" stroke-linecap="butt" stroke-linejoin="round" d="M297.167,610.826C286.400,616.158,269.511,609.320,260.180,603.666"/>
<path fill="none" stroke="#392966" stroke-width="1" stroke-linecap="butt" stroke-linejoin="round" d="M260.180,603.666C255.026,600.775,244.776,595.394,242.814,589.905"/>
<path fill="none" stroke="#392966" stroke-width="1" stroke-linecap="butt" stroke-linejoin="round" d="M242.814,589.905C232.210,560.238,236.533,522.729,236.577,491.828"/>
<path fill="none" stroke="#392966" stroke-width="1" stroke-linecap="butt" stroke-linejoin="round" d="M236.577,491.828C236.595,479.023,245.234,453.004,243.774,439.293"/>
<path fill="none" stroke="#392966" stroke-width="1" stroke-linecap="butt" stroke-linejoin="round" d="M243.774,439.293C243.403,435.810,244.346,434.345,245.458,430.984"/>
<path fill="none" stroke="#392966" stroke-width="1" stroke-linecap="butt" stroke-linejoin="round" d="M245.458,430.984C246.185,428.768,241.873,422.230,241.183,419.968"/>
<path fill="none" stroke="#392966" stroke-width="1" stroke-linecap="butt" stroke-linejoin="round" d="M241.183,419.968C240.047,417.089,240.359,411.324,241.186,408.414"/>
<path fill="none" stroke="#392966" stroke-width="1" stroke-linecap="butt" stroke-linejoin="round" d="M241.186,408.414C242.274,403.610,252.298,406.700,256.143,406.176"/>
<path fill="#392966" fill-rule="evenodd" stroke="none" d="M256.143,406.176C262.817,405.595,277.866,401.225,283.422,405.199C289.408,409.184,290.631,429.128,291.637,435.972C293.896,455.140,300.389,472.348,304.709,490.478C308.077,506.278,310.801,522.784,315.130,538.021C317.713,545.853,322.596,553.232,325.453,560.464C327.660,571.266,335.746,582.729,330.035,591.206C316.666,608.597,310.931,603.477,297.167,610.826C286.400,616.158,269.511,609.320,260.180,603.666C255.026,600.775,244.776,595.394,242.814,589.905C232.210,560.238,236.533,522.729,236.577,491.828C236.595,479.023,245.234,453.004,243.774,439.293C243.403,435.810,244.346,434.345,245.458,430.984C246.185,428.768,241.873,422.230,241.183,419.968C240.047,417.089,240.359,411.324,241.186,408.414C242.274,403.610,252.298,406.700,256.143,406.176Z"/>
<path fill="#000000" fill-rule="evenodd" stroke="none" d="M273.642,651.589C237.310,643.951,249.500,590.341,268.673,587.525C300.003,582.924,316.962,598.300,325.059,607.945C332.809,617.244,332.935,630.277,326.959,641.125C317.783,654.934,288.153,654.652,273.642,651.589M327.856,583.921C312.513,575.864,290.813,564.953,270.901,571.717C251.141,578.431,233.938,594.288,233.072,618.823C231.975,634.790,235.108,650.159,246.284,661.616C256.738,671.685,288.972,670.015,302.670,667.842C315.833,664.814,333.960,661.667,340.938,648.879C348.418,635.638,341.016,590.832,327.856,583.921Z"/>
<path fill="none" stroke="#d88e4b" stroke-width="1" stroke-linecap="butt" stroke-linejoin="round" d="M268.673,587.525C300.003,582.924,316.962,598.300,325.059,607.945"/>
<path fill="none" stroke="#d88e4b" stroke-width="1" stroke-linecap="butt" stroke-linejoin="round" d="M325.059,607.945C332.809,617.244,332.935,630.277,326.959,641.125"/>
<path fill="none" stroke="#d88e4b" stroke-width="1" stroke-linecap="butt" stroke-linejoin="round" d="M326.959,641.125C317.783,654.934,288.153,654.652,273.642,651.589"/>
<path fill="none" stroke="#d88e4b" stroke-width="1" stroke-linecap="butt" stroke-linejoin="round" d="M273.642,651.589C237.310,643.951,249.500,590.341,268.673,587.525"/>
<path fill="#d88e4b" fill-rule="evenodd" stroke="none" d="M268.673,587.525C300.003,582.924,316.962,598.300,325.059,607.945C332.809,617.244,332.935,630.277,326.959,641.125C317.783,654.934,288.153,654.652,273.642,651.589C237.310,643.951,249.500,590.341,268.673,587.525Z"/>
<path fill="#000000" fill-rule="evenodd" stroke="none" d="M271.302,665.933C261.821,663.386,255.424,661.813,256.937,660.929C260.579,658.800,267.752,657.192,274.266,655.824C280.575,654.543,301.536,658.752,312.825,656.550C316.633,656.120,328.365,657.771,328.460,658.062C330.225,663.479,314.341,661.513,309.938,662.360C302.442,664.062,272.527,665.589,271.302,665.933M254.490,653.206C252.129,650.729,262.933,644.910,265.478,644.191C292.694,636.494,316.814,638.508,327.143,641.603C328.996,642.153,335.143,646.163,333.594,648.376C330.986,652.102,318.564,645.897,307.230,646.247C284.968,646.750,258.206,657.107,254.490,653.206M338.942,639.375C330.259,634.663,311.017,631.341,287.420,633.101C270.582,634.353,247.166,637.336,244.711,651.939C243.813,657.354,251.683,672.878,256.778,674.604C270.254,679.230,334.415,670.638,338.655,663.778C342.043,658.296,343.588,641.896,338.942,639.375Z"/>
<path fill="none" stroke="#6e2353" stroke-width="1" stroke-linecap="butt" stroke-linejoin="round" d="M256.937,660.929C260.579,658.800,267.752,657.192,274.266,655.824"/>
<path fill="none" stroke="#6e2353" stroke-width="1" stroke-linecap="butt" stroke-linejoin="round" d="M274.266,655.824C280.575,654.543,301.536,658.752,312.825,656.550"/>
<path fill="none" stroke="#6e2353" stroke-width="1" stroke-linecap="butt" stroke-linejoin="round" d="M312.825,656.550C316.633,656.120,328.365,657.771,328.460,658.062"/>
<path fill="none" stroke="#6e2353" stroke-width="1" stroke-linecap="butt" stroke-linejoin="round" d="M328.460,658.062C330.225,663.479,314.341,661.513,309.938,662.360"/>
<path fill="none" stroke="#6e2353" stroke-width="1" stroke-linecap="butt" stroke-linejoin="round" d="M309.938,662.360C302.442,664.062,272.527,665.589,271.302,665.933"/>
<path fill="none" stroke="#6e2353" stroke-width="1" stroke-linecap="butt" stroke-linejoin="round" d="M271.302,665.933C261.821,663.386,255.424,661.813,256.937,660.929"/>
<path fill="#6e2353" fill-rule="evenodd" stroke="none" d="M256.937,660.929C260.579,658.800,267.752,657.192,274.266,655.824C280.575,654.543,301.536,658.752,312.825,656.550C316.633,656.120,328.365,657.771,328.460,658.062C330.225,663.479,314.341,661.513,309.938,662.360C302.442,664.062,272.527,665.589,271.302,665.933C261.821,663.386,255.424,661.813,256.937,660.929Z"/>
<path fill="none" stroke="#6e2353" stroke-width="1" stroke-linecap="butt" stroke-linejoin="round" d="M265.478,644.191C292.694,636.494,316.814,638.508,327.143,641.603"/>
<path fill="none" stroke="#6e2353" stroke-width="1" stroke-linecap="butt" stroke-linejoin="round" d="M327.143,641.603C328.996,642.153,335.143,646.163,333.594,648.376"/>
<path fill="none" stroke="#6e2353" stroke-width="1" stroke-linecap="butt" stroke-linejoin="round" d="M333.594,648.376C330.986,652.102,318.564,645.897,307.230,646.247"/>
<path fill="none" stroke="#6e2353" stroke-width="1" stroke-linecap="butt" stroke-linejoin="round" d="M307.230,646.247C284.968,646.750,258.206,657.107,254.490,653.206"/>
<path fill="none" stroke="#6e2353" stroke-width="1" stroke-linecap="butt" stroke-linejoin="round" d="M254.490,653.206C252.129,650.729,262.933,644.910,265.478,644.191"/>
<path fill="#6e2353" fill-rule="evenodd" stroke="none" d="M265.478,644.191C292.694,636.494,316.814,638.508,327.143,641.603C328.996,642.153,335.143,646.163,333.594,648.376C330.986,652.102,318.564,645.897,307.230,646.247C284.968,646.750,258.206,657.107,254.490,653.206C252.129,650.729,262.933,644.910,265.478,644.191Z"/>
</g>
<path fill="#000000" fill-rule="evenodd" stroke="none" d="M296.638,150.014C300.256,144.001,309.129,127.638,317.114,127.585C322.437,127.549,333.481,137.124,339.156,140.080C344.167,143.040,349.508,145.666,355.182,148.288C358.405,149.936,361.632,151.578,364.862,153.213C379.218,160.437,375.268,166.786,366.941,165.510C348.289,162.308,345.304,163.660,327.276,154.465C324.940,153.483,318.929,150.198,317.960,154.528C316.664,159.527,325.676,163.792,329.346,165.431C336.024,169.046,343.371,172.990,351.359,173.600C353.691,173.918,361.671,173.197,363.017,175.517C365.035,178.831,355.446,187.546,353.463,189.556C350.156,192.572,346.851,195.589,343.539,197.941C338.571,201.300,333.267,204.330,327.619,205.366C316.983,206.769,283.610,191.690,282.534,180.053C281.824,173.404,292.688,156.363,296.638,150.014M329.061,123.180C324.042,118.888,320.340,112.591,313.042,115.968C307.735,118.334,302.131,126.023,298.499,130.040C284.970,146.766,272.794,166.478,273.605,188.098C274.030,201.735,278.685,201.372,289.699,206.620C306.389,214.826,327.700,217.343,345.609,208.906C357.217,203.504,377.391,185.402,382.633,173.389C384.269,169.386,387.202,160.383,384.841,155.742C382.142,150.103,359.787,140.606,353.109,136.992C345.095,132.720,336.086,128.788,329.061,123.180Z"/>
<path fill="none" stroke="#cc9bc5" stroke-width="1" stroke-linecap="butt" stroke-linejoin="round" d="M317.114,127.585C322.437,127.549,333.481,137.124,339.156,140.080"/>
<path fill="none" stroke="#cc9bc5" stroke-width="1" stroke-linecap="butt" stroke-linejoin="round" d="M339.156,140.080C344.167,143.040,349.508,145.666,355.182,148.288"/>
<path fill="none" stroke="#cc9bc5" stroke-width="1" stroke-linecap="butt" stroke-linejoin="round" d="M355.182,148.288C358.405,149.936,361.632,151.578,364.862,153.213"/>
<path fill="none" stroke="#cc9bc5" stroke-width="1" stroke-linecap="butt" stroke-linejoin="round" d="M364.862,153.213C379.218,160.437,375.268,166.786,366.941,165.510"/>
<path fill="none" stroke="#cc9bc5" stroke-width="1" stroke-linecap="butt" stroke-linejoin="round" d="M366.941,165.510C348.289,162.308,345.304,163.660,327.276,154.465"/>
<path fill="none" stroke="#cc9bc5" stroke-width="1" stroke-linecap="butt" stroke-linejoin="round" d="M327.276,154.465C324.940,153.483,318.929,150.198,317.960,154.528"/>
<path fill="none" stroke="#cc9bc5" stroke-width="1" stroke-linecap="butt" stroke-linejoin="round" d="M317.960,154.528C316.664,159.527,325.676,163.792,329.346,165.431"/>
<path fill="none" stroke="#cc9bc5" stroke-width="1" stroke-linecap="butt" stroke-linejoin="round" d="M329.346,165.431C336.024,169.046,343.371,172.990,351.359,173.600"/>
<path fill="none" stroke="#cc9bc5" stroke-width="1" stroke-linecap="butt" stroke-linejoin="round" d="M351.359,173.600C353.691,173.918,361.671,173.197,363.017,175.517"/>
<path fill="none" stroke="#cc9bc5" stroke-width="1" stroke-linecap="butt" stroke-linejoin="round" d="M363.017,175.517C365.035,178.831,355.446,187.546,353.463,189.556"/>
<path fill="none" stroke="#cc9bc5" stroke-width="1" stroke-linecap="butt" stroke-linejoin="round" d="M353.463,189.556C350.156,192.572,346.851,195.589,343.539,197.941"/>
<path fill="none" stroke="#cc9bc5" stroke-width="1" stroke-linecap="butt" stroke-linejoin="round" d="M343.539,197.941C338.571,201.300,333.267,204.330,327.619,205.366"/>
<path fill="none" stroke="#cc9bc5" stroke-width="1" stroke-linecap="butt" stroke-linejoin="round" d="M327.619,205.366C316.983,206.769,283.610,191.690,282.534,180.053"/>
<path fill="none" stroke="#cc9bc5" stroke-width="1" stroke-linecap="butt" stroke-linejoin="round" d="M282.534,180.053C281.824,173.404,292.688,156.363,296.638,150.014"/>
<path fill="none" stroke="#cc9bc5" stroke-width="1" stroke-linecap="butt" stroke-linejoin="round" d="M296.638,150.014C300.256,144.001,309.129,127.638,317.114,127.585"/>
<path fill="#cc9bc5" fill-rule="evenodd" stroke="none" d="M317.114,127.585C322.437,127.549,333.481,137.124,339.156,140.080C344.167,143.040,349.508,145.666,355.182,148.288C358.405,149.936,361.632,151.578,364.862,153.213C379.218,160.437,375.268,166.786,366.941,165.510C348.289,162.308,345.304,163.660,327.276,154.465C324.940,153.483,318.929,150.198,317.960,154.528C316.664,159.527,325.676,163.792,329.346,165.431C336.024,169.046,343.371,172.990,351.359,173.600C353.691,173.918,361.671,173.197,363.017,175.517C365.035,178.831,355.446,187.546,353.463,189.556C350.156,192.572,346.851,195.589,343.539,197.941C338.571,201.300,333.267,204.330,327.619,205.366C316.983,206.769,283.610,191.690,282.534,180.053C281.824,173.404,292.688,156.363,296.638,150.014C300.256,144.001,309.129,127.638,317.114,127.585Z"/>
<path fill="#000000" fill-rule="evenodd" stroke="none" d="M194.010,142.137C210.394,128.761,230.162,125.899,251.088,123.182C260.467,121.946,267.496,127.771,275.259,133.405C281.663,138.380,288.573,144.012,295.369,149.227C305.594,157.016,309.942,160.995,313.838,164.820C317.138,167.726,322.355,173.237,326.371,175.722C331.215,178.719,341.857,194.959,344.059,196.706C337.649,199.524,327.412,202.094,322.986,206.346C325.150,212.003,326.294,220.966,326.544,223.664C320.400,224.642,312.963,222.484,301.366,221.424C299.681,228.787,300.292,235.488,296.256,243.168C288.372,241.514,282.859,240.106,272.536,236.566C266.449,242.329,264.879,242.059,254.807,249.504C247.354,245.814,241.312,241.708,234.170,239.488C227.681,242.969,217.076,244.936,213.709,248.174C209.292,241.502,205.117,234.072,201.575,231.001C192.194,233.811,188.330,236.791,181.799,239.846C177.108,234.728,179.706,229.932,174.326,222.275C169.909,221.494,163.016,219.479,157.467,219.863C160.897,215.051,162.415,200.113,168.724,197.678C176.508,194.674,170.651,186.023,174.838,177.422C175.865,175.189,186.151,157.885,186.967,155.133C188.553,150.372,190.303,145.314,194.010,142.137M278.737,120.424C265.716,112.116,240.666,109.193,227.127,113.639C214.687,117.569,202.602,122.661,192.212,130.781C186.388,135.268,180.075,141.682,176.510,148.124C169.360,160.655,159.807,187.536,154.197,200.089C149.741,210.482,145.351,217.621,140.698,223.457C158.807,228.330,164.161,230.530,169.458,230.877C170.455,238.574,178.082,243.690,177.589,252.323C186.251,250.261,191.283,247.585,198.917,244.962C203.283,249.254,206.567,255.319,210.890,261.167C218.396,258.413,226.283,258.023,233.423,251.928C239.190,254.454,248.342,258.360,257.757,262.517C265.646,257.399,267.395,256.993,274.719,251.288C284.364,252.799,294.790,257.791,304.216,255.957C302.839,247.859,308.390,241.736,307.233,236.565C314.242,234.025,336.498,235.315,340.224,234.670C339.477,228.665,335.165,217.420,336.106,210.107C342.734,207.717,348.327,205.580,358.484,199.582C354.446,193.212,347.521,185.468,341.649,181.002C336.696,177.274,332.482,172.131,327.510,168.229C310.672,155.234,302.832,135.877,278.737,120.424Z"/>
<path fill="none" stroke="#620527" stroke-width="1" stroke-linecap="butt" stroke-linejoin="round" d="M251.088,123.182C260.467,121.946,267.496,127.771,275.259,133.405"/>
<path fill="none" stroke="#620527" stroke-width="1" stroke-linecap="butt" stroke-linejoin="round" d="M275.259,133.405C281.663,138.380,288.573,144.012,295.369,149.227"/>
<path fill="none" stroke="#620527" stroke-width="1" stroke-linecap="butt" stroke-linejoin="round" d="M295.369,149.227C305.594,157.016,309.942,160.995,313.838,164.820"/>
<path fill="none" stroke="#620527" stroke-width="1" stroke-linecap="butt" stroke-linejoin="round" d="M313.838,164.820C317.138,167.726,322.355,173.237,326.371,175.722"/>
<path fill="none" stroke="#620527" stroke-width="1" stroke-linecap="butt" stroke-linejoin="round" d="M326.371,175.722C331.215,178.719,341.857,194.959,344.059,196.706"/>
<path fill="none" stroke="#620527" stroke-width="1" stroke-linecap="butt" stroke-linejoin="round" d="M344.059,196.706C337.649,199.524,327.412,202.094,322.986,206.346"/>
<path fill="none" stroke="#620527" stroke-width="1" stroke-linecap="butt" stroke-linejoin="round" d="M322.986,206.346C325.150,212.003,326.294,220.966,326.544,223.664"/>
<path fill="none" stroke="#620527" stroke-width="1" stroke-linecap="butt" stroke-linejoin="round" d="M326.544,223.664C320.400,224.642,312.963,222.484,301.366,221.424"/>
<path fill="none" stroke="#620527" stroke-width="1" stroke-linecap="butt" stroke-linejoin="round" d="M301.366,221.424C299.681,228.787,300.292,235.488,296.256,243.168"/>
<path fill="none" stroke="#620527" stroke-width="1" stroke-linecap="butt" stroke-linejoin="round" d="M296.256,243.168C288.372,241.514,282.859,240.106,272.536,236.566"/>
<path fill="none" stroke="#620527" stroke-width="1" stroke-linecap="butt" stroke-linejoin="round" d="M272.536,236.566C266.449,242.329,264.879,242.059,254.807,249.504"/>
<path fill="none" stroke="#620527" stroke-width="1" stroke-linecap="butt" stroke-linejoin="round" d="M254.807,249.504C247.354,245.814,241.312,241.708,234.170,239.488"/>
<path fill="none" stroke="#620527" stroke-width="1" stroke-linecap="butt" stroke-linejoin="round" d="M234.170,239.488C227.681,242.969,217.076,244.936,213.709,248.174"/>
<path fill="none" stroke="#620527" stroke-width="1" stroke-linecap="butt" stroke-linejoin="round" d="M213.709,248.174C209.292,241.502,205.117,234.072,201.575,231.001"/>
<path fill="none" stroke="#620527" stroke-width="1" stroke-linecap="butt" stroke-linejoin="round" d="M201.575,231.001C192.194,233.811,188.330,236.791,181.799,239.846"/>
<path fill="none" stroke="#620527" stroke-width="1" stroke-linecap="butt" stroke-linejoin="round" d="M181.799,239.846C177.108,234.728,179.706,229.932,174.326,222.275"/>
<path fill="none" stroke="#620527" stroke-width="1" stroke-linecap="butt" stroke-linejoin="round" d="M174.326,222.275C169.909,221.494,163.016,219.479,157.467,219.863"/>
<path fill="none" stroke="#620527" stroke-width="1" stroke-linecap="butt" stroke-linejoin="round" d="M157.467,219.863C160.897,215.051,162.415,200.113,168.724,197.678"/>
<path fill="none" stroke="#620527" stroke-width="1" stroke-linecap="butt" stroke-linejoin="round" d="M168.724,197.678C176.508,194.674,170.651,186.023,174.838,177.422"/>
<path fill="none" stroke="#620527" stroke-width="1" stroke-linecap="butt" stroke-linejoin="round" d="M174.838,177.422C175.865,175.189,186.151,157.885,186.967,155.133"/>
<path fill="none" stroke="#620527" stroke-width="1" stroke-linecap="butt" stroke-linejoin="round" d="M186.967,155.133C188.553,150.372,190.303,145.314,194.010,142.137"/>
<path fill="none" stroke="#620527" stroke-width="1" stroke-linecap="butt" stroke-linejoin="round" d="M194.010,142.137C210.394,128.761,230.162,125.899,251.088,123.182"/>
<path fill="#620527" fill-rule="evenodd" stroke="none" d="M251.088,123.182C260.467,121.946,267.496,127.771,275.259,133.405C281.663,138.380,288.573,144.012,295.369,149.227C305.594,157.016,309.942,160.995,313.838,164.820C317.138,167.726,322.355,173.237,326.371,175.722C331.215,178.719,341.857,194.959,344.059,196.706C337.649,199.524,327.412,202.094,322.986,206.346C325.150,212.003,326.294,220.966,326.544,223.664C320.400,224.642,312.963,222.484,301.366,221.424C299.681,228.787,300.292,235.488,296.256,243.168C288.372,241.514,282.859,240.106,272.536,236.566C266.449,242.329,264.879,242.059,254.807,249.504C247.354,245.814,241.312,241.708,234.170,239.488C227.681,242.969,217.076,244.936,213.709,248.174C209.292,241.502,205.117,234.072,201.575,231.001C192.194,233.811,188.330,236.791,181.799,239.846C177.108,234.728,179.706,229.932,174.326,222.275C169.909,221.494,163.016,219.479,157.467,219.863C160.897,215.051,162.415,200.113,168.724,197.678C176.508,194.674,170.651,186.023,174.838,177.422C175.865,175.189,186.151,157.885,186.967,155.133C188.553,150.372,190.303,145.314,194.010,142.137C210.394,128.761,230.162,125.899,251.088,123.182Z"/>
<path fill="#000000" fill-rule="evenodd" stroke="none" d="M248.855,367.705C243.630,365.602,223.735,366.285,220.178,370.922C217.948,374.017,221.145,375.837,224.453,376.121C228.455,376.464,249.554,376.355,252.367,374.731C256.798,372.102,251.013,368.466,248.855,367.705M205.052,263.481C209.128,251.190,237.073,240.744,249.866,242.891C258.791,244.362,285.826,260.885,289.064,269.567C291.784,276.516,290.550,301.209,290.103,309.550C289.003,324.820,288.463,340.175,288.011,355.479C288.232,367.535,297.082,381.259,290.775,391.536C288.215,394.690,278.347,394.195,273.929,394.866C268.189,396.018,257.277,400.607,251.890,400.399C229.165,400.139,231.324,402.303,210.040,401.183C205.903,400.807,192.566,398.763,190.062,396.698C184.371,390.785,188.122,382.144,190.149,374.506C194.317,361.033,196.163,351.581,198.593,336.823C201.100,320.950,204.479,304.012,205.975,287.470C206.181,281.509,204.074,267.048,205.052,263.481M285.126,252.079C269.701,240.984,254.444,231.600,234.334,235.520C228.924,236.374,201.312,246.926,198.714,250.039C194.652,254.991,196.663,275.355,196.028,282.586C195.606,291.196,195.081,300.134,193.642,308.319C192.720,314.576,190.849,320.073,190.278,326.029C189.312,332.615,188.724,339.776,187.047,345.756C182.209,362.550,168.165,395.669,187.802,408.485C192.355,411.480,199.152,411.582,204.890,412.035C214.796,412.627,225.436,413.486,235.458,412.462C247.888,411.538,259.849,406.962,272.459,406.609C278.850,406.432,298.411,414.290,303.367,409.702C305.751,407.593,306.937,393.562,306.662,389.976C304.991,376.574,298.931,363.857,297.865,350.394C297.252,338.426,297.835,326.659,299.647,314.462C300.916,304.519,303.471,295.028,304.387,284.716C304.438,280.346,305.550,275.065,303.594,270.518C300.303,262.178,292.062,257.059,285.126,252.079Z"/>
<path fill="none" stroke="#6a3661" stroke-width="1" stroke-linecap="butt" stroke-linejoin="round" d="M248.855,367.705C243.630,365.602,223.735,366.285,220.178,370.922"/>
<path fill="none" stroke="#6a3661" stroke-width="1" stroke-linecap="butt" stroke-linejoin="round" d="M220.178,370.922C217.948,374.017,221.145,375.837,224.453,376.121"/>
<path fill="none" stroke="#6a3661" stroke-width="1" stroke-linecap="butt" stroke-linejoin="round" d="M224.453,376.121C228.455,376.464,249.554,376.355,252.367,374.731"/>
<path fill="none" stroke="#6a3661" stroke-width="1" stroke-linecap="butt" stroke-linejoin="round" d="M252.367,374.731C256.798,372.102,251.013,368.466,248.855,367.705"/>
<path fill="none" stroke="#6a3661" stroke-width="1" stroke-linecap="butt" stroke-linejoin="round" d="M205.052,263.481C209.128,251.190,237.073,240.744,249.866,242.891"/>
<path fill="none" stroke="#6a3661" stroke-width="1" stroke-linecap="butt" stroke-linejoin="round" d="M249.866,242.891C258.791,244.362,285.826,260.885,289.064,269.567"/>
<path fill="none" stroke="#6a3661" stroke-width="1" stroke-linecap="butt" stroke-linejoin="round" d="M289.064,269.567C291.784,276.516,290.550,301.209,290.103,309.550"/>
<path fill="none" stroke="#6a3661" stroke-width="1" stroke-linecap="butt" stroke-linejoin="round" d="M290.103,309.550C289.003,324.820,288.463,340.175,288.011,355.479"/>
<path fill="none" stroke="#6a3661" stroke-width="1" stroke-linecap="butt" stroke-linejoin="round" d="M288.011,355.479C288.232,367.535,297.082,381.259,290.775,391.536"/>
<path fill="none" stroke="#6a3661" stroke-width="1" stroke-linecap="butt" stroke-linejoin="round" d="M290.775,391.536C288.215,394.690,278.347,394.195,273.929,394.866"/>
<path fill="none" stroke="#6a3661" stroke-width="1" stroke-linecap="butt" stroke-linejoin="round" d="M273.929,394.866C268.189,396.018,257.277,400.607,251.890,400.399"/>
<path fill="none" stroke="#6a3661" stroke-width="1" stroke-linecap="butt" stroke-linejoin="round" d="M251.890,400.399C229.165,400.139,231.324,402.303,210.040,401.183"/>
<path fill="none" stroke="#6a3661" stroke-width="1" stroke-linecap="butt" stroke-linejoin="round" d="M210.040,401.183C205.903,400.807,192.566,398.763,190.062,396.698"/>
<path fill="none" stroke="#6a3661" stroke-width="1" stroke-linecap="butt" stroke-linejoin="round" d="M190.062,396.698C184.371,390.785,188.122,382.144,190.149,374.506"/>
<path fill="none" stroke="#6a3661" stroke-width="1" stroke-linecap="butt" stroke-linejoin="round" d="M190.149,374.506C194.317,361.033,196.163,351.581,198.593,336.823"/>
<path fill="none" stroke="#6a3661" stroke-width="1" stroke-linecap="butt" stroke-linejoin="round" d="M198.593,336.823C201.100,320.950,204.479,304.012,205.975,287.470"/>
<path fill="none" stroke="#6a3661" stroke-width="1" stroke-linecap="butt" stroke-linejoin="round" d="M205.975,287.470C206.181,281.509,204.074,267.048,205.052,263.481"/>
<path fill="#6a3661" fill-rule="evenodd" stroke="none" d="M248.855,367.705C243.630,365.602,223.735,366.285,220.178,370.922C217.948,374.017,221.145,375.837,224.453,376.121C228.455,376.464,249.554,376.355,252.367,374.731C256.798,372.102,251.013,368.466,248.855,367.705M205.052,263.481C209.128,251.190,237.073,240.744,249.866,242.891C258.791,244.362,285.826,260.885,289.064,269.567C291.784,276.516,290.550,301.209,290.103,309.550C289.003,324.820,288.463,340.175,288.011,355.479C288.232,367.535,297.082,381.259,290.775,391.536C288.215,394.690,278.347,394.195,273.929,394.866C268.189,396.018,257.277,400.607,251.890,400.399C229.165,400.139,231.324,402.303,210.040,401.183C205.903,400.807,192.566,398.763,190.062,396.698C184.371,390.785,188.122,382.144,190.149,374.506C194.317,361.033,196.163,351.581,198.593,336.823C201.100,320.950,204.479,304.012,205.975,287.470C206.181,281.509,204.074,267.048,205.052,263.481Z"/>
<path fill="#000000" fill-rule="evenodd" stroke="none" d="M242.148,223.976C242.422,220.643,243.366,217.631,247.019,217.232C258.625,215.028,258.301,252.635,247.657,252.826C237.678,253.005,241.597,230.307,242.148,223.976M246.852,207.919C244.186,207.634,241.204,208.352,238.898,209.725C229.667,214.549,231.153,223.174,231.308,231.822C231.052,236.153,231.458,240.139,229.528,243.834C227.925,247.191,223.325,250.599,223.391,254.260C223.903,264.233,250.848,263.750,257.828,263.291C260.488,263.243,269.487,264.080,270.419,260.404C270.401,259.406,263.540,247.881,262.459,243.243C259.215,229.326,268.160,208.536,246.852,207.919Z"/>
<path fill="none" stroke="#f8a087" stroke-width="1" stroke-linecap="butt" stroke-linejoin="round" d="M247.019,217.232C258.625,215.028,258.301,252.635,247.657,252.826"/>
<path fill="none" stroke="#f8a087" stroke-width="1" stroke-linecap="butt" stroke-linejoin="round" d="M247.657,252.826C237.678,253.005,241.597,230.307,242.148,223.976"/>
<path fill="none" stroke="#f8a087" stroke-width="1" stroke-linecap="butt" stroke-linejoin="round" d="M242.148,223.976C242.422,220.643,243.366,217.631,247.019,217.232"/>
<path fill="#f8a087" fill-rule="evenodd" stroke="none" d="M247.019,217.232C258.625,215.028,258.301,252.635,247.657,252.826C237.678,253.005,241.597,230.307,242.148,223.976C242.422,220.643,243.366,217.631,247.019,217.232Z"/>
<g id="layer_head">
<path fill="#000000" fill-rule="evenodd" stroke="none" d="M162.130,195.494C147.909,196.620,132.579,161.781,153.610,163.396C157.226,163.672,160.112,169.781,160.734,172.473C162.891,181.753,172.231,194.700,162.130,195.494M159.020,151.748C155.677,149.789,151.587,149.143,148.051,150.725C137.272,153.609,131.698,166.434,133.690,177.471C136.072,189.899,149.946,203.609,161.501,205.803C164.550,206.399,170.845,208.453,173.731,206.893C180.335,202.775,173.569,192.565,171.558,186.798C169.532,180.553,163.834,155.805,159.020,151.748Z"/>
<path fill="none" stroke="#f8a087" stroke-width="1" stroke-linecap="butt" stroke-linejoin="round" d="M153.610,163.396C157.226,163.672,160.112,169.781,160.734,172.473"/>
<path fill="none" stroke="#f8a087" stroke-width="1" stroke-linecap="butt" stroke-linejoin="round" d="M160.734,172.473C162.891,181.753,172.231,194.700,162.130,195.494"/>
<path fill="none" stroke="#f8a087" stroke-width="1" stroke-linecap="butt" stroke-linejoin="round" d="M162.130,195.494C147.909,196.620,132.579,161.781,153.610,163.396"/>
<path fill="#f8a087" fill-rule="evenodd" stroke="none" d="M153.610,163.396C157.226,163.672,160.112,169.781,160.734,172.473C162.891,181.753,172.231,194.700,162.130,195.494C147.909,196.620,132.579,161.781,153.610,163.396Z"/>
<g id="face_Mask">
<path fill="#000000" fill-rule="evenodd" stroke="none" d="M176.883,106.589C185.298,96.083,218.018,88.677,231.644,86.589C246.935,84.490,262.586,86.713,277.589,91.269C282.924,92.898,290.598,94.829,295.270,98.470C303.246,104.735,308.284,115.992,311.202,125.290C313.511,132.032,317.693,141.062,315.921,147.559C307.946,176.798,303.816,190.225,298.063,198.435C290.918,208.631,277.852,212.527,266.471,217.309C254.383,222.186,242.080,224.154,235.674,223.853C223.249,223.270,196.487,217.049,187.331,209.438C176.826,200.370,175.628,186.601,171.456,173.983C168.920,167.040,164.830,156.573,163.477,149.458C161.554,138.394,169.955,115.157,176.883,106.589M299.236,90.768C285.546,78.629,249.250,76.073,231.635,78.836C223.322,79.882,215.341,80.594,207.701,82.637C202.053,84.337,197.075,87.029,191.760,88.728C180.143,93.131,175.321,91.724,167.564,102.542C161.992,110.115,153.452,139.859,154.439,149.050C155.299,155.926,162.376,171.280,164.752,178.990C167.803,189.094,170.294,203.550,176.774,211.404C183.852,219.733,193.441,224.145,208.187,228.272C219.662,231.483,232.385,232.769,244.654,233.004C249.585,233.401,258.744,230.487,271.890,224.718C283.841,219.294,296.928,214.554,305.055,203.145C314.600,189.746,318.618,168.208,326.494,146.185C333.154,127.563,307.757,98.160,299.236,90.768Z"/>
<path fill="none" stroke="#f8a087" stroke-width="1" stroke-linecap="butt" stroke-linejoin="round" d="M231.644,86.589C246.935,84.490,262.586,86.713,277.589,91.269"/>
<path fill="none" stroke="#f8a087" stroke-width="1" stroke-linecap="butt" stroke-linejoin="round" d="M277.589,91.269C282.924,92.898,290.598,94.829,295.270,98.470"/>
<path fill="none" stroke="#f8a087" stroke-width="1" stroke-linecap="butt" stroke-linejoin="round" d="M295.270,98.470C303.246,104.735,308.284,115.992,311.202,125.290"/>
<path fill="none" stroke="#f8a087" stroke-width="1" stroke-linecap="butt" stroke-linejoin="round" d="M311.202,125.290C313.511,132.032,317.693,141.062,315.921,147.559"/>
<path fill="none" stroke="#f8a087" stroke-width="1" stroke-linecap="butt" stroke-linejoin="round" d="M315.921,147.559C307.946,176.798,303.816,190.225,298.063,198.435"/>
<path fill="none" stroke="#f8a087" stroke-width="1" stroke-linecap="butt" stroke-linejoin="round" d="M298.063,198.435C290.918,208.631,277.852,212.527,266.471,217.309"/>
<path fill="none" stroke="#f8a087" stroke-width="1" stroke-linecap="butt" stroke-linejoin="round" d="M266.471,217.309C254.383,222.186,242.080,224.154,235.674,223.853"/>
<path fill="none" stroke="#f8a087" stroke-width="1" stroke-linecap="butt" stroke-linejoin="round" d="M235.674,223.853C223.249,223.270,196.487,217.049,187.331,209.438"/>
<path fill="none" stroke="#f8a087" stroke-width="1" stroke-linecap="butt" stroke-linejoin="round" d="M187.331,209.438C176.826,200.370,175.628,186.601,171.456,173.983"/>
<path fill="none" stroke="#f8a087" stroke-width="1" stroke-linecap="butt" stroke-linejoin="round" d="M171.456,173.983C168.920,167.040,164.830,156.573,163.477,149.458"/>
<path fill="none" stroke="#f8a087" stroke-width="1" stroke-linecap="butt" stroke-linejoin="round" d="M163.477,149.458C161.554,138.394,169.955,115.157,176.883,106.589"/>
<path fill="none" stroke="#f8a087" stroke-width="1" stroke-linecap="butt" stroke-linejoin="round" d="M176.883,106.589C185.298,96.083,218.018,88.677,231.644,86.589"/>
<path fill="#f8a087" fill-rule="evenodd" stroke="none" d="M231.644,86.589C246.935,84.490,262.586,86.713,277.589,91.269C282.924,92.898,290.598,94.829,295.270,98.470C303.246,104.735,308.284,115.992,311.202,125.290C313.511,132.032,317.693,141.062,315.921,147.559C307.946,176.798,303.816,190.225,298.063,198.435C290.918,208.631,277.852,212.527,266.471,217.309C254.383,222.186,242.080,224.154,235.674,223.853C223.249,223.270,196.487,217.049,187.331,209.438C176.826,200.370,175.628,186.601,171.456,173.983C168.920,167.040,164.830,156.573,163.477,149.458C161.554,138.394,169.955,115.157,176.883,106.589C185.298,96.083,218.018,88.677,231.644,86.589Z"/>
</g>
<mask id="mask_target" style="mask-type:alpha;">
<use xlink:href="#face_Mask"/>
</mask>
<path fill="#000000" fill-rule="evenodd" stroke="none" d="M242.415,215.350C247.626,216.419,247.742,221.172,247.272,221.682C247.007,221.970,245.878,221.026,242.914,220.559C237.302,219.675,234.605,220.866,234.402,220.153C234.180,219.372,236.314,214.099,242.415,215.350Z"/>
<g id="layer_eyes_Mtarget" mask="url(#mask_target)">
<mask style="mask-type:alpha;" id="f3906406-f197-4bf1-91d8-744c09cca836">
<use xlink:href="#cmn_f3906406-f197-4bf1-91d8-744c09cca836"/>
</mask>
<g id="cmn_f3906406-f197-4bf1-91d8-744c09cca836">
<path fill="#000000" fill-rule="evenodd" stroke="none" d="M219.094,175.496C220.952,188.045,212.768,196.443,200.385,193.484C193.032,191.520,189.604,186.007,186.984,179.421C185.424,175.914,178.041,159.814,183.679,161.710C188.177,163.223,218.425,170.982,219.094,175.496M225.813,178.547C226.665,177.029,227.868,174.739,227.583,173.022C227.269,171.124,225.647,168.138,223.708,167.913C218.455,167.186,200.036,160.990,193.368,158.564C186.851,156.346,173.676,148.556,169.370,155.054C167.532,157.702,171.657,158.582,173.083,162.843C179.250,181.265,185.941,198.697,205.538,199.230C222.664,199.697,221.563,186.125,225.813,178.547M268.797,188.150C261.676,188.062,252.208,182.734,252.201,171.638C252.199,168.309,265.633,162.994,271.650,159.741C277.584,156.534,288.879,150.050,291.969,150.117C295.459,150.614,293.746,153.714,293.861,163.344C294.028,177.208,281.750,188.311,268.797,188.150M300.088,169.621C303.034,157.559,303.250,141.407,300.900,140.376C295.875,138.170,283.176,147.611,275.739,151.068C266.039,155.577,250.633,165.046,243.952,167.221C242.005,167.933,240.246,168.490,239.990,169.902C239.485,172.693,244.778,174.487,246.600,176.660C249.797,180.472,250.912,187.426,256.134,190.228C266.127,195.998,273.604,193.801,284.537,188.816C292.920,185.032,298.048,177.970,300.088,169.621Z"/>
<path fill="none" stroke="#ffffff" stroke-width="1" stroke-linecap="butt" stroke-linejoin="round" d="M291.969,150.117C295.459,150.614,293.746,153.714,293.861,163.344"/>
<path fill="none" stroke="#ffffff" stroke-width="1" stroke-linecap="butt" stroke-linejoin="round" d="M293.861,163.344C294.028,177.208,281.750,188.311,268.797,188.150"/>
<path fill="none" stroke="#ffffff" stroke-width="1" stroke-linecap="butt" stroke-linejoin="round" d="M268.797,188.150C261.676,188.062,252.208,182.734,252.201,171.638"/>
<path fill="none" stroke="#ffffff" stroke-width="1" stroke-linecap="butt" stroke-linejoin="round" d="M252.201,171.638C252.199,168.309,265.633,162.994,271.650,159.741"/>
<path fill="none" stroke="#ffffff" stroke-width="1" stroke-linecap="butt" stroke-linejoin="round" d="M271.650,159.741C277.584,156.534,288.879,150.050,291.969,150.117"/>
<path fill="#ffffff" fill-rule="evenodd" stroke="none" d="M291.969,150.117C295.459,150.614,293.746,153.714,293.861,163.344C294.028,177.208,281.750,188.311,268.797,188.150C261.676,188.062,252.208,182.734,252.201,171.638C252.199,168.309,265.633,162.994,271.650,159.741C277.584,156.534,288.879,150.050,291.969,150.117Z"/>
<path fill="none" stroke="#ffffff" stroke-width="1" stroke-linecap="butt" stroke-linejoin="round" d="M183.679,161.710C188.177,163.223,218.425,170.982,219.094,175.496"/>
<path fill="none" stroke="#ffffff" stroke-width="1" stroke-linecap="butt" stroke-linejoin="round" d="M219.094,175.496C220.952,188.045,212.768,196.443,200.385,193.484"/>
<path fill="none" stroke="#ffffff" stroke-width="1" stroke-linecap="butt" stroke-linejoin="round" d="M200.385,193.484C193.032,191.520,189.604,186.007,186.984,179.421"/>
<path fill="none" stroke="#ffffff" stroke-width="1" stroke-linecap="butt" stroke-linejoin="round" d="M186.984,179.421C185.424,175.914,178.041,159.814,183.679,161.710"/>
<path fill="#ffffff" fill-rule="evenodd" stroke="none" d="M183.679,161.710C188.177,163.223,218.425,170.982,219.094,175.496C220.952,188.045,212.768,196.443,200.385,193.484C193.032,191.520,189.604,186.007,186.984,179.421C185.424,175.914,178.041,159.814,183.679,161.710Z"/>
</g>
<path fill="#000000" fill-rule="evenodd" stroke="none" d="M257.814,164.741C260.095,164.156,263.287,167.332,264.179,175.780C264.841,182.039,263.238,184.617,261.507,184.835C259.610,185.073,257.946,182.486,256.617,175.717C255.199,168.495,255.837,165.248,257.814,164.741Z" mask="url(#f3906406-f197-4bf1-91d8-744c09cca836)"/>
<path fill="#000000" fill-rule="evenodd" stroke="none" d="M211.082,168.021C213.422,167.678,215.244,171.528,215.940,180.311C216.334,185.288,215.849,187.334,214.552,187.670C213.003,188.071,210.913,186.111,209.433,180.333C207.379,172.311,208.883,168.343,211.082,168.021Z" mask="url(#f3906406-f197-4bf1-91d8-744c09cca836)"/>
</g>
<path fill="#000000" fill-rule="evenodd" stroke="none" d="M315.354,123.603C317.382,124.885,320.363,127.228,320.721,129.888C322.115,136.209,311.122,135.681,307.790,136.042C301.166,136.097,294.242,135.934,287.916,136.133C282.774,136.763,277.624,137.321,272.469,137.840C263.811,138.035,255.161,137.755,246.503,137.708C231.986,138.201,217.511,137.870,202.951,137.898C201.608,137.953,162.954,142.677,156.394,139.184C147.530,134.567,156.566,127.675,156.182,123.280C156.143,119.673,148.288,118.744,150.207,112.501C152.116,106.621,172.908,102.474,179.088,101.118C191.292,98.375,203.827,94.675,216.707,92.640C234.776,89.934,253.446,90.218,271.839,88.486C284.540,87.391,313.748,94.917,319.569,107.937C324.435,118.441,307.644,108.730,305.649,108.087C303.944,106.860,297.924,104.275,299.358,108.027C300.678,113.866,311.097,120.245,315.354,123.603M197.858,88.239C187.474,90.781,177.816,92.512,167.814,94.901C163.502,95.919,158.247,98.540,154.215,96.365C145.170,91.718,154.839,68.720,159.093,62.775C173.300,43.427,204.155,34.885,229.384,34.702C274.415,34.376,292.098,41.228,307.109,56.224C311.782,60.556,328.404,82.206,319.762,88.251C316.451,90.259,310.445,86.343,307.451,85.026C297.138,80.751,254.813,74.294,197.858,88.239M256.625,24.401C249.039,23.934,247.114,22.347,239.105,23.034C207.848,26.186,165.921,28.333,147.477,58.613C141.561,68.575,141.550,79.819,139.584,90.419C137.956,98.974,133.040,105.564,134.043,114.114C135.056,121.116,138.097,122.761,140.414,128.106C143.058,133.777,141.656,136.451,143.301,140.123C146.907,150.811,156.621,150.270,165.955,150.160C170.793,150.104,188.638,149.832,198.357,149.600C210.215,149.317,226.022,148.812,237.876,148.388C247.076,148.059,259.345,147.630,268.539,147.143C276.992,146.694,288.268,146.092,296.697,145.306C306.897,144.354,329.415,142.397,330.590,141.153C332.691,138.966,336.440,117.772,336.436,113.823C336.432,110.464,334.755,107.109,334.755,101.734C334.425,87.235,334.079,73.745,325.873,60.222C310.793,35.852,283.395,26.713,256.625,24.401Z"/>
<path fill="none" stroke="#d89f4a" stroke-width="1" stroke-linecap="butt" stroke-linejoin="round" d="M271.839,88.486C284.540,87.391,313.748,94.917,319.569,107.937"/>
<path fill="none" stroke="#d89f4a" stroke-width="1" stroke-linecap="butt" stroke-linejoin="round" d="M319.569,107.937C324.435,118.441,307.644,108.730,305.649,108.087"/>
<path fill="none" stroke="#d89f4a" stroke-width="1" stroke-linecap="butt" stroke-linejoin="round" d="M305.649,108.087C303.944,106.860,297.924,104.275,299.358,108.027"/>
<path fill="none" stroke="#d89f4a" stroke-width="1" stroke-linecap="butt" stroke-linejoin="round" d="M299.358,108.027C300.678,113.866,311.097,120.245,315.354,123.603"/>
<path fill="none" stroke="#d89f4a" stroke-width="1" stroke-linecap="butt" stroke-linejoin="round" d="M315.354,123.603C317.382,124.885,320.363,127.228,320.721,129.888"/>
<path fill="none" stroke="#d89f4a" stroke-width="1" stroke-linecap="butt" stroke-linejoin="round" d="M320.721,129.888C322.115,136.209,311.122,135.681,307.790,136.042"/>
<path fill="none" stroke="#d89f4a" stroke-width="1" stroke-linecap="butt" stroke-linejoin="round" d="M307.790,136.042C301.166,136.097,294.242,135.934,287.916,136.133"/>
<path fill="none" stroke="#d89f4a" stroke-width="1" stroke-linecap="butt" stroke-linejoin="round" d="M287.916,136.133C282.774,136.763,277.624,137.321,272.469,137.840"/>
<path fill="none" stroke="#d89f4a" stroke-width="1" stroke-linecap="butt" stroke-linejoin="round" d="M272.469,137.840C263.811,138.035,255.161,137.755,246.503,137.708"/>
<path fill="none" stroke="#d89f4a" stroke-width="1" stroke-linecap="butt" stroke-linejoin="round" d="M246.503,137.708C231.986,138.201,217.511,137.870,202.951,137.898"/>
<path fill="none" stroke="#d89f4a" stroke-width="1" stroke-linecap="butt" stroke-linejoin="round" d="M202.951,137.898C201.608,137.953,162.954,142.677,156.394,139.184"/>
<path fill="none" stroke="#d89f4a" stroke-width="1" stroke-linecap="butt" stroke-linejoin="round" d="M156.394,139.184C147.530,134.567,156.566,127.675,156.182,123.280"/>
<path fill="none" stroke="#d89f4a" stroke-width="1" stroke-linecap="butt" stroke-linejoin="round" d="M156.182,123.280C156.143,119.673,148.288,118.744,150.207,112.501"/>
<path fill="none" stroke="#d89f4a" stroke-width="1" stroke-linecap="butt" stroke-linejoin="round" d="M150.207,112.501C152.116,106.621,172.908,102.474,179.088,101.118"/>
<path fill="none" stroke="#d89f4a" stroke-width="1" stroke-linecap="butt" stroke-linejoin="round" d="M179.088,101.118C191.292,98.375,203.827,94.675,216.707,92.640"/>
<path fill="none" stroke="#d89f4a" stroke-width="1" stroke-linecap="butt" stroke-linejoin="round" d="M216.707,92.640C234.776,89.934,253.446,90.218,271.839,88.486"/>
<path fill="#d89f4a" fill-rule="evenodd" stroke="none" d="M271.839,88.486C284.540,87.391,313.748,94.917,319.569,107.937C324.435,118.441,307.644,108.730,305.649,108.087C303.944,106.860,297.924,104.275,299.358,108.027C300.678,113.866,311.097,120.245,315.354,123.603C317.382,124.885,320.363,127.228,320.721,129.888C322.115,136.209,311.122,135.681,307.790,136.042C301.166,136.097,294.242,135.934,287.916,136.133C282.774,136.763,277.624,137.321,272.469,137.840C263.811,138.035,255.161,137.755,246.503,137.708C231.986,138.201,217.511,137.870,202.951,137.898C201.608,137.953,162.954,142.677,156.394,139.184C147.530,134.567,156.566,127.675,156.182,123.280C156.143,119.673,148.288,118.744,150.207,112.501C152.116,106.621,172.908,102.474,179.088,101.118C191.292,98.375,203.827,94.675,216.707,92.640C234.776,89.934,253.446,90.218,271.839,88.486Z"/>
<path fill="none" stroke="#cc9bc5" stroke-width="1" stroke-linecap="butt" stroke-linejoin="round" d="M229.384,34.702C274.415,34.376,292.098,41.228,307.109,56.224"/>
<path fill="none" stroke="#cc9bc5" stroke-width="1" stroke-linecap="butt" stroke-linejoin="round" d="M307.109,56.224C311.782,60.556,328.404,82.206,319.762,88.251"/>
<path fill="none" stroke="#cc9bc5" stroke-width="1" stroke-linecap="butt" stroke-linejoin="round" d="M319.762,88.251C316.451,90.259,310.445,86.343,307.451,85.026"/>
<path fill="none" stroke="#cc9bc5" stroke-width="1" stroke-linecap="butt" stroke-linejoin="round" d="M307.451,85.026C297.138,80.751,254.813,74.294,197.858,88.239"/>
<path fill="none" stroke="#cc9bc5" stroke-width="1" stroke-linecap="butt" stroke-linejoin="round" d="M197.858,88.239C187.474,90.781,177.816,92.512,167.814,94.901"/>
<path fill="none" stroke="#cc9bc5" stroke-width="1" stroke-linecap="butt" stroke-linejoin="round" d="M167.814,94.901C163.502,95.919,158.247,98.540,154.215,96.365"/>
<path fill="none" stroke="#cc9bc5" stroke-width="1" stroke-linecap="butt" stroke-linejoin="round" d="M154.215,96.365C145.170,91.718,154.839,68.720,159.093,62.775"/>
<path fill="none" stroke="#cc9bc5" stroke-width="1" stroke-linecap="butt" stroke-linejoin="round" d="M159.093,62.775C173.300,43.427,204.155,34.885,229.384,34.702"/>
<path fill="#cc9bc5" fill-rule="evenodd" stroke="none" d="M229.384,34.702C274.415,34.376,292.098,41.228,307.109,56.224C311.782,60.556,328.404,82.206,319.762,88.251C316.451,90.259,310.445,86.343,307.451,85.026C297.138,80.751,254.813,74.294,197.858,88.239C187.474,90.781,177.816,92.512,167.814,94.901C163.502,95.919,158.247,98.540,154.215,96.365C145.170,91.718,154.839,68.720,159.093,62.775C173.300,43.427,204.155,34.885,229.384,34.702Z"/>
<path fill="#000000" fill-rule="evenodd" stroke="none" d="M314.343,187.805C313.174,183.876,322.014,159.189,323.655,156.804C328.572,149.643,340.899,159.868,342.215,166.527C343.662,174.738,332.207,183.513,325.539,188.518C320.445,192.221,315.904,193.036,314.343,187.805M351.077,170.366C352.340,157.508,340.467,140.933,328.100,144.300C314.831,147.912,314.603,165.950,310.851,176.697C309.384,181.285,306.654,185.834,306.251,190.399C305.388,198.646,309.555,205.303,318.578,202.742C331.589,198.904,349.234,184.662,351.077,170.366Z"/>
<path fill="none" stroke="#f8a087" stroke-width="1" stroke-linecap="butt" stroke-linejoin="round" d="M323.655,156.804C328.572,149.643,340.899,159.868,342.215,166.527"/>
<path fill="none" stroke="#f8a087" stroke-width="1" stroke-linecap="butt" stroke-linejoin="round" d="M342.215,166.527C343.662,174.738,332.207,183.513,325.539,188.518"/>
<path fill="none" stroke="#f8a087" stroke-width="1" stroke-linecap="butt" stroke-linejoin="round" d="M325.539,188.518C320.445,192.221,315.904,193.036,314.343,187.805"/>
<path fill="none" stroke="#f8a087" stroke-width="1" stroke-linecap="butt" stroke-linejoin="round" d="M314.343,187.805C313.174,183.876,322.014,159.189,323.655,156.804"/>
<path fill="#f8a087" fill-rule="evenodd" stroke="none" d="M323.655,156.804C328.572,149.643,340.899,159.868,342.215,166.527C343.662,174.738,332.207,183.513,325.539,188.518C320.445,192.221,315.904,193.036,314.343,187.805C313.174,183.876,322.014,159.189,323.655,156.804Z"/>
<path fill="#000000" fill-rule="evenodd" stroke="none" d="M335.325,205.618C326.445,208.759,324.773,189.048,328.561,189.624C333.802,191.750,337.988,201.620,335.325,205.618M343.916,198.034C337.018,196.977,334.595,188.381,334.349,184.413C341.957,186.704,351.253,193.191,343.916,198.034M352.025,193.026C349.665,185.300,338.666,179.979,331.099,177.197C328.775,176.342,323.400,184.955,323.045,187.536C321.897,191.425,321.038,213.818,334.523,211.889C340.028,210.853,353.934,199.274,352.025,193.026Z"/>
<path fill="none" stroke="#fafd5b" stroke-width="1" stroke-linecap="butt" stroke-linejoin="round" d="M334.349,184.413C341.957,186.704,351.253,193.191,343.916,198.034"/>
<path fill="none" stroke="#fafd5b" stroke-width="1" stroke-linecap="butt" stroke-linejoin="round" d="M343.916,198.034C337.018,196.977,334.595,188.381,334.349,184.413"/>
<path fill="#fafd5b" fill-rule="evenodd" stroke="none" d="M334.349,184.413C341.957,186.704,351.253,193.191,343.916,198.034C337.018,196.977,334.595,188.381,334.349,184.413Z"/>
<path fill="none" stroke="#fafd5b" stroke-width="1" stroke-linecap="butt" stroke-linejoin="round" d="M328.561,189.624C333.802,191.750,337.988,201.620,335.325,205.618"/>
<path fill="none" stroke="#fafd5b" stroke-width="1" stroke-linecap="butt" stroke-linejoin="round" d="M335.325,205.618C326.445,208.759,324.773,189.048,328.561,189.624"/>
<path fill="#fafd5b" fill-rule="evenodd" stroke="none" d="M328.561,189.624C333.802,191.750,337.988,201.620,335.325,205.618C326.445,208.759,324.773,189.048,328.561,189.624Z"/>
</g>
<path fill="#000000" fill-rule="evenodd" stroke="none" d="M314.410,463.206C318.783,456.811,325.918,463.670,334.638,468.292C336.835,469.435,348.083,466.734,349.791,468.568C352.950,471.637,348.510,477.652,344.355,478.877C334.265,481.359,308.991,471.316,314.410,463.206M294.277,282.757C294.912,279.503,302.593,268.732,307.696,269.470C310.659,269.899,312.435,274.784,313.631,277.364C316.910,285.456,320.276,293.861,323.190,302.332C331.108,324.667,335.548,347.577,342.674,369.763C345.409,379.121,348.982,390.906,352.334,399.505C355.673,407.777,359.659,406.399,361.883,411.944C363.029,415.014,362.735,420.579,364.831,425.192C367.982,432.446,373.722,436.316,376.482,440.914C378.204,443.539,378.616,445.601,375.289,447.264C373.187,449.211,367.397,452.393,365.098,453.526C357.235,455.105,349.055,457.098,341.152,455.767C332.280,454.659,308.185,445.185,303.893,439.192C296.217,428.073,306.249,415.317,307.463,404.464C308.035,401.458,312.463,357.667,311.745,354.748C310.859,347.994,306.634,342.360,304.574,335.501C302.236,326.109,299.815,316.070,297.719,306.257C296.145,298.114,292.153,291.586,294.277,282.757M318.580,258.973C315.909,254.502,307.983,246.761,302.111,248.538C297.235,250.241,297.024,256.263,296.659,260.294C295.753,270.372,294.389,278.817,295.115,288.437C295.309,295.428,296.457,301.681,297.613,308.266C298.943,317.347,298.422,335.083,299.352,345.508C299.907,355.104,302.613,364.949,302.217,373.253C300.866,392.799,292.679,411.443,293.762,430.917C293.976,440.788,296.630,440.724,299.112,448.570C300.909,454.519,299.710,460.870,302.159,466.474C308.468,481.313,326.058,494.577,342.950,490.887C358.518,487.557,358.819,470.579,366.940,461.420C374.087,453.279,388.808,456.956,390.624,448.597C392.470,441.569,382.272,434.386,378.887,428.883C372.598,419.328,378.798,417.370,376.178,409.982C374.281,404.525,368.554,398.848,364.841,392.256C362.379,388.578,359.336,382.125,357.174,377.437C353.059,367.541,349.565,355.890,346.824,345.051C343.977,332.740,342.241,321.748,337.724,309.241C334.126,298.875,323.852,266.915,318.580,258.973Z"/>
<path fill="none" stroke="#a60d3f" stroke-width="1" stroke-linecap="butt" stroke-linejoin="round" d="M307.696,269.470C310.659,269.899,312.435,274.784,313.631,277.364"/>
<path fill="none" stroke="#a60d3f" stroke-width="1" stroke-linecap="butt" stroke-linejoin="round" d="M313.631,277.364C316.910,285.456,320.276,293.861,323.190,302.332"/>
<path fill="none" stroke="#a60d3f" stroke-width="1" stroke-linecap="butt" stroke-linejoin="round" d="M323.190,302.332C331.108,324.667,335.548,347.577,342.674,369.763"/>
<path fill="none" stroke="#a60d3f" stroke-width="1" stroke-linecap="butt" stroke-linejoin="round" d="M342.674,369.763C345.409,379.121,348.982,390.906,352.334,399.505"/>
<path fill="none" stroke="#a60d3f" stroke-width="1" stroke-linecap="butt" stroke-linejoin="round" d="M352.334,399.505C355.673,407.777,359.659,406.399,361.883,411.944"/>
<path fill="none" stroke="#a60d3f" stroke-width="1" stroke-linecap="butt" stroke-linejoin="round" d="M361.883,411.944C363.029,415.014,362.735,420.579,364.831,425.192"/>
<path fill="none" stroke="#a60d3f" stroke-width="1" stroke-linecap="butt" stroke-linejoin="round" d="M364.831,425.192C367.982,432.446,373.722,436.316,376.482,440.914"/>
<path fill="none" stroke="#a60d3f" stroke-width="1" stroke-linecap="butt" stroke-linejoin="round" d="M376.482,440.914C378.204,443.539,378.616,445.601,375.289,447.264"/>
<path fill="none" stroke="#a60d3f" stroke-width="1" stroke-linecap="butt" stroke-linejoin="round" d="M375.289,447.264C373.187,449.211,367.397,452.393,365.098,453.526"/>
<path fill="none" stroke="#a60d3f" stroke-width="1" stroke-linecap="butt" stroke-linejoin="round" d="M365.098,453.526C357.235,455.105,349.055,457.098,341.152,455.767"/>
<path fill="none" stroke="#a60d3f" stroke-width="1" stroke-linecap="butt" stroke-linejoin="round" d="M341.152,455.767C332.280,454.659,308.185,445.185,303.893,439.192"/>
<path fill="none" stroke="#a60d3f" stroke-width="1" stroke-linecap="butt" stroke-linejoin="round" d="M303.893,439.192C296.217,428.073,306.249,415.317,307.463,404.464"/>
<path fill="none" stroke="#a60d3f" stroke-width="1" stroke-linecap="butt" stroke-linejoin="round" d="M307.463,404.464C308.035,401.458,312.463,357.667,311.745,354.748"/>
<path fill="none" stroke="#a60d3f" stroke-width="1" stroke-linecap="butt" stroke-linejoin="round" d="M311.745,354.748C310.859,347.994,306.634,342.360,304.574,335.501"/>
<path fill="none" stroke="#a60d3f" stroke-width="1" stroke-linecap="butt" stroke-linejoin="round" d="M304.574,335.501C302.236,326.109,299.815,316.070,297.719,306.257"/>
<path fill="none" stroke="#a60d3f" stroke-width="1" stroke-linecap="butt" stroke-linejoin="round" d="M297.719,306.257C296.145,298.114,292.153,291.586,294.277,282.757"/>
<path fill="none" stroke="#a60d3f" stroke-width="1" stroke-linecap="butt" stroke-linejoin="round" d="M294.277,282.757C294.912,279.503,302.593,268.732,307.696,269.470"/>
<path fill="#a60d3f" fill-rule="evenodd" stroke="none" d="M307.696,269.470C310.659,269.899,312.435,274.784,313.631,277.364C316.910,285.456,320.276,293.861,323.190,302.332C331.108,324.667,335.548,347.577,342.674,369.763C345.409,379.121,348.982,390.906,352.334,399.505C355.673,407.777,359.659,406.399,361.883,411.944C363.029,415.014,362.735,420.579,364.831,425.192C367.982,432.446,373.722,436.316,376.482,440.914C378.204,443.539,378.616,445.601,375.289,447.264C373.187,449.211,367.397,452.393,365.098,453.526C357.235,455.105,349.055,457.098,341.152,455.767C332.280,454.659,308.185,445.185,303.893,439.192C296.217,428.073,306.249,415.317,307.463,404.464C308.035,401.458,312.463,357.667,311.745,354.748C310.859,347.994,306.634,342.360,304.574,335.501C302.236,326.109,299.815,316.070,297.719,306.257C296.145,298.114,292.153,291.586,294.277,282.757C294.912,279.503,302.593,268.732,307.696,269.470Z"/>
<path fill="none" stroke="#f8a087" stroke-width="1" stroke-linecap="butt" stroke-linejoin="round" d="M334.638,468.292C336.835,469.435,348.083,466.734,349.791,468.568"/>
<path fill="none" stroke="#f8a087" stroke-width="1" stroke-linecap="butt" stroke-linejoin="round" d="M349.791,468.568C352.950,471.637,348.510,477.652,344.355,478.877"/>
<path fill="none" stroke="#f8a087" stroke-width="1" stroke-linecap="butt" stroke-linejoin="round" d="M344.355,478.877C334.265,481.359,308.991,471.316,314.410,463.206"/>
<path fill="none" stroke="#f8a087" stroke-width="1" stroke-linecap="butt" stroke-linejoin="round" d="M314.410,463.206C318.783,456.811,325.918,463.670,334.638,468.292"/>
<path fill="#f8a087" fill-rule="evenodd" stroke="none" d="M334.638,468.292C336.835,469.435,348.083,466.734,349.791,468.568C352.950,471.637,348.510,477.652,344.355,478.877C334.265,481.359,308.991,471.316,314.410,463.206C318.783,456.811,325.918,463.670,334.638,468.292Z"/>
<path fill="#000000" fill-rule="evenodd" stroke="none" d="M215.992,269.098C217.799,273.896,212.059,283.348,211.030,287.936C204.854,305.518,196.108,322.433,196.463,340.631C196.748,346.367,200.762,358.813,195.457,362.870C193.677,364.232,188.865,361.293,187.989,362.681C186.239,365.443,182.418,355.635,181.769,354.197C181.108,352.734,179.215,344.146,179.132,341.714C179.264,337.026,180.301,327.926,181.323,322.100C182.395,316.257,182.558,309.928,185.225,303.944C187.608,297.196,192.178,289.845,194.733,282.282C197.406,277.650,201.275,275.208,200.931,271.443C200.242,267.722,198.481,265.698,201.803,264.239C205.930,262.765,215.430,264.084,215.992,269.098M278.349,276.410C279.901,275.239,293.919,270.116,295.640,269.484C308.463,265.452,311.349,280.242,310.937,288.144C310.805,291.519,309.666,303.288,309.871,305.703C310.008,310.911,312.396,314.504,312.445,318.973C311.998,330.776,313.960,323.634,311.161,333.504C310.502,335.819,308.540,340.500,307.393,342.563C306.108,344.582,302.200,348.228,301.067,350.165C297.908,354.618,296.475,360.599,288.550,361.802C287.243,362.168,275.168,368.457,273.045,369.415C269.085,370.950,264.098,373.710,260.458,370.955C256.017,367.197,256.713,359.185,256.011,352.988C254.240,339.375,256.725,325.593,260.416,312.314C262.911,301.600,269.888,284.314,278.349,276.410M292.098,260.508C289.129,262.132,282.819,262.158,280.980,262.408C277.169,262.721,276.763,259.485,276.610,256.803C276.513,252.313,279.911,245.982,283.370,242.887C286.110,240.435,290.809,238.412,294.841,238.573C298.682,238.589,304.965,241.889,304.222,246.196C303.897,249.203,297.035,257.808,292.098,260.508M219.324,241.590C223.570,250.771,228.217,260.173,223.003,259.011C216.959,257.663,213.927,257.424,204.525,253.173C194.160,248.486,192.090,233.233,198.188,228.747C204.164,224.349,214.371,230.878,219.324,241.590M318.062,349.824C320.079,344.809,322.415,341.588,322.668,335.951C322.836,331.147,322.140,325.475,320.226,321.092C316.367,312.845,314.487,309.703,309.743,300.557C307.846,297.049,305.484,294.462,305.158,290.649C304.733,287.341,305.301,270.186,306.375,267.338C307.465,262.200,313.268,259.189,314.764,254.592C316.102,250.888,317.541,246.932,317.265,243.004C317.196,237.838,312.871,234.088,309.356,231.018C304.295,227.099,299.265,226.616,292.725,226.902C283.071,227.337,277.025,235.596,272.727,241.697C266.661,250.306,266.776,265.567,263.357,275.528C261.392,281.250,257.961,288.956,255.784,294.219C246.946,314.669,230.611,371.653,249.111,384.327C250.558,385.463,261.955,387.157,265.362,386.445C274.108,384.661,277.848,382.410,286.232,380.164C292.955,378.639,302.376,368.684,308.474,362.301C311.684,359.156,316.833,352.876,318.062,349.824M225.758,231.994C220.676,225.314,211.846,213.466,203.412,215.156C199.179,216.147,193.229,219.154,190.079,222.451C187.047,225.624,183.771,231.135,183.617,235.578C183.305,241.029,183.035,247.509,184.701,252.230C186.676,257.823,195.551,262.475,196.242,268.283C196.482,270.908,189.443,282.102,188.321,285.170C186.187,291.545,182.150,297.384,180.017,302.839C177.924,308.191,175.834,315.582,174.236,321.103C172.061,328.618,168.209,337.824,167.649,346.336C167.119,350.740,168.465,360.910,171.301,366.297C173.045,369.610,177.631,374.317,179.899,375.346C181.248,375.958,195.247,380.505,200.183,376.915C209.234,370.332,206.407,355.862,204.790,339.896C203.267,325.294,214.789,314.007,219.700,299.993C221.965,293.461,230.149,273.694,231.083,266.467C231.819,260.773,233.995,257.027,232.911,249.016C232.193,244.692,229.112,236.402,225.758,231.994Z"/>
<path fill="none" stroke="#a60d3f" stroke-width="1" stroke-linecap="butt" stroke-linejoin="round" d="M295.640,269.484C308.463,265.452,311.349,280.242,310.937,288.144"/>
<path fill="none" stroke="#a60d3f" stroke-width="1" stroke-linecap="butt" stroke-linejoin="round" d="M310.937,288.144C310.805,291.519,309.666,303.288,309.871,305.703"/>
<path fill="none" stroke="#a60d3f" stroke-width="1" stroke-linecap="butt" stroke-linejoin="round" d="M309.871,305.703C310.008,310.911,312.396,314.504,312.445,318.973"/>
<path fill="none" stroke="#a60d3f" stroke-width="1" stroke-linecap="butt" stroke-linejoin="round" d="M312.445,318.973C311.998,330.776,313.960,323.634,311.161,333.504"/>
<path fill="none" stroke="#a60d3f" stroke-width="1" stroke-linecap="butt" stroke-linejoin="round" d="M311.161,333.504C310.502,335.819,308.540,340.500,307.393,342.563"/>
<path fill="none" stroke="#a60d3f" stroke-width="1" stroke-linecap="butt" stroke-linejoin="round" d="M307.393,342.563C306.108,344.582,302.200,348.228,301.067,350.165"/>
<path fill="none" stroke="#a60d3f" stroke-width="1" stroke-linecap="butt" stroke-linejoin="round" d="M301.067,350.165C297.908,354.618,296.475,360.599,288.550,361.802"/>
<path fill="none" stroke="#a60d3f" stroke-width="1" stroke-linecap="butt" stroke-linejoin="round" d="M288.550,361.802C287.243,362.168,275.168,368.457,273.045,369.415"/>
<path fill="none" stroke="#a60d3f" stroke-width="1" stroke-linecap="butt" stroke-linejoin="round" d="M273.045,369.415C269.085,370.950,264.098,373.710,260.458,370.955"/>
<path fill="none" stroke="#a60d3f" stroke-width="1" stroke-linecap="butt" stroke-linejoin="round" d="M260.458,370.955C256.017,367.197,256.713,359.185,256.011,352.988"/>
<path fill="none" stroke="#a60d3f" stroke-width="1" stroke-linecap="butt" stroke-linejoin="round" d="M256.011,352.988C254.240,339.375,256.725,325.593,260.416,312.314"/>
<path fill="none" stroke="#a60d3f" stroke-width="1" stroke-linecap="butt" stroke-linejoin="round" d="M260.416,312.314C262.911,301.600,269.888,284.314,278.349,276.410"/>
<path fill="none" stroke="#a60d3f" stroke-width="1" stroke-linecap="butt" stroke-linejoin="round" d="M278.349,276.410C279.901,275.239,293.919,270.116,295.640,269.484"/>
<path fill="#a60d3f" fill-rule="evenodd" stroke="none" d="M295.640,269.484C308.463,265.452,311.349,280.242,310.937,288.144C310.805,291.519,309.666,303.288,309.871,305.703C310.008,310.911,312.396,314.504,312.445,318.973C311.998,330.776,313.960,323.634,311.161,333.504C310.502,335.819,308.540,340.500,307.393,342.563C306.108,344.582,302.200,348.228,301.067,350.165C297.908,354.618,296.475,360.599,288.550,361.802C287.243,362.168,275.168,368.457,273.045,369.415C269.085,370.950,264.098,373.710,260.458,370.955C256.017,367.197,256.713,359.185,256.011,352.988C254.240,339.375,256.725,325.593,260.416,312.314C262.911,301.600,269.888,284.314,278.349,276.410C279.901,275.239,293.919,270.116,295.640,269.484Z"/>
<path fill="none" stroke="#a60d3f" stroke-width="1" stroke-linecap="butt" stroke-linejoin="round" d="M201.803,264.239C205.930,262.765,215.430,264.084,215.992,269.098"/>
<path fill="none" stroke="#a60d3f" stroke-width="1" stroke-linecap="butt" stroke-linejoin="round" d="M215.992,269.098C217.799,273.896,212.059,283.348,211.030,287.936"/>
<path fill="none" stroke="#a60d3f" stroke-width="1" stroke-linecap="butt" stroke-linejoin="round" d="M211.030,287.936C204.854,305.518,196.108,322.433,196.463,340.631"/>
<path fill="none" stroke="#a60d3f" stroke-width="1" stroke-linecap="butt" stroke-linejoin="round" d="M196.463,340.631C196.748,346.367,200.762,358.813,195.457,362.870"/>
<path fill="none" stroke="#a60d3f" stroke-width="1" stroke-linecap="butt" stroke-linejoin="round" d="M195.457,362.870C193.677,364.232,188.865,361.293,187.989,362.681"/>
<path fill="none" stroke="#a60d3f" stroke-width="1" stroke-linecap="butt" stroke-linejoin="round" d="M187.989,362.681C186.239,365.443,182.418,355.635,181.769,354.197"/>
<path fill="none" stroke="#a60d3f" stroke-width="1" stroke-linecap="butt" stroke-linejoin="round" d="M181.769,354.197C181.108,352.734,179.215,344.146,179.132,341.714"/>
<path fill="none" stroke="#a60d3f" stroke-width="1" stroke-linecap="butt" stroke-linejoin="round" d="M179.132,341.714C179.264,337.026,180.301,327.926,181.323,322.100"/>
<path fill="none" stroke="#a60d3f" stroke-width="1" stroke-linecap="butt" stroke-linejoin="round" d="M181.323,322.100C182.395,316.257,182.558,309.928,185.225,303.944"/>
<path fill="none" stroke="#a60d3f" stroke-width="1" stroke-linecap="butt" stroke-linejoin="round" d="M185.225,303.944C187.608,297.196,192.178,289.845,194.733,282.282"/>
<path fill="none" stroke="#a60d3f" stroke-width="1" stroke-linecap="butt" stroke-linejoin="round" d="M194.733,282.282C197.406,277.650,201.275,275.208,200.931,271.443"/>
<path fill="none" stroke="#a60d3f" stroke-width="1" stroke-linecap="butt" stroke-linejoin="round" d="M200.931,271.443C200.242,267.722,198.481,265.698,201.803,264.239"/>
<path fill="#a60d3f" fill-rule="evenodd" stroke="none" d="M201.803,264.239C205.930,262.765,215.430,264.084,215.992,269.098C217.799,273.896,212.059,283.348,211.030,287.936C204.854,305.518,196.108,322.433,196.463,340.631C196.748,346.367,200.762,358.813,195.457,362.870C193.677,364.232,188.865,361.293,187.989,362.681C186.239,365.443,182.418,355.635,181.769,354.197C181.108,352.734,179.215,344.146,179.132,341.714C179.264,337.026,180.301,327.926,181.323,322.100C182.395,316.257,182.558,309.928,185.225,303.944C187.608,297.196,192.178,289.845,194.733,282.282C197.406,277.650,201.275,275.208,200.931,271.443C200.242,267.722,198.481,265.698,201.803,264.239Z"/>
<path fill="none" stroke="#a60d3f" stroke-width="1" stroke-linecap="butt" stroke-linejoin="round" d="M294.841,238.573C298.682,238.589,304.965,241.889,304.222,246.196"/>
<path fill="none" stroke="#a60d3f" stroke-width="1" stroke-linecap="butt" stroke-linejoin="round" d="M304.222,246.196C303.897,249.203,297.035,257.808,292.098,260.508"/>
<path fill="none" stroke="#a60d3f" stroke-width="1" stroke-linecap="butt" stroke-linejoin="round" d="M292.098,260.508C289.129,262.132,282.819,262.158,280.980,262.408"/>
<path fill="none" stroke="#a60d3f" stroke-width="1" stroke-linecap="butt" stroke-linejoin="round" d="M280.980,262.408C277.169,262.721,276.763,259.485,276.610,256.803"/>
<path fill="none" stroke="#a60d3f" stroke-width="1" stroke-linecap="butt" stroke-linejoin="round" d="M276.610,256.803C276.513,252.313,279.911,245.982,283.370,242.887"/>
<path fill="none" stroke="#a60d3f" stroke-width="1" stroke-linecap="butt" stroke-linejoin="round" d="M283.370,242.887C286.110,240.435,290.809,238.412,294.841,238.573"/>
<path fill="#a60d3f" fill-rule="evenodd" stroke="none" d="M294.841,238.573C298.682,238.589,304.965,241.889,304.222,246.196C303.897,249.203,297.035,257.808,292.098,260.508C289.129,262.132,282.819,262.158,280.980,262.408C277.169,262.721,276.763,259.485,276.610,256.803C276.513,252.313,279.911,245.982,283.370,242.887C286.110,240.435,290.809,238.412,294.841,238.573Z"/>
<path fill="none" stroke="#a60d3f" stroke-width="1" stroke-linecap="butt" stroke-linejoin="round" d="M219.324,241.590C223.570,250.771,228.217,260.173,223.003,259.011"/>
<path fill="none" stroke="#a60d3f" stroke-width="1" stroke-linecap="butt" stroke-linejoin="round" d="M223.003,259.011C216.959,257.663,213.927,257.424,204.525,253.173"/>
<path fill="none" stroke="#a60d3f" stroke-width="1" stroke-linecap="butt" stroke-linejoin="round" d="M204.525,253.173C194.160,248.486,192.090,233.233,198.188,228.747"/>
<path fill="none" stroke="#a60d3f" stroke-width="1" stroke-linecap="butt" stroke-linejoin="round" d="M198.188,228.747C204.164,224.349,214.371,230.878,219.324,241.590"/>
<path fill="#a60d3f" fill-rule="evenodd" stroke="none" d="M219.324,241.590C223.570,250.771,228.217,260.173,223.003,259.011C216.959,257.663,213.927,257.424,204.525,253.173C194.160,248.486,192.090,233.233,198.188,228.747C204.164,224.349,214.371,230.878,219.324,241.590Z"/>
</g>
</svg>
