<svg version="1.1" id="Frame_21" xmlns="http://www.w3.org/2000/svg" xmlns:xlink="http://www.w3.org/1999/xlink" width="480px" height="720px">
<g id="main_bone">
<path fill="#000000" fill-rule="evenodd" stroke="none" d="M190.773,267.407C192.575,264.962,196.123,259.899,200.091,258.970C206.732,257.416,211.351,263.885,211.411,268.469C211.823,276.536,204.467,286.274,200.774,293.634C191.761,311.323,182.255,328.781,175.834,347.012C174.965,350.220,168.721,371.013,168.915,368.375C168.101,374.948,174.296,381.037,176.219,386.806C178.656,394.572,175.377,401.561,173.134,408.401C168.066,422.438,168.235,427.741,168.012,441.653C168.079,443.852,168.279,450.993,164.833,451.300C161.391,451.608,160.546,445.389,159.710,443.014C159.214,440.364,156.581,434.771,157.201,432.417C157.443,428.460,161.936,429.596,157.243,421.224C151.230,410.733,140.390,401.544,138.296,388.070C137.024,377.369,143.182,368.454,147.041,358.831C155.279,338.115,164.305,317.462,174.708,297.400C180.346,286.985,183.503,277.789,190.773,267.407M211.792,262.211C213.127,253.796,211.180,246.037,200.260,247.975C182.566,251.050,173.010,276.357,166.145,290.480C156.583,309.486,148.430,328.858,140.841,348.417C137.722,356.778,134.280,360.899,132.599,365.762C130.543,371.255,130.237,379.866,130.188,385.503C128.995,403.108,134.196,404.358,140.804,418.197C144.282,426.378,140.404,431.367,142.891,438.391C144.736,443.261,148.674,446.680,151.735,450.699C154.439,454.725,155.157,457.030,157.192,460.722C159.663,465.144,167.059,475.182,172.834,472.478C177.078,470.472,176.244,462.619,176.259,458.816C176.123,453.103,178.094,431.004,179.339,424.342C181.580,413.256,188.216,401.652,187.327,389.519C186.577,380.219,178.835,373.049,179.915,363.206C180.642,357.971,184.538,349.671,186.122,343.867C188.703,334.608,189.901,324.531,193.286,315.127C199.124,298.345,209.604,280.211,211.792,262.211Z"/>
<path fill="none" stroke="#a60d3f" stroke-width="1" stroke-linecap="butt" stroke-linejoin="round" d="M200.091,258.970C206.732,257.416,211.351,263.885,211.411,268.469"/>
<path fill="none" stroke="#a60d3f" stroke-width="1" stroke-linecap="butt" stroke-linejoin="round" d="M211.411,268.469C211.823,276.536,204.467,286.274,200.774,293.634"/>
<path fill="none" stroke="#a60d3f" stroke-width="1" stroke-linecap="butt" stroke-linejoin="round" d="M200.774,293.634C191.761,311.323,182.255,328.781,175.834,347.012"/>
<path fill="none" stroke="#a60d3f" stroke-width="1" stroke-linecap="butt" stroke-linejoin="round" d="M175.834,347.012C174.965,350.220,168.721,371.013,168.915,368.375"/>
<path fill="none" stroke="#a60d3f" stroke-width="1" stroke-linecap="butt" stroke-linejoin="round" d="M168.915,368.375C168.101,374.948,174.296,381.037,176.219,386.806"/>
<path fill="none" stroke="#a60d3f" stroke-width="1" stroke-linecap="butt" stroke-linejoin="round" d="M176.219,386.806C178.656,394.572,175.377,401.561,173.134,408.401"/>
<path fill="none" stroke="#a60d3f" stroke-width="1" stroke-linecap="butt" stroke-linejoin="round" d="M173.134,408.401C168.066,422.438,168.235,427.741,168.012,441.653"/>
<path fill="none" stroke="#a60d3f" stroke-width="1" stroke-linecap="butt" stroke-linejoin="round" d="M168.012,441.653C168.079,443.852,168.279,450.993,164.833,451.300"/>
<path fill="none" stroke="#a60d3f" stroke-width="1" stroke-linecap="butt" stroke-linejoin="round" d="M164.833,451.300C161.391,451.608,160.546,445.389,159.710,443.014"/>
<path fill="none" stroke="#a60d3f" stroke-width="1" stroke-linecap="butt" stroke-linejoin="round" d="M159.710,443.014C159.214,440.364,156.581,434.771,157.201,432.417"/>
<path fill="none" stroke="#a60d3f" stroke-width="1" stroke-linecap="butt" stroke-linejoin="round" d="M157.201,432.417C157.443,428.460,161.936,429.596,157.243,421.224"/>
<path fill="none" stroke="#a60d3f" stroke-width="1" stroke-linecap="butt" stroke-linejoin="round" d="M157.243,421.224C151.230,410.733,140.390,401.544,138.296,388.070"/>
<path fill="none" stroke="#a60d3f" stroke-width="1" stroke-linecap="butt" stroke-linejoin="round" d="M138.296,388.070C137.024,377.369,143.182,368.454,147.041,358.831"/>
<path fill="none" stroke="#a60d3f" stroke-width="1" stroke-linecap="butt" stroke-linejoin="round" d="M147.041,358.831C155.279,338.115,164.305,317.462,174.708,297.400"/>
<path fill="none" stroke="#a60d3f" stroke-width="1" stroke-linecap="butt" stroke-linejoin="round" d="M174.708,297.400C180.346,286.985,183.503,277.789,190.773,267.407"/>
<path fill="none" stroke="#a60d3f" stroke-width="1" stroke-linecap="butt" stroke-linejoin="round" d="M190.773,267.407C192.575,264.962,196.123,259.899,200.091,258.970"/>
<path fill="#a60d3f" fill-rule="evenodd" stroke="none" d="M200.091,258.970C206.732,257.416,211.351,263.885,211.411,268.469C211.823,276.536,204.467,286.274,200.774,293.634C191.761,311.323,182.255,328.781,175.834,347.012C174.965,350.220,168.721,371.013,168.915,368.375C168.101,374.948,174.296,381.037,176.219,386.806C178.656,394.572,175.377,401.561,173.134,408.401C168.066,422.438,168.235,427.741,168.012,441.653C168.079,443.852,168.279,450.993,164.833,451.300C161.391,451.608,160.546,445.389,159.710,443.014C159.214,440.364,156.581,434.771,157.201,432.417C157.443,428.460,161.936,429.596,157.243,421.224C151.230,410.733,140.390,401.544,138.296,388.070C137.024,377.369,143.182,368.454,147.041,358.831C155.279,338.115,164.305,317.462,174.708,297.400C180.346,286.985,183.503,277.789,190.773,267.407C192.575,264.962,196.123,259.899,200.091,258.970Z"/>
<g id="layer_right_leg">
<path fill="#000000" fill-rule="evenodd" stroke="none" d="M199.199,626.902C202.067,628.214,209.485,627.075,212.840,627.757C215.153,628.360,217.503,629.729,219.405,629.113C218.254,628.984,201.420,627.342,200.792,627.430C195.545,627.806,191.347,622.846,192.606,623.573C193.842,624.288,197.035,625.908,199.199,626.902M226.549,628.445C226.739,630.864,221.660,629.290,220.057,629.039C220.541,628.777,226.312,624.921,226.549,628.445M231.639,626.719C230.839,627.049,229.953,627.549,228.773,627.041C227.053,626.308,219.740,628.001,217.323,627.280C214.493,626.957,211.328,627.175,208.772,626.929C203.615,626.431,195.227,627.965,191.721,624.191C192.003,623.113,194.911,626.090,197.408,626.736C201.150,627.705,206.654,626.870,210.617,626.924C215.220,626.987,221.269,627.724,225.962,627.124C226.703,627.049,233.217,626.068,231.639,626.719M191.721,624.191C191.579,623.973,191.566,623.781,191.644,623.662M234.830,621.813C226.646,618.475,218.282,623.008,211.964,619.551C206.819,616.749,194.362,615.951,187.747,618.960C186.714,619.430,185.085,620.363,184.999,621.560C184.897,623.046,187.019,626.219,188.696,627.467C190.765,629.008,195.262,629.236,197.026,629.607C205.968,631.830,217.521,630.423,226.817,631.956C233.641,633.053,235.431,629.553,236.388,626.369C236.804,624.986,237.478,622.854,234.830,621.813Z"/>
<path fill="none" stroke="#6e2353" stroke-width="1" stroke-linecap="butt" stroke-linejoin="round" d="M199.199,626.902C202.067,628.214,209.485,627.075,212.840,627.757"/>
<path fill="none" stroke="#6e2353" stroke-width="1" stroke-linecap="butt" stroke-linejoin="round" d="M212.840,627.757C215.153,628.360,217.503,629.729,219.405,629.113"/>
<path fill="none" stroke="#6e2353" stroke-width="1" stroke-linecap="butt" stroke-linejoin="round" d="M219.405,629.113C220.541,628.777,226.312,624.921,226.549,628.445"/>
<path fill="none" stroke="#6e2353" stroke-width="1" stroke-linecap="butt" stroke-linejoin="round" d="M226.549,628.445C226.739,630.864,221.660,629.290,220.057,629.039"/>
<path fill="none" stroke="#6e2353" stroke-width="1" stroke-linecap="butt" stroke-linejoin="round" d="M220.057,629.039C218.254,628.984,201.420,627.342,200.792,627.430"/>
<path fill="none" stroke="#6e2353" stroke-width="1" stroke-linecap="butt" stroke-linejoin="round" d="M200.792,627.430C195.545,627.806,191.347,622.846,192.606,623.573"/>
<path fill="none" stroke="#6e2353" stroke-width="1" stroke-linecap="butt" stroke-linejoin="round" d="M192.606,623.573C193.842,624.288,197.035,625.908,199.199,626.902"/>
<path fill="#6e2353" fill-rule="evenodd" stroke="none" d="M199.199,626.902C202.067,628.214,209.485,627.075,212.840,627.757C215.153,628.360,217.503,629.729,219.405,629.113C220.541,628.777,226.312,624.921,226.549,628.445C226.739,630.864,221.660,629.290,220.057,629.039C218.254,628.984,201.420,627.342,200.792,627.430C195.545,627.806,191.347,622.846,192.606,623.573C193.842,624.288,197.035,625.908,199.199,626.902Z"/>
<path fill="none" stroke="#6e2353" stroke-width="1" stroke-linecap="butt" stroke-linejoin="round" d="M197.408,626.736C201.150,627.705,206.654,626.870,210.617,626.924"/>
<path fill="none" stroke="#6e2353" stroke-width="1" stroke-linecap="butt" stroke-linejoin="round" d="M210.617,626.924C215.220,626.987,221.269,627.724,225.962,627.124"/>
<path fill="none" stroke="#6e2353" stroke-width="1" stroke-linecap="butt" stroke-linejoin="round" d="M225.962,627.124C226.703,627.049,233.217,626.068,231.639,626.719"/>
<path fill="none" stroke="#6e2353" stroke-width="1" stroke-linecap="butt" stroke-linejoin="round" d="M231.639,626.719C230.839,627.049,229.953,627.549,228.773,627.041"/>
<path fill="none" stroke="#6e2353" stroke-width="1" stroke-linecap="butt" stroke-linejoin="round" d="M228.773,627.041C227.053,626.308,219.740,628.001,217.323,627.280"/>
<path fill="none" stroke="#6e2353" stroke-width="1" stroke-linecap="butt" stroke-linejoin="round" d="M217.323,627.280C214.493,626.957,211.328,627.175,208.772,626.929"/>
<path fill="none" stroke="#6e2353" stroke-width="1" stroke-linecap="butt" stroke-linejoin="round" d="M208.772,626.929C203.615,626.431,195.227,627.965,191.721,624.191"/>
<path fill="none" stroke="#6e2353" stroke-width="1" stroke-linecap="butt" stroke-linejoin="round" d="M191.721,624.191C191.579,623.973,191.566,623.781,191.644,623.662"/>
<path fill="none" stroke="#6e2353" stroke-width="1" stroke-linecap="butt" stroke-linejoin="round" d="M191.644,623.662C192.003,623.113,194.911,626.090,197.408,626.736"/>
<path fill="#6e2353" fill-rule="evenodd" stroke="none" d="M197.408,626.736C201.150,627.705,206.654,626.870,210.617,626.924C215.220,626.987,221.269,627.724,225.962,627.124C226.703,627.049,233.217,626.068,231.639,626.719C230.839,627.049,229.953,627.549,228.773,627.041C227.053,626.308,219.740,628.001,217.323,627.280C214.493,626.957,211.328,627.175,208.772,626.929C203.615,626.431,195.227,627.965,191.721,624.191C191.579,623.973,191.566,623.781,191.644,623.662C192.003,623.113,194.911,626.090,197.408,626.736Z"/>
<path fill="#000000" fill-rule="evenodd" stroke="none" d="M189.732,553.887C191.405,539.127,193.195,527.681,211.427,526.224C219.522,525.431,234.613,528.956,238.527,536.983C240.611,540.998,239.528,546.628,239.491,550.774C239.490,557.523,242.807,570.765,233.234,571.739C232.619,571.862,215.945,571.088,210.737,570.892C203.947,571.266,196.909,571.316,192.326,566.342C190.039,563.304,189.276,557.313,189.732,553.887M247.186,535.969C244.262,526.391,231.782,520.231,222.645,520.966C210.667,521.782,198.755,517.125,190.325,527.758C183.795,535.994,182.100,551.774,183.265,561.930C183.652,566.633,186.064,575.317,189.776,578.140C192.504,580.124,196.928,579.880,200.286,580.090C216.562,581.371,245.299,588.649,246.459,564.319C246.691,558.044,248.715,541.044,247.186,535.969Z"/>
<path fill="none" stroke="#d88e4b" stroke-width="1" stroke-linecap="butt" stroke-linejoin="round" d="M211.427,526.224C219.522,525.431,234.613,528.956,238.527,536.983"/>
<path fill="none" stroke="#d88e4b" stroke-width="1" stroke-linecap="butt" stroke-linejoin="round" d="M238.527,536.983C240.611,540.998,239.528,546.628,239.491,550.774"/>
<path fill="none" stroke="#d88e4b" stroke-width="1" stroke-linecap="butt" stroke-linejoin="round" d="M239.491,550.774C239.490,557.523,242.807,570.765,233.234,571.739"/>
<path fill="none" stroke="#d88e4b" stroke-width="1" stroke-linecap="butt" stroke-linejoin="round" d="M233.234,571.739C232.619,571.862,215.945,571.088,210.737,570.892"/>
<path fill="none" stroke="#d88e4b" stroke-width="1" stroke-linecap="butt" stroke-linejoin="round" d="M210.737,570.892C203.947,571.266,196.909,571.316,192.326,566.342"/>
<path fill="none" stroke="#d88e4b" stroke-width="1" stroke-linecap="butt" stroke-linejoin="round" d="M192.326,566.342C190.039,563.304,189.276,557.313,189.732,553.887"/>
<path fill="none" stroke="#d88e4b" stroke-width="1" stroke-linecap="butt" stroke-linejoin="round" d="M189.732,553.887C191.405,539.127,193.195,527.681,211.427,526.224"/>
<path fill="#d88e4b" fill-rule="evenodd" stroke="none" d="M211.427,526.224C219.522,525.431,234.613,528.956,238.527,536.983C240.611,540.998,239.528,546.628,239.491,550.774C239.490,557.523,242.807,570.765,233.234,571.739C232.619,571.862,215.945,571.088,210.737,570.892C203.947,571.266,196.909,571.316,192.326,566.342C190.039,563.304,189.276,557.313,189.732,553.887C191.405,539.127,193.195,527.681,211.427,526.224Z"/>
<path fill="#000000" fill-rule="evenodd" stroke="none" d="M186.280,607.156C187.681,596.992,193.221,584.998,205.678,583.449C208.911,582.876,213.457,584.180,217.041,584.873C234.701,588.239,241.545,592.298,242.169,610.423C242.227,614.470,242.853,619.360,240.029,622.784C236.114,627.446,216.266,627.319,210.241,626.884C200.436,626.389,192.468,626.251,187.162,616.727C185.086,612.908,185.731,611.184,186.280,607.156M247.862,595.434C242.714,584.078,216.484,578.507,204.681,579.791C188.146,581.683,180.036,592.114,177.723,605.846C176.845,610.831,176.000,616.509,178.564,620.943C179.676,622.864,182.303,625.170,183.950,626.667C194.435,637.031,201.335,636.727,215.082,636.586C222.871,636.636,235.407,634.898,241.906,629.989C245.951,626.628,247.267,623.205,247.904,618.290C248.341,613.606,249.646,598.989,247.862,595.434Z"/>
<path fill="none" stroke="#d88e4b" stroke-width="1" stroke-linecap="butt" stroke-linejoin="round" d="M205.678,583.449C208.911,582.876,213.457,584.180,217.041,584.873"/>
<path fill="none" stroke="#d88e4b" stroke-width="1" stroke-linecap="butt" stroke-linejoin="round" d="M217.041,584.873C234.701,588.239,241.545,592.298,242.169,610.423"/>
<path fill="none" stroke="#d88e4b" stroke-width="1" stroke-linecap="butt" stroke-linejoin="round" d="M242.169,610.423C242.227,614.470,242.853,619.360,240.029,622.784"/>
<path fill="none" stroke="#d88e4b" stroke-width="1" stroke-linecap="butt" stroke-linejoin="round" d="M240.029,622.784C236.114,627.446,216.266,627.319,210.241,626.884"/>
<path fill="none" stroke="#d88e4b" stroke-width="1" stroke-linecap="butt" stroke-linejoin="round" d="M210.241,626.884C200.436,626.389,192.468,626.251,187.162,616.727"/>
<path fill="none" stroke="#d88e4b" stroke-width="1" stroke-linecap="butt" stroke-linejoin="round" d="M187.162,616.727C185.086,612.908,185.731,611.184,186.280,607.156"/>
<path fill="none" stroke="#d88e4b" stroke-width="1" stroke-linecap="butt" stroke-linejoin="round" d="M186.280,607.156C187.681,596.992,193.221,584.998,205.678,583.449"/>
<path fill="#d88e4b" fill-rule="evenodd" stroke="none" d="M205.678,583.449C208.911,582.876,213.457,584.180,217.041,584.873C234.701,588.239,241.545,592.298,242.169,610.423C242.227,614.470,242.853,619.360,240.029,622.784C236.114,627.446,216.266,627.319,210.241,626.884C200.436,626.389,192.468,626.251,187.162,616.727C185.086,612.908,185.731,611.184,186.280,607.156C187.681,596.992,193.221,584.998,205.678,583.449Z"/>
<path fill="#000000" fill-rule="evenodd" stroke="none" d="M191.098,403.410C195.392,392.981,209.577,392.025,219.010,395.053C224.722,396.759,234.397,399.452,237.553,404.903C240.399,409.818,238.651,418.348,237.171,423.831C234.960,432.018,214.625,450.559,222.934,448.252C232.630,445.571,238.203,431.211,243.741,435.903C245.929,437.757,243.613,442.155,243.261,445.450C242.269,463.417,236.683,481.590,235.918,499.032C235.536,506.134,234.540,516.600,235.561,523.113C237.385,537.965,234.421,540.992,234.446,549.874C234.281,552.646,233.795,566.615,233.885,570.341C234.117,575.614,232.661,581.209,232.570,586.513C232.459,593.037,227.658,602.905,222.831,606.645C219.692,608.979,209.576,615.239,205.613,614.587C200.640,613.919,195.168,607.566,192.922,602.680C191.859,600.661,189.892,591.096,189.428,588.662C188.786,584.448,185.279,583.659,185.892,578.707C186.360,573.500,196.936,571.170,195.700,565.965C191.338,547.537,187.946,520.760,188.926,508.043C189.480,497.476,186.919,462.314,188.165,452.583C191.799,426.118,185.311,420.574,191.098,403.410M215.029,383.021C209.509,380.676,205.463,374.880,199.422,376.712C197.816,377.349,195.055,379.327,193.867,380.403C177.836,392.695,176.455,405.175,175.083,423.882C174.047,432.862,172.617,442.209,172.913,450.892C173.097,463.879,174.214,475.019,174.879,487.217C175.610,493.314,177.681,499.552,178.725,507.073C179.789,513.562,180.863,521.295,181.466,532.447C181.318,540.693,184.578,548.763,182.316,556.314C181.762,558.416,177.725,562.033,177.052,563.572C174.863,567.157,173.921,572.211,173.182,576.110C172.585,580.675,174.436,585.137,175.838,589.271C177.594,595.507,179.500,603.488,182.880,608.555C185.571,612.587,189.594,615.845,193.336,618.548C196.695,620.945,199.955,622.755,203.817,624.313C206.820,625.552,209.759,627.575,213.135,627.444C214.436,627.192,224.122,622.033,225.960,620.943C227.342,620.012,228.147,617.235,229.470,616.072C230.801,614.769,233.693,615.133,235.403,614.273C239.279,612.318,243.487,610.400,246.232,607.033C260.367,589.194,248.028,573.671,246.536,553.845C245.872,545.017,245.446,526.831,246.562,517.090C247.817,503.710,252.791,491.233,254.577,477.494C255.436,471.784,256.446,464.944,257.164,458.400C257.571,453.976,255.718,450.542,255.341,446.182C254.735,442.042,255.561,428.684,255.127,424.189C254.915,420.477,255.314,415.867,254.213,412.133C251.142,402.607,237.838,391.444,228.726,387.875C224.182,385.924,219.222,385.282,215.029,383.021Z"/>
<path fill="none" stroke="#392966" stroke-width="1" stroke-linecap="butt" stroke-linejoin="round" d="M219.010,395.053C224.722,396.759,234.397,399.452,237.553,404.903"/>
<path fill="none" stroke="#392966" stroke-width="1" stroke-linecap="butt" stroke-linejoin="round" d="M237.553,404.903C240.399,409.818,238.651,418.348,237.171,423.831"/>
<path fill="none" stroke="#392966" stroke-width="1" stroke-linecap="butt" stroke-linejoin="round" d="M237.171,423.831C234.960,432.018,214.625,450.559,222.934,448.252"/>
<path fill="none" stroke="#392966" stroke-width="1" stroke-linecap="butt" stroke-linejoin="round" d="M222.934,448.252C232.630,445.571,238.203,431.211,243.741,435.903"/>
<path fill="none" stroke="#392966" stroke-width="1" stroke-linecap="butt" stroke-linejoin="round" d="M243.741,435.903C245.929,437.757,243.613,442.155,243.261,445.450"/>
<path fill="none" stroke="#392966" stroke-width="1" stroke-linecap="butt" stroke-linejoin="round" d="M243.261,445.450C242.269,463.417,236.683,481.590,235.918,499.032"/>
<path fill="none" stroke="#392966" stroke-width="1" stroke-linecap="butt" stroke-linejoin="round" d="M235.918,499.032C235.536,506.134,234.540,516.600,235.561,523.113"/>
<path fill="none" stroke="#392966" stroke-width="1" stroke-linecap="butt" stroke-linejoin="round" d="M235.561,523.113C237.385,537.965,234.421,540.992,234.446,549.874"/>
<path fill="none" stroke="#392966" stroke-width="1" stroke-linecap="butt" stroke-linejoin="round" d="M234.446,549.874C234.281,552.646,233.795,566.615,233.885,570.341"/>
<path fill="none" stroke="#392966" stroke-width="1" stroke-linecap="butt" stroke-linejoin="round" d="M233.885,570.341C234.117,575.614,232.661,581.209,232.570,586.513"/>
<path fill="none" stroke="#392966" stroke-width="1" stroke-linecap="butt" stroke-linejoin="round" d="M232.570,586.513C232.459,593.037,227.658,602.905,222.831,606.645"/>
<path fill="none" stroke="#392966" stroke-width="1" stroke-linecap="butt" stroke-linejoin="round" d="M222.831,606.645C219.692,608.979,209.576,615.239,205.613,614.587"/>
<path fill="none" stroke="#392966" stroke-width="1" stroke-linecap="butt" stroke-linejoin="round" d="M205.613,614.587C200.640,613.919,195.168,607.566,192.922,602.680"/>
<path fill="none" stroke="#392966" stroke-width="1" stroke-linecap="butt" stroke-linejoin="round" d="M192.922,602.680C191.859,600.661,189.892,591.096,189.428,588.662"/>
<path fill="none" stroke="#392966" stroke-width="1" stroke-linecap="butt" stroke-linejoin="round" d="M189.428,588.662C188.786,584.448,185.279,583.659,185.892,578.707"/>
<path fill="none" stroke="#392966" stroke-width="1" stroke-linecap="butt" stroke-linejoin="round" d="M185.892,578.707C186.360,573.500,196.936,571.170,195.700,565.965"/>
<path fill="none" stroke="#392966" stroke-width="1" stroke-linecap="butt" stroke-linejoin="round" d="M195.700,565.965C191.338,547.537,187.946,520.760,188.926,508.043"/>
<path fill="none" stroke="#392966" stroke-width="1" stroke-linecap="butt" stroke-linejoin="round" d="M188.926,508.043C189.480,497.476,186.919,462.314,188.165,452.583"/>
<path fill="none" stroke="#392966" stroke-width="1" stroke-linecap="butt" stroke-linejoin="round" d="M188.165,452.583C191.799,426.118,185.311,420.574,191.098,403.410"/>
<path fill="none" stroke="#392966" stroke-width="1" stroke-linecap="butt" stroke-linejoin="round" d="M191.098,403.410C195.392,392.981,209.577,392.025,219.010,395.053"/>
<path fill="#392966" fill-rule="evenodd" stroke="none" d="M219.010,395.053C224.722,396.759,234.397,399.452,237.553,404.903C240.399,409.818,238.651,418.348,237.171,423.831C234.960,432.018,214.625,450.559,222.934,448.252C232.630,445.571,238.203,431.211,243.741,435.903C245.929,437.757,243.613,442.155,243.261,445.450C242.269,463.417,236.683,481.590,235.918,499.032C235.536,506.134,234.540,516.600,235.561,523.113C237.385,537.965,234.421,540.992,234.446,549.874C234.281,552.646,233.795,566.615,233.885,570.341C234.117,575.614,232.661,581.209,232.570,586.513C232.459,593.037,227.658,602.905,222.831,606.645C219.692,608.979,209.576,615.239,205.613,614.587C200.640,613.919,195.168,607.566,192.922,602.680C191.859,600.661,189.892,591.096,189.428,588.662C188.786,584.448,185.279,583.659,185.892,578.707C186.360,573.500,196.936,571.170,195.700,565.965C191.338,547.537,187.946,520.760,188.926,508.043C189.480,497.476,186.919,462.314,188.165,452.583C191.799,426.118,185.311,420.574,191.098,403.410C195.392,392.981,209.577,392.025,219.010,395.053Z"/>
</g>
<g id="layer_left_leg">
<path fill="#000000" fill-rule="evenodd" stroke="none" d="M254.705,681.472C249.368,669.124,261.698,653.064,273.052,651.395C292.679,648.400,310.280,672.204,307.963,679.203C303.725,690.773,282.456,688.494,271.986,687.671C267.403,687.158,256.420,685.563,254.705,681.472M304.379,649.513C291.212,638.114,262.344,640.710,249.705,650.307C233.456,662.387,230.211,699.640,253.141,701.899C268.218,703.423,303.155,702.675,311.897,697.395C320.589,692.523,319.277,679.647,317.041,670.604C314.885,663.673,309.964,654.489,304.379,649.513Z"/>
<path fill="none" stroke="#d88e4b" stroke-width="1" stroke-linecap="butt" stroke-linejoin="round" d="M273.052,651.395C292.679,648.400,310.280,672.204,307.963,679.203"/>
<path fill="none" stroke="#d88e4b" stroke-width="1" stroke-linecap="butt" stroke-linejoin="round" d="M307.963,679.203C303.725,690.773,282.456,688.494,271.986,687.671"/>
<path fill="none" stroke="#d88e4b" stroke-width="1" stroke-linecap="butt" stroke-linejoin="round" d="M271.986,687.671C267.403,687.158,256.420,685.563,254.705,681.472"/>
<path fill="none" stroke="#d88e4b" stroke-width="1" stroke-linecap="butt" stroke-linejoin="round" d="M254.705,681.472C249.368,669.124,261.698,653.064,273.052,651.395"/>
<path fill="#d88e4b" fill-rule="evenodd" stroke="none" d="M273.052,651.395C292.679,648.400,310.280,672.204,307.963,679.203C303.725,690.773,282.456,688.494,271.986,687.671C267.403,687.158,256.420,685.563,254.705,681.472C249.368,669.124,261.698,653.064,273.052,651.395Z"/>
<path fill="#000000" fill-rule="evenodd" stroke="none" d="M245.219,407.679C246.997,403.085,256.437,406.922,260.311,406.705C266.927,406.656,282.290,403.160,287.248,407.734C292.898,412.609,289.948,433.522,289.703,440.696C288.042,467.116,292.492,491.941,294.481,517.426C295.318,532.903,293.517,549.473,298.024,563.987C301.099,572.603,310.127,578.632,313.616,586.521C316.322,597.496,321.959,610.271,315.278,618.344C302.565,631.888,297.507,625.862,286.270,632.814C275.955,638.767,257.953,638.906,248.926,632.950C242.761,629.173,233.983,618.176,232.832,611.137C227.650,579.454,231.438,542.466,232.486,510.995C233.044,494.276,246.306,460.025,242.588,442.464C240.967,434.807,240.649,432.215,244.889,427.268C245.964,426.011,243.105,420.796,242.872,419.135C242.190,416.077,243.960,410.470,245.219,407.679M293.366,400.428C287.005,394.957,268.242,396.619,260.461,397.059C256.337,397.277,243.309,394.552,240.353,396.560C228.881,404.355,234.153,430.076,234.294,441.383C233.846,449.695,222.329,487.930,220.574,498.997C217.828,526.828,213.777,550.886,216.004,578.764C217.267,597.719,216.659,616.971,225.255,633.618C235.243,652.629,253.121,654.074,277.916,651.463C294.563,649.780,324.464,651.434,331.387,622.028C336.402,600.670,325.384,573.703,321.357,567.458C317.844,562.011,311.895,557.717,309.375,551.244C301.830,533.681,306.977,513.177,305.612,493.999C304.060,471.920,311.050,415.703,293.366,400.428Z"/>
<path fill="none" stroke="#392966" stroke-width="1" stroke-linecap="butt" stroke-linejoin="round" d="M260.311,406.705C266.927,406.656,282.290,403.160,287.248,407.734"/>
<path fill="none" stroke="#392966" stroke-width="1" stroke-linecap="butt" stroke-linejoin="round" d="M287.248,407.734C292.898,412.609,289.948,433.522,289.703,440.696"/>
<path fill="none" stroke="#392966" stroke-width="1" stroke-linecap="butt" stroke-linejoin="round" d="M289.703,440.696C288.042,467.116,292.492,491.941,294.481,517.426"/>
<path fill="none" stroke="#392966" stroke-width="1" stroke-linecap="butt" stroke-linejoin="round" d="M294.481,517.426C295.318,532.903,293.517,549.473,298.024,563.987"/>
<path fill="none" stroke="#392966" stroke-width="1" stroke-linecap="butt" stroke-linejoin="round" d="M298.024,563.987C301.099,572.603,310.127,578.632,313.616,586.521"/>
<path fill="none" stroke="#392966" stroke-width="1" stroke-linecap="butt" stroke-linejoin="round" d="M313.616,586.521C316.322,597.496,321.959,610.271,315.278,618.344"/>
<path fill="none" stroke="#392966" stroke-width="1" stroke-linecap="butt" stroke-linejoin="round" d="M315.278,618.344C302.565,631.888,297.507,625.862,286.270,632.814"/>
<path fill="none" stroke="#392966" stroke-width="1" stroke-linecap="butt" stroke-linejoin="round" d="M286.270,632.814C275.955,638.767,257.953,638.906,248.926,632.950"/>
<path fill="none" stroke="#392966" stroke-width="1" stroke-linecap="butt" stroke-linejoin="round" d="M248.926,632.950C242.761,629.173,233.983,618.176,232.832,611.137"/>
<path fill="none" stroke="#392966" stroke-width="1" stroke-linecap="butt" stroke-linejoin="round" d="M232.832,611.137C227.650,579.454,231.438,542.466,232.486,510.995"/>
<path fill="none" stroke="#392966" stroke-width="1" stroke-linecap="butt" stroke-linejoin="round" d="M232.486,510.995C233.044,494.276,246.306,460.025,242.588,442.464"/>
<path fill="none" stroke="#392966" stroke-width="1" stroke-linecap="butt" stroke-linejoin="round" d="M242.588,442.464C240.967,434.807,240.649,432.215,244.889,427.268"/>
<path fill="none" stroke="#392966" stroke-width="1" stroke-linecap="butt" stroke-linejoin="round" d="M244.889,427.268C245.964,426.011,243.105,420.796,242.872,419.135"/>
<path fill="none" stroke="#392966" stroke-width="1" stroke-linecap="butt" stroke-linejoin="round" d="M242.872,419.135C242.190,416.077,243.960,410.470,245.219,407.679"/>
<path fill="none" stroke="#392966" stroke-width="1" stroke-linecap="butt" stroke-linejoin="round" d="M245.219,407.679C246.997,403.085,256.437,406.922,260.311,406.705"/>
<path fill="#392966" fill-rule="evenodd" stroke="none" d="M260.311,406.705C266.927,406.656,282.290,403.160,287.248,407.734C292.898,412.609,289.948,433.522,289.703,440.696C288.042,467.116,292.492,491.941,294.481,517.426C295.318,532.903,293.517,549.473,298.024,563.987C301.099,572.603,310.127,578.632,313.616,586.521C316.322,597.496,321.959,610.271,315.278,618.344C302.565,631.888,297.507,625.862,286.270,632.814C275.955,638.767,257.953,638.906,248.926,632.950C242.761,629.173,233.983,618.176,232.832,611.137C227.650,579.454,231.438,542.466,232.486,510.995C233.044,494.276,246.306,460.025,242.588,442.464C240.967,434.807,240.649,432.215,244.889,427.268C245.964,426.011,243.105,420.796,242.872,419.135C242.190,416.077,243.960,410.470,245.219,407.679C246.997,403.085,256.437,406.922,260.311,406.705Z"/>
<path fill="#000000" fill-rule="evenodd" stroke="none" d="M246.775,672.747C217.189,660.445,239.024,616.323,260.328,614.604C284.667,612.634,305.453,622.755,310.355,633.130C316.005,644.367,315.262,657.081,307.804,667.568C295.749,681.849,262.219,679.148,246.775,672.747M322.097,631.795C313.410,610.365,291.860,596.157,271.905,597.117C246.783,598.325,226.803,611.258,221.698,636.743C218.117,651.967,220.169,667.443,229.825,679.746C238.283,689.858,267.499,691.628,280.085,691.090C291.951,689.760,307.293,688.230,315.657,678.437C322.795,670.324,326.070,641.583,322.097,631.795Z"/>
<path fill="none" stroke="#d88e4b" stroke-width="1" stroke-linecap="butt" stroke-linejoin="round" d="M260.328,614.604C284.667,612.634,305.453,622.755,310.355,633.130"/>
<path fill="none" stroke="#d88e4b" stroke-width="1" stroke-linecap="butt" stroke-linejoin="round" d="M310.355,633.130C316.005,644.367,315.262,657.081,307.804,667.568"/>
<path fill="none" stroke="#d88e4b" stroke-width="1" stroke-linecap="butt" stroke-linejoin="round" d="M307.804,667.568C295.749,681.849,262.219,679.148,246.775,672.747"/>
<path fill="none" stroke="#d88e4b" stroke-width="1" stroke-linecap="butt" stroke-linejoin="round" d="M246.775,672.747C217.189,660.445,239.024,616.323,260.328,614.604"/>
<path fill="#d88e4b" fill-rule="evenodd" stroke="none" d="M260.328,614.604C284.667,612.634,305.453,622.755,310.355,633.130C316.005,644.367,315.262,657.081,307.804,667.568C295.749,681.849,262.219,679.148,246.775,672.747C217.189,660.445,239.024,616.323,260.328,614.604Z"/>
<path fill="#000000" fill-rule="evenodd" stroke="none" d="M252.647,691.624C245.991,690.259,241.964,689.085,242.523,687.709C243.351,685.672,250.103,689.468,253.973,689.755C262.643,690.579,282.016,693.624,293.048,689.867C294.380,689.530,298.541,689.066,298.632,689.126C302.820,691.893,290.014,692.698,287.106,693.040C281.600,694.060,253.757,691.407,252.647,691.624M240.090,680.171C241.321,676.967,251.034,674.520,254.182,674.104C278.896,670.841,286.408,675.173,293.341,676.514C296.741,677.175,306.360,675.833,306.376,681.447C306.399,689.791,278.084,686.669,257.811,684.005C248.363,682.935,239.202,682.484,240.090,680.171M316.166,681.141C314.584,673.204,292.642,661.546,265.972,662.048C256.260,662.236,232.520,668.135,229.838,680.763C229.260,683.517,231.257,692.044,233.684,693.355C244.883,699.429,307.410,698.058,312.731,692.439C314.568,690.499,316.505,682.840,316.166,681.141Z"/>
<path fill="none" stroke="#6e2353" stroke-width="1" stroke-linecap="butt" stroke-linejoin="round" d="M242.523,687.709C243.351,685.672,250.103,689.468,253.973,689.755"/>
<path fill="none" stroke="#6e2353" stroke-width="1" stroke-linecap="butt" stroke-linejoin="round" d="M253.973,689.755C262.643,690.579,282.016,693.624,293.048,689.867"/>
<path fill="none" stroke="#6e2353" stroke-width="1" stroke-linecap="butt" stroke-linejoin="round" d="M293.048,689.867C294.380,689.530,298.541,689.066,298.632,689.126"/>
<path fill="none" stroke="#6e2353" stroke-width="1" stroke-linecap="butt" stroke-linejoin="round" d="M298.632,689.126C302.820,691.893,290.014,692.698,287.106,693.040"/>
<path fill="none" stroke="#6e2353" stroke-width="1" stroke-linecap="butt" stroke-linejoin="round" d="M287.106,693.040C281.600,694.060,253.757,691.407,252.647,691.624"/>
<path fill="none" stroke="#6e2353" stroke-width="1" stroke-linecap="butt" stroke-linejoin="round" d="M252.647,691.624C245.991,690.259,241.964,689.085,242.523,687.709"/>
<path fill="#6e2353" fill-rule="evenodd" stroke="none" d="M242.523,687.709C243.351,685.672,250.103,689.468,253.973,689.755C262.643,690.579,282.016,693.624,293.048,689.867C294.380,689.530,298.541,689.066,298.632,689.126C302.820,691.893,290.014,692.698,287.106,693.040C281.600,694.060,253.757,691.407,252.647,691.624C245.991,690.259,241.964,689.085,242.523,687.709Z"/>
<path fill="none" stroke="#6e2353" stroke-width="1" stroke-linecap="butt" stroke-linejoin="round" d="M254.182,674.104C278.896,670.841,286.408,675.173,293.341,676.514"/>
<path fill="none" stroke="#6e2353" stroke-width="1" stroke-linecap="butt" stroke-linejoin="round" d="M293.341,676.514C296.741,677.175,306.360,675.833,306.376,681.447"/>
<path fill="none" stroke="#6e2353" stroke-width="1" stroke-linecap="butt" stroke-linejoin="round" d="M306.376,681.447C306.399,689.791,278.084,686.669,257.811,684.005"/>
<path fill="none" stroke="#6e2353" stroke-width="1" stroke-linecap="butt" stroke-linejoin="round" d="M257.811,684.005C248.363,682.935,239.202,682.484,240.090,680.171"/>
<path fill="none" stroke="#6e2353" stroke-width="1" stroke-linecap="butt" stroke-linejoin="round" d="M240.090,680.171C241.321,676.967,251.034,674.520,254.182,674.104"/>
<path fill="#6e2353" fill-rule="evenodd" stroke="none" d="M254.182,674.104C278.896,670.841,286.408,675.173,293.341,676.514C296.741,677.175,306.360,675.833,306.376,681.447C306.399,689.791,278.084,686.669,257.811,684.005C248.363,682.935,239.202,682.484,240.090,680.171C241.321,676.967,251.034,674.520,254.182,674.104Z"/>
</g>
<path fill="#000000" fill-rule="evenodd" stroke="none" d="M301.089,150.752C304.643,144.700,313.339,128.243,321.323,128.103C326.646,128.010,337.792,137.466,343.498,140.361C348.540,143.267,353.910,145.835,359.611,148.397C362.852,150.010,366.096,151.617,369.344,153.217C383.777,160.286,379.895,166.678,371.555,165.491C352.870,162.489,349.899,163.873,331.773,154.873C329.427,153.916,323.381,150.695,322.459,155.036C321.217,160.049,330.274,164.217,333.962,165.815C340.678,169.359,348.066,173.223,356.061,173.748C358.396,174.041,366.368,173.234,367.738,175.540C369.792,178.832,360.297,187.649,358.337,189.680C355.062,192.732,351.789,195.784,348.503,198.171C343.571,201.584,338.301,204.671,332.664,205.767C322.043,207.285,288.510,192.564,287.309,180.940C286.528,174.299,297.208,157.142,301.089,150.752M333.223,123.570C328.157,119.333,324.388,113.076,317.127,116.531C311.845,118.953,306.325,126.703,302.736,130.758C289.387,147.629,277.424,167.471,278.467,189.081C279.039,202.712,283.689,202.300,294.760,207.429C311.537,215.455,332.873,217.743,350.691,209.114C362.239,203.587,382.218,185.270,387.331,173.201C388.924,169.180,391.760,160.147,389.349,155.531C386.590,149.921,364.133,140.665,357.417,137.123C349.358,132.938,340.307,129.103,333.223,123.570Z"/>
<path fill="none" stroke="#cc9bc5" stroke-width="1" stroke-linecap="butt" stroke-linejoin="round" d="M321.323,128.103C326.646,128.010,337.792,137.466,343.498,140.361"/>
<path fill="none" stroke="#cc9bc5" stroke-width="1" stroke-linecap="butt" stroke-linejoin="round" d="M343.498,140.361C348.540,143.267,353.910,145.835,359.611,148.397"/>
<path fill="none" stroke="#cc9bc5" stroke-width="1" stroke-linecap="butt" stroke-linejoin="round" d="M359.611,148.397C362.852,150.010,366.096,151.617,369.344,153.217"/>
<path fill="none" stroke="#cc9bc5" stroke-width="1" stroke-linecap="butt" stroke-linejoin="round" d="M369.344,153.217C383.777,160.286,379.895,166.678,371.555,165.491"/>
<path fill="none" stroke="#cc9bc5" stroke-width="1" stroke-linecap="butt" stroke-linejoin="round" d="M371.555,165.491C352.870,162.489,349.899,163.873,331.773,154.873"/>
<path fill="none" stroke="#cc9bc5" stroke-width="1" stroke-linecap="butt" stroke-linejoin="round" d="M331.773,154.873C329.427,153.916,323.381,150.695,322.459,155.036"/>
<path fill="none" stroke="#cc9bc5" stroke-width="1" stroke-linecap="butt" stroke-linejoin="round" d="M322.459,155.036C321.217,160.049,330.274,164.217,333.962,165.815"/>
<path fill="none" stroke="#cc9bc5" stroke-width="1" stroke-linecap="butt" stroke-linejoin="round" d="M333.962,165.815C340.678,169.359,348.066,173.223,356.061,173.748"/>
<path fill="none" stroke="#cc9bc5" stroke-width="1" stroke-linecap="butt" stroke-linejoin="round" d="M356.061,173.748C358.396,174.041,366.368,173.234,367.738,175.540"/>
<path fill="none" stroke="#cc9bc5" stroke-width="1" stroke-linecap="butt" stroke-linejoin="round" d="M367.738,175.540C369.792,178.832,360.297,187.649,358.337,189.680"/>
<path fill="none" stroke="#cc9bc5" stroke-width="1" stroke-linecap="butt" stroke-linejoin="round" d="M358.337,189.680C355.062,192.732,351.789,195.784,348.503,198.171"/>
<path fill="none" stroke="#cc9bc5" stroke-width="1" stroke-linecap="butt" stroke-linejoin="round" d="M348.503,198.171C343.571,201.584,338.301,204.671,332.664,205.767"/>
<path fill="none" stroke="#cc9bc5" stroke-width="1" stroke-linecap="butt" stroke-linejoin="round" d="M332.664,205.767C322.043,207.285,288.510,192.564,287.309,180.940"/>
<path fill="none" stroke="#cc9bc5" stroke-width="1" stroke-linecap="butt" stroke-linejoin="round" d="M287.309,180.940C286.528,174.299,297.208,157.142,301.089,150.752"/>
<path fill="none" stroke="#cc9bc5" stroke-width="1" stroke-linecap="butt" stroke-linejoin="round" d="M301.089,150.752C304.643,144.700,313.339,128.243,321.323,128.103"/>
<path fill="#cc9bc5" fill-rule="evenodd" stroke="none" d="M321.323,128.103C326.646,128.010,337.792,137.466,343.498,140.361C348.540,143.267,353.910,145.835,359.611,148.397C362.852,150.010,366.096,151.617,369.344,153.217C383.777,160.286,379.895,166.678,371.555,165.491C352.870,162.489,349.899,163.873,331.773,154.873C329.427,153.916,323.381,150.695,322.459,155.036C321.217,160.049,330.274,164.217,333.962,165.815C340.678,169.359,348.066,173.223,356.061,173.748C358.396,174.041,366.368,173.234,367.738,175.540C369.792,178.832,360.297,187.649,358.337,189.680C355.062,192.732,351.789,195.784,348.503,198.171C343.571,201.584,338.301,204.671,332.664,205.767C322.043,207.285,288.510,192.564,287.309,180.940C286.528,174.299,297.208,157.142,301.089,150.752C304.643,144.700,313.339,128.243,321.323,128.103Z"/>
<path fill="#000000" fill-rule="evenodd" stroke="none" d="M198.243,144.354C214.372,130.671,234.082,127.435,254.953,124.324C264.307,122.910,271.445,128.602,279.313,134.088C285.810,138.941,292.825,144.442,299.718,149.527C310.088,157.121,314.511,161.018,318.479,164.768C321.833,167.612,327.153,173.023,331.215,175.432C336.116,178.337,347.062,194.373,349.297,196.078C342.941,199.016,332.755,201.779,328.410,206.115C330.680,211.730,331.994,220.669,332.295,223.362C326.170,224.456,318.693,222.439,307.078,221.598C305.533,228.991,306.270,235.680,302.380,243.435C294.466,241.930,288.928,240.627,278.539,237.282C272.563,243.159,270.988,242.919,261.058,250.553C253.537,247.004,247.419,243.013,240.236,240.929C233.813,244.532,223.247,246.698,219.942,250.000C215.401,243.413,211.085,236.063,207.487,233.059C198.160,236.045,194.353,239.099,187.881,242.276C183.094,237.248,185.601,232.404,180.077,224.850C175.647,224.152,168.716,222.268,163.176,222.756C166.514,217.881,167.750,202.917,174.012,200.363C181.738,197.213,175.718,188.673,179.741,179.995C180.727,177.743,190.683,160.247,191.447,157.480C192.943,152.691,194.597,147.600,198.243,144.354M282.546,121.044C269.369,112.983,244.269,110.535,230.816,115.236C218.452,119.399,206.466,124.719,196.231,133.034C190.493,137.630,184.302,144.162,180.860,150.670C173.948,163.334,164.904,190.391,159.533,203.047C155.274,213.523,151.020,220.744,146.478,226.666C164.676,231.196,170.070,233.296,175.373,233.542C176.515,241.219,184.237,246.190,183.907,254.831C192.529,252.605,197.509,249.835,205.092,247.068C209.539,251.277,212.937,257.278,217.370,263.044C224.823,260.148,232.701,259.609,239.724,253.381C245.538,255.797,254.762,259.529,264.254,263.508C272.044,258.241,273.786,257.803,281.001,251.961C290.673,253.289,301.191,258.083,310.580,256.071C309.051,248.001,314.485,241.774,313.230,236.626C320.190,233.954,342.467,234.823,346.180,234.108C345.320,228.118,340.796,216.956,341.599,209.627C348.180,207.112,353.732,204.870,363.774,198.681C359.616,192.388,352.546,184.776,346.590,180.423C341.568,176.788,337.257,171.726,332.213,167.919C315.132,155.244,306.927,136.038,282.546,121.044Z"/>
<path fill="none" stroke="#620527" stroke-width="1" stroke-linecap="butt" stroke-linejoin="round" d="M254.953,124.324C264.307,122.910,271.445,128.602,279.313,134.088"/>
<path fill="none" stroke="#620527" stroke-width="1" stroke-linecap="butt" stroke-linejoin="round" d="M279.313,134.088C285.810,138.941,292.825,144.442,299.718,149.527"/>
<path fill="none" stroke="#620527" stroke-width="1" stroke-linecap="butt" stroke-linejoin="round" d="M299.718,149.527C310.088,157.121,314.511,161.018,318.479,164.768"/>
<path fill="none" stroke="#620527" stroke-width="1" stroke-linecap="butt" stroke-linejoin="round" d="M318.479,164.768C321.833,167.612,327.153,173.023,331.215,175.432"/>
<path fill="none" stroke="#620527" stroke-width="1" stroke-linecap="butt" stroke-linejoin="round" d="M331.215,175.432C336.116,178.337,347.062,194.373,349.297,196.078"/>
<path fill="none" stroke="#620527" stroke-width="1" stroke-linecap="butt" stroke-linejoin="round" d="M349.297,196.078C342.941,199.016,332.755,201.779,328.410,206.115"/>
<path fill="none" stroke="#620527" stroke-width="1" stroke-linecap="butt" stroke-linejoin="round" d="M328.410,206.115C330.680,211.730,331.994,220.669,332.295,223.362"/>
<path fill="none" stroke="#620527" stroke-width="1" stroke-linecap="butt" stroke-linejoin="round" d="M332.295,223.362C326.170,224.456,318.693,222.439,307.078,221.598"/>
<path fill="none" stroke="#620527" stroke-width="1" stroke-linecap="butt" stroke-linejoin="round" d="M307.078,221.598C305.533,228.991,306.270,235.680,302.380,243.435"/>
<path fill="none" stroke="#620527" stroke-width="1" stroke-linecap="butt" stroke-linejoin="round" d="M302.380,243.435C294.466,241.930,288.928,240.627,278.539,237.282"/>
<path fill="none" stroke="#620527" stroke-width="1" stroke-linecap="butt" stroke-linejoin="round" d="M278.539,237.282C272.563,243.159,270.988,242.919,261.058,250.553"/>
<path fill="none" stroke="#620527" stroke-width="1" stroke-linecap="butt" stroke-linejoin="round" d="M261.058,250.553C253.537,247.004,247.419,243.013,240.236,240.929"/>
<path fill="none" stroke="#620527" stroke-width="1" stroke-linecap="butt" stroke-linejoin="round" d="M240.236,240.929C233.813,244.532,223.247,246.698,219.942,250.000"/>
<path fill="none" stroke="#620527" stroke-width="1" stroke-linecap="butt" stroke-linejoin="round" d="M219.942,250.000C215.401,243.413,211.085,236.063,207.487,233.059"/>
<path fill="none" stroke="#620527" stroke-width="1" stroke-linecap="butt" stroke-linejoin="round" d="M207.487,233.059C198.160,236.045,194.353,239.099,187.881,242.276"/>
<path fill="none" stroke="#620527" stroke-width="1" stroke-linecap="butt" stroke-linejoin="round" d="M187.881,242.276C183.094,237.248,185.601,232.404,180.077,224.850"/>
<path fill="none" stroke="#620527" stroke-width="1" stroke-linecap="butt" stroke-linejoin="round" d="M180.077,224.850C175.647,224.152,168.716,222.268,163.176,222.756"/>
<path fill="none" stroke="#620527" stroke-width="1" stroke-linecap="butt" stroke-linejoin="round" d="M163.176,222.756C166.514,217.881,167.750,202.917,174.012,200.363"/>
<path fill="none" stroke="#620527" stroke-width="1" stroke-linecap="butt" stroke-linejoin="round" d="M174.012,200.363C181.738,197.213,175.718,188.673,179.741,179.995"/>
<path fill="none" stroke="#620527" stroke-width="1" stroke-linecap="butt" stroke-linejoin="round" d="M179.741,179.995C180.727,177.743,190.683,160.247,191.447,157.480"/>
<path fill="none" stroke="#620527" stroke-width="1" stroke-linecap="butt" stroke-linejoin="round" d="M191.447,157.480C192.943,152.691,194.597,147.600,198.243,144.354"/>
<path fill="none" stroke="#620527" stroke-width="1" stroke-linecap="butt" stroke-linejoin="round" d="M198.243,144.354C214.372,130.671,234.082,127.435,254.953,124.324"/>
<path fill="#620527" fill-rule="evenodd" stroke="none" d="M254.953,124.324C264.307,122.910,271.445,128.602,279.313,134.088C285.810,138.941,292.825,144.442,299.718,149.527C310.088,157.121,314.511,161.018,318.479,164.768C321.833,167.612,327.153,173.023,331.215,175.432C336.116,178.337,347.062,194.373,349.297,196.078C342.941,199.016,332.755,201.779,328.410,206.115C330.680,211.730,331.994,220.669,332.295,223.362C326.170,224.456,318.693,222.439,307.078,221.598C305.533,228.991,306.270,235.680,302.380,243.435C294.466,241.930,288.928,240.627,278.539,237.282C272.563,243.159,270.988,242.919,261.058,250.553C253.537,247.004,247.419,243.013,240.236,240.929C233.813,244.532,223.247,246.698,219.942,250.000C215.401,243.413,211.085,236.063,207.487,233.059C198.160,236.045,194.353,239.099,187.881,242.276C183.094,237.248,185.601,232.404,180.077,224.850C175.647,224.152,168.716,222.268,163.176,222.756C166.514,217.881,167.750,202.917,174.012,200.363C181.738,197.213,175.718,188.673,179.741,179.995C180.727,177.743,190.683,160.247,191.447,157.480C192.943,152.691,194.597,147.600,198.243,144.354C214.372,130.671,234.082,127.435,254.953,124.324Z"/>
<path fill="#000000" fill-rule="evenodd" stroke="none" d="M254.722,368.401C249.329,366.309,229.094,368.459,225.488,373.257C223.362,376.271,226.357,378.104,229.560,378.337C233.676,378.637,255.249,377.118,258.118,375.416C262.485,372.756,256.872,369.128,254.722,368.401M210.763,264.731C214.841,252.440,242.788,241.998,255.580,244.147C264.506,245.619,291.538,262.146,294.775,270.828C297.494,277.778,296.256,302.471,295.808,310.811C294.706,326.082,294.445,341.448,293.709,356.740C293.707,369.506,302.336,384.358,295.278,394.995C292.152,398.579,280.608,397.591,275.386,397.910C270.468,398.446,260.860,400.369,256.312,400.112C234.538,399.477,236.952,405.528,216.524,405.264C212.262,405.047,198.667,402.319,196.115,400.173C190.161,393.862,194.123,384.800,196.215,376.711C200.389,362.913,201.921,353.175,204.294,338.071C206.685,322.180,210.185,305.262,211.683,288.720C211.890,282.759,209.786,268.297,210.763,264.731M290.839,253.340C275.416,242.243,260.160,232.856,240.050,236.773C234.640,237.627,207.026,248.175,204.428,251.287C200.365,256.239,202.373,276.604,201.738,283.834C201.314,292.444,200.787,301.382,199.348,309.567C198.424,315.824,196.553,321.320,195.981,327.276C195.014,333.862,194.374,341.009,192.747,347.003C187.831,364.622,174.068,399.539,194.829,412.630C199.305,415.476,205.888,415.684,211.482,415.980C221.335,416.313,231.960,416.566,241.835,414.938C253.589,413.332,264.533,406.867,276.541,406.758C282.552,406.705,299.904,416.416,305.118,412.791C307.577,411.163,311.059,398.615,311.188,395.285C311.054,380.534,304.381,366.386,303.564,351.657C303.234,339.678,303.538,327.921,305.352,315.725C306.622,305.782,309.178,296.292,310.096,285.980C310.148,281.609,311.260,276.329,309.305,271.782C306.015,263.441,297.775,258.321,290.839,253.340Z"/>
<path fill="none" stroke="#6a3661" stroke-width="1" stroke-linecap="butt" stroke-linejoin="round" d="M254.722,368.401C249.329,366.309,229.094,368.459,225.488,373.257"/>
<path fill="none" stroke="#6a3661" stroke-width="1" stroke-linecap="butt" stroke-linejoin="round" d="M225.488,373.257C223.362,376.271,226.357,378.104,229.560,378.337"/>
<path fill="none" stroke="#6a3661" stroke-width="1" stroke-linecap="butt" stroke-linejoin="round" d="M229.560,378.337C233.676,378.637,255.249,377.118,258.118,375.416"/>
<path fill="none" stroke="#6a3661" stroke-width="1" stroke-linecap="butt" stroke-linejoin="round" d="M258.118,375.416C262.485,372.756,256.872,369.128,254.722,368.401"/>
<path fill="none" stroke="#6a3661" stroke-width="1" stroke-linecap="butt" stroke-linejoin="round" d="M210.763,264.731C214.841,252.440,242.788,241.998,255.580,244.147"/>
<path fill="none" stroke="#6a3661" stroke-width="1" stroke-linecap="butt" stroke-linejoin="round" d="M255.580,244.147C264.506,245.619,291.538,262.146,294.775,270.828"/>
<path fill="none" stroke="#6a3661" stroke-width="1" stroke-linecap="butt" stroke-linejoin="round" d="M294.775,270.828C297.494,277.778,296.256,302.471,295.808,310.811"/>
<path fill="none" stroke="#6a3661" stroke-width="1" stroke-linecap="butt" stroke-linejoin="round" d="M295.808,310.811C294.706,326.082,294.445,341.448,293.709,356.740"/>
<path fill="none" stroke="#6a3661" stroke-width="1" stroke-linecap="butt" stroke-linejoin="round" d="M293.709,356.740C293.707,369.506,302.336,384.358,295.278,394.995"/>
<path fill="none" stroke="#6a3661" stroke-width="1" stroke-linecap="butt" stroke-linejoin="round" d="M295.278,394.995C292.152,398.579,280.608,397.591,275.386,397.910"/>
<path fill="none" stroke="#6a3661" stroke-width="1" stroke-linecap="butt" stroke-linejoin="round" d="M275.386,397.910C270.468,398.446,260.860,400.369,256.312,400.112"/>
<path fill="none" stroke="#6a3661" stroke-width="1" stroke-linecap="butt" stroke-linejoin="round" d="M256.312,400.112C234.538,399.477,236.952,405.528,216.524,405.264"/>
<path fill="none" stroke="#6a3661" stroke-width="1" stroke-linecap="butt" stroke-linejoin="round" d="M216.524,405.264C212.262,405.047,198.667,402.319,196.115,400.173"/>
<path fill="none" stroke="#6a3661" stroke-width="1" stroke-linecap="butt" stroke-linejoin="round" d="M196.115,400.173C190.161,393.862,194.123,384.800,196.215,376.711"/>
<path fill="none" stroke="#6a3661" stroke-width="1" stroke-linecap="butt" stroke-linejoin="round" d="M196.215,376.711C200.389,362.913,201.921,353.175,204.294,338.071"/>
<path fill="none" stroke="#6a3661" stroke-width="1" stroke-linecap="butt" stroke-linejoin="round" d="M204.294,338.071C206.685,322.180,210.185,305.262,211.683,288.720"/>
<path fill="none" stroke="#6a3661" stroke-width="1" stroke-linecap="butt" stroke-linejoin="round" d="M211.683,288.720C211.890,282.759,209.786,268.297,210.763,264.731"/>
<path fill="#6a3661" fill-rule="evenodd" stroke="none" d="M254.722,368.401C249.329,366.309,229.094,368.459,225.488,373.257C223.362,376.271,226.357,378.104,229.560,378.337C233.676,378.637,255.249,377.118,258.118,375.416C262.485,372.756,256.872,369.128,254.722,368.401M210.763,264.731C214.841,252.440,242.788,241.998,255.580,244.147C264.506,245.619,291.538,262.146,294.775,270.828C297.494,277.778,296.256,302.471,295.808,310.811C294.706,326.082,294.445,341.448,293.709,356.740C293.707,369.506,302.336,384.358,295.278,394.995C292.152,398.579,280.608,397.591,275.386,397.910C270.468,398.446,260.860,400.369,256.312,400.112C234.538,399.477,236.952,405.528,216.524,405.264C212.262,405.047,198.667,402.319,196.115,400.173C190.161,393.862,194.123,384.800,196.215,376.711C200.389,362.913,201.921,353.175,204.294,338.071C206.685,322.180,210.185,305.262,211.683,288.720C211.890,282.759,209.786,268.297,210.763,264.731Z"/>
<path fill="#000000" fill-rule="evenodd" stroke="none" d="M247.429,225.315C247.657,221.979,248.560,218.954,252.206,218.505C263.781,216.143,263.972,253.751,253.332,254.087C243.356,254.403,246.964,231.653,247.429,225.315M251.912,209.196C249.242,208.947,246.270,209.706,243.984,211.111C234.820,216.060,236.423,224.664,236.697,233.310C236.500,237.644,236.960,241.624,235.081,245.344C233.524,248.723,228.972,252.194,229.088,255.853C229.736,265.819,256.672,264.966,263.645,264.412C266.304,264.328,275.314,265.042,276.195,261.353C276.164,260.355,269.146,248.926,268.001,244.303C264.567,230.431,273.226,209.520,251.912,209.196Z"/>
<path fill="none" stroke="#f8a087" stroke-width="1" stroke-linecap="butt" stroke-linejoin="round" d="M252.206,218.505C263.781,216.143,263.972,253.751,253.332,254.087"/>
<path fill="none" stroke="#f8a087" stroke-width="1" stroke-linecap="butt" stroke-linejoin="round" d="M253.332,254.087C243.356,254.403,246.964,231.653,247.429,225.315"/>
<path fill="none" stroke="#f8a087" stroke-width="1" stroke-linecap="butt" stroke-linejoin="round" d="M247.429,225.315C247.657,221.979,248.560,218.954,252.206,218.505"/>
<path fill="#f8a087" fill-rule="evenodd" stroke="none" d="M252.206,218.505C263.781,216.143,263.972,253.751,253.332,254.087C243.356,254.403,246.964,231.653,247.429,225.315C247.657,221.979,248.560,218.954,252.206,218.505Z"/>
<g id="layer_head">
<path fill="#000000" fill-rule="evenodd" stroke="none" d="M167.078,197.675C152.869,198.953,137.166,164.281,158.214,165.669C161.832,165.907,164.783,171.985,165.435,174.670C167.692,183.926,177.170,196.772,167.078,197.675M163.498,153.964C160.134,152.041,156.038,151.439,152.518,153.059C141.771,156.058,136.335,168.942,138.446,179.957C140.961,192.359,154.982,205.919,166.560,207.990C169.615,208.552,175.931,210.539,178.801,208.947C185.360,204.759,178.485,194.622,176.412,188.878C174.319,182.654,168.356,157.969,163.498,153.964Z"/>
<path fill="none" stroke="#f8a087" stroke-width="1" stroke-linecap="butt" stroke-linejoin="round" d="M158.214,165.669C161.832,165.907,164.783,171.985,165.435,174.670"/>
<path fill="none" stroke="#f8a087" stroke-width="1" stroke-linecap="butt" stroke-linejoin="round" d="M165.435,174.670C167.692,183.926,177.170,196.772,167.078,197.675"/>
<path fill="none" stroke="#f8a087" stroke-width="1" stroke-linecap="butt" stroke-linejoin="round" d="M167.078,197.675C152.869,198.953,137.166,164.281,158.214,165.669"/>
<path fill="#f8a087" fill-rule="evenodd" stroke="none" d="M158.214,165.669C161.832,165.907,164.783,171.985,165.435,174.670C167.692,183.926,177.170,196.772,167.078,197.675C152.869,198.953,137.166,164.281,158.214,165.669Z"/>
<g id="face_Mask">
<path fill="#000000" fill-rule="evenodd" stroke="none" d="M180.874,108.615C189.177,98.020,221.815,90.263,235.418,88.028C250.685,85.765,266.359,87.820,281.410,92.215C286.762,93.786,294.457,95.635,299.167,99.225C307.211,105.403,312.369,116.606,315.387,125.872C317.768,132.589,322.047,141.573,320.345,148.089C312.685,177.413,308.699,190.883,303.035,199.154C296.000,209.427,282.976,213.462,271.647,218.367C259.613,223.373,247.331,225.473,240.923,225.242C228.492,224.792,201.665,218.859,192.427,211.346C181.826,202.392,180.480,188.637,176.173,176.064C173.562,169.149,169.360,158.727,167.931,151.626C165.888,140.583,174.040,117.258,180.874,108.615M303.050,91.480C289.230,79.489,252.910,77.324,235.325,80.276C227.024,81.411,219.051,82.209,211.434,84.334C205.804,86.094,200.856,88.840,195.558,90.596C183.990,95.123,179.153,93.769,171.513,104.669C166.022,112.301,157.803,142.135,158.889,151.315C159.822,158.182,167.064,173.459,169.523,181.143C172.682,191.214,175.328,205.642,181.893,213.426C189.059,221.678,198.695,225.987,213.484,229.955C224.993,233.043,237.729,234.192,250.000,234.295C254.935,234.639,264.063,231.627,277.146,225.717C289.037,220.165,302.073,215.284,310.077,203.789C319.477,190.288,323.264,168.708,330.903,146.601C337.362,127.909,311.651,98.781,303.050,91.480Z"/>
<path fill="none" stroke="#f8a087" stroke-width="1" stroke-linecap="butt" stroke-linejoin="round" d="M235.418,88.028C250.685,85.765,266.359,87.820,281.410,92.215"/>
<path fill="none" stroke="#f8a087" stroke-width="1" stroke-linecap="butt" stroke-linejoin="round" d="M281.410,92.215C286.762,93.786,294.457,95.635,299.167,99.225"/>
<path fill="none" stroke="#f8a087" stroke-width="1" stroke-linecap="butt" stroke-linejoin="round" d="M299.167,99.225C307.211,105.403,312.369,116.606,315.387,125.872"/>
<path fill="none" stroke="#f8a087" stroke-width="1" stroke-linecap="butt" stroke-linejoin="round" d="M315.387,125.872C317.768,132.589,322.047,141.573,320.345,148.089"/>
<path fill="none" stroke="#f8a087" stroke-width="1" stroke-linecap="butt" stroke-linejoin="round" d="M320.345,148.089C312.685,177.413,308.699,190.883,303.035,199.154"/>
<path fill="none" stroke="#f8a087" stroke-width="1" stroke-linecap="butt" stroke-linejoin="round" d="M303.035,199.154C296.000,209.427,282.976,213.462,271.647,218.367"/>
<path fill="none" stroke="#f8a087" stroke-width="1" stroke-linecap="butt" stroke-linejoin="round" d="M271.647,218.367C259.613,223.373,247.331,225.473,240.923,225.242"/>
<path fill="none" stroke="#f8a087" stroke-width="1" stroke-linecap="butt" stroke-linejoin="round" d="M240.923,225.242C228.492,224.792,201.665,218.859,192.427,211.346"/>
<path fill="none" stroke="#f8a087" stroke-width="1" stroke-linecap="butt" stroke-linejoin="round" d="M192.427,211.346C181.826,202.392,180.480,188.637,176.173,176.064"/>
<path fill="none" stroke="#f8a087" stroke-width="1" stroke-linecap="butt" stroke-linejoin="round" d="M176.173,176.064C173.562,169.149,169.360,158.727,167.931,151.626"/>
<path fill="none" stroke="#f8a087" stroke-width="1" stroke-linecap="butt" stroke-linejoin="round" d="M167.931,151.626C165.888,140.583,174.040,117.258,180.874,108.615"/>
<path fill="none" stroke="#f8a087" stroke-width="1" stroke-linecap="butt" stroke-linejoin="round" d="M180.874,108.615C189.177,98.020,221.815,90.263,235.418,88.028"/>
<path fill="#f8a087" fill-rule="evenodd" stroke="none" d="M235.418,88.028C250.685,85.765,266.359,87.820,281.410,92.215C286.762,93.786,294.457,95.635,299.167,99.225C307.211,105.403,312.369,116.606,315.387,125.872C317.768,132.589,322.047,141.573,320.345,148.089C312.685,177.413,308.699,190.883,303.035,199.154C296.000,209.427,282.976,213.462,271.647,218.367C259.613,223.373,247.331,225.473,240.923,225.242C228.492,224.792,201.665,218.859,192.427,211.346C181.826,202.392,180.480,188.637,176.173,176.064C173.562,169.149,169.360,158.727,167.931,151.626C165.888,140.583,174.040,117.258,180.874,108.615C189.177,98.020,221.815,90.263,235.418,88.028Z"/>
</g>
<mask id="mask_target" style="mask-type:alpha;">
<use xlink:href="#face_Mask"/>
</mask>
<path fill="#000000" fill-rule="evenodd" stroke="none" d="M247.572,216.667C252.794,217.679,252.961,222.430,252.496,222.946C252.234,223.236,251.095,222.305,248.127,221.870C242.506,221.046,239.821,222.266,239.611,221.555C239.381,220.776,241.458,215.481,247.572,216.667Z"/>
<g id="layer_eyes_Mtarget" mask="url(#mask_target)">
<mask style="mask-type:alpha;" id="f3906406-f197-4bf1-91d8-744c09cca836">
<use xlink:href="#cmn_f3906406-f197-4bf1-91d8-744c09cca836"/>
</mask>
<g id="cmn_f3906406-f197-4bf1-91d8-744c09cca836">
<path fill="#000000" fill-rule="evenodd" stroke="none" d="M223.823,177.065C225.816,189.593,217.723,198.079,205.309,195.253C197.935,193.368,194.448,187.892,191.758,181.334C190.160,177.844,182.605,161.825,188.263,163.661C192.777,165.126,223.107,172.559,223.823,177.065M230.576,180.043C231.411,178.516,232.589,176.214,232.286,174.500C231.951,172.606,230.297,169.637,228.356,169.433C223.095,168.762,204.611,162.764,197.917,160.411C191.377,158.263,178.119,150.615,173.883,157.158C172.073,159.826,176.207,160.661,177.680,164.908C184.044,183.261,190.922,200.621,210.523,200.944C227.653,201.226,226.407,187.667,230.576,180.043M273.660,189.185C266.539,189.173,257.014,183.947,256.887,172.851C256.849,169.523,270.226,164.063,276.208,160.746C282.106,157.475,293.331,150.871,296.422,150.905C299.917,151.364,298.237,154.482,298.456,164.111C298.772,177.972,286.613,189.207,273.660,189.185M304.750,170.320C307.566,158.227,307.609,142.074,305.248,141.068C300.199,138.916,287.603,148.493,280.203,152.030C270.552,156.643,255.248,166.277,248.592,168.523C246.652,169.257,244.899,169.832,244.658,171.247C244.183,174.043,249.495,175.780,251.341,177.934C254.579,181.711,255.768,188.652,261.020,191.399C271.075,197.060,278.527,194.783,289.406,189.681C297.748,185.807,302.800,178.691,304.750,170.320Z"/>
<path fill="none" stroke="#ffffff" stroke-width="1" stroke-linecap="butt" stroke-linejoin="round" d="M296.422,150.905C299.917,151.364,298.237,154.482,298.456,164.111"/>
<path fill="none" stroke="#ffffff" stroke-width="1" stroke-linecap="butt" stroke-linejoin="round" d="M298.456,164.111C298.772,177.972,286.613,189.207,273.660,189.185"/>
<path fill="none" stroke="#ffffff" stroke-width="1" stroke-linecap="butt" stroke-linejoin="round" d="M273.660,189.185C266.539,189.173,257.014,183.947,256.887,172.851"/>
<path fill="none" stroke="#ffffff" stroke-width="1" stroke-linecap="butt" stroke-linejoin="round" d="M256.887,172.851C256.849,169.523,270.226,164.063,276.208,160.746"/>
<path fill="none" stroke="#ffffff" stroke-width="1" stroke-linecap="butt" stroke-linejoin="round" d="M276.208,160.746C282.106,157.475,293.331,150.871,296.422,150.905"/>
<path fill="#ffffff" fill-rule="evenodd" stroke="none" d="M296.422,150.905C299.917,151.364,298.237,154.482,298.456,164.111C298.772,177.972,286.613,189.207,273.660,189.185C266.539,189.173,257.014,183.947,256.887,172.851C256.849,169.523,270.226,164.063,276.208,160.746C282.106,157.475,293.331,150.871,296.422,150.905Z"/>
<path fill="none" stroke="#ffffff" stroke-width="1" stroke-linecap="butt" stroke-linejoin="round" d="M188.263,163.661C192.777,165.126,223.107,172.559,223.823,177.065"/>
<path fill="none" stroke="#ffffff" stroke-width="1" stroke-linecap="butt" stroke-linejoin="round" d="M223.823,177.065C225.816,189.593,217.723,198.079,205.309,195.253"/>
<path fill="none" stroke="#ffffff" stroke-width="1" stroke-linecap="butt" stroke-linejoin="round" d="M205.309,195.253C197.935,193.368,194.448,187.892,191.758,181.334"/>
<path fill="none" stroke="#ffffff" stroke-width="1" stroke-linecap="butt" stroke-linejoin="round" d="M191.758,181.334C190.160,177.844,182.605,161.825,188.263,163.661"/>
<path fill="#ffffff" fill-rule="evenodd" stroke="none" d="M188.263,163.661C192.777,165.126,223.107,172.559,223.823,177.065C225.816,189.593,217.723,198.079,205.309,195.253C197.935,193.368,194.448,187.892,191.758,181.334C190.160,177.844,182.605,161.825,188.263,163.661Z"/>
</g>
<path fill="#000000" fill-rule="evenodd" stroke="none" d="M287.084,160.176C289.359,159.566,292.585,162.708,293.568,171.146C294.297,177.397,292.722,179.992,290.993,180.228C289.099,180.487,287.407,177.917,286.005,171.164C284.510,163.957,285.113,160.704,287.084,160.176Z" mask="url(#f3906406-f197-4bf1-91d8-744c09cca836)"/>
<path fill="#000000" fill-rule="evenodd" stroke="none" d="M217.889,171.636C220.094,171.060,222.726,174.477,223.845,182.894C224.506,187.868,223.753,189.948,222.450,190.290C220.902,190.697,218.961,188.723,217.253,183.009C215.078,175.733,215.917,172.151,217.889,171.636Z" mask="url(#f3906406-f197-4bf1-91d8-744c09cca836)"/>
</g>
<path fill="#000000" fill-rule="evenodd" stroke="none" d="M319.520,124.141C321.562,125.401,324.569,127.712,324.955,130.367C326.416,136.673,315.418,136.264,312.090,136.661C305.468,136.786,298.542,136.698,292.219,136.965C287.083,137.650,281.940,138.263,276.791,138.837C268.136,139.126,259.483,138.939,250.825,138.985C236.314,139.633,221.836,139.458,207.278,139.643C205.935,139.713,167.334,144.851,160.737,141.429C151.824,136.907,160.786,129.918,160.354,125.528C160.276,121.921,152.412,121.078,154.263,114.814C156.110,108.914,176.855,104.543,183.021,103.122C195.194,100.247,207.689,96.412,220.546,94.240C238.585,91.339,257.258,91.423,275.630,89.493C288.320,88.262,317.607,95.474,323.567,108.430C328.546,118.881,311.651,109.351,309.649,108.730C307.932,107.522,301.884,105.001,303.358,108.738C304.741,114.562,315.228,120.828,319.520,124.141M201.651,90.041C191.295,92.695,181.656,94.530,171.681,97.026C167.380,98.090,162.153,100.768,158.098,98.636C149.004,94.086,158.426,70.986,162.615,64.995C176.613,45.496,207.375,36.623,232.600,36.169C277.625,35.358,295.381,42.020,310.552,56.854C315.271,61.136,332.125,82.606,323.548,88.743C320.259,90.787,314.211,86.935,311.203,85.651C300.845,81.487,258.453,75.485,201.651,90.041M259.729,25.576C252.138,25.190,250.196,23.624,242.195,24.396C210.974,27.885,169.073,30.482,150.955,60.959C145.146,70.984,145.256,82.227,143.404,92.848C141.868,101.419,137.023,108.062,138.118,116.600C139.206,123.591,142.265,125.203,144.639,130.523C147.344,136.165,145.970,138.854,147.655,142.509C151.376,153.158,161.083,152.512,170.416,152.301C175.253,152.193,193.094,151.729,202.810,151.393C214.664,150.983,230.465,150.308,242.313,149.757C251.510,149.329,263.773,148.768,272.961,148.182C281.409,147.643,292.678,146.919,301.098,146.042C311.287,144.982,333.783,142.783,334.944,141.526C337.022,139.316,340.543,118.084,340.496,114.135C340.456,110.776,338.744,107.439,338.686,102.064C338.200,87.570,337.709,74.085,329.358,60.650C314.017,36.443,286.522,27.600,259.729,25.576Z"/>
<path fill="none" stroke="#d89f4a" stroke-width="1" stroke-linecap="butt" stroke-linejoin="round" d="M275.630,89.493C288.320,88.262,317.607,95.474,323.567,108.430"/>
<path fill="none" stroke="#d89f4a" stroke-width="1" stroke-linecap="butt" stroke-linejoin="round" d="M323.567,108.430C328.546,118.881,311.651,109.351,309.649,108.730"/>
<path fill="none" stroke="#d89f4a" stroke-width="1" stroke-linecap="butt" stroke-linejoin="round" d="M309.649,108.730C307.932,107.522,301.884,105.001,303.358,108.738"/>
<path fill="none" stroke="#d89f4a" stroke-width="1" stroke-linecap="butt" stroke-linejoin="round" d="M303.358,108.738C304.741,114.562,315.228,120.828,319.520,124.141"/>
<path fill="none" stroke="#d89f4a" stroke-width="1" stroke-linecap="butt" stroke-linejoin="round" d="M319.520,124.141C321.562,125.401,324.569,127.712,324.955,130.367"/>
<path fill="none" stroke="#d89f4a" stroke-width="1" stroke-linecap="butt" stroke-linejoin="round" d="M324.955,130.367C326.416,136.673,315.418,136.264,312.090,136.661"/>
<path fill="none" stroke="#d89f4a" stroke-width="1" stroke-linecap="butt" stroke-linejoin="round" d="M312.090,136.661C305.468,136.786,298.542,136.698,292.219,136.965"/>
<path fill="none" stroke="#d89f4a" stroke-width="1" stroke-linecap="butt" stroke-linejoin="round" d="M292.219,136.965C287.083,137.650,281.940,138.263,276.791,138.837"/>
<path fill="none" stroke="#d89f4a" stroke-width="1" stroke-linecap="butt" stroke-linejoin="round" d="M276.791,138.837C268.136,139.126,259.483,138.939,250.825,138.985"/>
<path fill="none" stroke="#d89f4a" stroke-width="1" stroke-linecap="butt" stroke-linejoin="round" d="M250.825,138.985C236.314,139.633,221.836,139.458,207.278,139.643"/>
<path fill="none" stroke="#d89f4a" stroke-width="1" stroke-linecap="butt" stroke-linejoin="round" d="M207.278,139.643C205.935,139.713,167.334,144.851,160.737,141.429"/>
<path fill="none" stroke="#d89f4a" stroke-width="1" stroke-linecap="butt" stroke-linejoin="round" d="M160.737,141.429C151.824,136.907,160.786,129.918,160.354,125.528"/>
<path fill="none" stroke="#d89f4a" stroke-width="1" stroke-linecap="butt" stroke-linejoin="round" d="M160.354,125.528C160.276,121.921,152.412,121.078,154.263,114.814"/>
<path fill="none" stroke="#d89f4a" stroke-width="1" stroke-linecap="butt" stroke-linejoin="round" d="M154.263,114.814C156.110,108.914,176.855,104.543,183.021,103.122"/>
<path fill="none" stroke="#d89f4a" stroke-width="1" stroke-linecap="butt" stroke-linejoin="round" d="M183.021,103.122C195.194,100.247,207.689,96.412,220.546,94.240"/>
<path fill="none" stroke="#d89f4a" stroke-width="1" stroke-linecap="butt" stroke-linejoin="round" d="M220.546,94.240C238.585,91.339,257.258,91.423,275.630,89.493"/>
<path fill="#d89f4a" fill-rule="evenodd" stroke="none" d="M275.630,89.493C288.320,88.262,317.607,95.474,323.567,108.430C328.546,118.881,311.651,109.351,309.649,108.730C307.932,107.522,301.884,105.001,303.358,108.738C304.741,114.562,315.228,120.828,319.520,124.141C321.562,125.401,324.569,127.712,324.955,130.367C326.416,136.673,315.418,136.264,312.090,136.661C305.468,136.786,298.542,136.698,292.219,136.965C287.083,137.650,281.940,138.263,276.791,138.837C268.136,139.126,259.483,138.939,250.825,138.985C236.314,139.633,221.836,139.458,207.278,139.643C205.935,139.713,167.334,144.851,160.737,141.429C151.824,136.907,160.786,129.918,160.354,125.528C160.276,121.921,152.412,121.078,154.263,114.814C156.110,108.914,176.855,104.543,183.021,103.122C195.194,100.247,207.689,96.412,220.546,94.240C238.585,91.339,257.258,91.423,275.630,89.493Z"/>
<path fill="none" stroke="#cc9bc5" stroke-width="1" stroke-linecap="butt" stroke-linejoin="round" d="M232.600,36.169C277.625,35.358,295.381,42.020,310.552,56.854"/>
<path fill="none" stroke="#cc9bc5" stroke-width="1" stroke-linecap="butt" stroke-linejoin="round" d="M310.552,56.854C315.271,61.136,332.125,82.606,323.548,88.743"/>
<path fill="none" stroke="#cc9bc5" stroke-width="1" stroke-linecap="butt" stroke-linejoin="round" d="M323.548,88.743C320.259,90.787,314.211,86.935,311.203,85.651"/>
<path fill="none" stroke="#cc9bc5" stroke-width="1" stroke-linecap="butt" stroke-linejoin="round" d="M311.203,85.651C300.845,81.487,258.453,75.485,201.651,90.041"/>
<path fill="none" stroke="#cc9bc5" stroke-width="1" stroke-linecap="butt" stroke-linejoin="round" d="M201.651,90.041C191.295,92.695,181.656,94.530,171.681,97.026"/>
<path fill="none" stroke="#cc9bc5" stroke-width="1" stroke-linecap="butt" stroke-linejoin="round" d="M171.681,97.026C167.380,98.090,162.153,100.768,158.098,98.636"/>
<path fill="none" stroke="#cc9bc5" stroke-width="1" stroke-linecap="butt" stroke-linejoin="round" d="M158.098,98.636C149.004,94.086,158.426,70.986,162.615,64.995"/>
<path fill="none" stroke="#cc9bc5" stroke-width="1" stroke-linecap="butt" stroke-linejoin="round" d="M162.615,64.995C176.613,45.496,207.375,36.623,232.600,36.169"/>
<path fill="#cc9bc5" fill-rule="evenodd" stroke="none" d="M232.600,36.169C277.625,35.358,295.381,42.020,310.552,56.854C315.271,61.136,332.125,82.606,323.548,88.743C320.259,90.787,314.211,86.935,311.203,85.651C300.845,81.487,258.453,75.485,201.651,90.041C191.295,92.695,181.656,94.530,171.681,97.026C167.380,98.090,162.153,100.768,158.098,98.636C149.004,94.086,158.426,70.986,162.615,64.995C176.613,45.496,207.375,36.623,232.600,36.169Z"/>
<path fill="#000000" fill-rule="evenodd" stroke="none" d="M319.199,188.350C317.988,184.434,326.563,159.653,328.178,157.250C333.018,150.037,345.454,160.129,346.841,166.774C348.376,174.968,337.016,183.867,330.402,188.942C325.348,192.700,320.817,193.564,319.199,188.350M355.744,170.517C356.869,157.646,344.819,141.200,332.488,144.699C319.259,148.453,319.224,166.493,315.588,177.280C314.171,181.884,311.490,186.461,311.136,191.030C310.361,199.286,314.600,205.899,323.595,203.240C336.564,199.263,354.055,184.832,355.744,170.517Z"/>
<path fill="none" stroke="#f8a087" stroke-width="1" stroke-linecap="butt" stroke-linejoin="round" d="M328.178,157.250C333.018,150.037,345.454,160.129,346.841,166.774"/>
<path fill="none" stroke="#f8a087" stroke-width="1" stroke-linecap="butt" stroke-linejoin="round" d="M346.841,166.774C348.376,174.968,337.016,183.867,330.402,188.942"/>
<path fill="none" stroke="#f8a087" stroke-width="1" stroke-linecap="butt" stroke-linejoin="round" d="M330.402,188.942C325.348,192.700,320.817,193.564,319.199,188.350"/>
<path fill="none" stroke="#f8a087" stroke-width="1" stroke-linecap="butt" stroke-linejoin="round" d="M319.199,188.350C317.988,184.434,326.563,159.653,328.178,157.250"/>
<path fill="#f8a087" fill-rule="evenodd" stroke="none" d="M328.178,157.250C333.018,150.037,345.454,160.129,346.841,166.774C348.376,174.968,337.016,183.867,330.402,188.942C325.348,192.700,320.817,193.564,319.199,188.350C317.988,184.434,326.563,159.653,328.178,157.250Z"/>
<path fill="#000000" fill-rule="evenodd" stroke="none" d="M340.372,205.936C331.526,209.172,329.642,189.481,333.437,190.016C338.699,192.086,342.992,201.910,340.372,205.936M348.880,198.261C341.972,197.277,339.457,188.708,339.168,184.743C346.800,186.952,356.165,193.339,348.880,198.261M356.936,193.165C354.492,185.465,343.437,180.263,335.841,177.562C333.507,176.732,328.226,185.403,327.898,187.987C326.792,191.889,326.173,214.289,339.637,212.216C345.130,211.121,358.912,199.393,356.936,193.165Z"/>
<path fill="none" stroke="#fafd5b" stroke-width="1" stroke-linecap="butt" stroke-linejoin="round" d="M339.168,184.743C346.800,186.952,356.165,193.339,348.880,198.261"/>
<path fill="none" stroke="#fafd5b" stroke-width="1" stroke-linecap="butt" stroke-linejoin="round" d="M348.880,198.261C341.972,197.277,339.457,188.708,339.168,184.743"/>
<path fill="#fafd5b" fill-rule="evenodd" stroke="none" d="M339.168,184.743C346.800,186.952,356.165,193.339,348.880,198.261C341.972,197.277,339.457,188.708,339.168,184.743Z"/>
<path fill="none" stroke="#fafd5b" stroke-width="1" stroke-linecap="butt" stroke-linejoin="round" d="M333.437,190.016C338.699,192.086,342.992,201.910,340.372,205.936"/>
<path fill="none" stroke="#fafd5b" stroke-width="1" stroke-linecap="butt" stroke-linejoin="round" d="M340.372,205.936C331.526,209.172,329.642,189.481,333.437,190.016"/>
<path fill="#fafd5b" fill-rule="evenodd" stroke="none" d="M333.437,190.016C338.699,192.086,342.992,201.910,340.372,205.936C331.526,209.172,329.642,189.481,333.437,190.016Z"/>
</g>
<path fill="#000000" fill-rule="evenodd" stroke="none" d="M317.711,463.845C322.273,457.584,329.199,464.653,337.777,469.533C339.939,470.741,351.263,468.376,352.916,470.261C355.982,473.422,351.364,479.302,347.175,480.403C337.016,482.583,312.052,471.790,317.711,463.845M300.183,284.115C300.785,280.855,308.361,270.010,313.471,270.698C316.439,271.098,318.262,275.965,319.483,278.533C322.841,286.593,326.334,294.949,329.285,303.407C337.350,325.842,341.961,348.848,348.750,371.287C351.325,380.690,354.424,392.609,357.519,401.304C360.609,409.672,364.635,408.413,366.692,414.023C367.746,417.126,367.286,422.679,369.243,427.353C372.176,434.697,377.798,438.737,380.420,443.416C382.063,446.090,382.413,448.163,379.038,449.727C376.879,451.610,370.997,454.618,368.665,455.682C360.759,457.026,352.522,458.774,344.663,457.207C335.827,455.835,312.026,445.646,307.915,439.529C300.574,428.185,310.979,415.734,312.520,404.922C313.179,401.947,318.975,358.486,318.282,355.574C317.455,348.868,313.071,343.345,310.956,336.563C308.534,327.259,306.033,317.309,303.854,307.581C302.199,299.454,298.145,292.965,300.183,284.115M324.253,260.095C321.537,255.651,313.536,247.987,307.682,249.821C302.823,251.572,302.670,257.596,302.345,261.630C301.538,271.716,300.256,280.174,301.076,289.787C301.338,296.776,302.553,303.016,303.768,309.591C305.159,318.542,304.890,336.042,305.776,346.334C306.298,355.901,308.829,365.760,308.253,374.027C306.484,393.438,297.549,411.706,298.050,431.102C297.972,440.897,300.622,440.908,302.856,448.759C304.479,454.758,303.087,461.072,305.367,466.746C311.231,481.767,328.418,495.550,345.412,492.366C361.072,489.502,361.880,472.540,370.271,463.627C377.657,455.703,392.262,459.818,394.327,451.516C396.381,444.547,386.402,437.062,383.183,431.462C377.182,421.723,383.437,419.951,381.039,412.488C379.306,406.976,373.750,401.131,370.236,394.432C367.885,390.682,365.043,384.138,363.015,379.391C359.123,369.225,356.081,357.261,353.398,346.229C350.639,333.779,348.564,322.752,343.886,310.174C340.190,299.843,329.602,267.985,324.253,260.095Z"/>
<path fill="none" stroke="#a60d3f" stroke-width="1" stroke-linecap="butt" stroke-linejoin="round" d="M313.471,270.698C316.439,271.098,318.262,275.965,319.483,278.533"/>
<path fill="none" stroke="#a60d3f" stroke-width="1" stroke-linecap="butt" stroke-linejoin="round" d="M319.483,278.533C322.841,286.593,326.334,294.949,329.285,303.407"/>
<path fill="none" stroke="#a60d3f" stroke-width="1" stroke-linecap="butt" stroke-linejoin="round" d="M329.285,303.407C337.350,325.842,341.961,348.848,348.750,371.287"/>
<path fill="none" stroke="#a60d3f" stroke-width="1" stroke-linecap="butt" stroke-linejoin="round" d="M348.750,371.287C351.325,380.690,354.424,392.609,357.519,401.304"/>
<path fill="none" stroke="#a60d3f" stroke-width="1" stroke-linecap="butt" stroke-linejoin="round" d="M357.519,401.304C360.609,409.672,364.635,408.413,366.692,414.023"/>
<path fill="none" stroke="#a60d3f" stroke-width="1" stroke-linecap="butt" stroke-linejoin="round" d="M366.692,414.023C367.746,417.126,367.286,422.679,369.243,427.353"/>
<path fill="none" stroke="#a60d3f" stroke-width="1" stroke-linecap="butt" stroke-linejoin="round" d="M369.243,427.353C372.176,434.697,377.798,438.737,380.420,443.416"/>
<path fill="none" stroke="#a60d3f" stroke-width="1" stroke-linecap="butt" stroke-linejoin="round" d="M380.420,443.416C382.063,446.090,382.413,448.163,379.038,449.727"/>
<path fill="none" stroke="#a60d3f" stroke-width="1" stroke-linecap="butt" stroke-linejoin="round" d="M379.038,449.727C376.879,451.610,370.997,454.618,368.665,455.682"/>
<path fill="none" stroke="#a60d3f" stroke-width="1" stroke-linecap="butt" stroke-linejoin="round" d="M368.665,455.682C360.759,457.026,352.522,458.774,344.663,457.207"/>
<path fill="none" stroke="#a60d3f" stroke-width="1" stroke-linecap="butt" stroke-linejoin="round" d="M344.663,457.207C335.827,455.835,312.026,445.646,307.915,439.529"/>
<path fill="none" stroke="#a60d3f" stroke-width="1" stroke-linecap="butt" stroke-linejoin="round" d="M307.915,439.529C300.574,428.185,310.979,415.734,312.520,404.922"/>
<path fill="none" stroke="#a60d3f" stroke-width="1" stroke-linecap="butt" stroke-linejoin="round" d="M312.520,404.922C313.179,401.947,318.975,358.486,318.282,355.574"/>
<path fill="none" stroke="#a60d3f" stroke-width="1" stroke-linecap="butt" stroke-linejoin="round" d="M318.282,355.574C317.455,348.868,313.071,343.345,310.956,336.563"/>
<path fill="none" stroke="#a60d3f" stroke-width="1" stroke-linecap="butt" stroke-linejoin="round" d="M310.956,336.563C308.534,327.259,306.033,317.309,303.854,307.581"/>
<path fill="none" stroke="#a60d3f" stroke-width="1" stroke-linecap="butt" stroke-linejoin="round" d="M303.854,307.581C302.199,299.454,298.145,292.965,300.183,284.115"/>
<path fill="none" stroke="#a60d3f" stroke-width="1" stroke-linecap="butt" stroke-linejoin="round" d="M300.183,284.115C300.785,280.855,308.361,270.010,313.471,270.698"/>
<path fill="#a60d3f" fill-rule="evenodd" stroke="none" d="M313.471,270.698C316.439,271.098,318.262,275.965,319.483,278.533C322.841,286.593,326.334,294.949,329.285,303.407C337.350,325.842,341.961,348.848,348.750,371.287C351.325,380.690,354.424,392.609,357.519,401.304C360.609,409.672,364.635,408.413,366.692,414.023C367.746,417.126,367.286,422.679,369.243,427.353C372.176,434.697,377.798,438.737,380.420,443.416C382.063,446.090,382.413,448.163,379.038,449.727C376.879,451.610,370.997,454.618,368.665,455.682C360.759,457.026,352.522,458.774,344.663,457.207C335.827,455.835,312.026,445.646,307.915,439.529C300.574,428.185,310.979,415.734,312.520,404.922C313.179,401.947,318.975,358.486,318.282,355.574C317.455,348.868,313.071,343.345,310.956,336.563C308.534,327.259,306.033,317.309,303.854,307.581C302.199,299.454,298.145,292.965,300.183,284.115C300.785,280.855,308.361,270.010,313.471,270.698Z"/>
<path fill="none" stroke="#f8a087" stroke-width="1" stroke-linecap="butt" stroke-linejoin="round" d="M337.777,469.533C339.939,470.741,351.263,468.376,352.916,470.261"/>
<path fill="none" stroke="#f8a087" stroke-width="1" stroke-linecap="butt" stroke-linejoin="round" d="M352.916,470.261C355.982,473.422,351.364,479.302,347.175,480.403"/>
<path fill="none" stroke="#f8a087" stroke-width="1" stroke-linecap="butt" stroke-linejoin="round" d="M347.175,480.403C337.016,482.583,312.052,471.790,317.711,463.845"/>
<path fill="none" stroke="#f8a087" stroke-width="1" stroke-linecap="butt" stroke-linejoin="round" d="M317.711,463.845C322.273,457.584,329.199,464.653,337.777,469.533"/>
<path fill="#f8a087" fill-rule="evenodd" stroke="none" d="M337.777,469.533C339.939,470.741,351.263,468.376,352.916,470.261C355.982,473.422,351.364,479.302,347.175,480.403C337.016,482.583,312.052,471.790,317.711,463.845C322.273,457.584,329.199,464.653,337.777,469.533Z"/>
<path fill="#000000" fill-rule="evenodd" stroke="none" d="M221.704,270.349C223.538,275.127,217.939,284.618,216.947,289.206C210.944,306.737,202.570,323.573,202.707,341.672C202.903,346.888,206.026,358.117,201.241,361.853C198.974,363.624,192.841,359.733,191.658,361.516C189.679,364.478,184.756,354.839,183.952,353.225C183.241,351.799,181.918,343.966,181.919,341.741C182.211,337.105,183.322,328.071,184.853,322.416C186.477,316.594,188.317,310.604,191.394,304.692C194.120,298.245,197.805,290.724,200.167,283.283C202.678,278.738,206.277,276.344,206.048,272.681C205.463,268.925,204.005,266.861,207.393,265.517C211.600,264.184,221.104,265.303,221.704,270.349M283.595,278.159C285.191,276.834,300.224,271.424,301.878,270.380C313.795,263.628,323.254,273.380,323.845,281.420C324.279,286.425,318.239,303.285,317.044,306.688C315.031,311.501,312.591,314.670,311.356,318.971C305.669,335.662,311.848,325.561,310.868,340.743C310.654,343.970,310.371,350.746,309.998,353.894C309.369,357.411,307.837,365.184,306.418,368.220C304.107,372.209,299.586,378.391,293.702,375.044C293.214,374.841,288.793,371.880,287.935,371.589C281.550,369.035,273.260,369.959,268.846,364.033C265.400,358.842,264.614,351.462,264.018,344.811C262.918,334.456,266.000,324.240,268.628,314.121C270.873,303.683,275.748,286.204,283.595,278.159M297.660,261.757C294.687,263.452,288.346,263.783,286.490,264.064C282.379,264.464,281.972,260.864,281.827,257.967C281.763,253.435,285.149,247.063,288.603,243.898C291.354,241.378,296.065,239.161,300.158,239.296C304.174,239.285,310.713,242.859,309.895,247.356C309.540,250.382,302.585,258.950,297.660,261.757M224.406,242.192C228.714,251.026,233.515,260.078,228.281,259.367C222.380,258.566,219.447,258.221,210.238,254.422C199.730,250.086,197.328,234.783,203.324,230.170C209.095,225.730,219.384,231.891,224.406,242.192M313.144,379.286C316.699,370.200,322.075,365.158,323.695,355.102C324.566,349.332,324.834,342.487,323.563,336.822C321.241,327.592,318.924,324.123,317.866,313.405C316.799,304.225,320.452,297.092,320.334,288.224C320.164,285.172,312.326,270.985,312.738,268.226C312.720,263.121,319.232,260.147,320.600,255.651C321.865,251.930,323.243,247.964,322.912,244.048C322.768,238.772,318.270,235.031,314.659,231.917C309.474,227.955,304.378,227.357,297.712,227.689C288.098,228.179,282.186,236.547,277.972,242.671C271.989,251.367,272.168,266.627,268.926,276.672C267.072,282.416,263.945,290.226,261.858,295.511C254.179,314.097,242.453,361.763,255.941,376.857C257.498,378.843,271.093,386.320,275.693,387.599C283.019,389.676,286.058,392.322,293.401,393.265C297.956,394.030,306.141,388.502,310.249,384.249C311.427,383.108,312.706,380.405,313.144,379.286M231.327,233.284C226.388,226.648,217.846,214.994,209.493,216.441C205.131,217.343,198.900,220.147,195.583,223.436C192.494,226.497,189.081,231.898,188.899,236.299C188.547,241.785,188.429,248.314,190.147,253.052C192.110,258.461,200.655,262.938,201.434,268.558C201.714,271.081,195.338,282.076,194.354,285.063C192.362,291.728,188.975,298.150,186.344,303.609C183.629,309.244,178.874,316.204,176.520,321.998C173.786,328.726,170.403,337.375,169.874,345.275C169.337,349.700,170.961,359.937,174.006,365.242C175.938,368.607,180.995,373.166,183.378,374.158C184.845,374.769,199.869,379.443,205.147,375.573C213.451,369.484,211.723,356.883,210.600,341.684C209.491,327.518,220.471,316.694,225.047,303.069C227.433,295.847,235.539,275.252,236.447,267.646C237.130,261.931,239.284,258.177,238.218,250.142C237.522,245.875,234.590,237.667,231.327,233.284Z"/>
<path fill="none" stroke="#a60d3f" stroke-width="1" stroke-linecap="butt" stroke-linejoin="round" d="M301.878,270.380C313.795,263.628,323.254,273.380,323.845,281.420"/>
<path fill="none" stroke="#a60d3f" stroke-width="1" stroke-linecap="butt" stroke-linejoin="round" d="M323.845,281.420C324.279,286.425,318.239,303.285,317.044,306.688"/>
<path fill="none" stroke="#a60d3f" stroke-width="1" stroke-linecap="butt" stroke-linejoin="round" d="M317.044,306.688C315.031,311.501,312.591,314.670,311.356,318.971"/>
<path fill="none" stroke="#a60d3f" stroke-width="1" stroke-linecap="butt" stroke-linejoin="round" d="M311.356,318.971C305.669,335.662,311.848,325.561,310.868,340.743"/>
<path fill="none" stroke="#a60d3f" stroke-width="1" stroke-linecap="butt" stroke-linejoin="round" d="M310.868,340.743C310.654,343.970,310.371,350.746,309.998,353.894"/>
<path fill="none" stroke="#a60d3f" stroke-width="1" stroke-linecap="butt" stroke-linejoin="round" d="M309.998,353.894C309.369,357.411,307.837,365.184,306.418,368.220"/>
<path fill="none" stroke="#a60d3f" stroke-width="1" stroke-linecap="butt" stroke-linejoin="round" d="M306.418,368.220C304.107,372.209,299.586,378.391,293.702,375.044"/>
<path fill="none" stroke="#a60d3f" stroke-width="1" stroke-linecap="butt" stroke-linejoin="round" d="M293.702,375.044C293.214,374.841,288.793,371.880,287.935,371.589"/>
<path fill="none" stroke="#a60d3f" stroke-width="1" stroke-linecap="butt" stroke-linejoin="round" d="M287.935,371.589C281.550,369.035,273.260,369.959,268.846,364.033"/>
<path fill="none" stroke="#a60d3f" stroke-width="1" stroke-linecap="butt" stroke-linejoin="round" d="M268.846,364.033C265.400,358.842,264.614,351.462,264.018,344.811"/>
<path fill="none" stroke="#a60d3f" stroke-width="1" stroke-linecap="butt" stroke-linejoin="round" d="M264.018,344.811C262.918,334.456,266.000,324.240,268.628,314.121"/>
<path fill="none" stroke="#a60d3f" stroke-width="1" stroke-linecap="butt" stroke-linejoin="round" d="M268.628,314.121C270.873,303.683,275.748,286.204,283.595,278.159"/>
<path fill="none" stroke="#a60d3f" stroke-width="1" stroke-linecap="butt" stroke-linejoin="round" d="M283.595,278.159C285.191,276.834,300.224,271.424,301.878,270.380"/>
<path fill="#a60d3f" fill-rule="evenodd" stroke="none" d="M301.878,270.380C313.795,263.628,323.254,273.380,323.845,281.420C324.279,286.425,318.239,303.285,317.044,306.688C315.031,311.501,312.591,314.670,311.356,318.971C305.669,335.662,311.848,325.561,310.868,340.743C310.654,343.970,310.371,350.746,309.998,353.894C309.369,357.411,307.837,365.184,306.418,368.220C304.107,372.209,299.586,378.391,293.702,375.044C293.214,374.841,288.793,371.880,287.935,371.589C281.550,369.035,273.260,369.959,268.846,364.033C265.400,358.842,264.614,351.462,264.018,344.811C262.918,334.456,266.000,324.240,268.628,314.121C270.873,303.683,275.748,286.204,283.595,278.159C285.191,276.834,300.224,271.424,301.878,270.380Z"/>
<path fill="none" stroke="#a60d3f" stroke-width="1" stroke-linecap="butt" stroke-linejoin="round" d="M207.393,265.517C211.600,264.184,221.104,265.303,221.704,270.349"/>
<path fill="none" stroke="#a60d3f" stroke-width="1" stroke-linecap="butt" stroke-linejoin="round" d="M221.704,270.349C223.538,275.127,217.939,284.618,216.947,289.206"/>
<path fill="none" stroke="#a60d3f" stroke-width="1" stroke-linecap="butt" stroke-linejoin="round" d="M216.947,289.206C210.944,306.737,202.570,323.573,202.707,341.672"/>
<path fill="none" stroke="#a60d3f" stroke-width="1" stroke-linecap="butt" stroke-linejoin="round" d="M202.707,341.672C202.903,346.888,206.026,358.117,201.241,361.853"/>
<path fill="none" stroke="#a60d3f" stroke-width="1" stroke-linecap="butt" stroke-linejoin="round" d="M201.241,361.853C198.974,363.624,192.841,359.733,191.658,361.516"/>
<path fill="none" stroke="#a60d3f" stroke-width="1" stroke-linecap="butt" stroke-linejoin="round" d="M191.658,361.516C189.679,364.478,184.756,354.839,183.952,353.225"/>
<path fill="none" stroke="#a60d3f" stroke-width="1" stroke-linecap="butt" stroke-linejoin="round" d="M183.952,353.225C183.241,351.799,181.918,343.966,181.919,341.741"/>
<path fill="none" stroke="#a60d3f" stroke-width="1" stroke-linecap="butt" stroke-linejoin="round" d="M181.919,341.741C182.211,337.105,183.322,328.071,184.853,322.416"/>
<path fill="none" stroke="#a60d3f" stroke-width="1" stroke-linecap="butt" stroke-linejoin="round" d="M184.853,322.416C186.477,316.594,188.317,310.604,191.394,304.692"/>
<path fill="none" stroke="#a60d3f" stroke-width="1" stroke-linecap="butt" stroke-linejoin="round" d="M191.394,304.692C194.120,298.245,197.805,290.724,200.167,283.283"/>
<path fill="none" stroke="#a60d3f" stroke-width="1" stroke-linecap="butt" stroke-linejoin="round" d="M200.167,283.283C202.678,278.738,206.277,276.344,206.048,272.681"/>
<path fill="none" stroke="#a60d3f" stroke-width="1" stroke-linecap="butt" stroke-linejoin="round" d="M206.048,272.681C205.463,268.925,204.005,266.861,207.393,265.517"/>
<path fill="#a60d3f" fill-rule="evenodd" stroke="none" d="M207.393,265.517C211.600,264.184,221.104,265.303,221.704,270.349C223.538,275.127,217.939,284.618,216.947,289.206C210.944,306.737,202.570,323.573,202.707,341.672C202.903,346.888,206.026,358.117,201.241,361.853C198.974,363.624,192.841,359.733,191.658,361.516C189.679,364.478,184.756,354.839,183.952,353.225C183.241,351.799,181.918,343.966,181.919,341.741C182.211,337.105,183.322,328.071,184.853,322.416C186.477,316.594,188.317,310.604,191.394,304.692C194.120,298.245,197.805,290.724,200.167,283.283C202.678,278.738,206.277,276.344,206.048,272.681C205.463,268.925,204.005,266.861,207.393,265.517Z"/>
<path fill="none" stroke="#a60d3f" stroke-width="1" stroke-linecap="butt" stroke-linejoin="round" d="M300.158,239.296C304.174,239.285,310.713,242.859,309.895,247.356"/>
<path fill="none" stroke="#a60d3f" stroke-width="1" stroke-linecap="butt" stroke-linejoin="round" d="M309.895,247.356C309.540,250.382,302.585,258.950,297.660,261.757"/>
<path fill="none" stroke="#a60d3f" stroke-width="1" stroke-linecap="butt" stroke-linejoin="round" d="M297.660,261.757C294.687,263.452,288.346,263.783,286.490,264.064"/>
<path fill="none" stroke="#a60d3f" stroke-width="1" stroke-linecap="butt" stroke-linejoin="round" d="M286.490,264.064C282.379,264.464,281.972,260.864,281.827,257.967"/>
<path fill="none" stroke="#a60d3f" stroke-width="1" stroke-linecap="butt" stroke-linejoin="round" d="M281.827,257.967C281.763,253.435,285.149,247.063,288.603,243.898"/>
<path fill="none" stroke="#a60d3f" stroke-width="1" stroke-linecap="butt" stroke-linejoin="round" d="M288.603,243.898C291.354,241.378,296.065,239.161,300.158,239.296"/>
<path fill="#a60d3f" fill-rule="evenodd" stroke="none" d="M300.158,239.296C304.174,239.285,310.713,242.859,309.895,247.356C309.540,250.382,302.585,258.950,297.660,261.757C294.687,263.452,288.346,263.783,286.490,264.064C282.379,264.464,281.972,260.864,281.827,257.967C281.763,253.435,285.149,247.063,288.603,243.898C291.354,241.378,296.065,239.161,300.158,239.296Z"/>
<path fill="none" stroke="#a60d3f" stroke-width="1" stroke-linecap="butt" stroke-linejoin="round" d="M224.406,242.192C228.714,251.026,233.515,260.078,228.281,259.367"/>
<path fill="none" stroke="#a60d3f" stroke-width="1" stroke-linecap="butt" stroke-linejoin="round" d="M228.281,259.367C222.380,258.566,219.447,258.221,210.238,254.422"/>
<path fill="none" stroke="#a60d3f" stroke-width="1" stroke-linecap="butt" stroke-linejoin="round" d="M210.238,254.422C199.730,250.086,197.328,234.783,203.324,230.170"/>
<path fill="none" stroke="#a60d3f" stroke-width="1" stroke-linecap="butt" stroke-linejoin="round" d="M203.324,230.170C209.095,225.730,219.384,231.891,224.406,242.192"/>
<path fill="#a60d3f" fill-rule="evenodd" stroke="none" d="M224.406,242.192C228.714,251.026,233.515,260.078,228.281,259.367C222.380,258.566,219.447,258.221,210.238,254.422C199.730,250.086,197.328,234.783,203.324,230.170C209.095,225.730,219.384,231.891,224.406,242.192Z"/>
</g>
</svg>
