<svg version="1.1" id="Frame_210" xmlns="http://www.w3.org/2000/svg" xmlns:xlink="http://www.w3.org/1999/xlink" width="480px" height="720px">
<g id="main_bone">
<path fill="#000000" fill-rule="evenodd" stroke="none" d="M179.317,270.903C180.953,268.358,184.166,263.098,188.055,261.934C194.604,259.973,199.592,266.196,199.935,270.779C200.842,278.804,194.201,289.013,190.976,296.590C183.078,314.830,174.654,332.844,169.201,351.411C168.501,354.666,163.233,375.768,163.301,373.119C162.800,379.735,169.286,385.534,171.481,391.216C174.285,398.877,171.357,406.039,169.396,412.982C164.888,427.299,165.275,432.597,165.462,446.590C165.595,448.808,165.956,456.027,162.483,456.407C159.070,456.781,158.094,450.632,157.205,448.294C156.643,445.658,153.866,440.146,154.411,437.774C154.529,433.802,159.090,434.757,154.053,426.559C147.619,416.308,136.320,407.647,133.600,394.274C131.830,383.626,137.589,374.428,140.964,364.607C148.149,343.507,156.099,322.433,165.281,301.789C170.271,291.086,172.741,281.695,179.317,270.903M199.916,264.496C200.730,255.992,198.335,248.324,187.528,250.935C170.127,255.075,162.282,280.882,156.291,295.327C147.884,314.837,140.837,334.594,134.265,354.483C131.572,363.004,128.295,367.280,126.844,372.224C125.048,377.817,125.152,386.446,125.365,392.088C124.994,409.741,130.314,410.709,137.473,424.284C141.269,432.309,137.545,437.435,140.253,444.367C142.237,449.136,146.249,452.402,149.384,456.310C152.164,460.235,152.898,462.522,155.000,466.137C157.546,470.458,165.105,480.166,170.772,477.385C175.015,475.284,174.049,467.382,173.984,463.547C173.728,457.789,175.211,435.470,176.237,428.712C178.106,417.507,184.166,405.551,182.720,393.418C181.545,384.141,173.453,377.330,174.061,367.425C174.537,362.149,178.046,353.653,179.326,347.762C181.426,338.348,182.065,328.189,184.887,318.566C189.705,301.443,198.846,282.617,199.916,264.496Z"/>
<path fill="none" stroke="#a60d3f" stroke-width="1" stroke-linecap="butt" stroke-linejoin="round" d="M188.055,261.934C194.604,259.973,199.592,266.196,199.935,270.779"/>
<path fill="none" stroke="#a60d3f" stroke-width="1" stroke-linecap="butt" stroke-linejoin="round" d="M199.935,270.779C200.842,278.804,194.201,289.013,190.976,296.590"/>
<path fill="none" stroke="#a60d3f" stroke-width="1" stroke-linecap="butt" stroke-linejoin="round" d="M190.976,296.590C183.078,314.830,174.654,332.844,169.201,351.411"/>
<path fill="none" stroke="#a60d3f" stroke-width="1" stroke-linecap="butt" stroke-linejoin="round" d="M169.201,351.411C168.501,354.666,163.233,375.768,163.301,373.119"/>
<path fill="none" stroke="#a60d3f" stroke-width="1" stroke-linecap="butt" stroke-linejoin="round" d="M163.301,373.119C162.800,379.735,169.286,385.534,171.481,391.216"/>
<path fill="none" stroke="#a60d3f" stroke-width="1" stroke-linecap="butt" stroke-linejoin="round" d="M171.481,391.216C174.285,398.877,171.357,406.039,169.396,412.982"/>
<path fill="none" stroke="#a60d3f" stroke-width="1" stroke-linecap="butt" stroke-linejoin="round" d="M169.396,412.982C164.888,427.299,165.275,432.597,165.462,446.590"/>
<path fill="none" stroke="#a60d3f" stroke-width="1" stroke-linecap="butt" stroke-linejoin="round" d="M165.462,446.590C165.595,448.808,165.956,456.027,162.483,456.407"/>
<path fill="none" stroke="#a60d3f" stroke-width="1" stroke-linecap="butt" stroke-linejoin="round" d="M162.483,456.407C159.070,456.781,158.094,450.632,157.205,448.294"/>
<path fill="none" stroke="#a60d3f" stroke-width="1" stroke-linecap="butt" stroke-linejoin="round" d="M157.205,448.294C156.643,445.658,153.866,440.146,154.411,437.774"/>
<path fill="none" stroke="#a60d3f" stroke-width="1" stroke-linecap="butt" stroke-linejoin="round" d="M154.411,437.774C154.529,433.802,159.090,434.757,154.053,426.559"/>
<path fill="none" stroke="#a60d3f" stroke-width="1" stroke-linecap="butt" stroke-linejoin="round" d="M154.053,426.559C147.619,416.308,136.320,407.647,133.600,394.274"/>
<path fill="none" stroke="#a60d3f" stroke-width="1" stroke-linecap="butt" stroke-linejoin="round" d="M133.600,394.274C131.830,383.626,137.589,374.428,140.964,364.607"/>
<path fill="none" stroke="#a60d3f" stroke-width="1" stroke-linecap="butt" stroke-linejoin="round" d="M140.964,364.607C148.149,343.507,156.099,322.433,165.281,301.789"/>
<path fill="none" stroke="#a60d3f" stroke-width="1" stroke-linecap="butt" stroke-linejoin="round" d="M165.281,301.789C170.271,291.086,172.741,281.695,179.317,270.903"/>
<path fill="none" stroke="#a60d3f" stroke-width="1" stroke-linecap="butt" stroke-linejoin="round" d="M179.317,270.903C180.953,268.358,184.166,263.098,188.055,261.934"/>
<path fill="#a60d3f" fill-rule="evenodd" stroke="none" d="M188.055,261.934C194.604,259.973,199.592,266.196,199.935,270.779C200.842,278.804,194.201,289.013,190.976,296.590C183.078,314.830,174.654,332.844,169.201,351.411C168.501,354.666,163.233,375.768,163.301,373.119C162.800,379.735,169.286,385.534,171.481,391.216C174.285,398.877,171.357,406.039,169.396,412.982C164.888,427.299,165.275,432.597,165.462,446.590C165.595,448.808,165.956,456.027,162.483,456.407C159.070,456.781,158.094,450.632,157.205,448.294C156.643,445.658,153.866,440.146,154.411,437.774C154.529,433.802,159.090,434.757,154.053,426.559C147.619,416.308,136.320,407.647,133.600,394.274C131.830,383.626,137.589,374.428,140.964,364.607C148.149,343.507,156.099,322.433,165.281,301.789C170.271,291.086,172.741,281.695,179.317,270.903C180.953,268.358,184.166,263.098,188.055,261.934Z"/>
<g id="layer_left_leg">
<path fill="#000000" fill-rule="evenodd" stroke="none" d="M328.983,626.304C318.444,617.194,325.510,593.689,335.502,587.954C350.617,579.049,370.839,600.749,370.803,607.473C370.438,617.635,355.461,623.082,347.513,625.798C343.078,627.147,332.397,629.384,328.983,626.304M361.656,578.346C349.416,571.851,328.948,580.360,320.595,589.548C302.075,609.097,310.971,652.734,343.801,640.503C354.608,636.540,377.881,626.368,381.925,616.979C385.681,609.603,380.847,601.155,376.704,594.418C372.978,589.071,367.463,581.535,361.656,578.346Z"/>
<path fill="none" stroke="#d88e4b" stroke-width="1" stroke-linecap="butt" stroke-linejoin="round" d="M335.502,587.954C350.617,579.049,370.839,600.749,370.803,607.473"/>
<path fill="none" stroke="#d88e4b" stroke-width="1" stroke-linecap="butt" stroke-linejoin="round" d="M370.803,607.473C370.438,617.635,355.461,623.082,347.513,625.798"/>
<path fill="none" stroke="#d88e4b" stroke-width="1" stroke-linecap="butt" stroke-linejoin="round" d="M347.513,625.798C343.078,627.147,332.397,629.384,328.983,626.304"/>
<path fill="none" stroke="#d88e4b" stroke-width="1" stroke-linecap="butt" stroke-linejoin="round" d="M328.983,626.304C318.444,617.194,325.510,593.689,335.502,587.954"/>
<path fill="#d88e4b" fill-rule="evenodd" stroke="none" d="M335.502,587.954C350.617,579.049,370.839,600.749,370.803,607.473C370.438,617.635,355.461,623.082,347.513,625.798C343.078,627.147,332.397,629.384,328.983,626.304C318.444,617.194,325.510,593.689,335.502,587.954Z"/>
<path fill="#000000" fill-rule="evenodd" stroke="none" d="M242.610,417.172C242.728,412.088,252.936,412.717,256.563,411.337C262.049,409.560,273.757,403.704,279.389,405.711C289.970,409.084,302.333,437.997,306.211,448.213C317.045,479.307,328.453,508.055,338.774,538.130C340.598,543.870,342.569,549.771,344.195,555.447C345.773,560.218,345.222,567.625,349.459,569.553C351.649,571.053,355.486,566.534,356.714,568.697C360.455,576.326,350.875,575.128,348.483,580.545C343.854,590.209,332.269,600.888,322.667,601.324C316.247,601.839,303.805,598.275,299.557,593.282C295.660,588.702,292.054,582.768,289.253,577.556C275.579,552.118,273.961,495.489,255.701,462.782C246.508,446.314,252.684,441.504,257.251,427.398C258.062,424.895,246.555,430.611,244.293,429.175C241.460,427.677,242.370,420.319,242.610,417.172M283.497,394.543C275.997,391.819,260.175,399.098,253.418,401.820C249.588,403.345,236.357,404.580,234.121,407.398C221.171,423.727,240.195,460.159,247.710,475.966C249.605,480.711,256.842,503.986,258.756,510.588C268.091,537.075,269.560,561.862,280.154,587.875C282.854,594.756,284.892,601.755,289.438,607.426C301.971,622.840,318.665,620.725,339.233,612.879C349.946,608.801,372.538,595.696,374.065,571.897C374.646,562.801,366.224,553.212,364.197,550.867C360.664,546.779,356.174,543.111,353.313,538.054C343.467,521.926,343.878,501.420,336.719,483.795C327.560,461.189,307.179,403.204,283.497,394.543Z"/>
<path fill="none" stroke="#392966" stroke-width="1" stroke-linecap="butt" stroke-linejoin="round" d="M256.563,411.337C262.049,409.560,273.757,403.704,279.389,405.711"/>
<path fill="none" stroke="#392966" stroke-width="1" stroke-linecap="butt" stroke-linejoin="round" d="M279.389,405.711C289.970,409.084,302.333,437.997,306.211,448.213"/>
<path fill="none" stroke="#392966" stroke-width="1" stroke-linecap="butt" stroke-linejoin="round" d="M306.211,448.213C317.045,479.307,328.453,508.055,338.774,538.130"/>
<path fill="none" stroke="#392966" stroke-width="1" stroke-linecap="butt" stroke-linejoin="round" d="M338.774,538.130C340.598,543.870,342.569,549.771,344.195,555.447"/>
<path fill="none" stroke="#392966" stroke-width="1" stroke-linecap="butt" stroke-linejoin="round" d="M344.195,555.447C345.773,560.218,345.222,567.625,349.459,569.553"/>
<path fill="none" stroke="#392966" stroke-width="1" stroke-linecap="butt" stroke-linejoin="round" d="M349.459,569.553C351.649,571.053,355.486,566.534,356.714,568.697"/>
<path fill="none" stroke="#392966" stroke-width="1" stroke-linecap="butt" stroke-linejoin="round" d="M356.714,568.697C360.455,576.326,350.875,575.128,348.483,580.545"/>
<path fill="none" stroke="#392966" stroke-width="1" stroke-linecap="butt" stroke-linejoin="round" d="M348.483,580.545C343.854,590.209,332.269,600.888,322.667,601.324"/>
<path fill="none" stroke="#392966" stroke-width="1" stroke-linecap="butt" stroke-linejoin="round" d="M322.667,601.324C316.247,601.839,303.805,598.275,299.557,593.282"/>
<path fill="none" stroke="#392966" stroke-width="1" stroke-linecap="butt" stroke-linejoin="round" d="M299.557,593.282C295.660,588.702,292.054,582.768,289.253,577.556"/>
<path fill="none" stroke="#392966" stroke-width="1" stroke-linecap="butt" stroke-linejoin="round" d="M289.253,577.556C275.579,552.118,273.961,495.489,255.701,462.782"/>
<path fill="none" stroke="#392966" stroke-width="1" stroke-linecap="butt" stroke-linejoin="round" d="M255.701,462.782C246.508,446.314,252.684,441.504,257.251,427.398"/>
<path fill="none" stroke="#392966" stroke-width="1" stroke-linecap="butt" stroke-linejoin="round" d="M257.251,427.398C258.062,424.895,246.555,430.611,244.293,429.175"/>
<path fill="none" stroke="#392966" stroke-width="1" stroke-linecap="butt" stroke-linejoin="round" d="M244.293,429.175C241.460,427.677,242.370,420.319,242.610,417.172"/>
<path fill="none" stroke="#392966" stroke-width="1" stroke-linecap="butt" stroke-linejoin="round" d="M242.610,417.172C242.728,412.088,252.936,412.717,256.563,411.337"/>
<path fill="#392966" fill-rule="evenodd" stroke="none" d="M256.563,411.337C262.049,409.560,273.757,403.704,279.389,405.711C289.970,409.084,302.333,437.997,306.211,448.213C317.045,479.307,328.453,508.055,338.774,538.130C340.598,543.870,342.569,549.771,344.195,555.447C345.773,560.218,345.222,567.625,349.459,569.553C351.649,571.053,355.486,566.534,356.714,568.697C360.455,576.326,350.875,575.128,348.483,580.545C343.854,590.209,332.269,600.888,322.667,601.324C316.247,601.839,303.805,598.275,299.557,593.282C295.660,588.702,292.054,582.768,289.253,577.556C275.579,552.118,273.961,495.489,255.701,462.782C246.508,446.314,252.684,441.504,257.251,427.398C258.062,424.895,246.555,430.611,244.293,429.175C241.460,427.677,242.370,420.319,242.610,417.172C242.728,412.088,252.936,412.717,256.563,411.337Z"/>
<path fill="#000000" fill-rule="evenodd" stroke="none" d="M337.287,658.917C310.227,662.630,303.812,626.856,321.197,613.674C338.436,600.791,359.880,607.035,369.626,617.878C375.042,623.172,378.917,629.451,377.884,637.099C374.793,651.183,349.762,657.115,337.287,658.917M382.298,607.059C374.807,595.087,359.982,586.359,348.373,586.159C318.969,585.783,299.374,601.366,299.032,628.570C298.326,644.246,306.355,659.038,319.214,667.913C329.338,674.451,354.720,667.608,365.009,663.127C373.793,658.528,384.538,652.071,388.128,641.762C390.852,634.296,386.436,613.792,382.298,607.059Z"/>
<path fill="none" stroke="#d88e4b" stroke-width="1" stroke-linecap="butt" stroke-linejoin="round" d="M321.197,613.674C338.436,600.791,359.880,607.035,369.626,617.878"/>
<path fill="none" stroke="#d88e4b" stroke-width="1" stroke-linecap="butt" stroke-linejoin="round" d="M369.626,617.878C375.042,623.172,378.917,629.451,377.884,637.099"/>
<path fill="none" stroke="#d88e4b" stroke-width="1" stroke-linecap="butt" stroke-linejoin="round" d="M377.884,637.099C374.793,651.183,349.762,657.115,337.287,658.917"/>
<path fill="none" stroke="#d88e4b" stroke-width="1" stroke-linecap="butt" stroke-linejoin="round" d="M337.287,658.917C310.227,662.630,303.812,626.856,321.197,613.674"/>
<path fill="#d88e4b" fill-rule="evenodd" stroke="none" d="M321.197,613.674C338.436,600.791,359.880,607.035,369.626,617.878C375.042,623.172,378.917,629.451,377.884,637.099C374.793,651.183,349.762,657.115,337.287,658.917C310.227,662.630,303.812,626.856,321.197,613.674Z"/>
<path fill="#000000" fill-rule="evenodd" stroke="none" d="M345.336,672.532C334.929,675.805,327.435,662.718,327.377,668.564C327.341,672.239,337.461,672.210,341.730,672.057C351.293,672.084,364.948,666.154,371.816,659.134C374.208,657.063,382.037,651.166,382.187,651.379C384.594,654.795,373.230,659.791,369.664,661.455C366.870,663.135,346.097,672.096,345.336,672.532M327.630,668.245C331.983,664.852,343.429,666.069,347.600,666.127C364.163,666.358,371.427,654.753,378.674,650.679C379.309,650.333,380.099,647.989,382.049,649.102C388.449,652.752,359.022,670.672,344.882,670.578C337.381,671.307,325.847,669.634,327.630,668.245M383.861,640.524C380.085,639.170,366.738,652.731,351.277,658.221C343.299,661.086,319.173,654.812,316.827,666.058C316.325,668.493,319.585,675.692,321.768,676.752C336.322,684.137,384.226,663.974,388.605,657.233C390.026,655.047,389.634,642.593,383.861,640.524Z"/>
<path fill="none" stroke="#6e2353" stroke-width="1" stroke-linecap="butt" stroke-linejoin="round" d="M327.377,668.564C327.341,672.239,337.461,672.210,341.730,672.057"/>
<path fill="none" stroke="#6e2353" stroke-width="1" stroke-linecap="butt" stroke-linejoin="round" d="M341.730,672.057C351.293,672.084,364.948,666.154,371.816,659.134"/>
<path fill="none" stroke="#6e2353" stroke-width="1" stroke-linecap="butt" stroke-linejoin="round" d="M371.816,659.134C374.208,657.063,382.037,651.166,382.187,651.379"/>
<path fill="none" stroke="#6e2353" stroke-width="1" stroke-linecap="butt" stroke-linejoin="round" d="M382.187,651.379C384.594,654.795,373.230,659.791,369.664,661.455"/>
<path fill="none" stroke="#6e2353" stroke-width="1" stroke-linecap="butt" stroke-linejoin="round" d="M369.664,661.455C366.870,663.135,346.097,672.096,345.336,672.532"/>
<path fill="none" stroke="#6e2353" stroke-width="1" stroke-linecap="butt" stroke-linejoin="round" d="M345.336,672.532C334.929,675.805,327.435,662.718,327.377,668.564"/>
<path fill="#6e2353" fill-rule="evenodd" stroke="none" d="M327.377,668.564C327.341,672.239,337.461,672.210,341.730,672.057C351.293,672.084,364.948,666.154,371.816,659.134C374.208,657.063,382.037,651.166,382.187,651.379C384.594,654.795,373.230,659.791,369.664,661.455C366.870,663.135,346.097,672.096,345.336,672.532C334.929,675.805,327.435,662.718,327.377,668.564Z"/>
<path fill="none" stroke="#6e2353" stroke-width="1" stroke-linecap="butt" stroke-linejoin="round" d="M347.600,666.127C364.163,666.358,371.427,654.753,378.674,650.679"/>
<path fill="none" stroke="#6e2353" stroke-width="1" stroke-linecap="butt" stroke-linejoin="round" d="M378.674,650.679C379.309,650.333,380.099,647.989,382.049,649.102"/>
<path fill="none" stroke="#6e2353" stroke-width="1" stroke-linecap="butt" stroke-linejoin="round" d="M382.049,649.102C388.449,652.752,359.022,670.672,344.882,670.578"/>
<path fill="none" stroke="#6e2353" stroke-width="1" stroke-linecap="butt" stroke-linejoin="round" d="M344.882,670.578C337.381,671.307,325.847,669.634,327.630,668.245"/>
<path fill="none" stroke="#6e2353" stroke-width="1" stroke-linecap="butt" stroke-linejoin="round" d="M327.630,668.245C331.983,664.852,343.429,666.069,347.600,666.127"/>
<path fill="#6e2353" fill-rule="evenodd" stroke="none" d="M347.600,666.127C364.163,666.358,371.427,654.753,378.674,650.679C379.309,650.333,380.099,647.989,382.049,649.102C388.449,652.752,359.022,670.672,344.882,670.578C337.381,671.307,325.847,669.634,327.630,668.245C331.983,664.852,343.429,666.069,347.600,666.127Z"/>
</g>
<g id="layer_right_leg">
<path fill="#000000" fill-rule="evenodd" stroke="none" d="M194.516,621.814C194.337,605.708,194.668,593.167,214.456,589.143C223.260,587.191,240.384,588.954,245.820,597.103C248.666,601.145,248.265,607.350,248.800,611.818C249.737,619.096,255.202,632.916,244.820,635.258C244.157,635.475,225.593,636.916,219.802,637.415C212.453,638.730,204.779,639.747,199.095,635.036C196.131,632.039,194.481,625.604,194.516,621.814M255.224,594.854C250.650,584.888,236.004,579.952,226.035,581.988C213.019,584.484,199.309,581.044,191.542,593.608C185.487,603.401,185.849,620.712,188.556,631.549C189.635,636.559,193.477,645.587,197.939,648.130C201.204,649.901,206.018,649.047,209.728,648.829C227.818,648.047,260.464,652.113,258.379,625.682C257.766,618.849,257.630,600.146,255.224,594.854Z"/>
<path fill="none" stroke="#d88e4b" stroke-width="1" stroke-linecap="butt" stroke-linejoin="round" d="M214.456,589.143C223.260,587.191,240.384,588.954,245.820,597.103"/>
<path fill="none" stroke="#d88e4b" stroke-width="1" stroke-linecap="butt" stroke-linejoin="round" d="M245.820,597.103C248.666,601.145,248.265,607.350,248.800,611.818"/>
<path fill="none" stroke="#d88e4b" stroke-width="1" stroke-linecap="butt" stroke-linejoin="round" d="M248.800,611.818C249.737,619.096,255.202,632.916,244.820,635.258"/>
<path fill="none" stroke="#d88e4b" stroke-width="1" stroke-linecap="butt" stroke-linejoin="round" d="M244.820,635.258C244.157,635.475,225.593,636.916,219.802,637.415"/>
<path fill="none" stroke="#d88e4b" stroke-width="1" stroke-linecap="butt" stroke-linejoin="round" d="M219.802,637.415C212.453,638.730,204.779,639.747,199.095,635.036"/>
<path fill="none" stroke="#d88e4b" stroke-width="1" stroke-linecap="butt" stroke-linejoin="round" d="M199.095,635.036C196.131,632.039,194.481,625.604,194.516,621.814"/>
<path fill="none" stroke="#d88e4b" stroke-width="1" stroke-linecap="butt" stroke-linejoin="round" d="M194.516,621.814C194.337,605.708,194.668,593.167,214.456,589.143"/>
<path fill="#d88e4b" fill-rule="evenodd" stroke="none" d="M214.456,589.143C223.260,587.191,240.384,588.954,245.820,597.103C248.666,601.145,248.265,607.350,248.800,611.818C249.737,619.096,255.202,632.916,244.820,635.258C244.157,635.475,225.593,636.916,219.802,637.415C212.453,638.730,204.779,639.747,199.095,635.036C196.131,632.039,194.481,625.604,194.516,621.814C194.337,605.708,194.668,593.167,214.456,589.143Z"/>
<path fill="#000000" fill-rule="evenodd" stroke="none" d="M180.411,410.694C183.321,398.835,198.814,395.123,209.508,397.363C215.424,398.479,225.346,400.698,228.875,405.901C230.385,408.127,231.197,412.387,229.927,414.747C227.696,418.891,212.333,417.008,215.256,420.827C220.366,427.720,229.964,417.914,234.461,421.463C236.461,423.042,236.856,426.481,237.419,429.336C242.793,450.641,237.260,474.002,238.427,495.254C238.735,502.127,237.708,512.344,239.296,518.530C242.671,533.812,240.959,537.160,241.881,546.395C242.004,549.849,241.248,567.438,242.674,571.864C244.274,576.508,247.979,580.848,248.716,585.719C249.960,593.934,238.193,605.401,230.737,608.005C222.207,610.798,195.474,610.444,187.136,606.518C183.916,605.115,179.878,601.518,178.438,598.094C176.891,594.911,174.452,579.724,175.306,575.995C177.057,569.505,179.504,568.078,181.194,560.394C182.860,551.348,184.458,541.568,183.483,532.203C181.204,513.899,180.449,484.466,181.875,471.196C182.489,463.721,179.351,438.838,180.003,431.913C181.188,420.466,179.061,418.382,180.411,410.694M204.049,386.131C198.279,384.515,193.610,379.524,187.775,381.873C186.002,382.761,182.961,385.184,181.750,386.552C166.681,400.988,168.773,414.455,169.973,433.630C170.111,440.514,170.624,447.654,170.363,454.265C170.034,459.765,168.461,464.341,167.421,469.420C166.851,473.588,166.426,478.043,166.499,483.245C166.700,488.359,168.409,494.285,169.018,502.957C168.989,512.672,170.223,521.779,170.307,531.065C170.580,537.390,168.307,552.186,167.696,557.040C165.830,563.961,163.080,572.003,161.851,578.660C160.754,587.455,162.679,596.610,166.583,604.101C168.415,608.127,171.603,612.870,174.933,615.424C177.104,617.089,179.936,617.966,182.460,618.667C190.795,620.932,198.632,621.786,207.351,621.539C213.225,621.417,218.907,619.445,225.015,619.617C226.028,619.493,234.370,620.889,236.017,620.926C238.974,620.826,242.977,618.017,245.573,616.310C249.009,613.776,255.293,612.725,257.949,609.261C260.096,606.456,260.514,602.698,261.494,599.320C266.963,579.404,260.656,568.964,257.067,551.272C255.072,541.435,251.445,521.169,250.912,510.077C249.986,496.656,251.848,483.521,251.792,469.656C251.864,465.285,251.931,460.044,252.390,455.082C252.760,450.112,251.454,446.179,250.941,441.295C250.315,437.536,249.835,425.395,248.991,421.369C248.385,417.769,248.133,413.245,246.573,409.743C242.330,400.841,227.733,391.579,218.246,389.204C213.493,387.853,208.492,387.827,204.049,386.131Z"/>
<path fill="none" stroke="#392966" stroke-width="1" stroke-linecap="butt" stroke-linejoin="round" d="M209.508,397.363C215.424,398.479,225.346,400.698,228.875,405.901"/>
<path fill="none" stroke="#392966" stroke-width="1" stroke-linecap="butt" stroke-linejoin="round" d="M228.875,405.901C230.385,408.127,231.197,412.387,229.927,414.747"/>
<path fill="none" stroke="#392966" stroke-width="1" stroke-linecap="butt" stroke-linejoin="round" d="M229.927,414.747C227.696,418.891,212.333,417.008,215.256,420.827"/>
<path fill="none" stroke="#392966" stroke-width="1" stroke-linecap="butt" stroke-linejoin="round" d="M215.256,420.827C220.366,427.720,229.964,417.914,234.461,421.463"/>
<path fill="none" stroke="#392966" stroke-width="1" stroke-linecap="butt" stroke-linejoin="round" d="M234.461,421.463C236.461,423.042,236.856,426.481,237.419,429.336"/>
<path fill="none" stroke="#392966" stroke-width="1" stroke-linecap="butt" stroke-linejoin="round" d="M237.419,429.336C242.793,450.641,237.260,474.002,238.427,495.254"/>
<path fill="none" stroke="#392966" stroke-width="1" stroke-linecap="butt" stroke-linejoin="round" d="M238.427,495.254C238.735,502.127,237.708,512.344,239.296,518.530"/>
<path fill="none" stroke="#392966" stroke-width="1" stroke-linecap="butt" stroke-linejoin="round" d="M239.296,518.530C242.671,533.812,240.959,537.160,241.881,546.395"/>
<path fill="none" stroke="#392966" stroke-width="1" stroke-linecap="butt" stroke-linejoin="round" d="M241.881,546.395C242.004,549.849,241.248,567.438,242.674,571.864"/>
<path fill="none" stroke="#392966" stroke-width="1" stroke-linecap="butt" stroke-linejoin="round" d="M242.674,571.864C244.274,576.508,247.979,580.848,248.716,585.719"/>
<path fill="none" stroke="#392966" stroke-width="1" stroke-linecap="butt" stroke-linejoin="round" d="M248.716,585.719C249.960,593.934,238.193,605.401,230.737,608.005"/>
<path fill="none" stroke="#392966" stroke-width="1" stroke-linecap="butt" stroke-linejoin="round" d="M230.737,608.005C222.207,610.798,195.474,610.444,187.136,606.518"/>
<path fill="none" stroke="#392966" stroke-width="1" stroke-linecap="butt" stroke-linejoin="round" d="M187.136,606.518C183.916,605.115,179.878,601.518,178.438,598.094"/>
<path fill="none" stroke="#392966" stroke-width="1" stroke-linecap="butt" stroke-linejoin="round" d="M178.438,598.094C176.891,594.911,174.452,579.724,175.306,575.995"/>
<path fill="none" stroke="#392966" stroke-width="1" stroke-linecap="butt" stroke-linejoin="round" d="M175.306,575.995C177.057,569.505,179.504,568.078,181.194,560.394"/>
<path fill="none" stroke="#392966" stroke-width="1" stroke-linecap="butt" stroke-linejoin="round" d="M181.194,560.394C182.860,551.348,184.458,541.568,183.483,532.203"/>
<path fill="none" stroke="#392966" stroke-width="1" stroke-linecap="butt" stroke-linejoin="round" d="M183.483,532.203C181.204,513.899,180.449,484.466,181.875,471.196"/>
<path fill="none" stroke="#392966" stroke-width="1" stroke-linecap="butt" stroke-linejoin="round" d="M181.875,471.196C182.489,463.721,179.351,438.838,180.003,431.913"/>
<path fill="none" stroke="#392966" stroke-width="1" stroke-linecap="butt" stroke-linejoin="round" d="M180.003,431.913C181.188,420.466,179.061,418.382,180.411,410.694"/>
<path fill="none" stroke="#392966" stroke-width="1" stroke-linecap="butt" stroke-linejoin="round" d="M180.411,410.694C183.321,398.835,198.814,395.123,209.508,397.363"/>
<path fill="#392966" fill-rule="evenodd" stroke="none" d="M209.508,397.363C215.424,398.479,225.346,400.698,228.875,405.901C230.385,408.127,231.197,412.387,229.927,414.747C227.696,418.891,212.333,417.008,215.256,420.827C220.366,427.720,229.964,417.914,234.461,421.463C236.461,423.042,236.856,426.481,237.419,429.336C242.793,450.641,237.260,474.002,238.427,495.254C238.735,502.127,237.708,512.344,239.296,518.530C242.671,533.812,240.959,537.160,241.881,546.395C242.004,549.849,241.248,567.438,242.674,571.864C244.274,576.508,247.979,580.848,248.716,585.719C249.960,593.934,238.193,605.401,230.737,608.005C222.207,610.798,195.474,610.444,187.136,606.518C183.916,605.115,179.878,601.518,178.438,598.094C176.891,594.911,174.452,579.724,175.306,575.995C177.057,569.505,179.504,568.078,181.194,560.394C182.860,551.348,184.458,541.568,183.483,532.203C181.204,513.899,180.449,484.466,181.875,471.196C182.489,463.721,179.351,438.838,180.003,431.913C181.188,420.466,179.061,418.382,180.411,410.694C183.321,398.835,198.814,395.123,209.508,397.363Z"/>
<path fill="#000000" fill-rule="evenodd" stroke="none" d="M178.842,645.047C179.382,631.842,183.599,614.625,199.740,611.382C203.445,610.439,208.839,611.872,213.057,612.461C234.618,615.418,243.196,619.625,245.243,641.071C245.684,646.968,247.054,654.239,242.859,659.238C238.684,664.124,217.438,662.789,211.018,663.445C199.687,664.850,190.230,670.767,181.737,661.500C176.646,655.828,178.564,652.100,178.842,645.047M252.357,618.050C244.438,604.680,211.241,598.392,196.694,601.918C174.992,607.305,168.984,624.659,168.718,643.042C168.574,649.602,168.164,656.824,171.834,662.414C173.148,664.414,175.829,667.038,177.674,668.593C191.626,681.375,201.130,679.114,218.866,677.941C228.255,677.475,243.814,675.763,250.964,669.163C256.306,663.750,256.517,658.175,256.326,651.070C255.893,644.241,255.521,622.938,252.357,618.050Z"/>
<path fill="none" stroke="#d88e4b" stroke-width="1" stroke-linecap="butt" stroke-linejoin="round" d="M199.740,611.382C203.445,610.439,208.839,611.872,213.057,612.461"/>
<path fill="none" stroke="#d88e4b" stroke-width="1" stroke-linecap="butt" stroke-linejoin="round" d="M213.057,612.461C234.618,615.418,243.196,619.625,245.243,641.071"/>
<path fill="none" stroke="#d88e4b" stroke-width="1" stroke-linecap="butt" stroke-linejoin="round" d="M245.243,641.071C245.684,646.968,247.054,654.239,242.859,659.238"/>
<path fill="none" stroke="#d88e4b" stroke-width="1" stroke-linecap="butt" stroke-linejoin="round" d="M242.859,659.238C238.684,664.124,217.438,662.789,211.018,663.445"/>
<path fill="none" stroke="#d88e4b" stroke-width="1" stroke-linecap="butt" stroke-linejoin="round" d="M211.018,663.445C199.687,664.850,190.230,670.767,181.737,661.500"/>
<path fill="none" stroke="#d88e4b" stroke-width="1" stroke-linecap="butt" stroke-linejoin="round" d="M181.737,661.500C176.646,655.828,178.564,652.100,178.842,645.047"/>
<path fill="none" stroke="#d88e4b" stroke-width="1" stroke-linecap="butt" stroke-linejoin="round" d="M178.842,645.047C179.382,631.842,183.599,614.625,199.740,611.382"/>
<path fill="#d88e4b" fill-rule="evenodd" stroke="none" d="M199.740,611.382C203.445,610.439,208.839,611.872,213.057,612.461C234.618,615.418,243.196,619.625,245.243,641.071C245.684,646.968,247.054,654.239,242.859,659.238C238.684,664.124,217.438,662.789,211.018,663.445C199.687,664.850,190.230,670.767,181.737,661.500C176.646,655.828,178.564,652.100,178.842,645.047C179.382,631.842,183.599,614.625,199.740,611.382Z"/>
<path fill="#000000" fill-rule="evenodd" stroke="none" d="M198.051,674.567C201.682,676.609,211.608,673.148,216.135,673.485C219.277,673.888,222.531,675.114,224.994,674.160C226.865,673.549,237.745,669.166,234.280,672.152C232.293,673.948,227.992,674.032,225.841,673.968C223.460,674.189,201.048,674.809,200.236,675.021C193.369,676.327,186.599,669.517,188.819,671.252C190.747,672.758,194.320,672.456,198.051,674.567M238.902,667.926C239.101,668.740,238.236,669.903,236.971,669.969C234.497,670.107,225.248,672.655,221.949,672.105C218.173,672.134,214.043,672.896,210.641,672.979C203.774,673.148,192.983,676.490,187.755,672.163C187.529,671.898,187.491,671.652,187.565,671.477C187.887,670.724,192.575,672.089,195.844,671.919C200.952,671.654,207.927,669.997,213.143,669.459C218.781,668.878,226.241,669.110,232.000,668.256C232.898,668.145,238.418,665.948,238.902,667.926M244.071,662.280C232.618,659.776,224.365,666.798,213.789,665.691C206.369,664.943,191.992,665.685,183.046,667.974C181.612,668.341,178.824,668.314,178.475,669.813C178.042,671.699,181.917,675.473,184.319,676.827C187.295,678.506,193.255,678.189,195.641,678.402C207.763,679.920,222.939,675.740,235.217,676.634C244.439,677.227,246.215,672.009,246.880,667.699C247.158,665.898,247.653,663.016,244.071,662.280Z"/>
<path fill="none" stroke="#6e2353" stroke-width="1" stroke-linecap="butt" stroke-linejoin="round" d="M198.051,674.567C201.682,676.609,211.608,673.148,216.135,673.485"/>
<path fill="none" stroke="#6e2353" stroke-width="1" stroke-linecap="butt" stroke-linejoin="round" d="M216.135,673.485C219.277,673.888,222.531,675.114,224.994,674.160"/>
<path fill="none" stroke="#6e2353" stroke-width="1" stroke-linecap="butt" stroke-linejoin="round" d="M224.994,674.160C226.865,673.549,237.745,669.166,234.280,672.152"/>
<path fill="none" stroke="#6e2353" stroke-width="1" stroke-linecap="butt" stroke-linejoin="round" d="M234.280,672.152C232.293,673.948,227.992,674.032,225.841,673.968"/>
<path fill="none" stroke="#6e2353" stroke-width="1" stroke-linecap="butt" stroke-linejoin="round" d="M225.841,673.968C223.460,674.189,201.048,674.809,200.236,675.021"/>
<path fill="none" stroke="#6e2353" stroke-width="1" stroke-linecap="butt" stroke-linejoin="round" d="M200.236,675.021C193.369,676.327,186.599,669.517,188.819,671.252"/>
<path fill="none" stroke="#6e2353" stroke-width="1" stroke-linecap="butt" stroke-linejoin="round" d="M188.819,671.252C190.747,672.758,194.320,672.456,198.051,674.567"/>
<path fill="#6e2353" fill-rule="evenodd" stroke="none" d="M198.051,674.567C201.682,676.609,211.608,673.148,216.135,673.485C219.277,673.888,222.531,675.114,224.994,674.160C226.865,673.549,237.745,669.166,234.280,672.152C232.293,673.948,227.992,674.032,225.841,673.968C223.460,674.189,201.048,674.809,200.236,675.021C193.369,676.327,186.599,669.517,188.819,671.252C190.747,672.758,194.320,672.456,198.051,674.567Z"/>
<path fill="none" stroke="#6e2353" stroke-width="1" stroke-linecap="butt" stroke-linejoin="round" d="M195.844,671.919C200.952,671.654,207.927,669.997,213.143,669.459"/>
<path fill="none" stroke="#6e2353" stroke-width="1" stroke-linecap="butt" stroke-linejoin="round" d="M213.143,669.459C218.781,668.878,226.241,669.110,232.000,668.256"/>
<path fill="none" stroke="#6e2353" stroke-width="1" stroke-linecap="butt" stroke-linejoin="round" d="M232.000,668.256C232.898,668.145,238.418,665.948,238.902,667.926"/>
<path fill="none" stroke="#6e2353" stroke-width="1" stroke-linecap="butt" stroke-linejoin="round" d="M238.902,667.926C239.101,668.740,238.236,669.903,236.971,669.969"/>
<path fill="none" stroke="#6e2353" stroke-width="1" stroke-linecap="butt" stroke-linejoin="round" d="M236.971,669.969C234.497,670.107,225.248,672.655,221.949,672.105"/>
<path fill="none" stroke="#6e2353" stroke-width="1" stroke-linecap="butt" stroke-linejoin="round" d="M221.949,672.105C218.173,672.134,214.043,672.896,210.641,672.979"/>
<path fill="none" stroke="#6e2353" stroke-width="1" stroke-linecap="butt" stroke-linejoin="round" d="M210.641,672.979C203.774,673.148,192.983,676.490,187.755,672.163"/>
<path fill="none" stroke="#6e2353" stroke-width="1" stroke-linecap="butt" stroke-linejoin="round" d="M187.755,672.163C187.529,671.898,187.491,671.652,187.565,671.477"/>
<path fill="none" stroke="#6e2353" stroke-width="1" stroke-linecap="butt" stroke-linejoin="round" d="M187.565,671.477C187.887,670.724,192.575,672.089,195.844,671.919"/>
<path fill="#6e2353" fill-rule="evenodd" stroke="none" d="M195.844,671.919C200.952,671.654,207.927,669.997,213.143,669.459C218.781,668.878,226.241,669.110,232.000,668.256C232.898,668.145,238.418,665.948,238.902,667.926C239.101,668.740,238.236,669.903,236.971,669.969C234.497,670.107,225.248,672.655,221.949,672.105C218.173,672.134,214.043,672.896,210.641,672.979C203.774,673.148,192.983,676.490,187.755,672.163C187.529,671.898,187.491,671.652,187.565,671.477C187.887,670.724,192.575,672.089,195.844,671.919Z"/>
</g>
<path fill="#000000" fill-rule="evenodd" stroke="none" d="M303.017,155.228C307.328,149.690,318.090,134.503,326.024,135.403C331.314,136.003,341.136,146.828,346.417,150.440C351.039,153.978,356.029,157.222,361.348,160.504C364.352,162.524,367.360,164.539,370.372,166.549C383.763,175.435,379.083,181.267,370.968,179.006C352.832,173.600,349.706,174.586,332.905,163.305C330.703,162.050,325.127,158.071,323.648,162.255C321.765,167.064,330.203,172.374,333.651,174.439C339.850,178.826,346.673,183.618,354.532,185.178C356.809,185.772,364.818,186.009,365.877,188.473C367.485,192.004,356.924,199.512,354.716,201.271C351.072,203.871,347.430,206.471,343.861,208.411C338.528,211.153,332.901,213.528,327.169,213.883C316.441,214.006,285.108,195.050,285.428,183.368C285.517,176.682,298.338,161.060,303.017,155.228M338.413,132.456C333.941,127.596,331.018,120.902,323.369,123.384C317.817,125.098,311.336,132.064,307.250,135.619C291.821,150.610,277.379,168.728,275.603,190.289C274.397,203.880,279.061,204.075,289.371,210.601C304.962,220.740,325.819,225.784,344.608,219.545C356.777,215.567,378.968,200.003,385.607,188.702C387.709,184.923,391.696,176.334,389.906,171.445C387.900,165.524,366.838,153.426,360.639,149.040C353.193,143.842,344.717,138.863,338.413,132.456Z"/>
<path fill="none" stroke="#cc9bc5" stroke-width="1" stroke-linecap="butt" stroke-linejoin="round" d="M326.024,135.403C331.314,136.003,341.136,146.828,346.417,150.440"/>
<path fill="none" stroke="#cc9bc5" stroke-width="1" stroke-linecap="butt" stroke-linejoin="round" d="M346.417,150.440C351.039,153.978,356.029,157.222,361.348,160.504"/>
<path fill="none" stroke="#cc9bc5" stroke-width="1" stroke-linecap="butt" stroke-linejoin="round" d="M361.348,160.504C364.352,162.524,367.360,164.539,370.372,166.549"/>
<path fill="none" stroke="#cc9bc5" stroke-width="1" stroke-linecap="butt" stroke-linejoin="round" d="M370.372,166.549C383.763,175.435,379.083,181.267,370.968,179.006"/>
<path fill="none" stroke="#cc9bc5" stroke-width="1" stroke-linecap="butt" stroke-linejoin="round" d="M370.968,179.006C352.832,173.600,349.706,174.586,332.905,163.305"/>
<path fill="none" stroke="#cc9bc5" stroke-width="1" stroke-linecap="butt" stroke-linejoin="round" d="M332.905,163.305C330.703,162.050,325.127,158.071,323.648,162.255"/>
<path fill="none" stroke="#cc9bc5" stroke-width="1" stroke-linecap="butt" stroke-linejoin="round" d="M323.648,162.255C321.765,167.064,330.203,172.374,333.651,174.439"/>
<path fill="none" stroke="#cc9bc5" stroke-width="1" stroke-linecap="butt" stroke-linejoin="round" d="M333.651,174.439C339.850,178.826,346.673,183.618,354.532,185.178"/>
<path fill="none" stroke="#cc9bc5" stroke-width="1" stroke-linecap="butt" stroke-linejoin="round" d="M354.532,185.178C356.809,185.772,364.818,186.009,365.877,188.473"/>
<path fill="none" stroke="#cc9bc5" stroke-width="1" stroke-linecap="butt" stroke-linejoin="round" d="M365.877,188.473C367.485,192.004,356.924,199.512,354.716,201.271"/>
<path fill="none" stroke="#cc9bc5" stroke-width="1" stroke-linecap="butt" stroke-linejoin="round" d="M354.716,201.271C351.072,203.871,347.430,206.471,343.861,208.411"/>
<path fill="none" stroke="#cc9bc5" stroke-width="1" stroke-linecap="butt" stroke-linejoin="round" d="M343.861,208.411C338.528,211.153,332.901,213.528,327.169,213.883"/>
<path fill="none" stroke="#cc9bc5" stroke-width="1" stroke-linecap="butt" stroke-linejoin="round" d="M327.169,213.883C316.441,214.006,285.108,195.050,285.428,183.368"/>
<path fill="none" stroke="#cc9bc5" stroke-width="1" stroke-linecap="butt" stroke-linejoin="round" d="M285.428,183.368C285.517,176.682,298.338,161.060,303.017,155.228"/>
<path fill="none" stroke="#cc9bc5" stroke-width="1" stroke-linecap="butt" stroke-linejoin="round" d="M303.017,155.228C307.328,149.690,318.090,134.503,326.024,135.403"/>
<path fill="#cc9bc5" fill-rule="evenodd" stroke="none" d="M326.024,135.403C331.314,136.003,341.136,146.828,346.417,150.440C351.039,153.978,356.029,157.222,361.348,160.504C364.352,162.524,367.360,164.539,370.372,166.549C383.763,175.435,379.083,181.267,370.968,179.006C352.832,173.600,349.706,174.586,332.905,163.305C330.703,162.050,325.127,158.071,323.648,162.255C321.765,167.064,330.203,172.374,333.651,174.439C339.850,178.826,346.673,183.618,354.532,185.178C356.809,185.772,364.818,186.009,365.877,188.473C367.485,192.004,356.924,199.512,354.716,201.271C351.072,203.871,347.430,206.471,343.861,208.411C338.528,211.153,332.901,213.528,327.169,213.883C316.441,214.006,285.108,195.050,285.428,183.368C285.517,176.682,298.338,161.060,303.017,155.228C307.328,149.690,318.090,134.503,326.024,135.403Z"/>
<path fill="#000000" fill-rule="evenodd" stroke="none" d="M199.721,145.681C215.945,132.112,235.678,129.015,256.570,126.050C265.934,124.702,273.032,130.444,280.861,135.985C287.323,140.884,294.300,146.434,301.157,151.568C311.474,159.234,315.869,163.161,319.811,166.940C323.145,169.807,328.426,175.255,332.471,177.693C337.351,180.632,348.185,196.745,350.407,198.465C344.031,201.359,333.826,204.050,329.450,208.355C331.681,213.986,332.932,222.934,333.214,225.629C327.081,226.680,319.619,224.611,308.010,223.688C306.413,231.070,307.103,237.764,303.159,245.491C295.256,243.931,289.727,242.589,279.362,239.171C273.345,245.006,271.771,244.755,261.788,252.319C254.292,248.717,248.202,244.683,241.034,242.549C234.586,246.106,224.005,248.199,220.677,251.477C216.182,244.858,211.918,237.478,208.341,234.449C198.993,237.370,195.165,240.396,188.671,243.528C183.920,238.466,186.460,233.640,180.989,226.047C176.564,225.318,169.647,223.386,164.104,223.835C167.476,218.983,168.817,204.028,175.096,201.519C182.845,198.422,176.885,189.841,180.969,181.191C181.970,178.946,192.050,161.521,192.833,158.759C194.363,153.980,196.052,148.902,199.721,145.681M284.185,122.964C271.066,114.811,245.984,112.186,232.498,116.792C220.105,120.869,208.082,126.105,197.789,134.347C192.019,138.903,185.782,145.391,182.294,151.875C175.293,164.490,166.059,191.483,160.599,204.101C156.267,214.547,151.962,221.737,147.378,227.628C165.544,232.285,170.923,234.422,176.224,234.706C177.313,242.391,185.000,247.416,184.609,256.054C193.246,253.889,198.246,251.154,205.848,248.440C210.265,252.681,213.621,258.706,218.013,264.502C225.486,261.659,233.368,261.175,240.435,254.997C246.231,257.453,255.429,261.251,264.893,265.296C272.720,260.084,274.464,259.658,281.720,253.867C291.383,255.263,301.867,260.131,311.270,258.185C309.797,250.104,315.275,243.916,314.057,238.759C321.035,236.136,343.305,237.161,347.023,236.472C346.205,230.477,341.760,219.283,342.614,211.960C349.213,209.492,354.780,207.288,364.866,201.170C360.753,194.848,353.736,187.187,347.811,182.792C342.814,179.122,338.539,174.029,333.522,170.187C316.530,157.392,308.461,138.130,284.185,122.964Z"/>
<path fill="none" stroke="#620527" stroke-width="1" stroke-linecap="butt" stroke-linejoin="round" d="M256.570,126.050C265.934,124.702,273.032,130.444,280.861,135.985"/>
<path fill="none" stroke="#620527" stroke-width="1" stroke-linecap="butt" stroke-linejoin="round" d="M280.861,135.985C287.323,140.884,294.300,146.434,301.157,151.568"/>
<path fill="none" stroke="#620527" stroke-width="1" stroke-linecap="butt" stroke-linejoin="round" d="M301.157,151.568C311.474,159.234,315.869,163.161,319.811,166.940"/>
<path fill="none" stroke="#620527" stroke-width="1" stroke-linecap="butt" stroke-linejoin="round" d="M319.811,166.940C323.145,169.807,328.426,175.255,332.471,177.693"/>
<path fill="none" stroke="#620527" stroke-width="1" stroke-linecap="butt" stroke-linejoin="round" d="M332.471,177.693C337.351,180.632,348.185,196.745,350.407,198.465"/>
<path fill="none" stroke="#620527" stroke-width="1" stroke-linecap="butt" stroke-linejoin="round" d="M350.407,198.465C344.031,201.359,333.826,204.050,329.450,208.355"/>
<path fill="none" stroke="#620527" stroke-width="1" stroke-linecap="butt" stroke-linejoin="round" d="M329.450,208.355C331.681,213.986,332.932,222.934,333.214,225.629"/>
<path fill="none" stroke="#620527" stroke-width="1" stroke-linecap="butt" stroke-linejoin="round" d="M333.214,225.629C327.081,226.680,319.619,224.611,308.010,223.688"/>
<path fill="none" stroke="#620527" stroke-width="1" stroke-linecap="butt" stroke-linejoin="round" d="M308.010,223.688C306.413,231.070,307.103,237.764,303.159,245.491"/>
<path fill="none" stroke="#620527" stroke-width="1" stroke-linecap="butt" stroke-linejoin="round" d="M303.159,245.491C295.256,243.931,289.727,242.589,279.362,239.171"/>
<path fill="none" stroke="#620527" stroke-width="1" stroke-linecap="butt" stroke-linejoin="round" d="M279.362,239.171C273.345,245.006,271.771,244.755,261.788,252.319"/>
<path fill="none" stroke="#620527" stroke-width="1" stroke-linecap="butt" stroke-linejoin="round" d="M261.788,252.319C254.292,248.717,248.202,244.683,241.034,242.549"/>
<path fill="none" stroke="#620527" stroke-width="1" stroke-linecap="butt" stroke-linejoin="round" d="M241.034,242.549C234.586,246.106,224.005,248.199,220.677,251.477"/>
<path fill="none" stroke="#620527" stroke-width="1" stroke-linecap="butt" stroke-linejoin="round" d="M220.677,251.477C216.182,244.858,211.918,237.478,208.341,234.449"/>
<path fill="none" stroke="#620527" stroke-width="1" stroke-linecap="butt" stroke-linejoin="round" d="M208.341,234.449C198.993,237.370,195.165,240.396,188.671,243.528"/>
<path fill="none" stroke="#620527" stroke-width="1" stroke-linecap="butt" stroke-linejoin="round" d="M188.671,243.528C183.920,238.466,186.460,233.640,180.989,226.047"/>
<path fill="none" stroke="#620527" stroke-width="1" stroke-linecap="butt" stroke-linejoin="round" d="M180.989,226.047C176.564,225.318,169.647,223.386,164.104,223.835"/>
<path fill="none" stroke="#620527" stroke-width="1" stroke-linecap="butt" stroke-linejoin="round" d="M164.104,223.835C167.476,218.983,168.817,204.028,175.096,201.519"/>
<path fill="none" stroke="#620527" stroke-width="1" stroke-linecap="butt" stroke-linejoin="round" d="M175.096,201.519C182.845,198.422,176.885,189.841,180.969,181.191"/>
<path fill="none" stroke="#620527" stroke-width="1" stroke-linecap="butt" stroke-linejoin="round" d="M180.969,181.191C181.970,178.946,192.050,161.521,192.833,158.759"/>
<path fill="none" stroke="#620527" stroke-width="1" stroke-linecap="butt" stroke-linejoin="round" d="M192.833,158.759C194.363,153.980,196.052,148.902,199.721,145.681"/>
<path fill="none" stroke="#620527" stroke-width="1" stroke-linecap="butt" stroke-linejoin="round" d="M199.721,145.681C215.945,132.112,235.678,129.015,256.570,126.050"/>
<path fill="#620527" fill-rule="evenodd" stroke="none" d="M256.570,126.050C265.934,124.702,273.032,130.444,280.861,135.985C287.323,140.884,294.300,146.434,301.157,151.568C311.474,159.234,315.869,163.161,319.811,166.940C323.145,169.807,328.426,175.255,332.471,177.693C337.351,180.632,348.185,196.745,350.407,198.465C344.031,201.359,333.826,204.050,329.450,208.355C331.681,213.986,332.932,222.934,333.214,225.629C327.081,226.680,319.619,224.611,308.010,223.688C306.413,231.070,307.103,237.764,303.159,245.491C295.256,243.931,289.727,242.589,279.362,239.171C273.345,245.006,271.771,244.755,261.788,252.319C254.292,248.717,248.202,244.683,241.034,242.549C234.586,246.106,224.005,248.199,220.677,251.477C216.182,244.858,211.918,237.478,208.341,234.449C198.993,237.370,195.165,240.396,188.671,243.528C183.920,238.466,186.460,233.640,180.989,226.047C176.564,225.318,169.647,223.386,164.104,223.835C167.476,218.983,168.817,204.028,175.096,201.519C182.845,198.422,176.885,189.841,180.969,181.191C181.970,178.946,192.050,161.521,192.833,158.759C194.363,153.980,196.052,148.902,199.721,145.681C215.945,132.112,235.678,129.015,256.570,126.050Z"/>
<path fill="#000000" fill-rule="evenodd" stroke="none" d="M244.607,370.978C239.396,368.931,219.592,369.520,216.100,374.163C213.886,377.300,217.148,379.077,220.481,379.334C224.462,379.640,245.443,379.601,248.223,377.962C252.637,375.290,246.774,371.722,244.607,370.978M199.459,267.284C203.332,254.948,231.088,244.110,243.892,246.060C252.854,247.398,280.183,263.540,283.554,272.189C286.380,279.106,285.509,303.847,285.173,312.204C284.278,327.486,283.886,342.844,283.645,358.151C284.030,370.143,292.906,383.576,286.939,393.986C284.523,397.152,274.893,397.197,270.580,397.963C264.771,399.281,253.670,403.937,248.190,403.717C225.296,403.423,227.471,405.154,206.023,404.126C201.912,403.771,188.622,402.024,186.108,400.006C180.423,394.252,184.036,385.682,185.960,378.134C189.972,364.699,191.771,355.295,194.032,340.597C196.369,324.711,199.532,307.744,200.781,291.194C200.898,285.246,198.541,270.857,199.459,267.284M279.287,254.717C263.676,243.847,248.252,234.694,228.184,238.936C222.794,239.874,195.372,250.845,192.830,253.999C188.869,259.002,191.266,279.255,190.750,286.468C190.467,295.067,190.053,303.994,188.725,312.182C187.886,318.448,186.083,323.964,185.587,329.923C184.704,336.517,184.220,343.686,182.603,349.679C177.987,366.316,164.263,399.124,183.755,411.642C188.346,414.614,195.173,414.619,200.933,415.045C210.856,415.587,221.506,416.455,231.547,415.465C243.941,414.588,255.908,410.347,268.478,409.908C274.943,409.683,294.894,417.142,299.810,412.394C302.217,410.172,303.061,395.697,302.703,392.013C300.779,378.776,294.672,366.257,293.438,352.938C292.664,340.980,293.124,329.208,294.773,316.989C295.910,307.015,298.335,297.475,299.092,287.135C299.076,282.751,300.096,277.438,298.062,272.909C294.632,264.608,286.310,259.599,279.287,254.717Z"/>
<path fill="none" stroke="#6a3661" stroke-width="1" stroke-linecap="butt" stroke-linejoin="round" d="M244.607,370.978C239.396,368.931,219.592,369.520,216.100,374.163"/>
<path fill="none" stroke="#6a3661" stroke-width="1" stroke-linecap="butt" stroke-linejoin="round" d="M216.100,374.163C213.886,377.300,217.148,379.077,220.481,379.334"/>
<path fill="none" stroke="#6a3661" stroke-width="1" stroke-linecap="butt" stroke-linejoin="round" d="M220.481,379.334C224.462,379.640,245.443,379.601,248.223,377.962"/>
<path fill="none" stroke="#6a3661" stroke-width="1" stroke-linecap="butt" stroke-linejoin="round" d="M248.223,377.962C252.637,375.290,246.774,371.722,244.607,370.978"/>
<path fill="none" stroke="#6a3661" stroke-width="1" stroke-linecap="butt" stroke-linejoin="round" d="M199.459,267.284C203.332,254.948,231.088,244.110,243.892,246.060"/>
<path fill="none" stroke="#6a3661" stroke-width="1" stroke-linecap="butt" stroke-linejoin="round" d="M243.892,246.060C252.854,247.398,280.183,263.540,283.554,272.189"/>
<path fill="none" stroke="#6a3661" stroke-width="1" stroke-linecap="butt" stroke-linejoin="round" d="M283.554,272.189C286.380,279.106,285.509,303.847,285.173,312.204"/>
<path fill="none" stroke="#6a3661" stroke-width="1" stroke-linecap="butt" stroke-linejoin="round" d="M285.173,312.204C284.278,327.486,283.886,342.844,283.645,358.151"/>
<path fill="none" stroke="#6a3661" stroke-width="1" stroke-linecap="butt" stroke-linejoin="round" d="M283.645,358.151C284.030,370.143,292.906,383.576,286.939,393.986"/>
<path fill="none" stroke="#6a3661" stroke-width="1" stroke-linecap="butt" stroke-linejoin="round" d="M286.939,393.986C284.523,397.152,274.893,397.197,270.580,397.963"/>
<path fill="none" stroke="#6a3661" stroke-width="1" stroke-linecap="butt" stroke-linejoin="round" d="M270.580,397.963C264.771,399.281,253.670,403.937,248.190,403.717"/>
<path fill="none" stroke="#6a3661" stroke-width="1" stroke-linecap="butt" stroke-linejoin="round" d="M248.190,403.717C225.296,403.423,227.471,405.154,206.023,404.126"/>
<path fill="none" stroke="#6a3661" stroke-width="1" stroke-linecap="butt" stroke-linejoin="round" d="M206.023,404.126C201.912,403.771,188.622,402.024,186.108,400.006"/>
<path fill="none" stroke="#6a3661" stroke-width="1" stroke-linecap="butt" stroke-linejoin="round" d="M186.108,400.006C180.423,394.252,184.036,385.682,185.960,378.134"/>
<path fill="none" stroke="#6a3661" stroke-width="1" stroke-linecap="butt" stroke-linejoin="round" d="M185.960,378.134C189.972,364.699,191.771,355.295,194.032,340.597"/>
<path fill="none" stroke="#6a3661" stroke-width="1" stroke-linecap="butt" stroke-linejoin="round" d="M194.032,340.597C196.369,324.711,199.532,307.744,200.781,291.194"/>
<path fill="none" stroke="#6a3661" stroke-width="1" stroke-linecap="butt" stroke-linejoin="round" d="M200.781,291.194C200.898,285.246,198.541,270.857,199.459,267.284"/>
<path fill="#6a3661" fill-rule="evenodd" stroke="none" d="M244.607,370.978C239.396,368.931,219.592,369.520,216.100,374.163C213.886,377.300,217.148,379.077,220.481,379.334C224.462,379.640,245.443,379.601,248.223,377.962C252.637,375.290,246.774,371.722,244.607,370.978M199.459,267.284C203.332,254.948,231.088,244.110,243.892,246.060C252.854,247.398,280.183,263.540,283.554,272.189C286.380,279.106,285.509,303.847,285.173,312.204C284.278,327.486,283.886,342.844,283.645,358.151C284.030,370.143,292.906,383.576,286.939,393.986C284.523,397.152,274.893,397.197,270.580,397.963C264.771,399.281,253.670,403.937,248.190,403.717C225.296,403.423,227.471,405.154,206.023,404.126C201.912,403.771,188.622,402.024,186.108,400.006C180.423,394.252,184.036,385.682,185.960,378.134C189.972,364.699,191.771,355.295,194.032,340.597C196.369,324.711,199.532,307.744,200.781,291.194C200.898,285.246,198.541,270.857,199.459,267.284Z"/>
<path fill="#000000" fill-rule="evenodd" stroke="none" d="M240.254,226.649C240.975,223.383,242.317,220.526,245.990,220.624C257.787,220.005,252.395,257.225,241.822,255.979C231.910,254.811,238.854,232.848,240.254,226.649M247.080,211.374C244.477,210.731,241.425,211.041,238.956,212.090C229.159,215.625,229.468,224.372,228.455,232.962C227.618,237.219,227.482,241.223,225.071,244.623C223.030,247.734,218.013,250.491,217.585,254.127C216.747,264.078,243.511,267.233,250.489,267.720C253.131,268.031,261.935,270.074,263.354,266.557C263.471,265.566,258.227,253.221,257.781,248.479C256.443,234.252,268.110,214.858,247.080,211.374Z"/>
<path fill="none" stroke="#f8a087" stroke-width="1" stroke-linecap="butt" stroke-linejoin="round" d="M245.990,220.624C257.787,220.005,252.395,257.225,241.822,255.979"/>
<path fill="none" stroke="#f8a087" stroke-width="1" stroke-linecap="butt" stroke-linejoin="round" d="M241.822,255.979C231.910,254.811,238.854,232.848,240.254,226.649"/>
<path fill="none" stroke="#f8a087" stroke-width="1" stroke-linecap="butt" stroke-linejoin="round" d="M240.254,226.649C240.975,223.383,242.317,220.526,245.990,220.624"/>
<path fill="#f8a087" fill-rule="evenodd" stroke="none" d="M245.990,220.624C257.787,220.005,252.395,257.225,241.822,255.979C231.910,254.811,238.854,232.848,240.254,226.649C240.975,223.383,242.317,220.526,245.990,220.624Z"/>
<g id="layer_head">
<path fill="#000000" fill-rule="evenodd" stroke="none" d="M170.796,184.673C166.662,184.316,157.968,157.412,162.658,158.948C168.420,160.835,169.964,171.826,171.077,176.310C171.671,178.328,174.452,184.990,170.796,184.673M165.886,144.915C164.360,143.602,162.540,142.038,160.624,142.657C151.233,144.113,153.348,158.555,155.171,167.931C157.446,178.994,163.516,193.280,172.377,198.908C173.712,199.765,175.991,202.439,177.659,202.285C183.679,201.349,179.337,191.134,178.260,186.476C176.699,178.988,170.554,150.572,165.886,144.915Z"/>
<path fill="none" stroke="#f8a087" stroke-width="1" stroke-linecap="butt" stroke-linejoin="round" d="M162.658,158.948C168.420,160.835,169.964,171.826,171.077,176.310"/>
<path fill="none" stroke="#f8a087" stroke-width="1" stroke-linecap="butt" stroke-linejoin="round" d="M171.077,176.310C171.671,178.328,174.452,184.990,170.796,184.673"/>
<path fill="none" stroke="#f8a087" stroke-width="1" stroke-linecap="butt" stroke-linejoin="round" d="M170.796,184.673C166.662,184.316,157.968,157.412,162.658,158.948"/>
<path fill="#f8a087" fill-rule="evenodd" stroke="none" d="M162.658,158.948C168.420,160.835,169.964,171.826,171.077,176.310C171.671,178.328,174.452,184.990,170.796,184.673C166.662,184.316,157.968,157.412,162.658,158.948Z"/>
<g id="face_Mask">
<path fill="#000000" fill-rule="evenodd" stroke="none" d="M173.622,101.700C183.231,92.274,216.601,88.828,230.379,88.381C245.811,88.122,261.085,92.199,275.436,98.513C280.539,100.767,288.253,103.297,292.131,107.773C298.152,114.776,299.461,126.314,299.574,135.186C299.779,140.532,299.557,147.406,297.945,152.197C287.482,183.282,279.112,198.000,271.384,206.057C258.148,219.858,236.859,223.556,217.917,224.382C199.401,224.923,191.155,221.034,174.931,211.963C172.079,210.375,165.806,206.997,164.062,204.405C157.759,194.648,163.114,183.022,162.001,171.952C160.874,163.408,155.878,151.080,155.194,142.663C154.461,131.456,165.721,109.380,173.622,101.700M296.988,100.599C284.994,86.782,249.115,80.042,231.295,80.682C222.917,80.729,214.908,80.483,207.079,81.599C201.268,82.613,196.005,84.691,190.524,85.743C178.465,88.728,173.846,86.756,164.853,96.570C158.416,103.423,146.521,131.938,146.270,141.179C146.196,148.779,152.824,166.441,152.813,175.290C152.747,184.851,146.285,197.874,149.681,206.450C152.854,214.136,160.412,218.173,170.759,223.526C178.707,227.638,187.616,231.432,196.695,233.013C201.388,233.830,206.785,235.768,217.027,234.765C237.341,232.519,258.665,227.763,274.632,212.900C289.227,199.315,308.996,180.998,314.216,150.657C317.566,131.186,303.406,107.832,296.988,100.599Z"/>
<path fill="none" stroke="#f8a087" stroke-width="1" stroke-linecap="butt" stroke-linejoin="round" d="M230.379,88.381C245.811,88.122,261.085,92.199,275.436,98.513"/>
<path fill="none" stroke="#f8a087" stroke-width="1" stroke-linecap="butt" stroke-linejoin="round" d="M275.436,98.513C280.539,100.767,288.253,103.297,292.131,107.773"/>
<path fill="none" stroke="#f8a087" stroke-width="1" stroke-linecap="butt" stroke-linejoin="round" d="M292.131,107.773C298.152,114.776,299.461,126.314,299.574,135.186"/>
<path fill="none" stroke="#f8a087" stroke-width="1" stroke-linecap="butt" stroke-linejoin="round" d="M299.574,135.186C299.779,140.532,299.557,147.406,297.945,152.197"/>
<path fill="none" stroke="#f8a087" stroke-width="1" stroke-linecap="butt" stroke-linejoin="round" d="M297.945,152.197C287.482,183.282,279.112,198.000,271.384,206.057"/>
<path fill="none" stroke="#f8a087" stroke-width="1" stroke-linecap="butt" stroke-linejoin="round" d="M271.384,206.057C258.148,219.858,236.859,223.556,217.917,224.382"/>
<path fill="none" stroke="#f8a087" stroke-width="1" stroke-linecap="butt" stroke-linejoin="round" d="M217.917,224.382C199.401,224.923,191.155,221.034,174.931,211.963"/>
<path fill="none" stroke="#f8a087" stroke-width="1" stroke-linecap="butt" stroke-linejoin="round" d="M174.931,211.963C172.079,210.375,165.806,206.997,164.062,204.405"/>
<path fill="none" stroke="#f8a087" stroke-width="1" stroke-linecap="butt" stroke-linejoin="round" d="M164.062,204.405C157.759,194.648,163.114,183.022,162.001,171.952"/>
<path fill="none" stroke="#f8a087" stroke-width="1" stroke-linecap="butt" stroke-linejoin="round" d="M162.001,171.952C160.874,163.408,155.878,151.080,155.194,142.663"/>
<path fill="none" stroke="#f8a087" stroke-width="1" stroke-linecap="butt" stroke-linejoin="round" d="M155.194,142.663C154.461,131.456,165.721,109.380,173.622,101.700"/>
<path fill="none" stroke="#f8a087" stroke-width="1" stroke-linecap="butt" stroke-linejoin="round" d="M173.622,101.700C183.231,92.274,216.601,88.828,230.379,88.381"/>
<path fill="#f8a087" fill-rule="evenodd" stroke="none" d="M230.379,88.381C245.811,88.122,261.085,92.199,275.436,98.513C280.539,100.767,288.253,103.297,292.131,107.773C298.152,114.776,299.461,126.314,299.574,135.186C299.779,140.532,299.557,147.406,297.945,152.197C287.482,183.282,279.112,198.000,271.384,206.057C258.148,219.858,236.859,223.556,217.917,224.382C199.401,224.923,191.155,221.034,174.931,211.963C172.079,210.375,165.806,206.997,164.062,204.405C157.759,194.648,163.114,183.022,162.001,171.952C160.874,163.408,155.878,151.080,155.194,142.663C154.461,131.456,165.721,109.380,173.622,101.700C183.231,92.274,216.601,88.828,230.379,88.381Z"/>
</g>
<mask id="mask_target" style="mask-type:alpha;">
<use xlink:href="#face_Mask"/>
</mask>
<path fill="#000000" fill-rule="evenodd" stroke="none" d="M198.158,212.794C203.204,214.478,202.752,219.210,202.224,219.660C201.926,219.915,200.918,218.843,198.032,218.026C192.565,216.478,189.745,217.338,189.629,216.606C189.502,215.804,192.250,210.824,198.158,212.794Z"/>
<g id="layer_eyes_Mtarget" mask="url(#mask_target)">
<mask style="mask-type:alpha;" id="f3906406-f197-4bf1-91d8-744c09cca836">
<use xlink:href="#cmn_f3906406-f197-4bf1-91d8-744c09cca836"/>
</mask>
<g id="cmn_f3906406-f197-4bf1-91d8-744c09cca836">
<path fill="#000000" fill-rule="evenodd" stroke="none" d="M148.998,179.405C150.280,181.054,151.893,185.375,152.404,184.930C151.778,185.490,148.926,183.075,148.367,181.621C148.147,181.079,148.680,178.199,148.449,178.879C148.421,178.961,148.955,179.349,148.998,179.405M158.800,183.718C158.719,182.464,159.126,178.259,157.471,177.083C156.521,176.407,154.726,176.934,153.587,177.255C150.762,177.982,139.905,170.373,139.849,166.470C139.838,165.699,142.791,162.761,143.548,162.663C154.904,161.193,133.190,180.807,143.111,193.315C144.029,194.472,152.604,191.545,151.884,192.291C151.436,192.755,158.962,186.222,158.800,183.718M186.603,192.211C182.206,191.176,175.194,188.594,176.188,181.625C176.574,178.912,191.072,179.003,194.657,178.259C198.207,177.522,211.515,174.307,213.299,174.584C214.347,174.810,215.038,178.522,214.629,181.106C213.961,185.334,193.917,193.933,186.603,192.211M221.502,186.238C224.043,182.547,224.964,168.904,223.674,167.928C219.551,164.807,205.743,169.925,198.132,171.266C192.353,172.284,182.864,175.840,179.029,175.468C175.778,175.269,173.116,174.308,171.526,175.907C169.943,177.499,170.590,181.198,171.122,183.379C171.958,186.802,173.815,191.094,177.371,193.325C184.205,197.761,198.062,195.822,205.665,194.945C207.574,194.721,218.525,190.564,221.502,186.238Z"/>
<path fill="none" stroke="#ffffff" stroke-width="1" stroke-linecap="butt" stroke-linejoin="round" d="M213.299,174.584C214.347,174.810,215.038,178.522,214.629,181.106"/>
<path fill="none" stroke="#ffffff" stroke-width="1" stroke-linecap="butt" stroke-linejoin="round" d="M214.629,181.106C213.961,185.334,193.917,193.933,186.603,192.211"/>
<path fill="none" stroke="#ffffff" stroke-width="1" stroke-linecap="butt" stroke-linejoin="round" d="M186.603,192.211C182.206,191.176,175.194,188.594,176.188,181.625"/>
<path fill="none" stroke="#ffffff" stroke-width="1" stroke-linecap="butt" stroke-linejoin="round" d="M176.188,181.625C176.574,178.912,191.072,179.003,194.657,178.259"/>
<path fill="none" stroke="#ffffff" stroke-width="1" stroke-linecap="butt" stroke-linejoin="round" d="M194.657,178.259C198.207,177.522,211.515,174.307,213.299,174.584"/>
<path fill="#ffffff" fill-rule="evenodd" stroke="none" d="M213.299,174.584C214.347,174.810,215.038,178.522,214.629,181.106C213.961,185.334,193.917,193.933,186.603,192.211C182.206,191.176,175.194,188.594,176.188,181.625C176.574,178.912,191.072,179.003,194.657,178.259C198.207,177.522,211.515,174.307,213.299,174.584Z"/>
<path fill="none" stroke="#ffffff" stroke-width="1" stroke-linecap="butt" stroke-linejoin="round" d="M148.449,178.879C148.421,178.961,148.955,179.349,148.998,179.405"/>
<path fill="none" stroke="#ffffff" stroke-width="1" stroke-linecap="butt" stroke-linejoin="round" d="M148.998,179.405C150.280,181.054,151.893,185.375,152.404,184.930"/>
<path fill="none" stroke="#ffffff" stroke-width="1" stroke-linecap="butt" stroke-linejoin="round" d="M152.404,184.930C151.778,185.490,148.926,183.075,148.367,181.621"/>
<path fill="none" stroke="#ffffff" stroke-width="1" stroke-linecap="butt" stroke-linejoin="round" d="M148.367,181.621C148.147,181.079,148.680,178.199,148.449,178.879"/>
<path fill="#ffffff" fill-rule="evenodd" stroke="none" d="M148.449,178.879C148.421,178.961,148.955,179.349,148.998,179.405C150.280,181.054,151.893,185.375,152.404,184.930C151.778,185.490,148.926,183.075,148.367,181.621C148.147,181.079,148.680,178.199,148.449,178.879Z"/>
</g>
<path fill="#000000" fill-rule="evenodd" stroke="none" d="M179.643,169.891C181.965,169.580,184.813,173.055,184.721,181.505C184.652,187.883,182.680,190.281,180.912,190.282C178.999,190.283,177.656,187.524,177.145,180.646C176.599,173.306,177.621,170.163,179.643,169.891Z" mask="url(#f3906406-f197-4bf1-91d8-744c09cca836)"/>
<path fill="#000000" fill-rule="evenodd" stroke="none" d="M150.567,168.809C153.022,168.637,156.220,172.598,155.303,181.721C154.770,187.027,152.873,188.706,151.443,188.726C149.841,188.749,147.954,186.754,147.222,180.830C146.202,172.574,148.341,168.966,150.567,168.809Z" mask="url(#f3906406-f197-4bf1-91d8-744c09cca836)"/>
</g>
<path fill="#000000" fill-rule="evenodd" stroke="none" d="M306.290,145.402C308.425,146.498,310.680,149.565,310.937,152.236C312.190,159.162,300.769,159.358,297.125,159.428C291.478,158.973,285.730,157.312,280.466,156.048C273.220,154.987,266.221,152.626,259.018,151.307C236.415,145.321,213.594,140.326,190.863,134.865C180.520,132.806,171.381,129.835,160.049,127.777C158.934,127.574,149.120,127.218,147.216,126.434C132.565,120.547,146.802,108.277,146.438,101.318C146.482,99.482,143.150,98.707,144.064,95.511C144.647,93.590,150.080,89.961,152.040,89.343C161.207,86.402,171.632,86.564,181.667,87.565C192.282,88.624,201.459,91.588,211.782,94.226C237.352,100.758,279.827,113.501,312.198,130.292C321.305,135.016,301.729,130.891,299.872,130.834C282.645,130.303,212.229,105.472,250.956,121.743C265.831,127.992,293.191,138.126,306.290,145.402M202.143,78.468C190.124,75.858,179.061,73.574,167.424,74.519C163.269,74.845,157.867,75.116,154.626,75.844C147.967,77.338,162.114,59.204,165.849,56.023C183.868,41.056,212.981,32.492,237.200,36.921C285.174,45.693,301.655,61.253,312.214,81.662C315.703,87.830,324.141,115.109,313.453,119.939C310.064,121.211,304.710,117.779,302.231,115.990C293.270,109.812,220.329,82.418,202.143,78.468M308.515,52.553C292.629,40.812,269.894,29.704,242.056,27.157C212.052,24.412,178.512,29.979,156.382,53.558C149.615,60.933,146.049,69.507,141.373,77.563C138.569,82.346,133.820,85.022,132.671,90.382C131.255,97.979,135.694,100.555,135.601,106.918C135.693,114.220,130.896,115.755,130.581,120.441C128.559,132.737,139.841,137.420,149.858,139.873C154.138,140.922,170.387,142.222,179.159,143.434C189.024,144.797,202.163,146.754,211.963,148.529C223.454,150.610,238.609,154.230,250.073,156.458C260.774,158.538,275.006,161.642,285.832,162.927C293.960,163.891,311.916,165.321,313.066,164.580C314.724,163.534,321.477,151.457,322.267,149.029C323.650,144.782,322.059,139.716,324.635,132.971C328.131,123.150,331.969,114.942,332.065,103.684C332.063,82.991,320.750,61.596,308.515,52.553Z"/>
<path fill="none" stroke="#d89f4a" stroke-width="1" stroke-linecap="butt" stroke-linejoin="round" d="M211.782,94.226C237.352,100.758,279.827,113.501,312.198,130.292"/>
<path fill="none" stroke="#d89f4a" stroke-width="1" stroke-linecap="butt" stroke-linejoin="round" d="M312.198,130.292C321.305,135.016,301.729,130.891,299.872,130.834"/>
<path fill="none" stroke="#d89f4a" stroke-width="1" stroke-linecap="butt" stroke-linejoin="round" d="M299.872,130.834C282.645,130.303,212.229,105.472,250.956,121.743"/>
<path fill="none" stroke="#d89f4a" stroke-width="1" stroke-linecap="butt" stroke-linejoin="round" d="M250.956,121.743C265.831,127.992,293.191,138.126,306.290,145.402"/>
<path fill="none" stroke="#d89f4a" stroke-width="1" stroke-linecap="butt" stroke-linejoin="round" d="M306.290,145.402C308.425,146.498,310.680,149.565,310.937,152.236"/>
<path fill="none" stroke="#d89f4a" stroke-width="1" stroke-linecap="butt" stroke-linejoin="round" d="M310.937,152.236C312.190,159.162,300.769,159.358,297.125,159.428"/>
<path fill="none" stroke="#d89f4a" stroke-width="1" stroke-linecap="butt" stroke-linejoin="round" d="M297.125,159.428C291.478,158.973,285.730,157.312,280.466,156.048"/>
<path fill="none" stroke="#d89f4a" stroke-width="1" stroke-linecap="butt" stroke-linejoin="round" d="M280.466,156.048C273.220,154.987,266.221,152.626,259.018,151.307"/>
<path fill="none" stroke="#d89f4a" stroke-width="1" stroke-linecap="butt" stroke-linejoin="round" d="M259.018,151.307C236.415,145.321,213.594,140.326,190.863,134.865"/>
<path fill="none" stroke="#d89f4a" stroke-width="1" stroke-linecap="butt" stroke-linejoin="round" d="M190.863,134.865C180.520,132.806,171.381,129.835,160.049,127.777"/>
<path fill="none" stroke="#d89f4a" stroke-width="1" stroke-linecap="butt" stroke-linejoin="round" d="M160.049,127.777C158.934,127.574,149.120,127.218,147.216,126.434"/>
<path fill="none" stroke="#d89f4a" stroke-width="1" stroke-linecap="butt" stroke-linejoin="round" d="M147.216,126.434C132.565,120.547,146.802,108.277,146.438,101.318"/>
<path fill="none" stroke="#d89f4a" stroke-width="1" stroke-linecap="butt" stroke-linejoin="round" d="M146.438,101.318C146.482,99.482,143.150,98.707,144.064,95.511"/>
<path fill="none" stroke="#d89f4a" stroke-width="1" stroke-linecap="butt" stroke-linejoin="round" d="M144.064,95.511C144.647,93.590,150.080,89.961,152.040,89.343"/>
<path fill="none" stroke="#d89f4a" stroke-width="1" stroke-linecap="butt" stroke-linejoin="round" d="M152.040,89.343C161.207,86.402,171.632,86.564,181.667,87.565"/>
<path fill="none" stroke="#d89f4a" stroke-width="1" stroke-linecap="butt" stroke-linejoin="round" d="M181.667,87.565C192.282,88.624,201.459,91.588,211.782,94.226"/>
<path fill="#d89f4a" fill-rule="evenodd" stroke="none" d="M211.782,94.226C237.352,100.758,279.827,113.501,312.198,130.292C321.305,135.016,301.729,130.891,299.872,130.834C282.645,130.303,212.229,105.472,250.956,121.743C265.831,127.992,293.191,138.126,306.290,145.402C308.425,146.498,310.680,149.565,310.937,152.236C312.190,159.162,300.769,159.358,297.125,159.428C291.478,158.973,285.730,157.312,280.466,156.048C273.220,154.987,266.221,152.626,259.018,151.307C236.415,145.321,213.594,140.326,190.863,134.865C180.520,132.806,171.381,129.835,160.049,127.777C158.934,127.574,149.120,127.218,147.216,126.434C132.565,120.547,146.802,108.277,146.438,101.318C146.482,99.482,143.150,98.707,144.064,95.511C144.647,93.590,150.080,89.961,152.040,89.343C161.207,86.402,171.632,86.564,181.667,87.565C192.282,88.624,201.459,91.588,211.782,94.226Z"/>
<path fill="none" stroke="#cc9bc5" stroke-width="1" stroke-linecap="butt" stroke-linejoin="round" d="M237.200,36.921C285.174,45.693,301.655,61.253,312.214,81.662"/>
<path fill="none" stroke="#cc9bc5" stroke-width="1" stroke-linecap="butt" stroke-linejoin="round" d="M312.214,81.662C315.703,87.830,324.141,115.109,313.453,119.939"/>
<path fill="none" stroke="#cc9bc5" stroke-width="1" stroke-linecap="butt" stroke-linejoin="round" d="M313.453,119.939C310.064,121.211,304.710,117.779,302.231,115.990"/>
<path fill="none" stroke="#cc9bc5" stroke-width="1" stroke-linecap="butt" stroke-linejoin="round" d="M302.231,115.990C293.270,109.812,220.329,82.418,202.143,78.468"/>
<path fill="none" stroke="#cc9bc5" stroke-width="1" stroke-linecap="butt" stroke-linejoin="round" d="M202.143,78.468C190.124,75.858,179.061,73.574,167.424,74.519"/>
<path fill="none" stroke="#cc9bc5" stroke-width="1" stroke-linecap="butt" stroke-linejoin="round" d="M167.424,74.519C163.269,74.845,157.867,75.116,154.626,75.844"/>
<path fill="none" stroke="#cc9bc5" stroke-width="1" stroke-linecap="butt" stroke-linejoin="round" d="M154.626,75.844C147.967,77.338,162.114,59.204,165.849,56.023"/>
<path fill="none" stroke="#cc9bc5" stroke-width="1" stroke-linecap="butt" stroke-linejoin="round" d="M165.849,56.023C183.868,41.056,212.981,32.492,237.200,36.921"/>
<path fill="#cc9bc5" fill-rule="evenodd" stroke="none" d="M237.200,36.921C285.174,45.693,301.655,61.253,312.214,81.662C315.703,87.830,324.141,115.109,313.453,119.939C310.064,121.211,304.710,117.779,302.231,115.990C293.270,109.812,220.329,82.418,202.143,78.468C190.124,75.858,179.061,73.574,167.424,74.519C163.269,74.845,157.867,75.116,154.626,75.844C147.967,77.338,162.114,59.204,165.849,56.023C183.868,41.056,212.981,32.492,237.200,36.921Z"/>
<path fill="#000000" fill-rule="evenodd" stroke="none" d="M256.271,183.586C256.898,182.237,260.126,178.464,261.347,177.334C271.511,167.166,288.041,159.084,294.770,168.081C302.249,178.523,285.163,201.202,272.735,204.443C258.245,207.988,251.212,195.486,256.271,183.586M309.311,173.586C308.371,162.237,302.897,153.795,284.989,154.971C268.000,156.086,261.735,178.423,259.227,192.252C258.789,195.095,259.003,198.185,259.484,200.879C261.198,211.496,268.194,218.129,278.939,212.427C291.748,205.461,310.121,189.058,309.311,173.586Z"/>
<path fill="none" stroke="#f8a087" stroke-width="1" stroke-linecap="butt" stroke-linejoin="round" d="M261.347,177.334C271.511,167.166,288.041,159.084,294.770,168.081"/>
<path fill="none" stroke="#f8a087" stroke-width="1" stroke-linecap="butt" stroke-linejoin="round" d="M294.770,168.081C302.249,178.523,285.163,201.202,272.735,204.443"/>
<path fill="none" stroke="#f8a087" stroke-width="1" stroke-linecap="butt" stroke-linejoin="round" d="M272.735,204.443C258.245,207.988,251.212,195.486,256.271,183.586"/>
<path fill="none" stroke="#f8a087" stroke-width="1" stroke-linecap="butt" stroke-linejoin="round" d="M256.271,183.586C256.898,182.237,260.126,178.464,261.347,177.334"/>
<path fill="#f8a087" fill-rule="evenodd" stroke="none" d="M261.347,177.334C271.511,167.166,288.041,159.084,294.770,168.081C302.249,178.523,285.163,201.202,272.735,204.443C258.245,207.988,251.212,195.486,256.271,183.586C256.898,182.237,260.126,178.464,261.347,177.334Z"/>
<path fill="#000000" fill-rule="evenodd" stroke="none" d="M283.175,216.330C273.796,219.993,274.713,202.260,277.866,202.822C282.199,204.711,292.276,218.989,283.175,216.330M293.939,210.165C287.313,209.996,285.084,200.733,284.900,196.904C292.204,199.215,301.078,205.595,293.939,210.165M304.903,207.960C303.235,199.611,291.499,193.694,284.027,189.521C281.176,187.928,271.719,197.550,271.034,200.916C269.591,204.856,270.147,226.933,284.166,225.482C290.012,224.615,306.243,214.671,304.903,207.960Z"/>
<path fill="none" stroke="#fafd5b" stroke-width="1" stroke-linecap="butt" stroke-linejoin="round" d="M284.900,196.904C292.204,199.215,301.078,205.595,293.939,210.165"/>
<path fill="none" stroke="#fafd5b" stroke-width="1" stroke-linecap="butt" stroke-linejoin="round" d="M293.939,210.165C287.313,209.996,285.084,200.733,284.900,196.904"/>
<path fill="#fafd5b" fill-rule="evenodd" stroke="none" d="M284.900,196.904C292.204,199.215,301.078,205.595,293.939,210.165C287.313,209.996,285.084,200.733,284.900,196.904Z"/>
<path fill="none" stroke="#fafd5b" stroke-width="1" stroke-linecap="butt" stroke-linejoin="round" d="M277.866,202.822C282.199,204.711,292.276,218.989,283.175,216.330"/>
<path fill="none" stroke="#fafd5b" stroke-width="1" stroke-linecap="butt" stroke-linejoin="round" d="M283.175,216.330C273.796,219.993,274.713,202.260,277.866,202.822"/>
<path fill="#fafd5b" fill-rule="evenodd" stroke="none" d="M277.866,202.822C282.199,204.711,292.276,218.989,283.175,216.330C273.796,219.993,274.713,202.260,277.866,202.822Z"/>
</g>
<path fill="#000000" fill-rule="evenodd" stroke="none" d="M210.521,272.719C212.409,277.470,206.884,287.005,205.937,291.596C200.081,309.229,191.622,326.200,192.176,344.340C192.521,350.019,196.493,362.208,191.356,366.378C189.622,367.785,184.794,365.115,183.913,366.506C182.155,369.264,178.324,359.582,177.652,358.117C176.960,356.607,175.079,348.083,174.982,345.653C175.086,340.952,176.074,331.826,177.001,325.968C177.974,320.113,177.938,313.781,180.454,307.739C182.647,301.010,186.969,293.626,189.324,286.091C191.853,281.465,195.557,278.987,195.205,275.276C194.504,271.567,192.852,269.561,196.163,268.102C200.311,266.614,209.863,267.688,210.521,272.719M272.807,279.420C274.365,278.180,288.532,272.464,290.297,271.824C303.067,267.872,305.297,283.060,304.834,290.915C304.678,294.330,303.735,306.279,304.096,308.706C304.565,313.913,307.587,317.219,308.061,321.679C308.679,332.483,310.004,325.876,308.052,335.044C307.559,337.346,305.807,342.011,304.697,344.035C303.411,346.084,299.254,349.594,298.105,351.550C295.044,355.849,293.925,361.740,286.298,363.104C284.919,363.529,272.242,370.486,270.027,371.589C266.051,373.309,261.096,376.516,257.289,373.835C252.751,370.257,253.377,362.212,252.541,356.075C250.456,342.456,252.465,328.558,255.857,315.147C258.069,304.536,264.676,287.423,272.807,279.420M286.352,263.053C283.432,264.760,277.140,265.024,275.309,265.320C271.355,265.742,270.896,262.335,270.690,259.550C270.519,255.047,273.737,248.621,277.120,245.420C279.793,242.890,284.424,240.685,288.463,240.752C292.395,240.677,298.861,244.012,298.169,248.434C297.890,251.452,291.222,260.208,286.352,263.053M212.945,244.983C217.400,253.924,222.334,263.078,217.092,262.205C211.086,261.205,208.118,260.899,198.723,257.022C188.223,252.690,185.616,237.531,191.563,232.864C197.363,228.311,207.738,234.532,212.945,244.983M315.388,350.572C317.393,345.618,319.812,342.419,319.898,336.840C319.924,332.032,318.826,326.383,316.620,322.138C312.134,314.026,310.084,310.910,304.314,302.150C302.208,299.071,299.401,297.033,298.904,293.488C298.282,290.101,299.894,272.418,301.008,269.480C302.096,264.398,307.573,261.209,308.917,256.617C310.148,252.865,311.466,248.860,311.085,244.930C310.877,239.700,306.402,236.021,302.776,232.986C297.594,229.145,292.531,228.685,285.948,229.123C276.357,229.773,270.587,238.209,266.471,244.387C260.626,253.160,261.104,268.418,257.929,278.470C256.110,284.231,252.873,292.008,250.834,297.318C242.544,317.939,227.683,375.375,246.575,387.358C248.073,388.450,259.630,389.700,263.023,388.813C271.436,386.661,274.865,384.000,282.952,381.574C289.590,379.861,298.932,370.078,305.029,363.764C308.467,360.429,314.070,353.823,315.388,350.572M219.451,235.571C214.267,229.000,205.280,217.410,196.885,219.167C192.614,220.205,186.587,223.221,183.427,226.576C180.437,229.750,177.213,235.266,177.143,239.682C176.933,245.132,176.899,251.608,178.685,256.279C180.776,261.749,189.609,266.143,190.449,271.857C190.755,274.426,184.221,285.629,183.208,288.671C181.242,295.168,177.325,301.172,175.298,306.727C173.313,312.168,171.345,319.653,169.833,325.244C167.782,332.830,164.071,342.134,163.614,350.691C163.147,355.027,164.574,364.992,167.369,370.284C169.092,373.544,173.558,378.227,175.794,379.233C177.134,379.837,191.072,384.161,195.935,380.552C204.747,374.014,201.991,360.094,200.290,344.236C198.679,329.706,209.929,318.333,214.535,304.280C216.748,297.439,224.630,277.242,225.425,269.853C226.039,264.150,228.120,260.362,226.878,252.382C226.078,248.093,222.866,239.899,219.451,235.571Z"/>
<path fill="none" stroke="#a60d3f" stroke-width="1" stroke-linecap="butt" stroke-linejoin="round" d="M290.297,271.824C303.067,267.872,305.297,283.060,304.834,290.915"/>
<path fill="none" stroke="#a60d3f" stroke-width="1" stroke-linecap="butt" stroke-linejoin="round" d="M304.834,290.915C304.678,294.330,303.735,306.279,304.096,308.706"/>
<path fill="none" stroke="#a60d3f" stroke-width="1" stroke-linecap="butt" stroke-linejoin="round" d="M304.096,308.706C304.565,313.913,307.587,317.219,308.061,321.679"/>
<path fill="none" stroke="#a60d3f" stroke-width="1" stroke-linecap="butt" stroke-linejoin="round" d="M308.061,321.679C308.679,332.483,310.004,325.876,308.052,335.044"/>
<path fill="none" stroke="#a60d3f" stroke-width="1" stroke-linecap="butt" stroke-linejoin="round" d="M308.052,335.044C307.559,337.346,305.807,342.011,304.697,344.035"/>
<path fill="none" stroke="#a60d3f" stroke-width="1" stroke-linecap="butt" stroke-linejoin="round" d="M304.697,344.035C303.411,346.084,299.254,349.594,298.105,351.550"/>
<path fill="none" stroke="#a60d3f" stroke-width="1" stroke-linecap="butt" stroke-linejoin="round" d="M298.105,351.550C295.044,355.849,293.925,361.740,286.298,363.104"/>
<path fill="none" stroke="#a60d3f" stroke-width="1" stroke-linecap="butt" stroke-linejoin="round" d="M286.298,363.104C284.919,363.529,272.242,370.486,270.027,371.589"/>
<path fill="none" stroke="#a60d3f" stroke-width="1" stroke-linecap="butt" stroke-linejoin="round" d="M270.027,371.589C266.051,373.309,261.096,376.516,257.289,373.835"/>
<path fill="none" stroke="#a60d3f" stroke-width="1" stroke-linecap="butt" stroke-linejoin="round" d="M257.289,373.835C252.751,370.257,253.377,362.212,252.541,356.075"/>
<path fill="none" stroke="#a60d3f" stroke-width="1" stroke-linecap="butt" stroke-linejoin="round" d="M252.541,356.075C250.456,342.456,252.465,328.558,255.857,315.147"/>
<path fill="none" stroke="#a60d3f" stroke-width="1" stroke-linecap="butt" stroke-linejoin="round" d="M255.857,315.147C258.069,304.536,264.676,287.423,272.807,279.420"/>
<path fill="none" stroke="#a60d3f" stroke-width="1" stroke-linecap="butt" stroke-linejoin="round" d="M272.807,279.420C274.365,278.180,288.532,272.464,290.297,271.824"/>
<path fill="#a60d3f" fill-rule="evenodd" stroke="none" d="M290.297,271.824C303.067,267.872,305.297,283.060,304.834,290.915C304.678,294.330,303.735,306.279,304.096,308.706C304.565,313.913,307.587,317.219,308.061,321.679C308.679,332.483,310.004,325.876,308.052,335.044C307.559,337.346,305.807,342.011,304.697,344.035C303.411,346.084,299.254,349.594,298.105,351.550C295.044,355.849,293.925,361.740,286.298,363.104C284.919,363.529,272.242,370.486,270.027,371.589C266.051,373.309,261.096,376.516,257.289,373.835C252.751,370.257,253.377,362.212,252.541,356.075C250.456,342.456,252.465,328.558,255.857,315.147C258.069,304.536,264.676,287.423,272.807,279.420C274.365,278.180,288.532,272.464,290.297,271.824Z"/>
<path fill="none" stroke="#a60d3f" stroke-width="1" stroke-linecap="butt" stroke-linejoin="round" d="M196.163,268.102C200.311,266.614,209.863,267.688,210.521,272.719"/>
<path fill="none" stroke="#a60d3f" stroke-width="1" stroke-linecap="butt" stroke-linejoin="round" d="M210.521,272.719C212.409,277.470,206.884,287.005,205.937,291.596"/>
<path fill="none" stroke="#a60d3f" stroke-width="1" stroke-linecap="butt" stroke-linejoin="round" d="M205.937,291.596C200.081,309.229,191.622,326.200,192.176,344.340"/>
<path fill="none" stroke="#a60d3f" stroke-width="1" stroke-linecap="butt" stroke-linejoin="round" d="M192.176,344.340C192.521,350.019,196.493,362.208,191.356,366.378"/>
<path fill="none" stroke="#a60d3f" stroke-width="1" stroke-linecap="butt" stroke-linejoin="round" d="M191.356,366.378C189.622,367.785,184.794,365.115,183.913,366.506"/>
<path fill="none" stroke="#a60d3f" stroke-width="1" stroke-linecap="butt" stroke-linejoin="round" d="M183.913,366.506C182.155,369.264,178.324,359.582,177.652,358.117"/>
<path fill="none" stroke="#a60d3f" stroke-width="1" stroke-linecap="butt" stroke-linejoin="round" d="M177.652,358.117C176.960,356.607,175.079,348.083,174.982,345.653"/>
<path fill="none" stroke="#a60d3f" stroke-width="1" stroke-linecap="butt" stroke-linejoin="round" d="M174.982,345.653C175.086,340.952,176.074,331.826,177.001,325.968"/>
<path fill="none" stroke="#a60d3f" stroke-width="1" stroke-linecap="butt" stroke-linejoin="round" d="M177.001,325.968C177.974,320.113,177.938,313.781,180.454,307.739"/>
<path fill="none" stroke="#a60d3f" stroke-width="1" stroke-linecap="butt" stroke-linejoin="round" d="M180.454,307.739C182.647,301.010,186.969,293.626,189.324,286.091"/>
<path fill="none" stroke="#a60d3f" stroke-width="1" stroke-linecap="butt" stroke-linejoin="round" d="M189.324,286.091C191.853,281.465,195.557,278.987,195.205,275.276"/>
<path fill="none" stroke="#a60d3f" stroke-width="1" stroke-linecap="butt" stroke-linejoin="round" d="M195.205,275.276C194.504,271.567,192.852,269.561,196.163,268.102"/>
<path fill="#a60d3f" fill-rule="evenodd" stroke="none" d="M196.163,268.102C200.311,266.614,209.863,267.688,210.521,272.719C212.409,277.470,206.884,287.005,205.937,291.596C200.081,309.229,191.622,326.200,192.176,344.340C192.521,350.019,196.493,362.208,191.356,366.378C189.622,367.785,184.794,365.115,183.913,366.506C182.155,369.264,178.324,359.582,177.652,358.117C176.960,356.607,175.079,348.083,174.982,345.653C175.086,340.952,176.074,331.826,177.001,325.968C177.974,320.113,177.938,313.781,180.454,307.739C182.647,301.010,186.969,293.626,189.324,286.091C191.853,281.465,195.557,278.987,195.205,275.276C194.504,271.567,192.852,269.561,196.163,268.102Z"/>
<path fill="none" stroke="#a60d3f" stroke-width="1" stroke-linecap="butt" stroke-linejoin="round" d="M288.463,240.752C292.395,240.677,298.861,244.012,298.169,248.434"/>
<path fill="none" stroke="#a60d3f" stroke-width="1" stroke-linecap="butt" stroke-linejoin="round" d="M298.169,248.434C297.890,251.452,291.222,260.208,286.352,263.053"/>
<path fill="none" stroke="#a60d3f" stroke-width="1" stroke-linecap="butt" stroke-linejoin="round" d="M286.352,263.053C283.432,264.760,277.140,265.024,275.309,265.320"/>
<path fill="none" stroke="#a60d3f" stroke-width="1" stroke-linecap="butt" stroke-linejoin="round" d="M275.309,265.320C271.355,265.742,270.896,262.335,270.690,259.550"/>
<path fill="none" stroke="#a60d3f" stroke-width="1" stroke-linecap="butt" stroke-linejoin="round" d="M270.690,259.550C270.519,255.047,273.737,248.621,277.120,245.420"/>
<path fill="none" stroke="#a60d3f" stroke-width="1" stroke-linecap="butt" stroke-linejoin="round" d="M277.120,245.420C279.793,242.890,284.424,240.685,288.463,240.752"/>
<path fill="#a60d3f" fill-rule="evenodd" stroke="none" d="M288.463,240.752C292.395,240.677,298.861,244.012,298.169,248.434C297.890,251.452,291.222,260.208,286.352,263.053C283.432,264.760,277.140,265.024,275.309,265.320C271.355,265.742,270.896,262.335,270.690,259.550C270.519,255.047,273.737,248.621,277.120,245.420C279.793,242.890,284.424,240.685,288.463,240.752Z"/>
<path fill="none" stroke="#a60d3f" stroke-width="1" stroke-linecap="butt" stroke-linejoin="round" d="M212.945,244.983C217.400,253.924,222.334,263.078,217.092,262.205"/>
<path fill="none" stroke="#a60d3f" stroke-width="1" stroke-linecap="butt" stroke-linejoin="round" d="M217.092,262.205C211.086,261.205,208.118,260.899,198.723,257.022"/>
<path fill="none" stroke="#a60d3f" stroke-width="1" stroke-linecap="butt" stroke-linejoin="round" d="M198.723,257.022C188.223,252.690,185.616,237.531,191.563,232.864"/>
<path fill="none" stroke="#a60d3f" stroke-width="1" stroke-linecap="butt" stroke-linejoin="round" d="M191.563,232.864C197.363,228.311,207.738,234.532,212.945,244.983"/>
<path fill="#a60d3f" fill-rule="evenodd" stroke="none" d="M212.945,244.983C217.400,253.924,222.334,263.078,217.092,262.205C211.086,261.205,208.118,260.899,198.723,257.022C188.223,252.690,185.616,237.531,191.563,232.864C197.363,228.311,207.738,234.532,212.945,244.983Z"/>
<path fill="#000000" fill-rule="evenodd" stroke="none" d="M308.743,465.335C305.367,460.042,303.956,451.072,311.586,448.675C316.894,446.962,340.896,452.067,344.924,456.022C351.968,462.280,348.110,476.954,339.489,480.360C329.539,483.777,314.143,473.605,308.743,465.335M288.821,285.050C289.354,281.778,296.698,270.774,301.821,271.354C304.797,271.691,306.723,276.518,307.998,279.060C311.526,287.047,315.200,295.326,318.325,303.720C326.858,325.996,333.502,348.470,339.161,371.234C341.200,380.475,341.021,392.842,344.424,401.130C348.504,410.741,354.794,407.357,357.845,413.650C359.204,416.632,358.591,422.295,360.629,426.933C363.690,434.226,369.381,438.166,372.085,442.799C373.774,445.444,374.466,448.433,370.813,449.133C368.826,450.149,363.493,449.200,361.497,449.218C354.824,447.507,348.154,445.793,341.488,444.076C332.487,442.162,305.194,441.079,300.483,435.133C293.412,425.883,304.287,414.804,305.537,405.477C306.169,402.509,309.223,358.947,308.423,356.076C307.343,349.411,302.957,343.969,300.700,337.240C298.082,327.995,295.371,318.106,292.989,308.432C291.161,300.343,286.971,293.941,288.821,285.050M312.376,260.525C309.567,256.140,301.405,248.647,295.591,250.605C290.770,252.458,290.745,258.484,290.506,262.524C289.912,272.625,288.810,281.108,289.834,290.701C290.244,297.684,291.592,303.896,292.945,310.444C294.523,319.352,294.632,336.831,295.722,347.091C296.435,356.642,299.148,366.449,298.723,374.723C297.308,394.154,288.675,412.563,289.514,431.938C289.606,441.726,292.256,441.689,294.625,449.494C296.353,455.464,295.071,461.801,297.450,467.435C303.575,482.351,320.999,495.832,337.936,492.352C353.544,489.215,354.056,472.242,362.289,463.184C369.536,455.133,384.210,458.992,386.131,450.655C388.063,443.651,378.346,436.088,374.639,430.798C367.228,420.884,372.862,418.503,369.133,410.886C366.421,405.255,358.722,400.335,354.996,393.048C352.970,389.739,351.933,383.422,350.544,379.115C347.642,368.793,344.743,357.030,342.341,346.107C339.871,333.659,337.814,322.659,333.067,310.177C329.294,299.873,317.891,268.300,312.376,260.525Z"/>
<path fill="none" stroke="#a60d3f" stroke-width="1" stroke-linecap="butt" stroke-linejoin="round" d="M301.821,271.354C304.797,271.691,306.723,276.518,307.998,279.060"/>
<path fill="none" stroke="#a60d3f" stroke-width="1" stroke-linecap="butt" stroke-linejoin="round" d="M307.998,279.060C311.526,287.047,315.200,295.326,318.325,303.720"/>
<path fill="none" stroke="#a60d3f" stroke-width="1" stroke-linecap="butt" stroke-linejoin="round" d="M318.325,303.720C326.858,325.996,333.502,348.470,339.161,371.234"/>
<path fill="none" stroke="#a60d3f" stroke-width="1" stroke-linecap="butt" stroke-linejoin="round" d="M339.161,371.234C341.200,380.475,341.021,392.842,344.424,401.130"/>
<path fill="none" stroke="#a60d3f" stroke-width="1" stroke-linecap="butt" stroke-linejoin="round" d="M344.424,401.130C348.504,410.741,354.794,407.357,357.845,413.650"/>
<path fill="none" stroke="#a60d3f" stroke-width="1" stroke-linecap="butt" stroke-linejoin="round" d="M357.845,413.650C359.204,416.632,358.591,422.295,360.629,426.933"/>
<path fill="none" stroke="#a60d3f" stroke-width="1" stroke-linecap="butt" stroke-linejoin="round" d="M360.629,426.933C363.690,434.226,369.381,438.166,372.085,442.799"/>
<path fill="none" stroke="#a60d3f" stroke-width="1" stroke-linecap="butt" stroke-linejoin="round" d="M372.085,442.799C373.774,445.444,374.466,448.433,370.813,449.133"/>
<path fill="none" stroke="#a60d3f" stroke-width="1" stroke-linecap="butt" stroke-linejoin="round" d="M370.813,449.133C368.826,450.149,363.493,449.200,361.497,449.218"/>
<path fill="none" stroke="#a60d3f" stroke-width="1" stroke-linecap="butt" stroke-linejoin="round" d="M361.497,449.218C354.824,447.507,348.154,445.793,341.488,444.076"/>
<path fill="none" stroke="#a60d3f" stroke-width="1" stroke-linecap="butt" stroke-linejoin="round" d="M341.488,444.076C332.487,442.162,305.194,441.079,300.483,435.133"/>
<path fill="none" stroke="#a60d3f" stroke-width="1" stroke-linecap="butt" stroke-linejoin="round" d="M300.483,435.133C293.412,425.883,304.287,414.804,305.537,405.477"/>
<path fill="none" stroke="#a60d3f" stroke-width="1" stroke-linecap="butt" stroke-linejoin="round" d="M305.537,405.477C306.169,402.509,309.223,358.947,308.423,356.076"/>
<path fill="none" stroke="#a60d3f" stroke-width="1" stroke-linecap="butt" stroke-linejoin="round" d="M308.423,356.076C307.343,349.411,302.957,343.969,300.700,337.240"/>
<path fill="none" stroke="#a60d3f" stroke-width="1" stroke-linecap="butt" stroke-linejoin="round" d="M300.700,337.240C298.082,327.995,295.371,318.106,292.989,308.432"/>
<path fill="none" stroke="#a60d3f" stroke-width="1" stroke-linecap="butt" stroke-linejoin="round" d="M292.989,308.432C291.161,300.343,286.971,293.941,288.821,285.050"/>
<path fill="none" stroke="#a60d3f" stroke-width="1" stroke-linecap="butt" stroke-linejoin="round" d="M288.821,285.050C289.354,281.778,296.698,270.774,301.821,271.354"/>
<path fill="#a60d3f" fill-rule="evenodd" stroke="none" d="M301.821,271.354C304.797,271.691,306.723,276.518,307.998,279.060C311.526,287.047,315.200,295.326,318.325,303.720C326.858,325.996,333.502,348.470,339.161,371.234C341.200,380.475,341.021,392.842,344.424,401.130C348.504,410.741,354.794,407.357,357.845,413.650C359.204,416.632,358.591,422.295,360.629,426.933C363.690,434.226,369.381,438.166,372.085,442.799C373.774,445.444,374.466,448.433,370.813,449.133C368.826,450.149,363.493,449.200,361.497,449.218C354.824,447.507,348.154,445.793,341.488,444.076C332.487,442.162,305.194,441.079,300.483,435.133C293.412,425.883,304.287,414.804,305.537,405.477C306.169,402.509,309.223,358.947,308.423,356.076C307.343,349.411,302.957,343.969,300.700,337.240C298.082,327.995,295.371,318.106,292.989,308.432C291.161,300.343,286.971,293.941,288.821,285.050C289.354,281.778,296.698,270.774,301.821,271.354Z"/>
<path fill="none" stroke="#f8a087" stroke-width="1" stroke-linecap="butt" stroke-linejoin="round" d="M311.586,448.675C316.894,446.962,340.896,452.067,344.924,456.022"/>
<path fill="none" stroke="#f8a087" stroke-width="1" stroke-linecap="butt" stroke-linejoin="round" d="M344.924,456.022C351.968,462.280,348.110,476.954,339.489,480.360"/>
<path fill="none" stroke="#f8a087" stroke-width="1" stroke-linecap="butt" stroke-linejoin="round" d="M339.489,480.360C329.539,483.777,314.143,473.605,308.743,465.335"/>
<path fill="none" stroke="#f8a087" stroke-width="1" stroke-linecap="butt" stroke-linejoin="round" d="M308.743,465.335C305.367,460.042,303.956,451.072,311.586,448.675"/>
<path fill="#f8a087" fill-rule="evenodd" stroke="none" d="M311.586,448.675C316.894,446.962,340.896,452.067,344.924,456.022C351.968,462.280,348.110,476.954,339.489,480.360C329.539,483.777,314.143,473.605,308.743,465.335C305.367,460.042,303.956,451.072,311.586,448.675Z"/>
</g>
</svg>
