<svg version="1.1" id="Frame_191" xmlns="http://www.w3.org/2000/svg" xmlns:xlink="http://www.w3.org/1999/xlink" width="480px" height="720px">
<g id="main_bone">
<path fill="#000000" fill-rule="evenodd" stroke="none" d="M181.555,269.146C183.180,266.593,186.368,261.319,190.252,260.136C196.791,258.145,201.809,264.345,202.173,268.926C203.117,276.947,196.524,287.186,193.334,294.778C185.521,313.055,177.181,331.107,171.814,349.700C171.129,352.959,165.959,374.084,166.015,371.436C165.545,378.053,172.058,383.822,174.280,389.494C177.119,397.142,174.224,404.317,172.295,411.270C167.855,425.607,168.266,430.904,168.518,444.896C168.661,447.112,169.056,454.331,165.585,454.727C162.173,455.116,161.169,448.971,160.269,446.638C159.694,444.005,156.892,438.505,157.426,436.131C157.526,432.159,162.091,433.092,157.016,424.918C150.535,414.697,139.195,406.089,136.413,392.728C134.593,382.089,140.310,372.863,143.639,363.027C150.726,341.894,158.578,320.784,167.664,300.097C172.603,289.371,175.030,279.969,181.555,269.146M202.125,262.643C202.900,254.136,200.469,246.478,189.673,249.140C172.292,253.361,164.567,279.204,158.643,293.677C150.328,313.225,143.373,333.015,136.893,352.935C134.240,361.468,130.983,365.759,129.555,370.710C127.784,376.311,127.929,384.940,128.168,390.580C127.879,408.235,133.204,409.179,140.426,422.720C144.259,430.727,140.558,435.871,143.299,442.790C145.305,447.550,149.332,450.796,152.485,454.691C155.283,458.602,156.029,460.886,158.147,464.491C160.713,468.800,168.317,478.473,173.971,475.666C178.204,473.545,177.201,465.648,177.119,461.813C176.836,456.056,178.215,433.730,179.209,426.968C181.026,415.754,187.031,403.770,185.528,391.643C184.310,382.372,176.187,375.599,176.748,365.692C177.200,360.414,180.669,351.901,181.922,346.004C183.979,336.580,184.570,326.419,187.347,316.782C192.086,299.637,201.139,280.769,202.125,262.643Z"/>
<path fill="none" stroke="#a60d3f" stroke-width="1" stroke-linecap="butt" stroke-linejoin="round" d="M190.252,260.136C196.791,258.145,201.809,264.345,202.173,268.926"/>
<path fill="none" stroke="#a60d3f" stroke-width="1" stroke-linecap="butt" stroke-linejoin="round" d="M202.173,268.926C203.117,276.947,196.524,287.186,193.334,294.778"/>
<path fill="none" stroke="#a60d3f" stroke-width="1" stroke-linecap="butt" stroke-linejoin="round" d="M193.334,294.778C185.521,313.055,177.181,331.107,171.814,349.700"/>
<path fill="none" stroke="#a60d3f" stroke-width="1" stroke-linecap="butt" stroke-linejoin="round" d="M171.814,349.700C171.129,352.959,165.959,374.084,166.015,371.436"/>
<path fill="none" stroke="#a60d3f" stroke-width="1" stroke-linecap="butt" stroke-linejoin="round" d="M166.015,371.436C165.545,378.053,172.058,383.822,174.280,389.494"/>
<path fill="none" stroke="#a60d3f" stroke-width="1" stroke-linecap="butt" stroke-linejoin="round" d="M174.280,389.494C177.119,397.142,174.224,404.317,172.295,411.270"/>
<path fill="none" stroke="#a60d3f" stroke-width="1" stroke-linecap="butt" stroke-linejoin="round" d="M172.295,411.270C167.855,425.607,168.266,430.904,168.518,444.896"/>
<path fill="none" stroke="#a60d3f" stroke-width="1" stroke-linecap="butt" stroke-linejoin="round" d="M168.518,444.896C168.661,447.112,169.056,454.331,165.585,454.727"/>
<path fill="none" stroke="#a60d3f" stroke-width="1" stroke-linecap="butt" stroke-linejoin="round" d="M165.585,454.727C162.173,455.116,161.169,448.971,160.269,446.638"/>
<path fill="none" stroke="#a60d3f" stroke-width="1" stroke-linecap="butt" stroke-linejoin="round" d="M160.269,446.638C159.694,444.005,156.892,438.505,157.426,436.131"/>
<path fill="none" stroke="#a60d3f" stroke-width="1" stroke-linecap="butt" stroke-linejoin="round" d="M157.426,436.131C157.526,432.159,162.091,433.092,157.016,424.918"/>
<path fill="none" stroke="#a60d3f" stroke-width="1" stroke-linecap="butt" stroke-linejoin="round" d="M157.016,424.918C150.535,414.697,139.195,406.089,136.413,392.728"/>
<path fill="none" stroke="#a60d3f" stroke-width="1" stroke-linecap="butt" stroke-linejoin="round" d="M136.413,392.728C134.593,382.089,140.310,372.863,143.639,363.027"/>
<path fill="none" stroke="#a60d3f" stroke-width="1" stroke-linecap="butt" stroke-linejoin="round" d="M143.639,363.027C150.726,341.894,158.578,320.784,167.664,300.097"/>
<path fill="none" stroke="#a60d3f" stroke-width="1" stroke-linecap="butt" stroke-linejoin="round" d="M167.664,300.097C172.603,289.371,175.030,279.969,181.555,269.146"/>
<path fill="none" stroke="#a60d3f" stroke-width="1" stroke-linecap="butt" stroke-linejoin="round" d="M181.555,269.146C183.180,266.593,186.368,261.319,190.252,260.136"/>
<path fill="#a60d3f" fill-rule="evenodd" stroke="none" d="M190.252,260.136C196.791,258.145,201.809,264.345,202.173,268.926C203.117,276.947,196.524,287.186,193.334,294.778C185.521,313.055,177.181,331.107,171.814,349.700C171.129,352.959,165.959,374.084,166.015,371.436C165.545,378.053,172.058,383.822,174.280,389.494C177.119,397.142,174.224,404.317,172.295,411.270C167.855,425.607,168.266,430.904,168.518,444.896C168.661,447.112,169.056,454.331,165.585,454.727C162.173,455.116,161.169,448.971,160.269,446.638C159.694,444.005,156.892,438.505,157.426,436.131C157.526,432.159,162.091,433.092,157.016,424.918C150.535,414.697,139.195,406.089,136.413,392.728C134.593,382.089,140.310,372.863,143.639,363.027C150.726,341.894,158.578,320.784,167.664,300.097C172.603,289.371,175.030,279.969,181.555,269.146C183.180,266.593,186.368,261.319,190.252,260.136Z"/>
<g id="layer_left_leg">
<path fill="#000000" fill-rule="evenodd" stroke="none" d="M328.795,626.057C318.330,616.841,325.520,593.457,335.558,587.782C350.799,578.940,371.043,600.705,370.968,607.458C370.541,617.694,355.357,623.025,347.324,625.691C342.879,627.000,332.182,629.167,328.795,626.057M361.873,578.284C349.589,571.707,328.953,580.158,320.536,589.385C302.088,608.801,310.736,652.302,343.411,640.473C354.321,636.586,377.842,626.533,382.009,617.195C385.873,609.832,381.067,601.277,376.942,594.484C373.228,589.090,367.697,581.509,361.873,578.284Z"/>
<path fill="none" stroke="#d88e4b" stroke-width="1" stroke-linecap="butt" stroke-linejoin="round" d="M335.558,587.782C350.799,578.940,371.043,600.705,370.968,607.458"/>
<path fill="none" stroke="#d88e4b" stroke-width="1" stroke-linecap="butt" stroke-linejoin="round" d="M370.968,607.458C370.541,617.694,355.357,623.025,347.324,625.691"/>
<path fill="none" stroke="#d88e4b" stroke-width="1" stroke-linecap="butt" stroke-linejoin="round" d="M347.324,625.691C342.879,627.000,332.182,629.167,328.795,626.057"/>
<path fill="none" stroke="#d88e4b" stroke-width="1" stroke-linecap="butt" stroke-linejoin="round" d="M328.795,626.057C318.330,616.841,325.520,593.457,335.558,587.782"/>
<path fill="#d88e4b" fill-rule="evenodd" stroke="none" d="M335.558,587.782C350.799,578.940,371.043,600.705,370.968,607.458C370.541,617.694,355.357,623.025,347.324,625.691C342.879,627.000,332.182,629.167,328.795,626.057C318.330,616.841,325.520,593.457,335.558,587.782Z"/>
<path fill="#000000" fill-rule="evenodd" stroke="none" d="M242.983,414.739C243.131,409.657,253.337,410.351,256.971,408.990C262.491,407.233,274.284,401.379,279.927,403.438C290.375,406.856,302.322,435.613,306.088,445.751C316.676,476.853,327.894,505.600,338.129,535.629C340.010,541.594,342.001,547.736,343.758,553.610C345.423,558.458,345.183,565.781,349.450,567.871C351.517,569.373,355.411,565.465,356.485,567.605C359.852,575.463,350.398,573.891,347.910,579.301C343.133,588.903,331.621,599.673,322.004,600.036C315.528,600.505,303.034,596.709,298.807,591.629C294.887,586.918,291.276,580.833,288.470,575.495C275.033,549.932,273.008,491.512,255.799,460.476C246.450,443.614,253.285,439.295,257.321,424.855C258.019,422.356,246.823,428.157,244.592,426.753C241.754,425.266,242.723,417.884,242.983,414.739M284.059,392.360C276.566,389.576,260.679,396.797,253.884,399.454C250.078,400.925,236.957,401.950,234.712,404.712C221.487,420.979,240.488,457.814,247.888,473.794C249.716,478.509,256.550,501.641,258.377,508.194C267.492,534.926,268.928,559.813,279.331,586.075C282.020,593.123,283.990,600.308,288.583,606.133C301.116,621.808,318.050,619.783,338.852,611.912C349.707,607.814,372.554,594.748,374.009,570.672C374.569,561.350,365.959,551.540,363.881,549.141C360.327,545.038,355.810,541.360,352.942,536.277C343.113,520.138,343.573,499.628,336.509,481.963C327.480,459.328,307.657,401.187,284.059,392.360Z"/>
<path fill="none" stroke="#392966" stroke-width="1" stroke-linecap="butt" stroke-linejoin="round" d="M256.971,408.990C262.491,407.233,274.284,401.379,279.927,403.438"/>
<path fill="none" stroke="#392966" stroke-width="1" stroke-linecap="butt" stroke-linejoin="round" d="M279.927,403.438C290.375,406.856,302.322,435.613,306.088,445.751"/>
<path fill="none" stroke="#392966" stroke-width="1" stroke-linecap="butt" stroke-linejoin="round" d="M306.088,445.751C316.676,476.853,327.894,505.600,338.129,535.629"/>
<path fill="none" stroke="#392966" stroke-width="1" stroke-linecap="butt" stroke-linejoin="round" d="M338.129,535.629C340.010,541.594,342.001,547.736,343.758,553.610"/>
<path fill="none" stroke="#392966" stroke-width="1" stroke-linecap="butt" stroke-linejoin="round" d="M343.758,553.610C345.423,558.458,345.183,565.781,349.450,567.871"/>
<path fill="none" stroke="#392966" stroke-width="1" stroke-linecap="butt" stroke-linejoin="round" d="M349.450,567.871C351.517,569.373,355.411,565.465,356.485,567.605"/>
<path fill="none" stroke="#392966" stroke-width="1" stroke-linecap="butt" stroke-linejoin="round" d="M356.485,567.605C359.852,575.463,350.398,573.891,347.910,579.301"/>
<path fill="none" stroke="#392966" stroke-width="1" stroke-linecap="butt" stroke-linejoin="round" d="M347.910,579.301C343.133,588.903,331.621,599.673,322.004,600.036"/>
<path fill="none" stroke="#392966" stroke-width="1" stroke-linecap="butt" stroke-linejoin="round" d="M322.004,600.036C315.528,600.505,303.034,596.709,298.807,591.629"/>
<path fill="none" stroke="#392966" stroke-width="1" stroke-linecap="butt" stroke-linejoin="round" d="M298.807,591.629C294.887,586.918,291.276,580.833,288.470,575.495"/>
<path fill="none" stroke="#392966" stroke-width="1" stroke-linecap="butt" stroke-linejoin="round" d="M288.470,575.495C275.033,549.932,273.008,491.512,255.799,460.476"/>
<path fill="none" stroke="#392966" stroke-width="1" stroke-linecap="butt" stroke-linejoin="round" d="M255.799,460.476C246.450,443.614,253.285,439.295,257.321,424.855"/>
<path fill="none" stroke="#392966" stroke-width="1" stroke-linecap="butt" stroke-linejoin="round" d="M257.321,424.855C258.019,422.356,246.823,428.157,244.592,426.753"/>
<path fill="none" stroke="#392966" stroke-width="1" stroke-linecap="butt" stroke-linejoin="round" d="M244.592,426.753C241.754,425.266,242.723,417.884,242.983,414.739"/>
<path fill="none" stroke="#392966" stroke-width="1" stroke-linecap="butt" stroke-linejoin="round" d="M242.983,414.739C243.131,409.657,253.337,410.351,256.971,408.990"/>
<path fill="#392966" fill-rule="evenodd" stroke="none" d="M256.971,408.990C262.491,407.233,274.284,401.379,279.927,403.438C290.375,406.856,302.322,435.613,306.088,445.751C316.676,476.853,327.894,505.600,338.129,535.629C340.010,541.594,342.001,547.736,343.758,553.610C345.423,558.458,345.183,565.781,349.450,567.871C351.517,569.373,355.411,565.465,356.485,567.605C359.852,575.463,350.398,573.891,347.910,579.301C343.133,588.903,331.621,599.673,322.004,600.036C315.528,600.505,303.034,596.709,298.807,591.629C294.887,586.918,291.276,580.833,288.470,575.495C275.033,549.932,273.008,491.512,255.799,460.476C246.450,443.614,253.285,439.295,257.321,424.855C258.019,422.356,246.823,428.157,244.592,426.753C241.754,425.266,242.723,417.884,242.983,414.739C243.131,409.657,253.337,410.351,256.971,408.990Z"/>
<path fill="#000000" fill-rule="evenodd" stroke="none" d="M336.305,658.208C309.245,661.673,303.063,625.856,320.404,612.807C337.838,599.871,359.545,606.112,369.274,616.996C374.743,622.377,378.607,628.790,377.497,636.529C374.261,650.727,348.922,656.503,336.305,658.208M382.312,606.585C374.866,594.325,360.025,585.376,348.261,585.080C318.774,584.468,298.673,599.809,298.097,627.192C297.250,643.005,305.315,657.982,318.244,667.011C328.362,673.624,353.851,666.916,364.207,662.503C373.081,657.946,383.937,651.552,387.659,641.220C390.451,633.814,386.349,613.344,382.312,606.585Z"/>
<path fill="none" stroke="#d88e4b" stroke-width="1" stroke-linecap="butt" stroke-linejoin="round" d="M320.404,612.807C337.838,599.871,359.545,606.112,369.274,616.996"/>
<path fill="none" stroke="#d88e4b" stroke-width="1" stroke-linecap="butt" stroke-linejoin="round" d="M369.274,616.996C374.743,622.377,378.607,628.790,377.497,636.529"/>
<path fill="none" stroke="#d88e4b" stroke-width="1" stroke-linecap="butt" stroke-linejoin="round" d="M377.497,636.529C374.261,650.727,348.922,656.503,336.305,658.208"/>
<path fill="none" stroke="#d88e4b" stroke-width="1" stroke-linecap="butt" stroke-linejoin="round" d="M336.305,658.208C309.245,661.673,303.063,625.856,320.404,612.807"/>
<path fill="#d88e4b" fill-rule="evenodd" stroke="none" d="M320.404,612.807C337.838,599.871,359.545,606.112,369.274,616.996C374.743,622.377,378.607,628.790,377.497,636.529C374.261,650.727,348.922,656.503,336.305,658.208C309.245,661.673,303.063,625.856,320.404,612.807Z"/>
<path fill="#000000" fill-rule="evenodd" stroke="none" d="M344.410,671.847C333.924,674.991,326.457,661.884,326.453,667.655C326.450,671.295,336.438,671.427,340.711,671.313C350.265,671.424,364.087,665.527,371.078,658.548C373.497,656.502,381.445,650.719,381.580,650.943C383.746,654.538,372.675,659.079,369.164,660.692C366.292,662.393,345.187,671.411,344.410,671.847M326.778,667.530C331.211,664.090,342.797,665.270,347.027,665.294C363.774,665.388,370.783,653.637,378.144,649.931C378.796,649.613,379.909,647.180,381.605,648.620C387.342,653.495,358.112,670.140,343.631,669.941C336.238,670.588,325.031,668.886,326.778,667.530M383.544,640.006C379.721,638.524,366.030,651.832,350.294,657.258C342.293,660.048,318.277,653.944,315.876,665.175C315.364,667.598,318.526,674.807,320.695,675.874C335.159,683.296,383.712,663.506,388.105,656.755C389.545,654.542,389.154,642.182,383.544,640.006Z"/>
<path fill="none" stroke="#6e2353" stroke-width="1" stroke-linecap="butt" stroke-linejoin="round" d="M326.453,667.655C326.450,671.295,336.438,671.427,340.711,671.313"/>
<path fill="none" stroke="#6e2353" stroke-width="1" stroke-linecap="butt" stroke-linejoin="round" d="M340.711,671.313C350.265,671.424,364.087,665.527,371.078,658.548"/>
<path fill="none" stroke="#6e2353" stroke-width="1" stroke-linecap="butt" stroke-linejoin="round" d="M371.078,658.548C373.497,656.502,381.445,650.719,381.580,650.943"/>
<path fill="none" stroke="#6e2353" stroke-width="1" stroke-linecap="butt" stroke-linejoin="round" d="M381.580,650.943C383.746,654.538,372.675,659.079,369.164,660.692"/>
<path fill="none" stroke="#6e2353" stroke-width="1" stroke-linecap="butt" stroke-linejoin="round" d="M369.164,660.692C366.292,662.393,345.187,671.411,344.410,671.847"/>
<path fill="none" stroke="#6e2353" stroke-width="1" stroke-linecap="butt" stroke-linejoin="round" d="M344.410,671.847C333.924,674.991,326.457,661.884,326.453,667.655"/>
<path fill="#6e2353" fill-rule="evenodd" stroke="none" d="M326.453,667.655C326.450,671.295,336.438,671.427,340.711,671.313C350.265,671.424,364.087,665.527,371.078,658.548C373.497,656.502,381.445,650.719,381.580,650.943C383.746,654.538,372.675,659.079,369.164,660.692C366.292,662.393,345.187,671.411,344.410,671.847C333.924,674.991,326.457,661.884,326.453,667.655Z"/>
<path fill="none" stroke="#6e2353" stroke-width="1" stroke-linecap="butt" stroke-linejoin="round" d="M347.027,665.294C363.774,665.388,370.783,653.637,378.144,649.931"/>
<path fill="none" stroke="#6e2353" stroke-width="1" stroke-linecap="butt" stroke-linejoin="round" d="M378.144,649.931C378.796,649.613,379.909,647.180,381.605,648.620"/>
<path fill="none" stroke="#6e2353" stroke-width="1" stroke-linecap="butt" stroke-linejoin="round" d="M381.605,648.620C387.342,653.495,358.112,670.140,343.631,669.941"/>
<path fill="none" stroke="#6e2353" stroke-width="1" stroke-linecap="butt" stroke-linejoin="round" d="M343.631,669.941C336.238,670.588,325.031,668.886,326.778,667.530"/>
<path fill="none" stroke="#6e2353" stroke-width="1" stroke-linecap="butt" stroke-linejoin="round" d="M326.778,667.530C331.211,664.090,342.797,665.270,347.027,665.294"/>
<path fill="#6e2353" fill-rule="evenodd" stroke="none" d="M347.027,665.294C363.774,665.388,370.783,653.637,378.144,649.931C378.796,649.613,379.909,647.180,381.605,648.620C387.342,653.495,358.112,670.140,343.631,669.941C336.238,670.588,325.031,668.886,326.778,667.530C331.211,664.090,342.797,665.270,347.027,665.294Z"/>
</g>
<g id="layer_right_leg">
<path fill="#000000" fill-rule="evenodd" stroke="none" d="M193.757,621.846C193.668,605.569,194.070,592.897,213.881,588.914C222.697,586.977,239.811,588.830,245.202,597.088C248.025,601.185,247.590,607.453,248.100,611.971C248.996,619.330,254.384,633.319,243.988,635.642C243.324,635.858,224.751,637.237,218.957,637.718C211.601,639.015,203.921,640.012,198.263,635.227C195.315,632.185,193.702,625.676,193.757,621.846M254.619,594.854C250.101,584.764,235.481,579.714,225.500,581.730C212.470,584.199,198.778,580.665,190.941,593.330C184.832,603.201,185.097,620.697,187.743,631.659C188.794,636.726,192.586,645.865,197.034,648.455C200.289,650.257,205.108,649.415,208.819,649.210C226.915,648.495,259.539,652.740,257.602,626.021C257.026,619.113,256.995,600.212,254.619,594.854Z"/>
<path fill="none" stroke="#d88e4b" stroke-width="1" stroke-linecap="butt" stroke-linejoin="round" d="M213.881,588.914C222.697,586.977,239.811,588.830,245.202,597.088"/>
<path fill="none" stroke="#d88e4b" stroke-width="1" stroke-linecap="butt" stroke-linejoin="round" d="M245.202,597.088C248.025,601.185,247.590,607.453,248.100,611.971"/>
<path fill="none" stroke="#d88e4b" stroke-width="1" stroke-linecap="butt" stroke-linejoin="round" d="M248.100,611.971C248.996,619.330,254.384,633.319,243.988,635.642"/>
<path fill="none" stroke="#d88e4b" stroke-width="1" stroke-linecap="butt" stroke-linejoin="round" d="M243.988,635.642C243.324,635.858,224.751,637.237,218.957,637.718"/>
<path fill="none" stroke="#d88e4b" stroke-width="1" stroke-linecap="butt" stroke-linejoin="round" d="M218.957,637.718C211.601,639.015,203.921,640.012,198.263,635.227"/>
<path fill="none" stroke="#d88e4b" stroke-width="1" stroke-linecap="butt" stroke-linejoin="round" d="M198.263,635.227C195.315,632.185,193.702,625.676,193.757,621.846"/>
<path fill="none" stroke="#d88e4b" stroke-width="1" stroke-linecap="butt" stroke-linejoin="round" d="M193.757,621.846C193.668,605.569,194.070,592.897,213.881,588.914"/>
<path fill="#d88e4b" fill-rule="evenodd" stroke="none" d="M213.881,588.914C222.697,586.977,239.811,588.830,245.202,597.088C248.025,601.185,247.590,607.453,248.100,611.971C248.996,619.330,254.384,633.319,243.988,635.642C243.324,635.858,224.751,637.237,218.957,637.718C211.601,639.015,203.921,640.012,198.263,635.227C195.315,632.185,193.702,625.676,193.757,621.846C193.668,605.569,194.070,592.897,213.881,588.914Z"/>
<path fill="#000000" fill-rule="evenodd" stroke="none" d="M180.832,408.437C183.809,396.465,199.322,392.778,210.004,395.087C215.915,396.239,225.824,398.522,229.324,403.796C230.822,406.052,231.611,410.360,230.327,412.739C228.073,416.918,212.719,414.951,215.621,418.823C220.694,425.809,230.347,415.940,234.823,419.545C236.815,421.149,237.191,424.626,237.738,427.514C242.993,449.066,237.329,472.651,238.378,494.132C238.647,501.079,237.563,511.400,239.117,517.658C242.406,533.115,240.676,536.491,241.545,545.828C241.650,549.319,240.795,567.091,242.197,571.569C243.771,576.268,247.451,580.670,248.162,585.595C249.360,593.903,237.528,605.441,230.057,608.042C221.511,610.829,194.780,610.360,186.462,606.358C183.251,604.926,179.232,601.275,177.812,597.809C176.282,594.585,173.928,579.228,174.803,575.463C176.590,568.912,179.045,567.479,180.778,559.722C182.495,550.587,184.148,540.710,183.225,531.242C181.048,512.736,180.458,482.988,181.958,469.585C182.614,462.033,179.615,436.874,180.305,429.879C181.554,418.315,179.439,416.201,180.832,408.437M204.608,383.713C198.847,382.056,194.205,376.993,188.357,379.342C186.580,380.233,183.524,382.668,182.306,384.046C167.155,398.571,169.173,412.189,170.266,431.572C170.365,438.530,170.838,445.747,170.540,452.427C170.181,457.984,168.582,462.601,167.513,467.729C166.920,471.939,166.470,476.439,166.514,481.697C166.686,486.866,168.362,492.862,168.923,501.628C168.839,511.445,170.023,520.653,170.055,530.037C170.293,536.430,167.937,551.373,167.299,556.277C165.394,563.263,162.599,571.378,161.333,578.101C160.186,586.984,162.061,596.243,165.923,603.829C167.733,607.905,170.894,612.712,174.210,615.307C176.372,616.999,179.198,617.897,181.719,618.615C190.042,620.939,197.874,621.834,206.595,621.622C212.469,621.523,218.163,619.554,224.270,619.753C225.284,619.632,233.619,621.077,235.265,621.121C238.222,621.033,242.242,618.210,244.847,616.496C248.297,613.950,254.588,612.914,257.263,609.424C259.426,606.599,259.865,602.804,260.864,599.394C266.444,579.289,260.195,568.713,256.705,550.820C254.765,540.870,251.251,520.375,250.780,509.164C249.929,495.597,251.865,482.332,251.887,468.319C251.983,463.903,252.079,458.606,252.566,453.594C252.964,448.573,251.679,444.593,251.193,439.656C250.589,435.854,250.177,423.583,249.355,419.510C248.769,415.870,248.542,411.298,247.001,407.752C242.809,398.738,228.262,389.318,218.788,386.878C214.043,385.493,209.042,385.445,204.608,383.713Z"/>
<path fill="none" stroke="#392966" stroke-width="1" stroke-linecap="butt" stroke-linejoin="round" d="M210.004,395.087C215.915,396.239,225.824,398.522,229.324,403.796"/>
<path fill="none" stroke="#392966" stroke-width="1" stroke-linecap="butt" stroke-linejoin="round" d="M229.324,403.796C230.822,406.052,231.611,410.360,230.327,412.739"/>
<path fill="none" stroke="#392966" stroke-width="1" stroke-linecap="butt" stroke-linejoin="round" d="M230.327,412.739C228.073,416.918,212.719,414.951,215.621,418.823"/>
<path fill="none" stroke="#392966" stroke-width="1" stroke-linecap="butt" stroke-linejoin="round" d="M215.621,418.823C220.694,425.809,230.347,415.940,234.823,419.545"/>
<path fill="none" stroke="#392966" stroke-width="1" stroke-linecap="butt" stroke-linejoin="round" d="M234.823,419.545C236.815,421.149,237.191,424.626,237.738,427.514"/>
<path fill="none" stroke="#392966" stroke-width="1" stroke-linecap="butt" stroke-linejoin="round" d="M237.738,427.514C242.993,449.066,237.329,472.651,238.378,494.132"/>
<path fill="none" stroke="#392966" stroke-width="1" stroke-linecap="butt" stroke-linejoin="round" d="M238.378,494.132C238.647,501.079,237.563,511.400,239.117,517.658"/>
<path fill="none" stroke="#392966" stroke-width="1" stroke-linecap="butt" stroke-linejoin="round" d="M239.117,517.658C242.406,533.115,240.676,536.491,241.545,545.828"/>
<path fill="none" stroke="#392966" stroke-width="1" stroke-linecap="butt" stroke-linejoin="round" d="M241.545,545.828C241.650,549.319,240.795,567.091,242.197,571.569"/>
<path fill="none" stroke="#392966" stroke-width="1" stroke-linecap="butt" stroke-linejoin="round" d="M242.197,571.569C243.771,576.268,247.451,580.670,248.162,585.595"/>
<path fill="none" stroke="#392966" stroke-width="1" stroke-linecap="butt" stroke-linejoin="round" d="M248.162,585.595C249.360,593.903,237.528,605.441,230.057,608.042"/>
<path fill="none" stroke="#392966" stroke-width="1" stroke-linecap="butt" stroke-linejoin="round" d="M230.057,608.042C221.511,610.829,194.780,610.360,186.462,606.358"/>
<path fill="none" stroke="#392966" stroke-width="1" stroke-linecap="butt" stroke-linejoin="round" d="M186.462,606.358C183.251,604.926,179.232,601.275,177.812,597.809"/>
<path fill="none" stroke="#392966" stroke-width="1" stroke-linecap="butt" stroke-linejoin="round" d="M177.812,597.809C176.282,594.585,173.928,579.228,174.803,575.463"/>
<path fill="none" stroke="#392966" stroke-width="1" stroke-linecap="butt" stroke-linejoin="round" d="M174.803,575.463C176.590,568.912,179.045,567.479,180.778,559.722"/>
<path fill="none" stroke="#392966" stroke-width="1" stroke-linecap="butt" stroke-linejoin="round" d="M180.778,559.722C182.495,550.587,184.148,540.710,183.225,531.242"/>
<path fill="none" stroke="#392966" stroke-width="1" stroke-linecap="butt" stroke-linejoin="round" d="M183.225,531.242C181.048,512.736,180.458,482.988,181.958,469.585"/>
<path fill="none" stroke="#392966" stroke-width="1" stroke-linecap="butt" stroke-linejoin="round" d="M181.958,469.585C182.614,462.033,179.615,436.874,180.305,429.879"/>
<path fill="none" stroke="#392966" stroke-width="1" stroke-linecap="butt" stroke-linejoin="round" d="M180.305,429.879C181.554,418.315,179.439,416.201,180.832,408.437"/>
<path fill="none" stroke="#392966" stroke-width="1" stroke-linecap="butt" stroke-linejoin="round" d="M180.832,408.437C183.809,396.465,199.322,392.778,210.004,395.087"/>
<path fill="#392966" fill-rule="evenodd" stroke="none" d="M210.004,395.087C215.915,396.239,225.824,398.522,229.324,403.796C230.822,406.052,231.611,410.360,230.327,412.739C228.073,416.918,212.719,414.951,215.621,418.823C220.694,425.809,230.347,415.940,234.823,419.545C236.815,421.149,237.191,424.626,237.738,427.514C242.993,449.066,237.329,472.651,238.378,494.132C238.647,501.079,237.563,511.400,239.117,517.658C242.406,533.115,240.676,536.491,241.545,545.828C241.650,549.319,240.795,567.091,242.197,571.569C243.771,576.268,247.451,580.670,248.162,585.595C249.360,593.903,237.528,605.441,230.057,608.042C221.511,610.829,194.780,610.360,186.462,606.358C183.251,604.926,179.232,601.275,177.812,597.809C176.282,594.585,173.928,579.228,174.803,575.463C176.590,568.912,179.045,567.479,180.778,559.722C182.495,550.587,184.148,540.710,183.225,531.242C181.048,512.736,180.458,482.988,181.958,469.585C182.614,462.033,179.615,436.874,180.305,429.879C181.554,418.315,179.439,416.201,180.832,408.437C183.809,396.465,199.322,392.778,210.004,395.087Z"/>
<path fill="#000000" fill-rule="evenodd" stroke="none" d="M177.953,645.259C178.567,631.917,182.880,614.536,199.040,611.326C202.751,610.388,208.137,611.859,212.351,612.472C233.897,615.550,242.452,619.837,244.379,641.518C244.787,647.479,246.116,654.832,241.894,659.867C237.691,664.787,216.452,663.349,210.027,663.986C198.689,665.358,189.198,671.299,180.756,661.898C175.697,656.145,177.636,652.386,177.953,645.259M251.622,618.283C243.778,604.739,210.615,598.246,196.047,601.749C174.314,607.103,168.209,624.615,167.840,643.191C167.659,649.820,167.209,657.116,170.848,662.780C172.150,664.807,174.817,667.470,176.654,669.049C190.535,682.025,200.051,679.779,217.795,678.667C227.187,678.235,242.756,676.570,249.943,669.930C255.315,664.483,255.557,658.850,255.406,651.669C255.012,644.766,254.758,623.236,251.622,618.283Z"/>
<path fill="none" stroke="#d88e4b" stroke-width="1" stroke-linecap="butt" stroke-linejoin="round" d="M199.040,611.326C202.751,610.388,208.137,611.859,212.351,612.472"/>
<path fill="none" stroke="#d88e4b" stroke-width="1" stroke-linecap="butt" stroke-linejoin="round" d="M212.351,612.472C233.897,615.550,242.452,619.837,244.379,641.518"/>
<path fill="none" stroke="#d88e4b" stroke-width="1" stroke-linecap="butt" stroke-linejoin="round" d="M244.379,641.518C244.787,647.479,246.116,654.832,241.894,659.867"/>
<path fill="none" stroke="#d88e4b" stroke-width="1" stroke-linecap="butt" stroke-linejoin="round" d="M241.894,659.867C237.691,664.787,216.452,663.349,210.027,663.986"/>
<path fill="none" stroke="#d88e4b" stroke-width="1" stroke-linecap="butt" stroke-linejoin="round" d="M210.027,663.986C198.689,665.358,189.198,671.299,180.756,661.898"/>
<path fill="none" stroke="#d88e4b" stroke-width="1" stroke-linecap="butt" stroke-linejoin="round" d="M180.756,661.898C175.697,656.145,177.636,652.386,177.953,645.259"/>
<path fill="none" stroke="#d88e4b" stroke-width="1" stroke-linecap="butt" stroke-linejoin="round" d="M177.953,645.259C178.567,631.917,182.880,614.536,199.040,611.326"/>
<path fill="#d88e4b" fill-rule="evenodd" stroke="none" d="M199.040,611.326C202.751,610.388,208.137,611.859,212.351,612.472C233.897,615.550,242.452,619.837,244.379,641.518C244.787,647.479,246.116,654.832,241.894,659.867C237.691,664.787,216.452,663.349,210.027,663.986C198.689,665.358,189.198,671.299,180.756,661.898C175.697,656.145,177.636,652.386,177.953,645.259C178.567,631.917,182.880,614.536,199.040,611.326Z"/>
<path fill="#000000" fill-rule="evenodd" stroke="none" d="M196.998,675.171C200.618,677.250,210.563,673.794,215.089,674.153C218.228,674.573,221.476,675.825,223.944,674.872C225.819,674.263,236.724,669.879,233.242,672.882C231.245,674.689,226.943,674.755,224.793,674.682C222.410,674.895,199.994,675.428,199.180,675.639C192.306,676.930,185.573,670.020,187.784,671.782C189.704,673.313,193.279,673.022,196.998,675.171M237.887,668.630C238.082,669.454,237.211,670.625,235.946,670.686C233.470,670.816,224.206,673.353,220.911,672.783C217.134,672.796,213.000,673.549,209.597,673.619C202.729,673.761,191.919,677.093,186.715,672.699C186.490,672.430,186.454,672.181,186.529,672.005C186.855,671.245,191.535,672.644,194.805,672.486C199.916,672.240,206.900,670.594,212.120,670.072C217.760,669.508,225.220,669.774,230.984,668.935C231.882,668.827,237.414,666.629,237.887,668.630M243.089,662.946C231.649,660.367,223.356,667.429,212.787,666.267C205.370,665.480,190.989,666.170,182.030,668.446C180.593,668.811,177.805,668.771,177.448,670.285C177.004,672.189,180.859,676.019,183.252,677.398C186.220,679.107,192.182,678.811,194.566,679.036C206.681,680.621,221.880,676.460,234.153,677.414C243.372,678.052,245.178,672.786,245.867,668.434C246.155,666.615,246.666,663.705,243.089,662.946Z"/>
<path fill="none" stroke="#6e2353" stroke-width="1" stroke-linecap="butt" stroke-linejoin="round" d="M196.998,675.171C200.618,677.250,210.563,673.794,215.089,674.153"/>
<path fill="none" stroke="#6e2353" stroke-width="1" stroke-linecap="butt" stroke-linejoin="round" d="M215.089,674.153C218.228,674.573,221.476,675.825,223.944,674.872"/>
<path fill="none" stroke="#6e2353" stroke-width="1" stroke-linecap="butt" stroke-linejoin="round" d="M223.944,674.872C225.819,674.263,236.724,669.879,233.242,672.882"/>
<path fill="none" stroke="#6e2353" stroke-width="1" stroke-linecap="butt" stroke-linejoin="round" d="M233.242,672.882C231.245,674.689,226.943,674.755,224.793,674.682"/>
<path fill="none" stroke="#6e2353" stroke-width="1" stroke-linecap="butt" stroke-linejoin="round" d="M224.793,674.682C222.410,674.895,199.994,675.428,199.180,675.639"/>
<path fill="none" stroke="#6e2353" stroke-width="1" stroke-linecap="butt" stroke-linejoin="round" d="M199.180,675.639C192.306,676.930,185.573,670.020,187.784,671.782"/>
<path fill="none" stroke="#6e2353" stroke-width="1" stroke-linecap="butt" stroke-linejoin="round" d="M187.784,671.782C189.704,673.313,193.279,673.022,196.998,675.171"/>
<path fill="#6e2353" fill-rule="evenodd" stroke="none" d="M196.998,675.171C200.618,677.250,210.563,673.794,215.089,674.153C218.228,674.573,221.476,675.825,223.944,674.872C225.819,674.263,236.724,669.879,233.242,672.882C231.245,674.689,226.943,674.755,224.793,674.682C222.410,674.895,199.994,675.428,199.180,675.639C192.306,676.930,185.573,670.020,187.784,671.782C189.704,673.313,193.279,673.022,196.998,675.171Z"/>
<path fill="none" stroke="#6e2353" stroke-width="1" stroke-linecap="butt" stroke-linejoin="round" d="M194.805,672.486C199.916,672.240,206.900,670.594,212.120,670.072"/>
<path fill="none" stroke="#6e2353" stroke-width="1" stroke-linecap="butt" stroke-linejoin="round" d="M212.120,670.072C217.760,669.508,225.220,669.774,230.984,668.935"/>
<path fill="none" stroke="#6e2353" stroke-width="1" stroke-linecap="butt" stroke-linejoin="round" d="M230.984,668.935C231.882,668.827,237.414,666.629,237.887,668.630"/>
<path fill="none" stroke="#6e2353" stroke-width="1" stroke-linecap="butt" stroke-linejoin="round" d="M237.887,668.630C238.082,669.454,237.211,670.625,235.946,670.686"/>
<path fill="none" stroke="#6e2353" stroke-width="1" stroke-linecap="butt" stroke-linejoin="round" d="M235.946,670.686C233.470,670.816,224.206,673.353,220.911,672.783"/>
<path fill="none" stroke="#6e2353" stroke-width="1" stroke-linecap="butt" stroke-linejoin="round" d="M220.911,672.783C217.134,672.796,213.000,673.549,209.597,673.619"/>
<path fill="none" stroke="#6e2353" stroke-width="1" stroke-linecap="butt" stroke-linejoin="round" d="M209.597,673.619C202.729,673.761,191.919,677.093,186.715,672.699"/>
<path fill="none" stroke="#6e2353" stroke-width="1" stroke-linecap="butt" stroke-linejoin="round" d="M186.715,672.699C186.490,672.430,186.454,672.181,186.529,672.005"/>
<path fill="none" stroke="#6e2353" stroke-width="1" stroke-linecap="butt" stroke-linejoin="round" d="M186.529,672.005C186.855,671.245,191.535,672.644,194.805,672.486"/>
<path fill="#6e2353" fill-rule="evenodd" stroke="none" d="M194.805,672.486C199.916,672.240,206.900,670.594,212.120,670.072C217.760,669.508,225.220,669.774,230.984,668.935C231.882,668.827,237.414,666.629,237.887,668.630C238.082,669.454,237.211,670.625,235.946,670.686C233.470,670.816,224.206,673.353,220.911,672.783C217.134,672.796,213.000,673.549,209.597,673.619C202.729,673.761,191.919,677.093,186.715,672.699C186.490,672.430,186.454,672.181,186.529,672.005C186.855,671.245,191.535,672.644,194.805,672.486Z"/>
</g>
<path fill="#000000" fill-rule="evenodd" stroke="none" d="M302.744,153.351C307.112,147.859,318.034,132.786,325.958,133.769C331.241,134.425,340.948,145.352,346.192,149.020C350.776,152.606,355.731,155.903,361.016,159.240C363.998,161.292,366.985,163.338,369.976,165.380C383.273,174.406,378.531,180.188,370.440,177.842C352.362,172.246,349.227,173.199,332.545,161.742C330.356,160.464,324.822,156.427,323.299,160.595C321.366,165.383,329.748,170.782,333.174,172.883C339.326,177.335,346.099,182.199,353.941,183.841C356.211,184.459,364.218,184.780,365.250,187.255C366.822,190.803,356.182,198.199,353.956,199.935C350.285,202.497,346.616,205.058,343.026,206.961C337.665,209.646,332.013,211.962,326.278,212.256C315.549,212.267,284.416,192.983,284.859,181.305C285.019,174.620,298.003,159.133,302.744,153.351M338.376,130.953C333.956,126.046,331.103,119.321,323.429,121.722C317.859,123.379,311.305,130.276,307.182,133.788C291.597,148.616,276.965,166.581,274.962,188.123C273.613,201.700,278.276,201.944,288.516,208.577C303.999,218.880,324.803,224.143,343.656,218.102C355.866,214.252,378.219,198.922,384.977,187.692C387.119,183.934,391.196,175.389,389.457,170.480C387.513,164.539,366.579,152.220,360.427,147.770C353.036,142.494,344.613,137.425,338.376,130.953Z"/>
<path fill="none" stroke="#cc9bc5" stroke-width="1" stroke-linecap="butt" stroke-linejoin="round" d="M325.958,133.769C331.241,134.425,340.948,145.352,346.192,149.020"/>
<path fill="none" stroke="#cc9bc5" stroke-width="1" stroke-linecap="butt" stroke-linejoin="round" d="M346.192,149.020C350.776,152.606,355.731,155.903,361.016,159.240"/>
<path fill="none" stroke="#cc9bc5" stroke-width="1" stroke-linecap="butt" stroke-linejoin="round" d="M361.016,159.240C363.998,161.292,366.985,163.338,369.976,165.380"/>
<path fill="none" stroke="#cc9bc5" stroke-width="1" stroke-linecap="butt" stroke-linejoin="round" d="M369.976,165.380C383.273,174.406,378.531,180.188,370.440,177.842"/>
<path fill="none" stroke="#cc9bc5" stroke-width="1" stroke-linecap="butt" stroke-linejoin="round" d="M370.440,177.842C352.362,172.246,349.227,173.199,332.545,161.742"/>
<path fill="none" stroke="#cc9bc5" stroke-width="1" stroke-linecap="butt" stroke-linejoin="round" d="M332.545,161.742C330.356,160.464,324.822,156.427,323.299,160.595"/>
<path fill="none" stroke="#cc9bc5" stroke-width="1" stroke-linecap="butt" stroke-linejoin="round" d="M323.299,160.595C321.366,165.383,329.748,170.782,333.174,172.883"/>
<path fill="none" stroke="#cc9bc5" stroke-width="1" stroke-linecap="butt" stroke-linejoin="round" d="M333.174,172.883C339.326,177.335,346.099,182.199,353.941,183.841"/>
<path fill="none" stroke="#cc9bc5" stroke-width="1" stroke-linecap="butt" stroke-linejoin="round" d="M353.941,183.841C356.211,184.459,364.218,184.780,365.250,187.255"/>
<path fill="none" stroke="#cc9bc5" stroke-width="1" stroke-linecap="butt" stroke-linejoin="round" d="M365.250,187.255C366.822,190.803,356.182,198.199,353.956,199.935"/>
<path fill="none" stroke="#cc9bc5" stroke-width="1" stroke-linecap="butt" stroke-linejoin="round" d="M353.956,199.935C350.285,202.497,346.616,205.058,343.026,206.961"/>
<path fill="none" stroke="#cc9bc5" stroke-width="1" stroke-linecap="butt" stroke-linejoin="round" d="M343.026,206.961C337.665,209.646,332.013,211.962,326.278,212.256"/>
<path fill="none" stroke="#cc9bc5" stroke-width="1" stroke-linecap="butt" stroke-linejoin="round" d="M326.278,212.256C315.549,212.267,284.416,192.983,284.859,181.305"/>
<path fill="none" stroke="#cc9bc5" stroke-width="1" stroke-linecap="butt" stroke-linejoin="round" d="M284.859,181.305C285.019,174.620,298.003,159.133,302.744,153.351"/>
<path fill="none" stroke="#cc9bc5" stroke-width="1" stroke-linecap="butt" stroke-linejoin="round" d="M302.744,153.351C307.112,147.859,318.034,132.786,325.958,133.769"/>
<path fill="#cc9bc5" fill-rule="evenodd" stroke="none" d="M325.958,133.769C331.241,134.425,340.948,145.352,346.192,149.020C350.776,152.606,355.731,155.903,361.016,159.240C363.998,161.292,366.985,163.338,369.976,165.380C383.273,174.406,378.531,180.188,370.440,177.842C352.362,172.246,349.227,173.199,332.545,161.742C330.356,160.464,324.822,156.427,323.299,160.595C321.366,165.383,329.748,170.782,333.174,172.883C339.326,177.335,346.099,182.199,353.941,183.841C356.211,184.459,364.218,184.780,365.250,187.255C366.822,190.803,356.182,198.199,353.956,199.935C350.285,202.497,346.616,205.058,343.026,206.961C337.665,209.646,332.013,211.962,326.278,212.256C315.549,212.267,284.416,192.983,284.859,181.305C285.019,174.620,298.003,159.133,302.744,153.351C307.112,147.859,318.034,132.786,325.958,133.769Z"/>
<path fill="#000000" fill-rule="evenodd" stroke="none" d="M199.470,142.938C215.772,129.462,235.522,126.479,256.431,123.634C265.803,122.341,272.867,128.123,280.664,133.709C287.098,138.645,294.043,144.235,300.871,149.408C311.143,157.134,315.515,161.086,319.435,164.887C322.753,167.774,328.003,173.252,332.034,175.713C336.897,178.680,347.637,194.856,349.850,196.589C343.457,199.446,333.236,202.078,328.836,206.358C331.035,212.001,332.234,220.957,332.500,223.653C326.362,224.668,318.912,222.556,307.308,221.567C305.669,228.940,306.320,235.638,302.331,243.342C294.438,241.736,288.916,240.362,278.571,236.885C272.521,242.685,270.948,242.425,260.922,249.931C253.447,246.286,247.380,242.217,240.224,240.042C233.756,243.562,223.164,245.593,219.816,248.852C215.359,242.207,211.138,234.803,207.578,231.754C198.214,234.620,194.368,237.625,187.857,240.719C183.135,235.630,185.703,230.819,180.276,223.195C175.855,222.440,168.949,220.468,163.403,220.885C166.803,216.053,168.230,201.106,174.524,198.632C182.290,195.581,176.380,186.965,180.514,178.339C181.528,176.100,191.707,158.733,192.506,155.976C194.064,151.206,195.782,146.137,199.470,142.938M284.063,120.707C270.991,112.479,245.924,109.710,232.412,114.238C219.996,118.243,207.944,123.410,197.603,131.593C191.807,136.115,185.533,142.567,182.008,149.031C174.934,161.606,165.545,188.545,160.012,201.131C155.620,211.552,151.274,218.717,146.656,224.582C164.795,229.344,170.162,231.512,175.461,231.825C176.505,239.517,184.163,244.586,183.723,253.222C192.372,251.107,197.387,248.400,205.005,245.731C209.398,249.996,212.719,256.040,217.078,261.862C224.567,259.062,232.451,258.624,239.553,252.486C245.336,254.976,254.511,258.826,263.952,262.926C271.809,257.759,273.556,257.343,280.845,251.594C290.499,253.046,300.955,257.973,310.369,256.082C308.943,247.993,314.456,241.836,313.268,236.672C320.261,234.089,342.525,235.243,346.247,234.575C345.463,228.575,341.082,217.356,341.979,210.038C348.592,207.608,354.172,205.436,364.292,199.376C360.216,193.031,353.243,185.330,347.344,180.900C342.368,177.202,338.122,172.085,333.127,168.213C316.210,155.321,308.252,136.012,284.063,120.707Z"/>
<path fill="none" stroke="#620527" stroke-width="1" stroke-linecap="butt" stroke-linejoin="round" d="M256.431,123.634C265.803,122.341,272.867,128.123,280.664,133.709"/>
<path fill="none" stroke="#620527" stroke-width="1" stroke-linecap="butt" stroke-linejoin="round" d="M280.664,133.709C287.098,138.645,294.043,144.235,300.871,149.408"/>
<path fill="none" stroke="#620527" stroke-width="1" stroke-linecap="butt" stroke-linejoin="round" d="M300.871,149.408C311.143,157.134,315.515,161.086,319.435,164.887"/>
<path fill="none" stroke="#620527" stroke-width="1" stroke-linecap="butt" stroke-linejoin="round" d="M319.435,164.887C322.753,167.774,328.003,173.252,332.034,175.713"/>
<path fill="none" stroke="#620527" stroke-width="1" stroke-linecap="butt" stroke-linejoin="round" d="M332.034,175.713C336.897,178.680,347.637,194.856,349.850,196.589"/>
<path fill="none" stroke="#620527" stroke-width="1" stroke-linecap="butt" stroke-linejoin="round" d="M349.850,196.589C343.457,199.446,333.236,202.078,328.836,206.358"/>
<path fill="none" stroke="#620527" stroke-width="1" stroke-linecap="butt" stroke-linejoin="round" d="M328.836,206.358C331.035,212.001,332.234,220.957,332.500,223.653"/>
<path fill="none" stroke="#620527" stroke-width="1" stroke-linecap="butt" stroke-linejoin="round" d="M332.500,223.653C326.362,224.668,318.912,222.556,307.308,221.567"/>
<path fill="none" stroke="#620527" stroke-width="1" stroke-linecap="butt" stroke-linejoin="round" d="M307.308,221.567C305.669,228.940,306.320,235.638,302.331,243.342"/>
<path fill="none" stroke="#620527" stroke-width="1" stroke-linecap="butt" stroke-linejoin="round" d="M302.331,243.342C294.438,241.736,288.916,240.362,278.571,236.885"/>
<path fill="none" stroke="#620527" stroke-width="1" stroke-linecap="butt" stroke-linejoin="round" d="M278.571,236.885C272.521,242.685,270.948,242.425,260.922,249.931"/>
<path fill="none" stroke="#620527" stroke-width="1" stroke-linecap="butt" stroke-linejoin="round" d="M260.922,249.931C253.447,246.286,247.380,242.217,240.224,240.042"/>
<path fill="none" stroke="#620527" stroke-width="1" stroke-linecap="butt" stroke-linejoin="round" d="M240.224,240.042C233.756,243.562,223.164,245.593,219.816,248.852"/>
<path fill="none" stroke="#620527" stroke-width="1" stroke-linecap="butt" stroke-linejoin="round" d="M219.816,248.852C215.359,242.207,211.138,234.803,207.578,231.754"/>
<path fill="none" stroke="#620527" stroke-width="1" stroke-linecap="butt" stroke-linejoin="round" d="M207.578,231.754C198.214,234.620,194.368,237.625,187.857,240.719"/>
<path fill="none" stroke="#620527" stroke-width="1" stroke-linecap="butt" stroke-linejoin="round" d="M187.857,240.719C183.135,235.630,185.703,230.819,180.276,223.195"/>
<path fill="none" stroke="#620527" stroke-width="1" stroke-linecap="butt" stroke-linejoin="round" d="M180.276,223.195C175.855,222.440,168.949,220.468,163.403,220.885"/>
<path fill="none" stroke="#620527" stroke-width="1" stroke-linecap="butt" stroke-linejoin="round" d="M163.403,220.885C166.803,216.053,168.230,201.106,174.524,198.632"/>
<path fill="none" stroke="#620527" stroke-width="1" stroke-linecap="butt" stroke-linejoin="round" d="M174.524,198.632C182.290,195.581,176.380,186.965,180.514,178.339"/>
<path fill="none" stroke="#620527" stroke-width="1" stroke-linecap="butt" stroke-linejoin="round" d="M180.514,178.339C181.528,176.100,191.707,158.733,192.506,155.976"/>
<path fill="none" stroke="#620527" stroke-width="1" stroke-linecap="butt" stroke-linejoin="round" d="M192.506,155.976C194.064,151.206,195.782,146.137,199.470,142.938"/>
<path fill="none" stroke="#620527" stroke-width="1" stroke-linecap="butt" stroke-linejoin="round" d="M199.470,142.938C215.772,129.462,235.522,126.479,256.431,123.634"/>
<path fill="#620527" fill-rule="evenodd" stroke="none" d="M256.431,123.634C265.803,122.341,272.867,128.123,280.664,133.709C287.098,138.645,294.043,144.235,300.871,149.408C311.143,157.134,315.515,161.086,319.435,164.887C322.753,167.774,328.003,173.252,332.034,175.713C336.897,178.680,347.637,194.856,349.850,196.589C343.457,199.446,333.236,202.078,328.836,206.358C331.035,212.001,332.234,220.957,332.500,223.653C326.362,224.668,318.912,222.556,307.308,221.567C305.669,228.940,306.320,235.638,302.331,243.342C294.438,241.736,288.916,240.362,278.571,236.885C272.521,242.685,270.948,242.425,260.922,249.931C253.447,246.286,247.380,242.217,240.224,240.042C233.756,243.562,223.164,245.593,219.816,248.852C215.359,242.207,211.138,234.803,207.578,231.754C198.214,234.620,194.368,237.625,187.857,240.719C183.135,235.630,185.703,230.819,180.276,223.195C175.855,222.440,168.949,220.468,163.403,220.885C166.803,216.053,168.230,201.106,174.524,198.632C182.290,195.581,176.380,186.965,180.514,178.339C181.528,176.100,191.707,158.733,192.506,155.976C194.064,151.206,195.782,146.137,199.470,142.938C215.772,129.462,235.522,126.479,256.431,123.634Z"/>
<path fill="#000000" fill-rule="evenodd" stroke="none" d="M246.626,368.907C241.446,366.792,221.650,367.140,218.102,371.734C215.851,374.838,219.084,376.655,222.408,376.954C226.381,377.311,247.340,377.531,250.140,375.932C254.584,373.323,248.780,369.679,246.626,368.907M202.558,264.913C206.481,252.637,234.250,242.044,246.999,244.074C255.979,245.476,283.282,261.860,286.597,270.560C289.376,277.514,288.315,302.305,287.893,310.676C286.843,325.942,286.254,341.284,285.803,356.579C286.023,368.584,294.667,382.148,288.556,392.484C286.074,395.647,276.352,395.565,271.986,396.277C266.197,397.506,255.101,401.963,249.660,401.669C226.827,401.059,228.973,402.841,207.591,401.520C203.492,401.110,190.246,399.175,187.765,397.123C182.182,391.302,185.929,382.811,187.954,375.313C192.149,361.957,194.055,352.587,196.490,337.940C199.014,322.112,202.424,305.217,203.789,288.707C203.948,282.790,201.627,268.464,202.558,264.913M282.324,252.974C266.754,241.981,251.345,232.725,231.214,236.863C225.829,237.769,198.394,248.558,195.849,251.699C191.904,256.655,194.317,276.770,193.770,283.927C193.446,292.490,192.927,301.378,191.520,309.519C190.617,315.768,188.745,321.254,188.180,327.199C187.221,333.774,186.657,340.929,184.965,346.893C180.151,363.419,166.000,395.916,185.249,408.677C189.770,411.698,196.556,411.811,202.277,412.318C212.181,413.007,222.807,414.015,232.851,413.173C245.200,412.480,257.174,408.438,269.690,408.195C276.143,408.071,295.894,415.801,300.904,411.176C303.383,408.990,304.648,394.421,304.364,390.696C302.712,377.417,296.718,364.814,295.660,351.474C295.044,339.512,295.652,327.756,297.423,315.559C298.665,305.572,301.182,296.028,302.005,285.667C302.015,281.258,303.048,275.921,301.027,271.355C297.632,263.010,289.337,257.917,282.324,252.974Z"/>
<path fill="none" stroke="#6a3661" stroke-width="1" stroke-linecap="butt" stroke-linejoin="round" d="M246.626,368.907C241.446,366.792,221.650,367.140,218.102,371.734"/>
<path fill="none" stroke="#6a3661" stroke-width="1" stroke-linecap="butt" stroke-linejoin="round" d="M218.102,371.734C215.851,374.838,219.084,376.655,222.408,376.954"/>
<path fill="none" stroke="#6a3661" stroke-width="1" stroke-linecap="butt" stroke-linejoin="round" d="M222.408,376.954C226.381,377.311,247.340,377.531,250.140,375.932"/>
<path fill="none" stroke="#6a3661" stroke-width="1" stroke-linecap="butt" stroke-linejoin="round" d="M250.140,375.932C254.584,373.323,248.780,369.679,246.626,368.907"/>
<path fill="none" stroke="#6a3661" stroke-width="1" stroke-linecap="butt" stroke-linejoin="round" d="M202.558,264.913C206.481,252.637,234.250,242.044,246.999,244.074"/>
<path fill="none" stroke="#6a3661" stroke-width="1" stroke-linecap="butt" stroke-linejoin="round" d="M246.999,244.074C255.979,245.476,283.282,261.860,286.597,270.560"/>
<path fill="none" stroke="#6a3661" stroke-width="1" stroke-linecap="butt" stroke-linejoin="round" d="M286.597,270.560C289.376,277.514,288.315,302.305,287.893,310.676"/>
<path fill="none" stroke="#6a3661" stroke-width="1" stroke-linecap="butt" stroke-linejoin="round" d="M287.893,310.676C286.843,325.942,286.254,341.284,285.803,356.579"/>
<path fill="none" stroke="#6a3661" stroke-width="1" stroke-linecap="butt" stroke-linejoin="round" d="M285.803,356.579C286.023,368.584,294.667,382.148,288.556,392.484"/>
<path fill="none" stroke="#6a3661" stroke-width="1" stroke-linecap="butt" stroke-linejoin="round" d="M288.556,392.484C286.074,395.647,276.352,395.565,271.986,396.277"/>
<path fill="none" stroke="#6a3661" stroke-width="1" stroke-linecap="butt" stroke-linejoin="round" d="M271.986,396.277C266.197,397.506,255.101,401.963,249.660,401.669"/>
<path fill="none" stroke="#6a3661" stroke-width="1" stroke-linecap="butt" stroke-linejoin="round" d="M249.660,401.669C226.827,401.059,228.973,402.841,207.591,401.520"/>
<path fill="none" stroke="#6a3661" stroke-width="1" stroke-linecap="butt" stroke-linejoin="round" d="M207.591,401.520C203.492,401.110,190.246,399.175,187.765,397.123"/>
<path fill="none" stroke="#6a3661" stroke-width="1" stroke-linecap="butt" stroke-linejoin="round" d="M187.765,397.123C182.182,391.302,185.929,382.811,187.954,375.313"/>
<path fill="none" stroke="#6a3661" stroke-width="1" stroke-linecap="butt" stroke-linejoin="round" d="M187.954,375.313C192.149,361.957,194.055,352.587,196.490,337.940"/>
<path fill="none" stroke="#6a3661" stroke-width="1" stroke-linecap="butt" stroke-linejoin="round" d="M196.490,337.940C199.014,322.112,202.424,305.217,203.789,288.707"/>
<path fill="none" stroke="#6a3661" stroke-width="1" stroke-linecap="butt" stroke-linejoin="round" d="M203.789,288.707C203.948,282.790,201.627,268.464,202.558,264.913"/>
<path fill="#6a3661" fill-rule="evenodd" stroke="none" d="M246.626,368.907C241.446,366.792,221.650,367.140,218.102,371.734C215.851,374.838,219.084,376.655,222.408,376.954C226.381,377.311,247.340,377.531,250.140,375.932C254.584,373.323,248.780,369.679,246.626,368.907M202.558,264.913C206.481,252.637,234.250,242.044,246.999,244.074C255.979,245.476,283.282,261.860,286.597,270.560C289.376,277.514,288.315,302.305,287.893,310.676C286.843,325.942,286.254,341.284,285.803,356.579C286.023,368.584,294.667,382.148,288.556,392.484C286.074,395.647,276.352,395.565,271.986,396.277C266.197,397.506,255.101,401.963,249.660,401.669C226.827,401.059,228.973,402.841,207.591,401.520C203.492,401.110,190.246,399.175,187.765,397.123C182.182,391.302,185.929,382.811,187.954,375.313C192.149,361.957,194.055,352.587,196.490,337.940C199.014,322.112,202.424,305.217,203.789,288.707C203.948,282.790,201.627,268.464,202.558,264.913Z"/>
<path fill="#000000" fill-rule="evenodd" stroke="none" d="M240.051,224.808C240.527,221.498,241.653,218.549,245.323,218.373C257.042,216.879,254.430,254.397,243.794,253.940C233.822,253.512,239.115,231.093,240.051,224.808M245.723,209.068C243.079,208.620,240.059,209.156,237.674,210.386C228.167,214.639,229.125,223.339,228.753,231.980C228.235,236.288,228.397,240.291,226.245,243.861C224.441,247.114,219.643,250.237,219.486,253.894C219.390,263.881,246.314,265.038,253.309,265.005C255.967,265.119,264.898,266.501,266.053,262.889C266.096,261.892,259.949,249.971,259.151,245.275C256.760,231.187,266.953,210.979,245.723,209.068Z"/>
<path fill="none" stroke="#f8a087" stroke-width="1" stroke-linecap="butt" stroke-linejoin="round" d="M245.323,218.373C257.042,216.879,254.430,254.397,243.794,253.940"/>
<path fill="none" stroke="#f8a087" stroke-width="1" stroke-linecap="butt" stroke-linejoin="round" d="M243.794,253.940C233.822,253.512,239.115,231.093,240.051,224.808"/>
<path fill="none" stroke="#f8a087" stroke-width="1" stroke-linecap="butt" stroke-linejoin="round" d="M240.051,224.808C240.527,221.498,241.653,218.549,245.323,218.373"/>
<path fill="#f8a087" fill-rule="evenodd" stroke="none" d="M245.323,218.373C257.042,216.879,254.430,254.397,243.794,253.940C233.822,253.512,239.115,231.093,240.051,224.808C240.527,221.498,241.653,218.549,245.323,218.373Z"/>
<g id="layer_head">
<path fill="#000000" fill-rule="evenodd" stroke="none" d="M170.220,181.405C166.090,181.004,157.680,154.011,162.353,155.596C168.095,157.543,169.524,168.550,170.589,173.045C171.162,175.069,173.872,181.760,170.220,181.405M165.728,141.598C164.216,140.268,162.413,138.685,160.491,139.285C151.085,140.641,153.048,155.105,154.772,164.500C156.931,175.586,162.850,189.935,171.652,195.656C172.977,196.527,175.228,199.225,176.898,199.088C182.927,198.216,178.693,187.955,177.665,183.286C176.183,175.782,170.336,147.303,165.728,141.598Z"/>
<path fill="none" stroke="#f8a087" stroke-width="1" stroke-linecap="butt" stroke-linejoin="round" d="M162.353,155.596C168.095,157.543,169.524,168.550,170.589,173.045"/>
<path fill="none" stroke="#f8a087" stroke-width="1" stroke-linecap="butt" stroke-linejoin="round" d="M170.589,173.045C171.162,175.069,173.872,181.760,170.220,181.405"/>
<path fill="none" stroke="#f8a087" stroke-width="1" stroke-linecap="butt" stroke-linejoin="round" d="M170.220,181.405C166.090,181.004,157.680,154.011,162.353,155.596"/>
<path fill="#f8a087" fill-rule="evenodd" stroke="none" d="M162.353,155.596C168.095,157.543,169.524,168.550,170.589,173.045C171.162,175.069,173.872,181.760,170.220,181.405C166.090,181.004,157.680,154.011,162.353,155.596Z"/>
<g id="face_Mask">
<path fill="#000000" fill-rule="evenodd" stroke="none" d="M173.918,98.466C183.626,89.142,217.030,86.046,230.812,85.745C246.246,85.648,261.476,89.885,275.760,96.350C280.839,98.657,288.526,101.268,292.357,105.785C298.304,112.850,299.492,124.401,299.511,133.275C299.660,138.622,299.366,145.493,297.703,150.267C286.914,181.240,278.390,195.869,270.578,203.845C257.198,217.506,235.871,220.980,216.921,221.606C198.401,221.954,190.196,217.978,174.068,208.737C171.233,207.118,164.996,203.675,163.279,201.065C157.079,191.242,162.556,179.673,161.559,168.593C160.522,160.037,155.656,147.657,155.061,139.233C154.446,128.019,165.937,106.063,173.918,98.466M297.289,98.662C285.441,84.720,249.635,77.603,231.809,78.056C223.431,78.014,215.425,77.684,207.585,78.718C201.763,79.670,196.479,81.693,190.987,82.688C178.897,85.546,174.299,83.525,165.203,93.244C158.695,100.029,146.500,128.418,146.152,137.655C145.999,145.255,152.441,162.984,152.337,171.833C152.170,181.393,145.572,194.347,148.878,202.959C151.970,210.678,159.484,214.793,169.775,220.255C177.679,224.451,186.548,228.338,195.610,230.014C200.293,230.880,205.670,232.875,215.922,231.980C236.259,229.948,257.631,225.416,273.754,210.721C288.490,197.291,308.451,179.183,313.990,148.898C317.544,129.464,303.631,105.962,297.289,98.662Z"/>
<path fill="none" stroke="#f8a087" stroke-width="1" stroke-linecap="butt" stroke-linejoin="round" d="M230.812,85.745C246.246,85.648,261.476,89.885,275.760,96.350"/>
<path fill="none" stroke="#f8a087" stroke-width="1" stroke-linecap="butt" stroke-linejoin="round" d="M275.760,96.350C280.839,98.657,288.526,101.268,292.357,105.785"/>
<path fill="none" stroke="#f8a087" stroke-width="1" stroke-linecap="butt" stroke-linejoin="round" d="M292.357,105.785C298.304,112.850,299.492,124.401,299.511,133.275"/>
<path fill="none" stroke="#f8a087" stroke-width="1" stroke-linecap="butt" stroke-linejoin="round" d="M299.511,133.275C299.660,138.622,299.366,145.493,297.703,150.267"/>
<path fill="none" stroke="#f8a087" stroke-width="1" stroke-linecap="butt" stroke-linejoin="round" d="M297.703,150.267C286.914,181.240,278.390,195.869,270.578,203.845"/>
<path fill="none" stroke="#f8a087" stroke-width="1" stroke-linecap="butt" stroke-linejoin="round" d="M270.578,203.845C257.198,217.506,235.871,220.980,216.921,221.606"/>
<path fill="none" stroke="#f8a087" stroke-width="1" stroke-linecap="butt" stroke-linejoin="round" d="M216.921,221.606C198.401,221.954,190.196,217.978,174.068,208.737"/>
<path fill="none" stroke="#f8a087" stroke-width="1" stroke-linecap="butt" stroke-linejoin="round" d="M174.068,208.737C171.233,207.118,164.996,203.675,163.279,201.065"/>
<path fill="none" stroke="#f8a087" stroke-width="1" stroke-linecap="butt" stroke-linejoin="round" d="M163.279,201.065C157.079,191.242,162.556,179.673,161.559,168.593"/>
<path fill="none" stroke="#f8a087" stroke-width="1" stroke-linecap="butt" stroke-linejoin="round" d="M161.559,168.593C160.522,160.037,155.656,147.657,155.061,139.233"/>
<path fill="none" stroke="#f8a087" stroke-width="1" stroke-linecap="butt" stroke-linejoin="round" d="M155.061,139.233C154.446,128.019,165.937,106.063,173.918,98.466"/>
<path fill="none" stroke="#f8a087" stroke-width="1" stroke-linecap="butt" stroke-linejoin="round" d="M173.918,98.466C183.626,89.142,217.030,86.046,230.812,85.745"/>
<path fill="#f8a087" fill-rule="evenodd" stroke="none" d="M230.812,85.745C246.246,85.648,261.476,89.885,275.760,96.350C280.839,98.657,288.526,101.268,292.357,105.785C298.304,112.850,299.492,124.401,299.511,133.275C299.660,138.622,299.366,145.493,297.703,150.267C286.914,181.240,278.390,195.869,270.578,203.845C257.198,217.506,235.871,220.980,216.921,221.606C198.401,221.954,190.196,217.978,174.068,208.737C171.233,207.118,164.996,203.675,163.279,201.065C157.079,191.242,162.556,179.673,161.559,168.593C160.522,160.037,155.656,147.657,155.061,139.233C154.446,128.019,165.937,106.063,173.918,98.466C183.626,89.142,217.030,86.046,230.812,85.745Z"/>
</g>
<mask id="mask_target" style="mask-type:alpha;">
<use xlink:href="#face_Mask"/>
</mask>
<path fill="#000000" fill-rule="evenodd" stroke="none" d="M197.285,209.812C202.313,211.548,201.811,216.276,201.279,216.721C200.978,216.972,199.981,215.889,197.104,215.042C191.654,213.437,188.824,214.267,188.716,213.534C188.598,212.730,191.398,207.780,197.285,209.812Z"/>
<g id="layer_eyes_Mtarget" mask="url(#mask_target)">
<mask style="mask-type:alpha;" id="f3906406-f197-4bf1-91d8-744c09cca836">
<use xlink:href="#cmn_f3906406-f197-4bf1-91d8-744c09cca836"/>
</mask>
<g id="cmn_f3906406-f197-4bf1-91d8-744c09cca836">
<path fill="#000000" fill-rule="evenodd" stroke="none" d="M148.980,167.982C149.011,175.692,152.289,184.336,151.633,183.530C149.900,181.400,149.591,177.524,149.573,173.948C149.462,171.473,152.598,163.578,149.826,162.323C149.175,162.028,148.977,167.295,148.980,167.982M159.974,173.022C160.200,171.359,160.637,168.832,159.709,167.434C159.029,166.409,157.313,165.698,156.075,165.533C153.249,165.093,148.246,154.748,145.589,151.993C144.677,151.048,140.737,144.942,139.491,145.313C129.050,148.426,138.156,159.476,140.676,174.456C141.772,180.967,152.382,191.636,152.953,191.462C155.910,190.558,159.178,178.887,159.974,173.022M188.585,188.654C181.255,187.437,172.491,179.873,174.756,168.519C175.313,165.726,187.291,163.074,192.811,161.127C199.601,158.731,212.576,153.753,215.828,154.318C219.203,155.330,217.078,158.112,215.956,167.674C214.846,177.144,201.082,190.729,188.585,188.654M222.512,174.855C226.929,162.960,228.772,146.585,226.528,145.228C221.433,142.147,206.395,150.340,197.920,153.050C190.027,155.573,177.388,161.898,171.985,162.557C169.477,162.955,167.269,162.980,166.474,164.548C165.255,166.951,168.623,170.463,169.732,172.919C171.802,177.502,172.701,184.211,177.529,187.758C186.569,194.840,193.918,193.003,205.668,190.784C210.611,189.850,219.645,182.578,222.512,174.855Z"/>
<path fill="none" stroke="#ffffff" stroke-width="1" stroke-linecap="butt" stroke-linejoin="round" d="M215.828,154.318C219.203,155.330,217.078,158.112,215.956,167.674"/>
<path fill="none" stroke="#ffffff" stroke-width="1" stroke-linecap="butt" stroke-linejoin="round" d="M215.956,167.674C214.846,177.144,201.082,190.729,188.585,188.654"/>
<path fill="none" stroke="#ffffff" stroke-width="1" stroke-linecap="butt" stroke-linejoin="round" d="M188.585,188.654C181.255,187.437,172.491,179.873,174.756,168.519"/>
<path fill="none" stroke="#ffffff" stroke-width="1" stroke-linecap="butt" stroke-linejoin="round" d="M174.756,168.519C175.313,165.726,187.291,163.074,192.811,161.127"/>
<path fill="none" stroke="#ffffff" stroke-width="1" stroke-linecap="butt" stroke-linejoin="round" d="M192.811,161.127C199.601,158.731,212.576,153.753,215.828,154.318"/>
<path fill="#ffffff" fill-rule="evenodd" stroke="none" d="M215.828,154.318C219.203,155.330,217.078,158.112,215.956,167.674C214.846,177.144,201.082,190.729,188.585,188.654C181.255,187.437,172.491,179.873,174.756,168.519C175.313,165.726,187.291,163.074,192.811,161.127C199.601,158.731,212.576,153.753,215.828,154.318Z"/>
<path fill="none" stroke="#ffffff" stroke-width="1" stroke-linecap="butt" stroke-linejoin="round" d="M149.826,162.323C149.175,162.028,148.977,167.295,148.980,167.982"/>
<path fill="none" stroke="#ffffff" stroke-width="1" stroke-linecap="butt" stroke-linejoin="round" d="M148.980,167.982C149.011,175.692,152.289,184.336,151.633,183.530"/>
<path fill="none" stroke="#ffffff" stroke-width="1" stroke-linecap="butt" stroke-linejoin="round" d="M151.633,183.530C149.900,181.400,149.591,177.524,149.573,173.948"/>
<path fill="none" stroke="#ffffff" stroke-width="1" stroke-linecap="butt" stroke-linejoin="round" d="M149.573,173.948C149.462,171.473,152.598,163.578,149.826,162.323"/>
<path fill="#ffffff" fill-rule="evenodd" stroke="none" d="M149.826,162.323C149.175,162.028,148.977,167.295,148.980,167.982C149.011,175.692,152.289,184.336,151.633,183.530C149.900,181.400,149.591,177.524,149.573,173.948C149.462,171.473,152.598,163.578,149.826,162.323Z"/>
</g>
<path fill="#000000" fill-rule="evenodd" stroke="none" d="M179.698,162.880C182.023,162.592,184.834,166.098,184.654,174.546C184.518,180.923,182.521,183.300,180.752,183.282C178.840,183.263,177.526,180.491,177.087,173.607C176.619,166.262,177.673,163.130,179.698,162.880Z" mask="url(#f3906406-f197-4bf1-91d8-744c09cca836)"/>
<path fill="#000000" fill-rule="evenodd" stroke="none" d="M150.487,162.691C152.943,162.544,156.099,166.540,155.086,175.652C154.497,180.952,152.584,182.611,151.152,182.616C149.550,182.622,147.684,180.607,147.015,174.676C146.082,166.410,148.258,162.824,150.487,162.691Z" mask="url(#f3906406-f197-4bf1-91d8-744c09cca836)"/>
</g>
<path fill="#000000" fill-rule="evenodd" stroke="none" d="M306.120,143.560C308.243,144.679,310.466,147.769,310.695,150.443C311.875,157.382,300.452,157.457,296.808,157.490C291.166,156.975,285.435,155.254,280.185,153.934C272.951,152.797,265.977,150.363,258.788,148.968C236.249,142.744,213.482,137.510,190.810,131.811C180.489,129.643,171.382,126.576,160.072,124.399C158.959,124.185,149.149,123.725,147.254,122.921C132.665,116.881,147.030,104.761,146.739,97.798C146.803,95.963,143.479,95.153,144.427,91.967C145.030,90.051,150.501,86.480,152.467,85.883C161.665,83.039,172.088,83.310,182.111,84.417C192.715,85.587,201.860,88.648,212.155,91.393C237.655,98.194,279.993,111.382,312.186,128.513C321.243,133.333,301.711,129.002,299.855,128.925C282.635,128.214,212.483,102.644,251.037,119.321C265.846,125.726,293.097,136.147,306.120,143.560M202.682,75.535C190.691,72.799,179.653,70.399,168.006,71.221C163.848,71.504,158.443,71.718,155.195,72.411C148.521,73.836,162.857,55.851,166.625,52.710C184.801,37.933,214.002,29.676,238.174,34.359C286.053,43.635,302.369,59.367,312.713,79.886C316.137,86.090,324.288,113.457,313.550,118.174C310.147,119.411,304.830,115.922,302.370,114.107C293.475,107.835,220.825,79.676,202.682,75.535M309.320,50.740C293.559,38.832,270.941,27.486,243.132,24.647C213.159,21.586,179.562,26.800,157.185,50.145C150.341,57.449,146.685,65.985,141.925,73.991C139.070,78.744,134.294,81.371,133.088,86.718C131.593,94.300,136.004,96.923,135.844,103.284C135.860,110.586,131.046,112.071,130.683,116.754C128.532,129.028,139.764,133.829,149.754,136.387C154.023,137.481,170.258,138.951,179.016,140.256C188.867,141.723,201.984,143.817,211.765,145.695C223.233,147.897,238.350,151.676,249.789,154.025C260.468,156.217,274.667,159.471,285.479,160.869C293.596,161.919,311.536,163.537,312.694,162.809C314.363,161.780,321.242,149.775,322.058,147.355C323.485,143.123,321.947,138.040,324.594,131.323C328.193,121.539,332.117,113.372,332.332,102.115C332.547,81.424,321.460,59.911,309.320,50.740Z"/>
<path fill="none" stroke="#d89f4a" stroke-width="1" stroke-linecap="butt" stroke-linejoin="round" d="M212.155,91.393C237.655,98.194,279.993,111.382,312.186,128.513"/>
<path fill="none" stroke="#d89f4a" stroke-width="1" stroke-linecap="butt" stroke-linejoin="round" d="M312.186,128.513C321.243,133.333,301.711,129.002,299.855,128.925"/>
<path fill="none" stroke="#d89f4a" stroke-width="1" stroke-linecap="butt" stroke-linejoin="round" d="M299.855,128.925C282.635,128.214,212.483,102.644,251.037,119.321"/>
<path fill="none" stroke="#d89f4a" stroke-width="1" stroke-linecap="butt" stroke-linejoin="round" d="M251.037,119.321C265.846,125.726,293.097,136.147,306.120,143.560"/>
<path fill="none" stroke="#d89f4a" stroke-width="1" stroke-linecap="butt" stroke-linejoin="round" d="M306.120,143.560C308.243,144.679,310.466,147.769,310.695,150.443"/>
<path fill="none" stroke="#d89f4a" stroke-width="1" stroke-linecap="butt" stroke-linejoin="round" d="M310.695,150.443C311.875,157.382,300.452,157.457,296.808,157.490"/>
<path fill="none" stroke="#d89f4a" stroke-width="1" stroke-linecap="butt" stroke-linejoin="round" d="M296.808,157.490C291.166,156.975,285.435,155.254,280.185,153.934"/>
<path fill="none" stroke="#d89f4a" stroke-width="1" stroke-linecap="butt" stroke-linejoin="round" d="M280.185,153.934C272.951,152.797,265.977,150.363,258.788,148.968"/>
<path fill="none" stroke="#d89f4a" stroke-width="1" stroke-linecap="butt" stroke-linejoin="round" d="M258.788,148.968C236.249,142.744,213.482,137.510,190.810,131.811"/>
<path fill="none" stroke="#d89f4a" stroke-width="1" stroke-linecap="butt" stroke-linejoin="round" d="M190.810,131.811C180.489,129.643,171.382,126.576,160.072,124.399"/>
<path fill="none" stroke="#d89f4a" stroke-width="1" stroke-linecap="butt" stroke-linejoin="round" d="M160.072,124.399C158.959,124.185,149.149,123.725,147.254,122.921"/>
<path fill="none" stroke="#d89f4a" stroke-width="1" stroke-linecap="butt" stroke-linejoin="round" d="M147.254,122.921C132.665,116.881,147.030,104.761,146.739,97.798"/>
<path fill="none" stroke="#d89f4a" stroke-width="1" stroke-linecap="butt" stroke-linejoin="round" d="M146.739,97.798C146.803,95.963,143.479,95.153,144.427,91.967"/>
<path fill="none" stroke="#d89f4a" stroke-width="1" stroke-linecap="butt" stroke-linejoin="round" d="M144.427,91.967C145.030,90.051,150.501,86.480,152.467,85.883"/>
<path fill="none" stroke="#d89f4a" stroke-width="1" stroke-linecap="butt" stroke-linejoin="round" d="M152.467,85.883C161.665,83.039,172.088,83.310,182.111,84.417"/>
<path fill="none" stroke="#d89f4a" stroke-width="1" stroke-linecap="butt" stroke-linejoin="round" d="M182.111,84.417C192.715,85.587,201.860,88.648,212.155,91.393"/>
<path fill="#d89f4a" fill-rule="evenodd" stroke="none" d="M212.155,91.393C237.655,98.194,279.993,111.382,312.186,128.513C321.243,133.333,301.711,129.002,299.855,128.925C282.635,128.214,212.483,102.644,251.037,119.321C265.846,125.726,293.097,136.147,306.120,143.560C308.243,144.679,310.466,147.769,310.695,150.443C311.875,157.382,300.452,157.457,296.808,157.490C291.166,156.975,285.435,155.254,280.185,153.934C272.951,152.797,265.977,150.363,258.788,148.968C236.249,142.744,213.482,137.510,190.810,131.811C180.489,129.643,171.382,126.576,160.072,124.399C158.959,124.185,149.149,123.725,147.254,122.921C132.665,116.881,147.030,104.761,146.739,97.798C146.803,95.963,143.479,95.153,144.427,91.967C145.030,90.051,150.501,86.480,152.467,85.883C161.665,83.039,172.088,83.310,182.111,84.417C192.715,85.587,201.860,88.648,212.155,91.393Z"/>
<path fill="none" stroke="#cc9bc5" stroke-width="1" stroke-linecap="butt" stroke-linejoin="round" d="M238.174,34.359C286.053,43.635,302.369,59.367,312.713,79.886"/>
<path fill="none" stroke="#cc9bc5" stroke-width="1" stroke-linecap="butt" stroke-linejoin="round" d="M312.713,79.886C316.137,86.090,324.288,113.457,313.550,118.174"/>
<path fill="none" stroke="#cc9bc5" stroke-width="1" stroke-linecap="butt" stroke-linejoin="round" d="M313.550,118.174C310.147,119.411,304.830,115.922,302.370,114.107"/>
<path fill="none" stroke="#cc9bc5" stroke-width="1" stroke-linecap="butt" stroke-linejoin="round" d="M302.370,114.107C293.475,107.835,220.825,79.676,202.682,75.535"/>
<path fill="none" stroke="#cc9bc5" stroke-width="1" stroke-linecap="butt" stroke-linejoin="round" d="M202.682,75.535C190.691,72.799,179.653,70.399,168.006,71.221"/>
<path fill="none" stroke="#cc9bc5" stroke-width="1" stroke-linecap="butt" stroke-linejoin="round" d="M168.006,71.221C163.848,71.504,158.443,71.718,155.195,72.411"/>
<path fill="none" stroke="#cc9bc5" stroke-width="1" stroke-linecap="butt" stroke-linejoin="round" d="M155.195,72.411C148.521,73.836,162.857,55.851,166.625,52.710"/>
<path fill="none" stroke="#cc9bc5" stroke-width="1" stroke-linecap="butt" stroke-linejoin="round" d="M166.625,52.710C184.801,37.933,214.002,29.676,238.174,34.359"/>
<path fill="#cc9bc5" fill-rule="evenodd" stroke="none" d="M238.174,34.359C286.053,43.635,302.369,59.367,312.713,79.886C316.137,86.090,324.288,113.457,313.550,118.174C310.147,119.411,304.830,115.922,302.370,114.107C293.475,107.835,220.825,79.676,202.682,75.535C190.691,72.799,179.653,70.399,168.006,71.221C163.848,71.504,158.443,71.718,155.195,72.411C148.521,73.836,162.857,55.851,166.625,52.710C184.801,37.933,214.002,29.676,238.174,34.359Z"/>
<path fill="#000000" fill-rule="evenodd" stroke="none" d="M255.702,181.217C256.343,179.874,259.610,176.135,260.844,175.018C271.114,164.957,287.728,157.049,294.362,166.117C301.730,176.637,284.407,199.135,271.945,202.246C257.419,205.638,250.518,193.063,255.702,181.217M308.844,171.775C308.023,160.416,302.639,151.917,284.720,152.904C267.720,153.841,261.220,176.111,258.567,189.913C258.099,192.751,258.281,195.843,258.733,198.542C260.336,209.177,267.261,215.883,278.066,210.294C290.947,203.463,309.491,187.254,308.844,171.775Z"/>
<path fill="none" stroke="#f8a087" stroke-width="1" stroke-linecap="butt" stroke-linejoin="round" d="M260.844,175.018C271.114,164.957,287.728,157.049,294.362,166.117"/>
<path fill="none" stroke="#f8a087" stroke-width="1" stroke-linecap="butt" stroke-linejoin="round" d="M294.362,166.117C301.730,176.637,284.407,199.135,271.945,202.246"/>
<path fill="none" stroke="#f8a087" stroke-width="1" stroke-linecap="butt" stroke-linejoin="round" d="M271.945,202.246C257.419,205.638,250.518,193.063,255.702,181.217"/>
<path fill="none" stroke="#f8a087" stroke-width="1" stroke-linecap="butt" stroke-linejoin="round" d="M255.702,181.217C256.343,179.874,259.610,176.135,260.844,175.018"/>
<path fill="#f8a087" fill-rule="evenodd" stroke="none" d="M260.844,175.018C271.114,164.957,287.728,157.049,294.362,166.117C301.730,176.637,284.407,199.135,271.945,202.246C257.419,205.638,250.518,193.063,255.702,181.217C256.343,179.874,259.610,176.135,260.844,175.018Z"/>
<path fill="#000000" fill-rule="evenodd" stroke="none" d="M282.260,214.242C272.844,217.805,273.947,200.083,277.094,200.679C281.406,202.613,291.333,216.996,282.260,214.242M293.088,208.190C286.465,207.952,284.333,198.665,284.190,194.835C291.469,197.222,300.275,203.695,293.088,208.190M304.075,206.101C302.495,197.734,290.822,191.694,283.394,187.442C280.560,185.820,271.003,195.342,270.282,198.700C268.797,202.625,269.121,224.707,283.155,223.403C289.010,222.598,305.344,212.825,304.075,206.101Z"/>
<path fill="none" stroke="#fafd5b" stroke-width="1" stroke-linecap="butt" stroke-linejoin="round" d="M284.190,194.835C291.469,197.222,300.275,203.695,293.088,208.190"/>
<path fill="none" stroke="#fafd5b" stroke-width="1" stroke-linecap="butt" stroke-linejoin="round" d="M293.088,208.190C286.465,207.952,284.333,198.665,284.190,194.835"/>
<path fill="#fafd5b" fill-rule="evenodd" stroke="none" d="M284.190,194.835C291.469,197.222,300.275,203.695,293.088,208.190C286.465,207.952,284.333,198.665,284.190,194.835Z"/>
<path fill="none" stroke="#fafd5b" stroke-width="1" stroke-linecap="butt" stroke-linejoin="round" d="M277.094,200.679C281.406,202.613,291.333,216.996,282.260,214.242"/>
<path fill="none" stroke="#fafd5b" stroke-width="1" stroke-linecap="butt" stroke-linejoin="round" d="M282.260,214.242C272.844,217.805,273.947,200.083,277.094,200.679"/>
<path fill="#fafd5b" fill-rule="evenodd" stroke="none" d="M277.094,200.679C281.406,202.613,291.333,216.996,282.260,214.242C272.844,217.805,273.947,200.083,277.094,200.679Z"/>
</g>
<path fill="#000000" fill-rule="evenodd" stroke="none" d="M213.653,270.393C215.504,275.135,209.937,284.592,208.951,289.154C202.939,306.708,194.249,323.538,194.584,341.658C194.860,347.335,198.683,359.564,193.498,363.663C191.745,365.048,186.950,362.309,186.050,363.688C184.266,366.412,180.566,356.733,179.914,355.268C179.242,353.755,177.469,345.238,177.401,342.816C177.561,338.121,178.656,329.018,179.653,323.178C180.692,317.356,180.746,311.053,183.315,305.060C185.569,298.377,189.935,291.054,192.330,283.561C194.882,278.968,198.577,276.515,198.248,272.815C197.574,269.131,195.953,267.139,199.243,265.703C203.417,264.225,213.023,265.334,213.653,270.393M275.913,277.749C277.463,276.527,291.490,270.828,293.240,270.196C306.043,266.253,308.205,281.546,307.692,289.415C307.513,292.861,306.479,304.916,306.823,307.369C307.245,312.575,310.223,315.911,310.641,320.371C311.125,331.172,312.520,324.591,310.448,333.722C309.918,336.041,308.077,340.726,306.936,342.759C305.618,344.813,301.408,348.330,300.238,350.296C297.139,354.596,295.996,360.529,288.326,361.846C286.947,362.261,274.242,369.114,272.008,370.168C268.013,371.795,262.987,374.742,259.259,371.987C254.799,368.303,255.486,360.306,254.727,354.152C252.814,340.510,255.013,326.643,258.566,313.276C260.905,302.695,267.746,285.712,275.913,277.749M289.391,261.392C286.506,263.093,280.269,263.340,278.456,263.632C274.459,264.056,274.021,260.599,273.808,257.785C273.629,253.285,276.741,246.829,280.095,243.603C282.719,241.079,287.289,238.846,291.285,238.900C295.250,238.813,301.737,242.223,301.045,246.684C300.771,249.697,294.240,258.532,289.391,261.392M215.840,242.848C220.324,251.768,225.344,260.901,220.106,260.029C214.104,259.030,211.181,258.579,201.788,254.718C191.305,250.409,188.483,235.384,194.386,230.687C200.176,226.081,210.579,232.380,215.840,242.848M317.496,349.364C319.545,344.399,321.990,341.205,322.135,335.600C322.213,330.799,321.210,325.142,319.063,320.875C314.697,312.732,312.672,309.613,307.042,300.802C304.973,297.685,302.216,295.593,301.748,292.033C301.150,288.618,302.767,270.824,303.884,267.864C304.965,262.763,310.437,259.539,311.759,254.925C312.976,251.140,314.256,247.098,313.859,243.142C313.632,237.874,309.146,234.165,305.496,231.104C300.323,227.262,295.267,226.755,288.691,227.213C279.168,227.887,273.522,236.365,269.467,242.522C263.670,251.325,264.240,266.589,261.031,276.629C259.194,282.378,255.862,290.109,253.768,295.391C245.251,315.931,229.814,372.879,248.359,385.412C249.835,386.556,261.426,388.326,264.863,387.509C273.318,385.545,276.730,382.777,284.824,380.386C291.468,378.701,300.820,368.925,306.944,362.639C310.436,359.283,316.142,352.641,317.496,349.364M222.424,233.465C217.165,226.886,208.061,215.310,199.615,217.094C195.343,218.141,189.292,221.123,186.128,224.481C183.154,227.638,179.944,233.136,179.899,237.528C179.722,242.939,179.785,249.363,181.589,253.987C183.719,259.443,192.577,263.800,193.424,269.513C193.732,272.068,187.231,283.211,186.204,286.230C184.218,292.653,180.243,298.545,178.169,304.022C176.124,309.421,174.061,316.854,172.483,322.408C170.339,329.956,166.509,339.199,165.957,347.737C165.443,352.055,166.767,362.007,169.503,367.311C171.180,370.564,175.568,375.254,177.776,376.278C179.107,376.895,192.963,381.372,197.860,377.832C206.746,371.409,204.181,357.471,202.685,341.606C201.262,327.070,212.665,315.860,217.418,301.872C219.696,295.080,227.766,275.031,228.579,267.670C229.207,261.991,231.256,258.208,229.983,250.264C229.163,245.969,225.875,237.782,222.424,233.465Z"/>
<path fill="none" stroke="#a60d3f" stroke-width="1" stroke-linecap="butt" stroke-linejoin="round" d="M293.240,270.196C306.043,266.253,308.205,281.546,307.692,289.415"/>
<path fill="none" stroke="#a60d3f" stroke-width="1" stroke-linecap="butt" stroke-linejoin="round" d="M307.692,289.415C307.513,292.861,306.479,304.916,306.823,307.369"/>
<path fill="none" stroke="#a60d3f" stroke-width="1" stroke-linecap="butt" stroke-linejoin="round" d="M306.823,307.369C307.245,312.575,310.223,315.911,310.641,320.371"/>
<path fill="none" stroke="#a60d3f" stroke-width="1" stroke-linecap="butt" stroke-linejoin="round" d="M310.641,320.371C311.125,331.172,312.520,324.591,310.448,333.722"/>
<path fill="none" stroke="#a60d3f" stroke-width="1" stroke-linecap="butt" stroke-linejoin="round" d="M310.448,333.722C309.918,336.041,308.077,340.726,306.936,342.759"/>
<path fill="none" stroke="#a60d3f" stroke-width="1" stroke-linecap="butt" stroke-linejoin="round" d="M306.936,342.759C305.618,344.813,301.408,348.330,300.238,350.296"/>
<path fill="none" stroke="#a60d3f" stroke-width="1" stroke-linecap="butt" stroke-linejoin="round" d="M300.238,350.296C297.139,354.596,295.996,360.529,288.326,361.846"/>
<path fill="none" stroke="#a60d3f" stroke-width="1" stroke-linecap="butt" stroke-linejoin="round" d="M288.326,361.846C286.947,362.261,274.242,369.114,272.008,370.168"/>
<path fill="none" stroke="#a60d3f" stroke-width="1" stroke-linecap="butt" stroke-linejoin="round" d="M272.008,370.168C268.013,371.795,262.987,374.742,259.259,371.987"/>
<path fill="none" stroke="#a60d3f" stroke-width="1" stroke-linecap="butt" stroke-linejoin="round" d="M259.259,371.987C254.799,368.303,255.486,360.306,254.727,354.152"/>
<path fill="none" stroke="#a60d3f" stroke-width="1" stroke-linecap="butt" stroke-linejoin="round" d="M254.727,354.152C252.814,340.510,255.013,326.643,258.566,313.276"/>
<path fill="none" stroke="#a60d3f" stroke-width="1" stroke-linecap="butt" stroke-linejoin="round" d="M258.566,313.276C260.905,302.695,267.746,285.712,275.913,277.749"/>
<path fill="none" stroke="#a60d3f" stroke-width="1" stroke-linecap="butt" stroke-linejoin="round" d="M275.913,277.749C277.463,276.527,291.490,270.828,293.240,270.196"/>
<path fill="#a60d3f" fill-rule="evenodd" stroke="none" d="M293.240,270.196C306.043,266.253,308.205,281.546,307.692,289.415C307.513,292.861,306.479,304.916,306.823,307.369C307.245,312.575,310.223,315.911,310.641,320.371C311.125,331.172,312.520,324.591,310.448,333.722C309.918,336.041,308.077,340.726,306.936,342.759C305.618,344.813,301.408,348.330,300.238,350.296C297.139,354.596,295.996,360.529,288.326,361.846C286.947,362.261,274.242,369.114,272.008,370.168C268.013,371.795,262.987,374.742,259.259,371.987C254.799,368.303,255.486,360.306,254.727,354.152C252.814,340.510,255.013,326.643,258.566,313.276C260.905,302.695,267.746,285.712,275.913,277.749C277.463,276.527,291.490,270.828,293.240,270.196Z"/>
<path fill="none" stroke="#a60d3f" stroke-width="1" stroke-linecap="butt" stroke-linejoin="round" d="M199.243,265.703C203.417,264.225,213.023,265.334,213.653,270.393"/>
<path fill="none" stroke="#a60d3f" stroke-width="1" stroke-linecap="butt" stroke-linejoin="round" d="M213.653,270.393C215.504,275.135,209.937,284.592,208.951,289.154"/>
<path fill="none" stroke="#a60d3f" stroke-width="1" stroke-linecap="butt" stroke-linejoin="round" d="M208.951,289.154C202.939,306.708,194.249,323.538,194.584,341.658"/>
<path fill="none" stroke="#a60d3f" stroke-width="1" stroke-linecap="butt" stroke-linejoin="round" d="M194.584,341.658C194.860,347.335,198.683,359.564,193.498,363.663"/>
<path fill="none" stroke="#a60d3f" stroke-width="1" stroke-linecap="butt" stroke-linejoin="round" d="M193.498,363.663C191.745,365.048,186.950,362.309,186.050,363.688"/>
<path fill="none" stroke="#a60d3f" stroke-width="1" stroke-linecap="butt" stroke-linejoin="round" d="M186.050,363.688C184.266,366.412,180.566,356.733,179.914,355.268"/>
<path fill="none" stroke="#a60d3f" stroke-width="1" stroke-linecap="butt" stroke-linejoin="round" d="M179.914,355.268C179.242,353.755,177.469,345.238,177.401,342.816"/>
<path fill="none" stroke="#a60d3f" stroke-width="1" stroke-linecap="butt" stroke-linejoin="round" d="M177.401,342.816C177.561,338.121,178.656,329.018,179.653,323.178"/>
<path fill="none" stroke="#a60d3f" stroke-width="1" stroke-linecap="butt" stroke-linejoin="round" d="M179.653,323.178C180.692,317.356,180.746,311.053,183.315,305.060"/>
<path fill="none" stroke="#a60d3f" stroke-width="1" stroke-linecap="butt" stroke-linejoin="round" d="M183.315,305.060C185.569,298.377,189.935,291.054,192.330,283.561"/>
<path fill="none" stroke="#a60d3f" stroke-width="1" stroke-linecap="butt" stroke-linejoin="round" d="M192.330,283.561C194.882,278.968,198.577,276.515,198.248,272.815"/>
<path fill="none" stroke="#a60d3f" stroke-width="1" stroke-linecap="butt" stroke-linejoin="round" d="M198.248,272.815C197.574,269.131,195.953,267.139,199.243,265.703"/>
<path fill="#a60d3f" fill-rule="evenodd" stroke="none" d="M199.243,265.703C203.417,264.225,213.023,265.334,213.653,270.393C215.504,275.135,209.937,284.592,208.951,289.154C202.939,306.708,194.249,323.538,194.584,341.658C194.860,347.335,198.683,359.564,193.498,363.663C191.745,365.048,186.950,362.309,186.050,363.688C184.266,366.412,180.566,356.733,179.914,355.268C179.242,353.755,177.469,345.238,177.401,342.816C177.561,338.121,178.656,329.018,179.653,323.178C180.692,317.356,180.746,311.053,183.315,305.060C185.569,298.377,189.935,291.054,192.330,283.561C194.882,278.968,198.577,276.515,198.248,272.815C197.574,269.131,195.953,267.139,199.243,265.703Z"/>
<path fill="none" stroke="#a60d3f" stroke-width="1" stroke-linecap="butt" stroke-linejoin="round" d="M291.285,238.900C295.250,238.813,301.737,242.223,301.045,246.684"/>
<path fill="none" stroke="#a60d3f" stroke-width="1" stroke-linecap="butt" stroke-linejoin="round" d="M301.045,246.684C300.771,249.697,294.240,258.532,289.391,261.392"/>
<path fill="none" stroke="#a60d3f" stroke-width="1" stroke-linecap="butt" stroke-linejoin="round" d="M289.391,261.392C286.506,263.093,280.269,263.340,278.456,263.632"/>
<path fill="none" stroke="#a60d3f" stroke-width="1" stroke-linecap="butt" stroke-linejoin="round" d="M278.456,263.632C274.459,264.056,274.021,260.599,273.808,257.785"/>
<path fill="none" stroke="#a60d3f" stroke-width="1" stroke-linecap="butt" stroke-linejoin="round" d="M273.808,257.785C273.629,253.285,276.741,246.829,280.095,243.603"/>
<path fill="none" stroke="#a60d3f" stroke-width="1" stroke-linecap="butt" stroke-linejoin="round" d="M280.095,243.603C282.719,241.079,287.289,238.846,291.285,238.900"/>
<path fill="#a60d3f" fill-rule="evenodd" stroke="none" d="M291.285,238.900C295.250,238.813,301.737,242.223,301.045,246.684C300.771,249.697,294.240,258.532,289.391,261.392C286.506,263.093,280.269,263.340,278.456,263.632C274.459,264.056,274.021,260.599,273.808,257.785C273.629,253.285,276.741,246.829,280.095,243.603C282.719,241.079,287.289,238.846,291.285,238.900Z"/>
<path fill="none" stroke="#a60d3f" stroke-width="1" stroke-linecap="butt" stroke-linejoin="round" d="M215.840,242.848C220.324,251.768,225.344,260.901,220.106,260.029"/>
<path fill="none" stroke="#a60d3f" stroke-width="1" stroke-linecap="butt" stroke-linejoin="round" d="M220.106,260.029C214.104,259.030,211.181,258.579,201.788,254.718"/>
<path fill="none" stroke="#a60d3f" stroke-width="1" stroke-linecap="butt" stroke-linejoin="round" d="M201.788,254.718C191.305,250.409,188.483,235.384,194.386,230.687"/>
<path fill="none" stroke="#a60d3f" stroke-width="1" stroke-linecap="butt" stroke-linejoin="round" d="M194.386,230.687C200.176,226.081,210.579,232.380,215.840,242.848"/>
<path fill="#a60d3f" fill-rule="evenodd" stroke="none" d="M215.840,242.848C220.324,251.768,225.344,260.901,220.106,260.029C214.104,259.030,211.181,258.579,201.788,254.718C191.305,250.409,188.483,235.384,194.386,230.687C200.176,226.081,210.579,232.380,215.840,242.848Z"/>
<path fill="#000000" fill-rule="evenodd" stroke="none" d="M310.068,463.726C306.635,458.469,305.129,449.515,312.733,447.036C318.023,445.267,342.077,450.116,346.148,454.029C353.258,460.211,349.556,474.925,340.972,478.423C331.058,481.945,315.555,471.938,310.068,463.726M290.568,282.524C291.177,279.265,298.774,268.434,303.883,269.132C306.849,269.538,308.663,274.409,309.879,276.979C313.222,285.046,316.664,293.420,319.633,301.872C327.708,324.188,333.857,346.657,339.482,369.306C341.519,378.548,341.571,390.894,345.063,399.144C349.245,408.711,355.498,405.261,358.617,411.521C360.007,414.488,359.454,420.157,361.542,424.774C364.680,432.033,370.413,435.913,373.165,440.517C374.883,443.144,375.607,446.125,371.961,446.864C369.985,447.901,364.643,447.009,362.647,447.048C355.956,445.409,349.268,443.766,342.584,442.119C333.564,440.301,306.261,439.509,301.486,433.614C294.317,424.440,305.074,413.246,306.224,403.906C306.826,400.920,309.359,357.179,308.581,354.290C307.549,347.570,303.378,341.967,301.268,335.139C298.858,325.781,296.363,315.777,294.194,305.996C292.555,297.866,288.513,291.369,290.568,282.524M314.685,258.551C311.978,254.101,303.992,246.421,298.135,248.244C293.272,249.986,293.107,256.009,292.775,260.043C291.947,270.127,290.649,278.582,291.451,288.197C291.699,295.187,292.897,301.429,294.103,308.006C295.497,317.048,295.134,334.729,296.111,345.117C296.710,354.703,299.428,364.537,299.033,372.836C297.687,392.358,289.420,410.959,290.468,430.410C290.664,440.263,293.317,440.202,295.782,448.036C297.569,453.989,296.359,460.338,298.797,465.946C305.081,480.796,322.647,494.091,339.546,490.431C355.120,487.128,355.451,470.151,363.588,461.005C370.748,452.877,385.463,456.580,387.294,448.224C389.152,441.199,379.355,433.740,375.591,428.490C368.076,418.655,373.684,416.215,369.874,408.637C367.102,403.035,359.351,398.197,355.548,390.951C353.487,387.663,352.377,381.360,350.948,377.066C347.991,366.900,344.898,355.338,342.609,344.535C340.251,332.160,338.646,321.164,334.221,308.668C330.686,298.280,320.019,266.451,314.685,258.551Z"/>
<path fill="none" stroke="#a60d3f" stroke-width="1" stroke-linecap="butt" stroke-linejoin="round" d="M303.883,269.132C306.849,269.538,308.663,274.409,309.879,276.979"/>
<path fill="none" stroke="#a60d3f" stroke-width="1" stroke-linecap="butt" stroke-linejoin="round" d="M309.879,276.979C313.222,285.046,316.664,293.420,319.633,301.872"/>
<path fill="none" stroke="#a60d3f" stroke-width="1" stroke-linecap="butt" stroke-linejoin="round" d="M319.633,301.872C327.708,324.188,333.857,346.657,339.482,369.306"/>
<path fill="none" stroke="#a60d3f" stroke-width="1" stroke-linecap="butt" stroke-linejoin="round" d="M339.482,369.306C341.519,378.548,341.571,390.894,345.063,399.144"/>
<path fill="none" stroke="#a60d3f" stroke-width="1" stroke-linecap="butt" stroke-linejoin="round" d="M345.063,399.144C349.245,408.711,355.498,405.261,358.617,411.521"/>
<path fill="none" stroke="#a60d3f" stroke-width="1" stroke-linecap="butt" stroke-linejoin="round" d="M358.617,411.521C360.007,414.488,359.454,420.157,361.542,424.774"/>
<path fill="none" stroke="#a60d3f" stroke-width="1" stroke-linecap="butt" stroke-linejoin="round" d="M361.542,424.774C364.680,432.033,370.413,435.913,373.165,440.517"/>
<path fill="none" stroke="#a60d3f" stroke-width="1" stroke-linecap="butt" stroke-linejoin="round" d="M373.165,440.517C374.883,443.144,375.607,446.125,371.961,446.864"/>
<path fill="none" stroke="#a60d3f" stroke-width="1" stroke-linecap="butt" stroke-linejoin="round" d="M371.961,446.864C369.985,447.901,364.643,447.009,362.647,447.048"/>
<path fill="none" stroke="#a60d3f" stroke-width="1" stroke-linecap="butt" stroke-linejoin="round" d="M362.647,447.048C355.956,445.409,349.268,443.766,342.584,442.119"/>
<path fill="none" stroke="#a60d3f" stroke-width="1" stroke-linecap="butt" stroke-linejoin="round" d="M342.584,442.119C333.564,440.301,306.261,439.509,301.486,433.614"/>
<path fill="none" stroke="#a60d3f" stroke-width="1" stroke-linecap="butt" stroke-linejoin="round" d="M301.486,433.614C294.317,424.440,305.074,413.246,306.224,403.906"/>
<path fill="none" stroke="#a60d3f" stroke-width="1" stroke-linecap="butt" stroke-linejoin="round" d="M306.224,403.906C306.826,400.920,309.359,357.179,308.581,354.290"/>
<path fill="none" stroke="#a60d3f" stroke-width="1" stroke-linecap="butt" stroke-linejoin="round" d="M308.581,354.290C307.549,347.570,303.378,341.967,301.268,335.139"/>
<path fill="none" stroke="#a60d3f" stroke-width="1" stroke-linecap="butt" stroke-linejoin="round" d="M301.268,335.139C298.858,325.781,296.363,315.777,294.194,305.996"/>
<path fill="none" stroke="#a60d3f" stroke-width="1" stroke-linecap="butt" stroke-linejoin="round" d="M294.194,305.996C292.555,297.866,288.513,291.369,290.568,282.524"/>
<path fill="none" stroke="#a60d3f" stroke-width="1" stroke-linecap="butt" stroke-linejoin="round" d="M290.568,282.524C291.177,279.265,298.774,268.434,303.883,269.132"/>
<path fill="#a60d3f" fill-rule="evenodd" stroke="none" d="M303.883,269.132C306.849,269.538,308.663,274.409,309.879,276.979C313.222,285.046,316.664,293.420,319.633,301.872C327.708,324.188,333.857,346.657,339.482,369.306C341.519,378.548,341.571,390.894,345.063,399.144C349.245,408.711,355.498,405.261,358.617,411.521C360.007,414.488,359.454,420.157,361.542,424.774C364.680,432.033,370.413,435.913,373.165,440.517C374.883,443.144,375.607,446.125,371.961,446.864C369.985,447.901,364.643,447.009,362.647,447.048C355.956,445.409,349.268,443.766,342.584,442.119C333.564,440.301,306.261,439.509,301.486,433.614C294.317,424.440,305.074,413.246,306.224,403.906C306.826,400.920,309.359,357.179,308.581,354.290C307.549,347.570,303.378,341.967,301.268,335.139C298.858,325.781,296.363,315.777,294.194,305.996C292.555,297.866,288.513,291.369,290.568,282.524C291.177,279.265,298.774,268.434,303.883,269.132Z"/>
<path fill="none" stroke="#f8a087" stroke-width="1" stroke-linecap="butt" stroke-linejoin="round" d="M312.733,447.036C318.023,445.267,342.077,450.116,346.148,454.029"/>
<path fill="none" stroke="#f8a087" stroke-width="1" stroke-linecap="butt" stroke-linejoin="round" d="M346.148,454.029C353.258,460.211,349.556,474.925,340.972,478.423"/>
<path fill="none" stroke="#f8a087" stroke-width="1" stroke-linecap="butt" stroke-linejoin="round" d="M340.972,478.423C331.058,481.945,315.555,471.938,310.068,463.726"/>
<path fill="none" stroke="#f8a087" stroke-width="1" stroke-linecap="butt" stroke-linejoin="round" d="M310.068,463.726C306.635,458.469,305.129,449.515,312.733,447.036"/>
<path fill="#f8a087" fill-rule="evenodd" stroke="none" d="M312.733,447.036C318.023,445.267,342.077,450.116,346.148,454.029C353.258,460.211,349.556,474.925,340.972,478.423C331.058,481.945,315.555,471.938,310.068,463.726C306.635,458.469,305.129,449.515,312.733,447.036Z"/>
</g>
</svg>
